# Blender v2.78 (sub 0) OBJ File: 'bigrock2.blend'
# www.blender.org
g BigRock2
v -1.814094 0.839794 -0.674066
v 1.642023 1.201347 1.389559
v -1.023504 1.558249 -1.709063
v 0.555370 3.602869 1.140438
v -0.428450 3.760338 -0.372221
v -1.174651 3.163915 -1.112761
v 0.690913 2.578759 -1.948275
v 0.506122 3.748997 0.954088
v 0.330641 3.669173 1.208804
v -0.413048 3.446292 1.063347
v 0.620260 3.170522 1.350256
v 0.864744 4.090852 -0.010744
v 1.020248 4.021347 -0.211297
v 1.356180 1.709597 -1.777955
v -0.263021 2.481319 -2.035558
v -0.811576 2.678553 -1.746218
v -0.524879 1.580114 -1.977421
v -1.579931 2.546526 -0.597520
v -0.138378 1.446413 1.659234
v -1.769870 0.866272 -0.852497
v -1.063911 2.687379 1.091969
v -1.078990 1.996925 1.293973
v 0.980249 1.875377 1.844616
v 1.297757 1.532751 1.631422
v 1.595566 1.065726 1.422417
v 2.296786 1.762680 -0.365728
v 2.317669 1.469054 -0.206295
v 2.249069 0.859137 0.411949
v 1.818278 0.519587 0.223307
v 0.569467 0.675738 -1.752281
v 0.527129 0.360540 -1.473803
v -1.689862 0.336173 -0.504263
v -1.770674 0.384656 -0.414221
v -1.451297 0.014089 0.573299
v -1.105009 0.007077 0.617653
v -0.689071 0.329644 0.933912
v -0.303369 0.584825 1.226602
v 1.010720 0.011693 -0.294658
v 1.642023 1.201347 1.389559
v 1.642023 1.201347 1.389559
v 1.297757 1.532751 1.631422
v 1.297757 1.532751 1.631422
v 1.020248 4.021347 -0.211297
v 1.020248 4.021347 -0.211297
v 0.690913 2.578759 -1.948275
v 0.690913 2.578759 -1.948275
v -0.428450 3.760338 -0.372221
v -0.428450 3.760338 -0.372221
v -1.174651 3.163915 -1.112761
v -1.174651 3.163915 -1.112761
v 0.506122 3.748997 0.954088
v 0.506122 3.748997 0.954088
v 0.555370 3.602869 1.140438
v 0.555370 3.602869 1.140438
v 0.330641 3.669173 1.208804
v 0.330641 3.669173 1.208804
v 0.330641 3.669173 1.208804
v 0.620260 3.170522 1.350256
v 0.620260 3.170522 1.350256
v -0.413048 3.446292 1.063347
v -0.413048 3.446292 1.063347
v -1.063911 2.687379 1.091969
v -1.063911 2.687379 1.091969
v 0.864744 4.090852 -0.010744
v 0.864744 4.090852 -0.010744
v 1.356180 1.709597 -1.777955
v 1.356180 1.709597 -1.777955
v 1.356180 1.709597 -1.777955
v -0.811576 2.678553 -1.746218
v -0.811576 2.678553 -1.746218
v -1.023504 1.558249 -1.709063
v -1.023504 1.558249 -1.709063
v -0.263021 2.481319 -2.035558
v -0.263021 2.481319 -2.035558
v -0.524879 1.580114 -1.977421
v -0.524879 1.580114 -1.977421
v -1.579931 2.546526 -0.597520
v -1.579931 2.546526 -0.597520
v 0.569467 0.675738 -1.752281
v 0.569467 0.675738 -1.752281
v -1.769870 0.866272 -0.852497
v -1.769870 0.866272 -0.852497
v -1.814094 0.839794 -0.674066
v -1.814094 0.839794 -0.674066
v -1.078990 1.996925 1.293973
v -1.078990 1.996925 1.293973
v -0.138378 1.446413 1.659234
v -0.138378 1.446413 1.659234
v 0.980249 1.875377 1.844616
v 0.980249 1.875377 1.844616
v 1.595566 1.065726 1.422417
v 1.595566 1.065726 1.422417
v 1.595566 1.065726 1.422417
v 2.296786 1.762680 -0.365728
v 2.296786 1.762680 -0.365728
v 2.317669 1.469054 -0.206295
v 2.317669 1.469054 -0.206295
v 2.249069 0.859137 0.411949
v 2.249069 0.859137 0.411949
v 2.249069 0.859137 0.411949
v 1.818278 0.519587 0.223307
v 0.527129 0.360540 -1.473803
v 0.527129 0.360540 -1.473803
v -1.689862 0.336173 -0.504263
v -1.689862 0.336173 -0.504263
v -1.689862 0.336173 -0.504263
v -1.770674 0.384656 -0.414221
v -1.770674 0.384656 -0.414221
v -1.451297 0.014089 0.573299
v -1.451297 0.014089 0.573299
v -1.451297 0.014089 0.573299
v -1.451297 0.014089 0.573299
v -1.105009 0.007077 0.617653
v -1.105009 0.007077 0.617653
v -0.689071 0.329644 0.933912
v -0.689071 0.329644 0.933912
v -0.303369 0.584825 1.226602
v -0.303369 0.584825 1.226602
v 1.010720 0.011693 -0.294658
v 1.010720 0.011693 -0.294658
vt 0.5000 0.6240
vt 0.5970 0.5773
vt 0.6209 0.4724
vt 0.5538 0.3883
vt 0.4462 0.3883
vt 0.3791 0.4724
vt 0.4030 0.5773
vt 0.5000 0.6240
vt 0.6179 0.5383
vt 0.5729 0.3997
vt 0.4271 0.3997
vt 0.3821 0.5383
vt 0.3760 0.3760
vt 0.6240 0.3760
vt 0.6240 0.6240
vt 0.5000 0.6240
vt 0.5970 0.5773
vt 0.6209 0.4724
vt 0.5538 0.3883
vt 0.4462 0.3883
vt 0.3791 0.4724
vt 0.4030 0.5773
vt 0.3760 0.3760
vt 0.6240 0.3760
vt 0.6240 0.6240
vt 0.3760 0.6240
vt 0.3760 0.3760
vt 0.6240 0.3760
vt 0.6240 0.6240
vt 0.3760 0.6240
vt 0.3760 0.3760
vt 0.6240 0.3760
vt 0.6240 0.6240
vt 0.3760 0.3760
vt 0.6240 0.3760
vt 0.6240 0.6240
vt 0.5000 0.6240
vt 0.6179 0.5383
vt 0.5729 0.3997
vt 0.4271 0.3997
vt 0.3821 0.5383
vt 0.5000 0.6240
vt 0.6179 0.5383
vt 0.5729 0.3997
vt 0.4271 0.3997
vt 0.3821 0.5383
vt 0.3760 0.3760
vt 0.6240 0.3760
vt 0.6240 0.6240
vt 0.5000 0.6240
vt 0.5970 0.5773
vt 0.6209 0.4724
vt 0.5538 0.3883
vt 0.4462 0.3883
vt 0.3791 0.4724
vt 0.4030 0.5773
vt 0.5000 0.6240
vt 0.6179 0.5383
vt 0.5729 0.3997
vt 0.4271 0.3997
vt 0.3821 0.5383
vt 0.3760 0.3760
vt 0.6240 0.3760
vt 0.6240 0.6240
vt 0.5000 0.6240
vt 0.6074 0.5620
vt 0.6074 0.4380
vt 0.5000 0.3760
vt 0.3926 0.4380
vt 0.3926 0.5620
vt 0.3760 0.3760
vt 0.6240 0.3760
vt 0.6240 0.6240
vt 0.3760 0.3760
vt 0.6240 0.3760
vt 0.6240 0.6240
vt 0.3760 0.6240
vt 0.5000 0.6240
vt 0.6074 0.5620
vt 0.6074 0.4380
vt 0.5000 0.3760
vt 0.3926 0.4380
vt 0.3926 0.5620
vt 0.5000 0.6240
vt 0.5670 0.6043
vt 0.6128 0.5515
vt 0.6227 0.4824
vt 0.5937 0.4188
vt 0.5349 0.3810
vt 0.4651 0.3810
vt 0.4063 0.4188
vt 0.3773 0.4824
vt 0.3872 0.5515
vt 0.4330 0.6043
vt 0.5000 0.6240
vt 0.6179 0.5383
vt 0.5729 0.3997
vt 0.4271 0.3997
vt 0.3821 0.5383
vt 0.3760 0.3760
vt 0.6240 0.3760
vt 0.6240 0.6240
vt 0.5000 0.6240
vt 0.5970 0.5773
vt 0.6209 0.4724
vt 0.5538 0.3883
vt 0.4462 0.3883
vt 0.3791 0.4724
vt 0.4030 0.5773
vt 0.5000 0.6240
vt 0.6179 0.5383
vt 0.5729 0.3997
vt 0.4271 0.3997
vt 0.3821 0.5383
vt 0.5000 0.6240
vt 0.6074 0.5620
vt 0.6074 0.4380
vt 0.5000 0.3760
vt 0.3926 0.4380
vt 0.3926 0.5620
vn -0.0493 0.7901 -0.6110
vn -0.7351 0.6560 0.1711
vn -0.5958 -0.7961 -0.1061
vn 0.6782 -0.5568 -0.4795
vn -0.4604 0.0662 -0.8853
vn -0.8631 -0.3391 -0.3742
vn 0.3820 0.7736 0.5056
vn 0.3787 0.4494 0.8090
vn -0.4093 -0.2891 0.8654
vn -0.0909 -0.9659 -0.2423
vn 0.8171 -0.1447 0.5580
vn -0.2277 0.2544 0.9399
vn 0.1099 -0.1059 -0.9883
vn 0.5755 0.0010 0.8178
vn -0.8345 0.1481 -0.5307
vn 0.8136 -0.2316 -0.5332
vn 0.7320 0.4519 -0.5098
vn -0.3350 -0.5747 -0.7466
vn 0.8008 0.4088 0.4376
vn 0.0317 -0.4449 0.8950
vn -0.1122 -0.6182 0.7780
vn 0.2206 -0.8505 0.4775
vn -0.2922 0.9343 0.2043
vn -0.9493 0.0935 0.3001
s 1
f 45/1/1 73/2/1 69/3/1 49/4/1 47/5/1 64/6/1 43/7/1
f 60/8/2 48/9/2 50/10/2 77/11/2 62/12/2
f 104/13/3 109/14/3 107/15/3
f 102/16/4 80/17/4 67/18/4 96/19/4 99/20/4 101/21/4 119/22/4
f 71/23/5 70/24/5 74/25/5 75/26/5
f 108/27/6 83/28/6 82/29/6 106/30/6
f 55/31/7 53/32/7 51/33/7
f 56/34/8 58/35/8 54/36/8
f 87/37/9 86/38/9 110/39/9 116/40/9 117/41/9
f 103/42/10 120/43/10 114/44/10 111/45/10 105/46/10
f 91/47/11 98/48/11 40/49/11
f 57/50/12 61/51/12 63/52/12 85/53/12 88/54/12 89/55/12 59/56/12
f 15/57/13 46/58/13 66/59/13 79/60/13 76/61/13
f 41/62/14 92/63/14 39/64/14
f 78/65/15 6/66/15 16/67/15 72/68/15 81/69/15 84/70/15
f 68/71/16 94/72/16 97/73/16
f 44/74/17 95/75/17 14/76/17 7/77/17
f 31/78/18 32/79/18 20/80/18 3/81/18 17/82/18 30/83/18
f 2/84/19 100/85/19 27/86/19 26/87/19 13/88/19 65/89/19 52/90/19 4/91/19 11/92/19 90/93/19 42/94/19
f 93/95/20 24/96/20 23/97/20 19/98/20 118/99/20
f 113/100/21 115/101/21 34/102/21
f 35/103/22 38/104/22 29/105/22 28/106/22 25/107/22 37/108/22 36/109/22
f 12/110/23 5/111/23 10/112/23 9/113/23 8/114/23
f 21/115/24 18/116/24 1/117/24 33/118/24 112/119/24 22/120/24
