# Blender v2.79 (sub 0) OBJ File: ''
# www.blender.org
g brush1
v 0.013891 -0.012366 -0.127403
v 0.024283 0.915227 -0.122105
v 0.148331 -0.012366 -0.029727
v 0.090805 0.915227 -0.073773
v 0.096979 -0.012366 0.128317
v 0.065396 0.915227 0.004429
v -0.069197 -0.012366 0.128317
v -0.016830 0.915227 0.004429
v -0.120549 -0.012366 -0.029727
v -0.042240 0.915227 -0.073773
v 0.017362 0.457649 -0.105016
v 0.109508 0.457649 -0.038069
v 0.074311 0.457649 0.070255
v -0.039587 0.457649 0.070255
v -0.074783 0.457649 -0.038069
v 0.003587 0.795054 0.279294
v 0.342377 1.229483 0.351125
v -0.200145 1.295832 0.403604
v -0.455100 0.985461 0.046567
v -0.067901 0.719234 -0.240793
v 0.424065 0.873281 -0.046862
v 0.095683 1.678974 0.146184
v -0.396283 1.524926 -0.047748
v -0.313145 1.163496 -0.454961
v 0.230205 1.094163 -0.512707
v 0.482883 1.412747 -0.141177
v 0.027258 1.592108 -0.393395
vt 0.853125 0.764063
vt 0.853125 0.764063
vt 0.853125 0.764063
vt 0.853125 0.764063
vt 0.853125 0.764063
vt 0.853125 0.764063
vt 0.853125 0.764063
vt 0.853125 0.764063
vt 0.853125 0.764063
vt 0.853125 0.764063
vt 0.853125 0.764063
vt 0.853125 0.764063
vt 0.853125 0.764063
vt 0.853125 0.764063
vt 0.853125 0.764063
vt 0.019370 0.027182
vt 0.293130 0.027182
vt 0.293130 0.300943
vt 0.019370 0.027182
vt 0.293130 0.027182
vt 0.293130 0.300943
vt 0.293130 0.027182
vt 0.293130 0.300943
vt 0.293130 0.027182
vt 0.293130 0.300943
vt 0.293130 0.027182
vt 0.293130 0.027182
vt 0.293130 0.300943
vt 0.019370 0.027182
vt 0.293130 0.300943
vt 0.019370 0.027182
vt 0.293130 0.300943
vt 0.019370 0.027182
vt 0.293130 0.300943
vt 0.019370 0.027182
vt 0.293130 0.300943
vt 0.293130 0.027182
vt 0.293130 0.027182
vt 0.293130 0.027182
vt 0.293130 0.027182
vt 0.293130 0.027182
vt 0.019370 0.027182
vt 0.293130 0.300943
vt 0.019370 0.027182
vt 0.019370 0.027182
vt 0.019370 0.027182
vt 0.019370 0.027182
vn 0.5873 -0.0391 -0.8084
vn 0.9492 0.0629 0.3084
vn -0.0000 0.1424 0.9898
vn 0.0000 1.0000 -0.0000
vn -0.9471 0.0914 0.3077
vn -0.5877 -0.0213 -0.8088
vn 0.0000 -1.0000 -0.0000
vn -0.5872 0.0428 -0.8083
vn -0.9465 0.0976 0.3075
vn -0.0000 0.1226 0.9925
vn 0.9477 0.0837 0.3079
vn 0.5874 0.0342 -0.8085
vn 0.0681 -0.2142 0.9744
vn 0.5739 -0.5482 0.6084
vn -0.5416 -0.4034 0.7375
vn -0.4569 -0.8691 0.1895
vn 0.2595 -0.9601 0.1043
vn 0.9656 -0.0611 0.2528
vn 0.1420 0.4741 0.8689
vn -0.8670 0.1760 0.4661
vn -0.7029 -0.5839 -0.4062
vn 0.4362 -0.7292 -0.5273
vn 0.7042 0.5759 0.4153
vn -0.4394 0.7095 0.5510
vn -0.9659 0.0613 -0.2516
vn -0.1542 -0.4968 -0.8541
vn 0.8772 -0.1739 -0.4475
vn 0.4517 0.8700 -0.1974
vn -0.2523 0.9599 -0.1225
vn -0.5796 0.5471 -0.6039
vn -0.0780 0.2021 -0.9762
vn 0.5595 0.4017 -0.7250
s off
f 11/1/1 2/2/1 4/3/1 12/4/1
f 12/4/2 4/3/2 6/5/2 13/6/2
f 13/6/3 6/5/3 8/7/3 14/8/3
f 4/3/4 2/2/4 10/9/4 8/7/4 6/5/4
f 14/8/5 8/7/5 10/9/5 15/10/5
f 15/10/6 10/9/6 2/2/6 11/1/6
f 1/11/7 3/12/7 5/13/7 7/14/7 9/15/7
f 9/15/8 15/10/8 11/1/8 1/11/8
f 7/14/9 14/8/9 15/10/9 9/15/9
f 5/13/10 13/6/10 14/8/10 7/14/10
f 3/12/11 12/4/11 13/6/11 5/13/11
f 1/11/12 11/1/12 12/4/12 3/12/12
f 16/16/13 17/17/13 18/18/13
f 17/19/14 16/20/14 21/21/14
f 16/16/15 18/22/15 19/23/15
f 16/16/16 19/24/16 20/25/16
f 16/16/17 20/26/17 21/21/17
f 17/19/18 21/27/18 26/28/18
f 18/29/19 17/17/19 22/30/19
f 19/31/20 18/22/20 23/32/20
f 20/33/21 19/24/21 24/34/21
f 21/35/22 20/26/22 25/36/22
f 17/19/23 26/37/23 22/30/23
f 18/29/24 22/38/24 23/32/24
f 19/31/25 23/39/25 24/34/25
f 20/33/26 24/40/26 25/36/26
f 21/35/27 25/41/27 26/28/27
f 22/42/28 26/37/28 27/43/28
f 23/44/29 22/38/29 27/43/29
f 24/45/30 23/39/30 27/43/30
f 25/46/31 24/40/31 27/43/31
f 26/47/32 25/41/32 27/43/32
