# Blender v2.78 (sub 0) OBJ File: 'cactus.blend'
# www.blender.org
g Cactus
v 0.472364 0.005316 -0.482000
v 0.472364 0.005316 0.482000
v -0.491636 0.005316 0.482000
v -0.491636 0.005316 -0.482000
v 0.472364 5.307834 -0.482000
v 0.472364 5.307834 0.482000
v -0.491636 5.307834 0.482000
v -0.491636 5.307834 -0.482000
v 0.580691 0.005316 -0.000000
v -0.009636 0.005316 -0.590327
v 0.580691 3.921593 -0.590327
v -0.009636 0.005316 0.590327
v 0.580691 3.921593 0.590327
v -0.599963 0.005316 -0.000000
v -0.599963 3.921593 0.590327
v -0.599963 3.921593 -0.590327
v 0.580691 5.416161 0.000000
v -0.009636 5.416161 -0.590327
v -0.009636 5.416161 0.590327
v -0.599963 5.416161 -0.000000
v -0.009636 3.921593 -0.834848
v -0.850159 4.024869 -0.000000
v -0.009636 3.921593 0.834848
v 0.833058 4.064370 0.000000
v -0.009636 5.660683 -0.000000
v -0.009636 0.005316 -0.000000
v 0.562876 3.513582 -0.647352
v 0.562876 3.513582 0.647352
v -0.584299 3.513551 0.631361
v -0.584298 3.513551 -0.631361
v -0.009636 3.513514 -0.814615
v -0.009636 3.513514 0.814615
v -0.792136 3.018958 -0.000000
v -0.009636 3.120911 0.788663
v 0.770506 2.979963 0.000000
v 0.560230 3.120911 -0.569866
v 0.560230 3.120911 0.569866
v -0.579502 3.120911 0.569866
v -0.579502 3.120911 -0.569866
v -0.009636 3.120911 -0.788663
v 1.873050 3.810879 -0.371673
v 1.751888 4.015363 -0.334899
v 1.890024 3.808100 0.383979
v 1.767367 4.012829 0.354187
v 1.716968 4.085694 0.010866
v 1.991391 3.613798 -0.329808
v 2.006334 3.611352 0.335395
v 2.040976 3.541893 0.001588
v 2.614279 5.131558 -0.203996
v 2.500727 5.183083 -0.183766
v 2.623195 5.130099 0.192900
v 2.508857 5.181752 0.178169
v 2.464919 5.200471 -0.001837
v 2.724474 5.081820 -0.182889
v 2.732322 5.080536 0.166501
v 2.619305 5.130571 -0.005562
v 2.767760 5.063357 -0.009144
v -1.804793 3.785222 0.476545
v -1.655880 3.992165 0.440624
v -1.753821 3.710484 -0.310462
v -1.608220 3.922284 -0.295232
v -1.717295 4.102809 0.053349
v -1.949123 3.583977 0.447474
v -1.903115 3.516518 -0.262878
v -2.070659 3.579364 0.080172
v -2.712730 5.051490 0.152487
v -2.610166 5.150615 0.138124
v -2.672311 5.010090 -0.284786
v -2.572374 5.111906 -0.270729
v -2.623326 5.219487 -0.077619
v -2.810598 4.955417 0.130868
v -2.774116 4.918050 -0.263814
v -2.752355 5.095190 -0.077778
v -2.868384 4.966857 -0.076353
vt 0.7057 0.0289
vt 0.9735 0.0289
vt 0.9735 0.2968
vt 0.7057 0.2968
vt 0.7057 0.0289
vt 0.9735 0.0289
vt 0.9735 0.2968
vt 0.7057 0.2968
vt 0.7057 0.0289
vt 0.9735 0.0289
vt 0.9735 0.2968
vt 0.7057 0.2968
vt 0.7057 0.0289
vt 0.9735 0.0289
vt 0.7057 0.2968
vt 0.7057 0.0289
vt 0.9735 0.2968
vt 0.7057 0.2968
vt 0.7057 0.0289
vt 0.9735 0.0289
vt 0.9735 0.2968
vt 0.7057 0.2968
vt 0.7057 0.0289
vt 0.9735 0.0289
vt 0.9735 0.2968
vt 0.7057 0.2968
vt 0.7057 0.0289
vt 0.9735 0.0289
vt 0.9735 0.2968
vt 0.7057 0.2968
vt 0.7057 0.0289
vt 0.9735 0.0289
vt 0.9735 0.2968
vt 0.7057 0.2968
vt 0.7057 0.0289
vt 0.9735 0.0289
vt 0.9735 0.2968
vt 0.7057 0.2968
vt 0.9735 0.0289
vt 0.9735 0.2968
vt 0.7057 0.2968
vt 0.7057 0.0289
vt 0.9735 0.0289
vt 0.9735 0.2968
vt 0.7057 0.2968
vt 0.7057 0.0289
vt 0.9735 0.0289
vt 0.9735 0.2968
vt 0.7057 0.2968
vt 0.7057 0.0289
vt 0.9735 0.0289
vt 0.9735 0.2968
vt 0.7057 0.2968
vt 0.7057 0.0289
vt 0.9735 0.0289
vt 0.9735 0.2968
vt 0.7057 0.2968
vt 0.9735 0.0289
vt 0.9735 0.2968
vt 0.7057 0.2968
vt 0.7057 0.0289
vt 0.9735 0.0289
vt 0.9735 0.2968
vt 0.7057 0.2968
vt 0.7057 0.0289
vt 0.9735 0.0289
vt 0.9735 0.2968
vt 0.7057 0.2968
vt 0.7057 0.0289
vt 0.9735 0.0289
vt 0.7057 0.2968
vt 0.9735 0.0289
vt 0.9735 0.2968
vt 0.7057 0.2968
vt 0.9735 0.0289
vt 0.7057 0.2968
vt 0.7057 0.0289
vt 0.9735 0.0289
vt 0.9735 0.2968
vt 0.7057 0.2968
vt 0.7057 0.0289
vt 0.9735 0.0289
vt 0.9735 0.2968
vt 0.7057 0.2968
vt 0.7057 0.0289
vt 0.9735 0.0289
vt 0.9735 0.2968
vt 0.7057 0.2968
vt 0.9735 0.0289
vt 0.9735 0.2968
vt 0.7057 0.2968
vt 0.9735 0.0289
vt 0.9735 0.2968
vt 0.7057 0.2968
vt 0.7057 0.0289
vt 0.9735 0.0289
vt 0.9735 0.2968
vt 0.7057 0.2968
vt 0.7057 0.0289
vt 0.9735 0.0289
vt 0.9735 0.2968
vt 0.7057 0.2968
vt 0.7057 0.0289
vt 0.9735 0.0289
vt 0.9735 0.2968
vt 0.7057 0.2968
vt 0.7057 0.0289
vt 0.9735 0.0289
vt 0.9735 0.2968
vt 0.7057 0.2968
vt 0.9735 0.2968
vt 0.7057 0.2968
vt 0.7057 0.0289
vt 0.9735 0.0289
vt 0.9735 0.2968
vt 0.7057 0.0289
vt 0.9735 0.2968
vt 0.7057 0.0289
vt 0.9735 0.2968
vt 0.7057 0.0289
vt 0.9735 0.0289
vt 0.9735 0.2968
vt 0.7057 0.2968
vt 0.7057 0.0289
vt 0.9735 0.2968
vt 0.7057 0.2968
vt 0.9735 0.0289
vt 0.9735 0.2968
vt 0.7057 0.2968
vt 0.9735 0.2968
vt 0.7057 0.2968
vt 0.7057 0.0289
vt 0.9735 0.2968
vt 0.7057 0.2968
vt 0.7057 0.0289
vt 0.9735 0.0289
vt 0.7057 0.2968
vt 0.7057 0.0289
vt 0.9735 0.0289
vt 0.9735 0.2968
vt 0.7057 0.2968
vt 0.7057 0.0289
vt 0.9735 0.0289
vt 0.9735 0.2968
vt 0.7057 0.2968
vt 0.7057 0.0289
vt 0.9735 0.0289
vt 0.9735 0.2968
vt 0.7057 0.2968
vt 0.7057 0.0289
vt 0.9735 0.0289
vt 0.9735 0.2968
vt 0.7057 0.2968
vt 0.9735 0.2968
vt 0.7057 0.2968
vt 0.9735 0.2968
vt 0.7057 0.2968
vt 0.9735 0.2968
vt 0.7057 0.2968
vt 0.9735 0.2968
vt 0.7057 0.2968
vt 0.7057 0.0289
vt 0.9735 0.0289
vt 0.9735 0.2968
vt 0.7057 0.2968
vt 0.7057 0.0289
vt 0.9735 0.0289
vt 0.7057 0.2968
vt 0.7057 0.0289
vt 0.9735 0.0289
vt 0.9735 0.2968
vt 0.7057 0.2968
vt 0.7057 0.0289
vt 0.9735 0.0289
vt 0.7057 0.0289
vt 0.9735 0.0289
vt 0.7057 0.2968
vt 0.7057 0.0289
vt 0.9735 0.0289
vt 0.9735 0.2968
vt 0.7057 0.0289
vt 0.9735 0.0289
vt 0.9735 0.2968
vt 0.7057 0.2968
vt 0.7057 0.0289
vt 0.9735 0.0289
vt 0.9735 0.2968
vt 0.7057 0.0289
vt 0.9735 0.0289
vt 0.9735 0.2968
vt 0.7057 0.2968
vt 0.7057 0.0289
vt 0.9735 0.0289
vt 0.9735 0.2968
vt 0.7057 0.2968
vt 0.7057 0.0289
vt 0.9735 0.0289
vt 0.9735 0.2968
vt 0.7057 0.2968
vt 0.7057 0.0289
vt 0.9735 0.0289
vt 0.9735 0.2968
vt 0.7057 0.2968
vt 0.7057 0.0289
vt 0.9735 0.0289
vt 0.9735 0.2968
vt 0.7057 0.2968
vt 0.7057 0.0289
vt 0.9735 0.0289
vt 0.9735 0.2968
vt 0.7057 0.2968
vt 0.9735 0.0289
vt 0.9735 0.2968
vt 0.7057 0.2968
vt 0.7057 0.0289
vt 0.9735 0.0289
vt 0.9735 0.2968
vt 0.7057 0.2968
vt 0.7057 0.0289
vt 0.9735 0.0289
vt 0.7057 0.2968
vt 0.7057 0.0289
vt 0.9735 0.0289
vt 0.9735 0.2968
vt 0.7057 0.2968
vt 0.7057 0.0289
vt 0.9735 0.0289
vt 0.9735 0.2968
vt 0.7057 0.0289
vt 0.9735 0.0289
vt 0.9735 0.2968
vt 0.7057 0.2968
vt 0.7057 0.0289
vt 0.9735 0.0289
vt 0.9735 0.2968
vt 0.7057 0.0289
vt 0.9735 0.0289
vt 0.7057 0.2968
vt 0.7057 0.0289
vt 0.9735 0.0289
vt 0.7057 0.2968
vt 0.7057 0.0289
vt 0.9735 0.0289
vt 0.9735 0.2968
vn 0.0000 -1.0000 0.0000
vn -0.3251 0.8881 0.3251
vn 0.9290 0.1360 0.3443
vn -0.3216 0.1270 0.9383
vn -0.9317 0.1334 -0.3378
vn -0.2966 -0.0480 -0.9538
vn -0.3216 0.1270 -0.9383
vn 0.3216 0.1270 -0.9383
vn 0.2966 -0.0480 -0.9538
vn -0.3541 -0.9067 0.2293
vn -0.0146 0.9556 -0.2944
vn -0.9317 0.1334 0.3378
vn -0.3446 0.0173 0.9386
vn 0.3336 0.0352 0.9421
vn 0.3216 0.1270 0.9383
vn 0.2190 -0.1635 0.9619
vn 0.3696 -0.8748 -0.3132
vn 0.9290 0.1360 -0.3443
vn 0.3251 0.8881 0.3251
vn 0.3251 0.8881 -0.3251
vn -0.3251 0.8881 -0.3251
vn -0.0267 0.9760 -0.2160
vn 0.2246 -0.1508 -0.9627
vn 0.3177 -0.1249 0.9399
vn -0.3295 -0.1065 0.9381
vn -0.1386 -0.1174 0.9834
vn -0.3634 -0.9120 -0.1904
vn 0.3336 0.0352 -0.9421
vn -0.3446 0.0173 -0.9386
vn -0.9541 -0.0478 -0.2958
vn -0.9541 -0.0478 0.2958
vn -0.2966 -0.0480 0.9538
vn 0.2966 -0.0480 0.9538
vn 0.9542 -0.0478 0.2954
vn 0.9542 -0.0478 -0.2954
vn 0.3177 -0.1249 -0.9399
vn -0.3295 -0.1065 -0.9381
vn 0.2452 -0.0203 -0.9693
vn 0.8870 -0.4193 0.1933
vn -0.0171 0.1557 0.9877
vn -0.8138 0.5458 -0.1998
vn 0.1676 0.1663 0.9717
vn 0.1790 0.1784 -0.9675
vn -0.0292 0.9753 0.2189
vn 0.3667 -0.8792 0.3041
vn 0.4123 0.9110 -0.0059
vn -0.8039 0.5441 0.2401
vn 0.8774 -0.4177 -0.2360
vn -0.0614 0.1629 -0.9847
vn 0.2885 -0.0274 0.9571
vn -0.0578 0.2079 0.9764
vn -0.8467 -0.4648 0.2588
vn 0.7749 0.6236 -0.1028
vn -0.2677 0.0541 0.9620
vn -0.2676 -0.1120 -0.9570
vn -0.1095 0.1467 0.9831
vn 0.0659 0.9789 0.1932
vn -0.2576 0.1408 -0.9559
vn -0.5932 0.6321 -0.4986
vn -0.6630 0.7035 0.2560
vn -0.7132 0.6580 0.2417
vn -0.6459 0.5892 -0.4854
vn -0.1587 -0.0962 -0.9826
vn 0.7614 0.6410 0.0967
vn 0.0474 0.0560 -0.9973
vn -0.8125 -0.5028 -0.2951
s off
f 26/1/1 12/2/1 3/3/1 14/4/1
f 25/5/2 20/6/2 7/7/2 19/8/2
f 24/9/3 17/10/3 6/11/3 13/12/3
f 23/13/4 19/14/4 7/7/4 15/15/4
f 22/16/5 20/6/5 8/17/5 16/18/5
f 40/19/6 10/20/6 4/21/6 39/22/6
f 18/23/7 21/24/7 16/25/7 8/26/7
f 5/27/8 11/28/8 21/29/8 18/30/8
f 36/31/9 1/32/9 10/33/9 40/34/9
f 33/35/10 38/36/10 63/37/10 65/38/10
f 22/16/11 16/39/11 61/40/11 62/41/11
f 15/42/12 7/43/12 20/44/12 22/45/12
f 32/46/13 23/47/13 15/48/13 29/49/13
f 28/50/14 13/51/14 23/52/14 32/53/14
f 13/54/15 6/55/15 19/56/15 23/57/15
f 28/50/16 37/58/16 47/59/16 43/60/16
f 35/61/17 36/62/17 46/63/17 48/64/17
f 11/65/18 5/66/18 17/67/18 24/68/18
f 17/69/19 25/70/19 19/56/19 6/71/19
f 5/27/20 18/72/20 25/73/20 17/74/20
f 18/23/21 8/75/21 20/44/21 25/76/21
f 10/77/1 26/78/1 14/79/1 4/80/1
f 1/81/1 9/82/1 26/83/1 10/84/1
f 9/85/1 2/86/1 12/87/1 26/88/1
f 11/65/22 24/89/22 45/90/22 42/91/22
f 36/31/23 27/92/23 41/93/23 46/94/23
f 37/95/24 28/96/24 32/97/24 34/98/24
f 34/99/25 32/100/25 29/101/25 38/102/25
f 38/103/26 29/104/26 58/105/26 63/106/26
f 39/107/27 33/108/27 65/109/27 64/110/27
f 11/65/28 27/92/28 31/111/28 21/112/28
f 21/113/29 31/114/29 30/115/29 16/18/29
f 14/116/30 33/108/30 39/117/30 4/80/30
f 3/118/31 38/36/31 33/119/31 14/4/31
f 12/120/32 34/121/32 38/122/32 3/123/32
f 2/124/33 37/58/33 34/125/33 12/126/33
f 9/85/34 35/127/34 37/128/34 2/129/34
f 1/81/35 36/62/35 35/130/35 9/131/35
f 27/132/36 36/62/36 40/133/36 31/134/36
f 31/135/37 40/136/37 39/117/37 30/137/37
f 46/138/38 41/139/38 49/140/38 54/141/38
f 47/142/39 48/143/39 57/144/39 55/145/39
f 44/146/40 43/147/40 51/148/40 52/149/40
f 42/150/41 45/151/41 53/152/41 50/153/41
f 13/54/42 28/96/42 43/154/42 44/155/42
f 27/132/43 11/28/43 42/156/43 41/157/43
f 24/9/44 13/51/44 44/158/44 45/159/44
f 37/95/45 35/127/45 48/160/45 47/161/45
f 56/162/46 53/163/46 52/164/46 51/165/46
f 49/166/46 50/167/46 53/152/46 56/168/46
f 54/169/46 49/170/46 56/171/46 57/172/46
f 57/173/46 56/174/46 51/148/46 55/145/46
f 45/175/47 44/176/47 52/164/47 53/177/47
f 48/178/48 46/179/48 54/180/48 57/172/48
f 41/181/49 42/182/49 50/183/49 49/184/49
f 43/185/50 47/186/50 55/187/50 51/165/50
f 58/188/51 59/189/51 67/190/51 66/191/51
f 65/192/52 63/193/52 71/194/52 74/195/52
f 62/196/53 61/197/53 69/198/53 70/199/53
f 63/200/54 58/201/54 66/202/54 71/203/54
f 30/204/55 39/205/55 64/206/55 60/207/55
f 29/208/56 15/209/56 59/210/56 58/211/56
f 15/42/57 22/212/57 62/213/57 59/214/57
f 16/215/58 30/216/58 60/217/58 61/218/58
f 73/219/59 70/220/59 69/198/59 68/221/59
f 66/222/60 67/223/60 70/224/60 73/225/60
f 71/226/61 66/227/61 73/228/61 74/195/61
f 74/229/62 73/230/62 68/231/62 72/232/62
f 60/233/63 64/234/63 72/235/63 68/221/63
f 59/236/64 62/237/64 70/224/64 67/238/64
f 61/239/65 60/240/65 68/231/65 69/241/65
f 64/242/66 65/243/66 74/244/66 72/232/66
