# Blender v2.78 (sub 0) OBJ File: 'cloud1.blend'
# www.blender.org
g Cloud1
v -0.330505 0.117921 -1.017205
v 0.005083 1.838341 1.253638
v -1.190710 1.838337 0.392232
v -0.740990 1.838338 -1.011222
v 0.124298 2.499353 0.382557
v -0.124298 -0.294493 0.382557
v -0.005083 0.366519 1.253637
v 1.190710 0.366523 0.392232
v 0.588551 -0.243034 0.000000
v -1.193853 0.366522 0.382558
v -0.990476 0.074836 -0.345942
v 0.740990 0.366521 -1.011222
v 1.466628 1.177721 -0.000000
v 0.000000 1.102430 1.404965
v 0.825818 1.102430 1.136641
v -0.825818 1.102430 1.136641
v -0.825818 1.102430 -1.136641
v -1.466628 1.027139 -0.000000
v 0.825818 1.102430 -1.136641
v 0.000000 1.102430 -1.404965
v 1.193853 1.838338 -0.382558
v 0.990476 2.130024 0.345942
v -0.588551 2.447894 -0.000000
v 0.330505 2.086939 -1.017205
v 0.500396 0.724783 -1.080900
v -0.222693 0.557017 -1.076862
v -0.003085 0.724781 -2.609320
v 0.803886 0.724784 -2.028008
v 0.003776 1.718027 -0.917308
v -0.803195 1.718024 -1.498620
v -0.553472 1.563682 -2.518962
v 0.494838 1.718025 -2.449767
v 0.806007 1.718025 -1.505149
v 0.084227 2.164105 -2.021479
v 0.397523 0.313429 -1.763314
v -0.805316 0.724783 -1.505148
v -0.083536 0.278703 -2.021479
v -0.668069 0.527941 -1.996770
v 0.990086 1.272214 -1.763314
v 0.306193 1.272214 -0.822014
v -0.556951 1.221404 -0.996262
v -0.989396 1.170594 -1.763314
v 0.306193 1.272214 -2.704613
v 0.321668 2.129380 -1.529860
v -0.396833 2.129378 -1.763314
v -0.216864 0.474963 1.255632
v -0.001780 1.577610 2.711055
v -0.768185 1.577607 2.158965
v -0.531015 1.431024 1.189915
v 0.760124 1.577608 2.152764
v 0.074627 2.001264 2.152764
v -0.084702 0.210639 2.152764
v -0.008295 0.634294 2.711055
v 0.758109 0.634296 2.158965
v 0.372174 0.243620 1.907577
v -0.770199 0.634295 2.152765
v -0.639851 0.447349 1.685856
v 0.469876 0.634295 1.259467
v 0.934950 1.154207 1.907577
v 0.524244 1.105952 2.636070
v -0.295511 1.057696 2.801558
v -0.945026 1.057696 1.907577
v 0.285436 1.154207 1.013595
v 0.629776 1.764555 1.685857
v -0.382250 1.968283 1.907577
v 0.206788 1.736940 1.255632
vt 0.0000 0.0000
vt 1.0000 0.0000
vt 1.0000 1.0000
vt 1.0000 0.0000
vt 1.0000 1.0000
vt 0.0000 0.0000
vt 1.0000 1.0000
vt 0.0000 0.0000
vt 1.0000 0.0000
vt 1.0000 1.0000
vt 0.0000 0.0000
vt 1.0000 0.0000
vt 1.0000 1.0000
vt 1.0000 0.0000
vt 1.0000 1.0000
vt 0.0000 0.0000
vt 1.0000 0.0000
vt 1.0000 1.0000
vt 0.0000 0.0000
vt 1.0000 0.0000
vt 1.0000 1.0000
vt 0.0000 0.0000
vt 1.0000 0.0000
vt 1.0000 1.0000
vt 0.0000 0.0000
vt 1.0000 0.0000
vt 0.0000 0.0000
vt 1.0000 0.0000
vt 1.0000 0.0000
vt 1.0000 1.0000
vt 0.0000 0.0000
vt 1.0000 0.0000
vt 1.0000 0.0000
vt 0.0000 0.0000
vt 0.0000 0.0000
vt 1.0000 1.0000
vt 0.0000 0.0000
vt 0.0000 0.0000
vt 1.0000 1.0000
vt 0.0000 0.0000
vt 0.0000 0.0000
vt 1.0000 1.0000
vt 1.0000 1.0000
vt 0.0000 0.0000
vt 1.0000 1.0000
vt 1.0000 0.0000
vt 1.0000 0.0000
vt 0.0000 0.0000
vt 1.0000 0.0000
vt 1.0000 1.0000
vt 0.0000 0.0000
vt 1.0000 0.0000
vt 1.0000 0.0000
vt 0.0000 0.0000
vt 1.0000 0.0000
vt 0.0000 0.0000
vt 1.0000 0.0000
vt 1.0000 0.0000
vt 0.0000 0.0000
vt 1.0000 1.0000
vt 1.0000 0.0000
vt 1.0000 1.0000
vt 1.0000 0.0000
vt 1.0000 1.0000
vt 0.0000 0.0000
vt 1.0000 0.0000
vt 1.0000 1.0000
vt 0.0000 0.0000
vt 1.0000 1.0000
vt 1.0000 0.0000
vt 1.0000 1.0000
vt 1.0000 0.0000
vt 1.0000 1.0000
vt 0.0000 0.0000
vt 1.0000 0.0000
vt 1.0000 1.0000
vt 0.0000 0.0000
vt 1.0000 0.0000
vt 1.0000 1.0000
vt 0.0000 0.0000
vt 1.0000 0.0000
vt 1.0000 1.0000
vt 1.0000 0.0000
vt 1.0000 0.0000
vt 1.0000 1.0000
vt 1.0000 0.0000
vt 1.0000 0.0000
vt 0.0000 0.0000
vt 1.0000 0.0000
vt 1.0000 1.0000
vt 0.0000 0.0000
vt 1.0000 0.0000
vt 1.0000 1.0000
vt 0.0000 0.0000
vt 1.0000 0.0000
vt 0.0000 0.0000
vt 1.0000 1.0000
vt 0.0000 0.0000
vt 1.0000 0.0000
vt 0.0000 0.0000
vt 0.0000 0.0000
vt 0.0000 0.0000
vt 1.0000 0.0000
vt 0.0000 0.0000
vt 1.0000 1.0000
vt 1.0000 1.0000
vt 0.0000 0.0000
vt 0.0000 0.0000
vt 0.0000 0.0000
vt 1.0000 1.0000
vt 1.0000 1.0000
vt 0.0000 0.0000
vt 1.0000 1.0000
vt 0.0000 0.0000
vt 1.0000 0.0000
vt 1.0000 0.0000
vt 0.0000 0.0000
vt 0.0000 0.0000
vt 1.0000 0.0000
vt 1.0000 1.0000
vt 1.0000 1.0000
vt 1.0000 1.0000
vt 0.0000 0.0000
vt 1.0000 0.0000
vt 1.0000 1.0000
vt 1.0000 0.0000
vt 1.0000 1.0000
vt 0.0000 0.0000
vt 1.0000 1.0000
vt 0.0000 0.0000
vt 1.0000 0.0000
vt 1.0000 1.0000
vt 1.0000 0.0000
vt 1.0000 1.0000
vt 0.0000 0.0000
vt 1.0000 0.0000
vt 1.0000 1.0000
vt 0.0000 0.0000
vt 1.0000 0.0000
vt 1.0000 1.0000
vt 0.0000 0.0000
vt 1.0000 0.0000
vt 1.0000 1.0000
vt 0.0000 0.0000
vt 1.0000 0.0000
vt 0.0000 0.0000
vt 1.0000 0.0000
vt 0.0000 0.0000
vt 1.0000 0.0000
vt 0.0000 0.0000
vt 0.0000 0.0000
vt 1.0000 1.0000
vt 0.0000 0.0000
vt 1.0000 0.0000
vt 1.0000 1.0000
vt 0.0000 0.0000
vt 1.0000 1.0000
vt 0.0000 0.0000
vt 0.0000 0.0000
vt 1.0000 1.0000
vt 0.0000 0.0000
vt 1.0000 1.0000
vt 1.0000 1.0000
vt 0.0000 0.0000
vt 1.0000 0.0000
vt 1.0000 0.0000
vt 1.0000 1.0000
vt 0.0000 0.0000
vt 1.0000 0.0000
vt 1.0000 0.0000
vt 0.0000 0.0000
vt 1.0000 0.0000
vt 1.0000 0.0000
vt 0.0000 0.0000
vt 1.0000 1.0000
vt 1.0000 0.0000
vt 1.0000 1.0000
vt 1.0000 0.0000
vt 1.0000 1.0000
vn -0.1933 -0.9485 -0.2510
vn -0.0764 -0.9594 -0.2714
vn -0.6401 -0.4015 -0.6551
vn 0.8712 -0.0608 0.4871
vn -0.3034 -0.1899 0.9337
vn -0.2983 -0.2614 -0.9180
vn 0.8619 -0.1801 -0.4740
vn 0.3356 0.7277 0.5982
vn -0.3933 0.7398 0.5459
vn -0.7639 0.5971 -0.2448
vn 0.3759 0.9024 -0.2105
vn 0.4231 0.8757 -0.2325
vn 0.0764 0.9594 -0.2714
vn -0.2004 0.8521 -0.4834
vn -0.3439 0.7701 0.5373
vn 0.8668 0.0721 -0.4934
vn 0.6155 0.3926 -0.6835
vn -0.0962 0.3925 -0.9147
vn -0.3031 0.1940 -0.9330
vn -0.8614 0.4264 -0.2760
vn -0.5162 0.4689 0.7166
vn -0.3031 0.1939 0.9330
vn 0.5205 0.4668 0.7150
vn 0.8383 0.2417 0.4886
vn 0.9031 0.4212 0.0835
vn 0.2983 0.2614 -0.9180
vn 0.3031 -0.1940 -0.9330
vn 0.0962 -0.3925 -0.9147
vn -0.8619 0.1801 -0.4740
vn -0.8383 -0.2417 -0.4886
vn -0.9031 -0.4212 -0.0835
vn -0.8712 0.0608 0.4871
vn -0.8668 -0.0721 0.4934
vn -0.5220 -0.4689 0.7124
vn 0.3034 0.1899 0.9337
vn 0.3031 -0.1939 0.9330
vn 0.5162 -0.4689 0.7166
vn 0.8614 -0.4264 -0.2760
vn 0.2004 -0.8521 -0.4834
vn -0.5161 -0.8351 0.1903
vn -0.4272 -0.6912 0.5829
vn 0.7639 -0.5971 -0.2448
vn 0.3439 -0.7701 0.5373
vn 0.3933 -0.7398 0.5459
vn -0.0764 -0.9594 0.2714
vn 0.7639 -0.5971 0.2448
vn -0.3759 -0.9024 0.2105
vn 0.8614 -0.4264 0.2760
vn 0.0972 -0.3971 0.9126
vn -0.5932 -0.3091 -0.7433
vn 0.5287 -0.4264 -0.7339
vn 0.8090 0.0090 0.5878
vn -0.1818 -0.2080 0.9611
vn -0.2247 -0.0425 -0.9735
vn 0.8090 0.0090 -0.5878
vn 0.4741 0.5971 0.6470
vn -0.7666 0.5801 -0.2754
vn -0.0493 0.6678 -0.7427
vn 0.6391 0.7398 -0.2105
vn 0.5941 0.7701 -0.2325
vn -0.3353 0.7862 -0.5191
vn -0.0271 0.9961 0.0835
vn -0.1598 0.8559 0.4918
vn 0.8240 0.4974 -0.2714
vn 0.8090 -0.0063 -0.5878
vn -0.0167 0.5015 -0.8650
vn -0.8617 0.4262 -0.2754
vn -0.2014 0.0721 0.9768
vn 0.5128 0.4974 0.6998
vn 0.8090 -0.0063 0.5878
vn -0.8019 -0.1959 -0.5645
vn -0.6155 -0.3926 0.6835
vn 0.3933 -0.7398 -0.5459
vn 0.3439 -0.7701 -0.5373
vn -0.3356 -0.7277 -0.5982
vn -0.4231 -0.8757 0.2325
vn 0.2004 -0.8521 0.4834
vn -0.6779 -0.2698 -0.6838
vn -0.2571 -0.1501 -0.9547
vn 0.4272 0.6912 0.5829
vn 0.1933 0.9485 -0.2510
vn -0.2819 0.7952 -0.5369
vn 0.5161 0.8351 0.1903
vn 0.9031 0.4212 -0.0835
vn 0.7947 0.1876 -0.5773
vn 0.6523 0.3641 -0.6647
vn -0.0728 0.3742 -0.9245
vn -0.5287 0.4264 0.7339
vn 0.5220 0.4689 0.7124
vn 0.8668 0.0721 0.4934
vn 0.0972 -0.3971 -0.9126
vn -0.8090 -0.0090 0.5878
vn -0.8090 0.0063 0.5878
vn -0.5128 -0.4974 0.6998
vn 0.1941 0.0608 0.9791
vn 0.2014 -0.0721 0.9768
s off
f 6/1/1 11/2/1 1/3/1
f 6/1/2 1/4/2 9/5/2
f 1/6/3 11/2/3 17/7/3
f 8/8/4 13/9/4 15/10/4
f 7/11/5 14/12/5 16/13/5
f 1/6/6 17/14/6 20/15/6
f 12/16/7 19/17/7 13/18/7
f 2/19/8 22/20/8 5/21/8
f 3/22/9 2/23/9 23/24/9
f 4/25/10 3/26/10 23/24/10
f 22/27/11 24/28/11 5/21/11
f 22/27/12 21/29/12 24/30/12
f 24/31/13 23/32/13 5/21/13
f 24/31/14 4/33/14 23/24/14
f 23/34/15 2/23/15 5/21/15
f 13/35/16 19/17/16 21/36/16
f 19/37/17 24/28/17 21/36/17
f 20/38/18 4/33/18 24/30/18
f 20/38/19 17/14/19 4/39/19
f 18/40/20 3/26/20 4/39/20
f 16/41/21 2/23/21 3/42/21
f 16/41/22 14/12/22 2/43/22
f 15/44/23 22/20/23 2/43/23
f 15/44/24 13/9/24 22/45/24
f 13/35/25 21/29/25 22/45/25
f 19/37/26 20/46/26 24/30/26
f 19/37/27 12/47/27 20/15/27
f 12/16/28 1/4/28 20/15/28
f 17/48/29 18/49/29 4/39/29
f 17/48/30 11/2/30 18/50/30
f 11/51/31 10/52/31 18/50/31
f 18/40/32 16/53/32 3/42/32
f 18/40/33 10/52/33 16/13/33
f 10/54/34 7/55/34 16/13/34
f 14/56/35 15/57/35 2/43/35
f 14/56/36 7/55/36 15/10/36
f 7/11/37 8/58/37 15/10/37
f 8/8/38 12/47/38 13/18/38
f 9/59/39 1/4/39 12/60/39
f 11/51/40 6/61/40 10/62/40
f 6/1/41 7/55/41 10/62/41
f 8/8/42 9/63/42 12/60/42
f 6/1/43 9/63/43 7/64/43
f 9/59/44 8/58/44 7/64/44
f 37/65/45 35/66/45 26/67/45
f 25/68/46 35/66/46 28/69/46
f 37/65/47 26/70/47 38/71/47
f 25/68/48 28/72/48 39/73/48
f 26/74/49 25/75/49 40/76/49
f 27/77/50 38/78/50 31/79/50
f 28/80/51 27/81/51 43/82/51
f 25/68/52 39/83/52 40/76/52
f 26/74/53 40/84/53 41/85/53
f 27/77/54 31/86/54 43/82/54
f 28/80/55 43/87/55 39/73/55
f 29/88/56 33/89/56 44/90/56
f 30/91/9 29/92/9 45/93/9
f 31/94/57 30/95/57 45/93/57
f 32/96/58 31/86/58 34/97/58
f 33/98/59 32/99/59 44/90/59
f 44/100/60 32/99/60 34/97/60
f 34/101/61 31/86/61 45/93/61
f 45/102/62 44/103/62 34/97/62
f 45/102/63 29/92/63 44/90/63
f 39/104/64 32/99/64 33/105/64
f 39/104/65 43/87/65 32/106/65
f 43/107/66 31/86/66 32/106/66
f 42/108/67 30/95/67 31/79/67
f 41/109/21 29/92/21 30/110/21
f 41/109/68 40/84/68 29/111/68
f 40/112/69 33/89/69 29/111/69
f 40/112/70 39/83/70 33/105/70
f 31/94/71 38/78/71 42/113/71
f 38/114/31 36/115/31 42/113/31
f 42/108/32 41/116/32 30/110/32
f 42/108/33 36/115/33 41/85/33
f 36/117/72 26/70/72 41/85/72
f 35/118/73 27/81/73 28/69/73
f 35/118/74 37/119/74 27/120/74
f 37/65/75 38/78/75 27/120/75
f 38/114/76 26/70/76 36/121/76
f 26/74/77 35/66/77 25/122/77
f 52/123/1 57/124/1 46/125/1
f 52/123/2 46/126/2 55/127/2
f 46/128/78 57/124/78 49/129/78
f 54/130/4 59/131/4 60/132/4
f 46/128/79 49/133/79 63/134/79
f 58/135/55 63/136/55 59/137/55
f 47/138/80 50/139/80 51/140/80
f 48/141/9 47/142/9 65/143/9
f 49/144/57 48/145/57 65/143/57
f 64/146/81 66/147/81 51/140/81
f 66/148/13 65/149/13 51/140/13
f 66/148/82 49/133/82 65/143/82
f 65/150/15 47/142/15 51/140/15
f 51/151/83 50/139/83 64/152/83
f 59/153/84 64/154/84 50/155/84
f 59/153/85 63/136/85 64/152/85
f 63/156/86 66/147/86 64/152/86
f 63/156/87 49/133/87 66/157/87
f 62/158/67 48/145/67 49/129/67
f 61/159/88 47/142/88 48/160/88
f 60/161/89 50/139/89 47/162/89
f 60/161/90 59/131/90 50/155/90
f 58/135/91 46/126/91 63/134/91
f 49/144/71 57/124/71 62/163/71
f 57/164/31 56/165/31 62/163/31
f 62/158/92 61/166/92 48/160/92
f 62/158/93 56/165/93 61/167/93
f 56/168/94 53/169/94 61/167/94
f 61/159/95 60/170/95 47/162/95
f 61/159/96 53/169/96 60/132/96
f 53/171/37 54/172/37 60/132/37
f 54/130/38 58/173/38 59/137/38
f 55/174/39 46/126/39 58/175/39
f 57/164/40 52/176/40 56/177/40
f 52/123/41 53/169/41 56/177/41
f 54/130/42 55/178/42 58/175/42
f 52/123/43 55/178/43 53/179/43
f 55/174/44 54/172/44 53/179/44
