# Blender v2.78 (sub 0) OBJ File: 'fencedoor.blend'
# www.blender.org
g FenceDoor
v -2.195357 1.575793 0.266616
v -2.195357 2.249014 0.266616
v -2.195357 1.575793 0.098009
v -2.195357 2.249014 0.098009
v 2.195357 1.575793 0.266616
v 2.195357 2.249014 0.266616
v 2.195357 1.575793 0.098009
v 2.195357 2.249014 0.098009
v 0.000000 1.604679 0.105243
v 0.000000 2.220128 0.105243
v 0.000000 1.604679 0.259381
v 0.000000 2.220128 0.259381
v -2.195357 0.355315 0.266616
v -2.195357 1.028535 0.266616
v -2.195357 0.355315 0.098009
v -2.195357 1.028535 0.098009
v 2.195357 0.355315 0.266616
v 2.195357 1.028535 0.266616
v 2.195357 0.355315 0.098009
v 2.195357 1.028535 0.098009
v 0.000000 0.384200 0.105243
v 0.000000 0.999649 0.105243
v 0.000000 0.384200 0.259381
v 0.000000 0.999649 0.259381
v 2.221009 0.018297 -0.099356
v 2.221009 0.018297 0.099356
v 1.448696 0.018297 0.099356
v 1.448696 0.018297 -0.099356
v 2.221010 2.514560 -0.099356
v 2.221009 2.514560 0.099356
v 1.448696 2.514560 0.099356
v 1.448696 2.514560 -0.099356
v 1.834853 0.018297 -0.099356
v 1.834853 0.018297 0.099356
v 1.834853 3.131705 -0.099356
v 1.834853 3.131705 0.099356
v 1.303583 0.016637 -0.099356
v 1.303583 0.016637 0.099356
v 0.531270 0.016637 0.099356
v 0.531270 0.016637 -0.099356
v 1.303583 3.076173 -0.099356
v 1.303583 3.076173 0.099356
v 0.531270 3.076173 0.099356
v 0.531270 3.076173 -0.099356
v 0.917427 0.016637 -0.099356
v 0.917427 0.016637 0.099356
v 0.917427 3.832576 -0.099356
v 0.917426 3.832576 0.099356
v 0.386157 0.015302 -0.099356
v 0.386157 0.015302 0.099356
v -0.386157 0.015302 0.099356
v -0.386156 0.015302 -0.099356
v 0.386157 3.382771 -0.099356
v 0.386156 3.382771 0.099356
v -0.386157 3.382771 0.099356
v -0.386157 3.382771 -0.099356
v -2.221009 0.018297 -0.099356
v -2.221009 0.018297 0.099356
v -1.448696 0.018297 0.099356
v -1.448696 0.018297 -0.099356
v -2.221010 2.514560 -0.099356
v -2.221009 2.514560 0.099356
v -1.448696 2.514560 0.099356
v -1.448696 2.514560 -0.099356
v -1.834853 0.018297 -0.099356
v -1.834853 0.018297 0.099356
v -1.834853 3.131705 -0.099356
v -1.834852 3.131705 0.099356
v -1.303583 0.016637 -0.099356
v -1.303583 0.016637 0.099356
v -0.531270 0.016637 0.099356
v -0.531270 0.016637 -0.099356
v -1.303583 3.076173 -0.099356
v -1.303583 3.076173 0.099356
v -0.531270 3.076173 0.099356
v -0.531270 3.076173 -0.099356
v -0.917426 0.016637 -0.099356
v -0.917426 0.016637 0.099356
v -0.917426 3.832576 -0.099356
v -0.917426 3.832576 0.099356
v -0.386156 0.015302 -0.099356
v -0.386156 0.015302 0.099356
v 0.386157 0.015302 0.099356
v 0.386157 0.015302 -0.099356
v -0.386157 3.382771 -0.099356
v -0.386156 3.382771 0.099356
v 0.386157 3.382771 0.099356
v 0.386157 3.382771 -0.099356
v 0.000000 0.015302 -0.099356
v 0.000000 0.015302 0.099356
v 0.000000 4.215302 -0.099356
v 0.000000 4.215302 0.099356
vt 0.6897 0.6922
vt 0.9796 0.6922
vt 0.9796 0.9821
vt 0.6897 0.9821
vt 0.6897 0.6922
vt 0.9796 0.6922
vt 0.9796 0.9821
vt 0.6897 0.9821
vt 0.6897 0.6922
vt 0.9796 0.6922
vt 0.9796 0.9821
vt 0.6897 0.9821
vt 0.6897 0.6922
vt 0.9796 0.6922
vt 0.9796 0.9821
vt 0.6897 0.9821
vt 0.9796 0.6922
vt 0.9796 0.9821
vt 0.6897 0.9821
vt 0.6897 0.6922
vt 0.9796 0.6922
vt 0.6897 0.9821
vt 0.6897 0.6922
vt 0.9796 0.9821
vt 0.6897 0.9821
vt 0.6897 0.6922
vt 0.9796 0.6922
vt 0.9796 0.9821
vt 0.6897 0.6922
vt 0.9796 0.6922
vt 0.9796 0.9821
vt 0.6897 0.9821
vt 0.6897 0.6922
vt 0.9796 0.6922
vt 0.9796 0.9821
vt 0.6897 0.9821
vt 0.6897 0.6922
vt 0.9796 0.6922
vt 0.9796 0.9821
vt 0.6897 0.9821
vt 0.6897 0.6922
vt 0.9796 0.6922
vt 0.9796 0.9821
vt 0.6897 0.9821
vt 0.6897 0.6922
vt 0.9796 0.6922
vt 0.9796 0.9821
vt 0.6897 0.9821
vt 0.9796 0.6922
vt 0.9796 0.9821
vt 0.6897 0.9821
vt 0.6897 0.6922
vt 0.9796 0.6922
vt 0.6897 0.9821
vt 0.6897 0.6922
vt 0.9796 0.9821
vt 0.6897 0.9821
vt 0.6897 0.6922
vt 0.9796 0.6922
vt 0.9796 0.9821
vt 0.6897 0.6922
vt 0.9796 0.6922
vt 0.9796 0.9821
vt 0.6897 0.9821
vt 0.3501 0.6873
vt 0.6400 0.6873
vt 0.6400 0.9772
vt 0.3501 0.9772
vt 0.3501 0.6873
vt 0.6400 0.6873
vt 0.6400 0.9772
vt 0.3501 0.9772
vt 0.3501 0.6873
vt 0.6400 0.6873
vt 0.6400 0.9772
vt 0.3501 0.9772
vt 0.3501 0.6873
vt 0.6400 0.6873
vt 0.3501 0.9772
vt 0.3501 0.6873
vt 0.6400 0.6873
vt 0.6400 0.9772
vt 0.6400 0.6873
vt 0.6400 0.9772
vt 0.3501 0.9772
vt 0.3501 0.6873
vt 0.6400 0.6873
vt 0.6400 0.9772
vt 0.3501 0.9772
vt 0.3501 0.6873
vt 0.6400 0.6873
vt 0.6400 0.9772
vt 0.3501 0.9772
vt 0.6400 0.6873
vt 0.3501 0.9772
vt 0.6400 0.6873
vt 0.6400 0.9772
vt 0.3501 0.9772
vt 0.3501 0.6873
vt 0.6400 0.6873
vt 0.6400 0.9772
vt 0.3501 0.9772
vt 0.3501 0.6873
vt 0.6400 0.6873
vt 0.6400 0.9772
vt 0.3501 0.9772
vt 0.3501 0.6873
vt 0.6400 0.6873
vt 0.6400 0.9772
vt 0.3501 0.9772
vt 0.3501 0.6873
vt 0.6400 0.6873
vt 0.3501 0.9772
vt 0.3501 0.6873
vt 0.6400 0.6873
vt 0.6400 0.9772
vt 0.6400 0.6873
vt 0.6400 0.9772
vt 0.3501 0.9772
vt 0.3501 0.6873
vt 0.6400 0.6873
vt 0.6400 0.9772
vt 0.3501 0.9772
vt 0.3501 0.6873
vt 0.6400 0.6873
vt 0.6400 0.9772
vt 0.3501 0.9772
vt 0.6400 0.6873
vt 0.3501 0.9772
vt 0.6400 0.6873
vt 0.6400 0.9772
vt 0.3501 0.9772
vt 0.5709 0.6920
vt 0.6220 0.6873
vt 0.6184 0.6922
vt 0.5746 0.6953
vt 0.5675 0.9633
vt 0.5722 0.9021
vt 0.6318 0.8999
vt 0.6400 0.9633
vt 0.4010 0.6922
vt 0.4145 0.8999
vt 0.3549 0.9021
vt 0.3572 0.6953
vt 0.4047 0.6873
vt 0.4226 0.9633
vt 0.3502 0.9633
vt 0.3536 0.6920
vt 0.3501 0.6873
vt 0.6400 0.6873
vt 0.6400 0.9772
vt 0.3501 0.9772
vt 0.3501 0.6873
vt 0.6400 0.6873
vt 0.6400 0.9772
vt 0.3501 0.9772
vt 0.3501 0.6873
vt 0.6400 0.6873
vt 0.6400 0.9772
vt 0.3501 0.9772
vt 0.3501 0.6873
vt 0.6400 0.6873
vt 0.3501 0.9772
vt 0.3501 0.6873
vt 0.6400 0.9772
vt 0.3501 0.9772
vt 0.6400 0.6873
vt 0.6400 0.9772
vt 0.3501 0.9772
vt 0.3501 0.6873
vt 0.6400 0.6873
vt 0.6400 0.9772
vt 0.3501 0.9772
vt 0.3501 0.6873
vt 0.6400 0.6873
vt 0.6400 0.9772
vt 0.3501 0.9772
vt 0.6400 0.6873
vt 0.3501 0.9772
vt 0.6400 0.6873
vt 0.6400 0.9772
vt 0.3501 0.9772
vt 0.3501 0.6873
vt 0.6400 0.6873
vt 0.6400 0.9772
vt 0.3501 0.9772
vt 0.3501 0.6873
vt 0.6400 0.6873
vt 0.6400 0.9772
vt 0.3501 0.9772
vt 0.3501 0.6873
vt 0.6400 0.6873
vt 0.6400 0.9772
vt 0.3501 0.9772
vt 0.3501 0.6873
vt 0.6400 0.6873
vt 0.3501 0.9772
vt 0.3501 0.6873
vt 0.6400 0.9772
vt 0.3501 0.9772
vt 0.6400 0.6873
vt 0.6400 0.9772
vt 0.3501 0.9772
vt 0.3501 0.6873
vt 0.6400 0.6873
vt 0.6400 0.9772
vt 0.3501 0.9772
vt 0.3501 0.6873
vt 0.6400 0.6873
vt 0.6400 0.9772
vt 0.3501 0.9772
vt 0.6400 0.6873
vt 0.3501 0.9772
vt 0.6400 0.6873
vt 0.6400 0.9772
vt 0.3501 0.9772
vt 0.5464 0.6887
vt 0.5430 0.6922
vt 0.4991 0.6920
vt 0.4951 0.6873
vt 0.5674 0.9592
vt 0.4951 0.9639
vt 0.4991 0.9000
vt 0.5588 0.8984
vt 0.4267 0.6920
vt 0.4706 0.6922
vt 0.4864 0.8984
vt 0.4267 0.9000
vt 0.4227 0.9639
vt 0.4227 0.6873
vt 0.4740 0.6887
vt 0.4950 0.9592
vn -1.0000 0.0000 0.0000
vn -0.0033 0.0000 -1.0000
vn 1.0000 0.0000 0.0000
vn 0.0033 0.0000 1.0000
vn -0.0132 -0.9999 0.0000
vn 0.0132 0.9999 0.0000
vn -0.0132 0.9999 0.0000
vn 0.0132 -0.9999 0.0000
vn -0.0033 0.0000 1.0000
vn 0.0033 0.0000 -1.0000
vn 0.0000 -1.0000 0.0000
vn -0.8477 0.5304 0.0000
vn -0.0000 -0.0000 1.0000
vn 0.0000 0.0000 -1.0000
vn 0.8477 0.5304 0.0000
vn -0.8906 0.4547 -0.0000
vn 0.8906 0.4547 0.0000
vn -0.9072 0.4208 -0.0000
vn 0.9072 0.4208 0.0000
s off
f 1/1/1 2/2/1 4/3/1 3/4/1
f 9/5/2 10/6/2 8/7/2 7/8/2
f 7/9/3 8/10/3 6/11/3 5/12/3
f 11/13/4 12/14/4 2/15/4 1/16/4
f 9/5/5 7/17/5 5/18/5 11/19/5
f 10/20/6 4/21/6 2/15/6 12/22/6
f 8/23/7 10/6/7 12/24/7 6/25/7
f 3/26/8 9/27/8 11/28/8 1/16/8
f 5/29/9 6/30/9 12/24/9 11/19/9
f 3/26/10 4/21/10 10/31/10 9/32/10
f 13/33/1 14/34/1 16/35/1 15/36/1
f 21/37/2 22/38/2 20/39/2 19/40/2
f 19/41/3 20/42/3 18/43/3 17/44/3
f 23/45/4 24/46/4 14/47/4 13/48/4
f 21/37/5 19/49/5 17/50/5 23/51/5
f 22/52/6 16/53/6 14/47/6 24/54/6
f 20/55/7 22/38/7 24/56/7 18/57/7
f 15/58/8 21/59/8 23/60/8 13/48/8
f 17/61/9 18/62/9 24/56/9 23/51/9
f 15/58/10 16/53/10 22/63/10 21/64/10
f 33/65/11 34/66/11 27/67/11 28/68/11
f 35/69/12 32/70/12 31/71/12 36/72/12
f 25/73/3 29/74/3 30/75/3 26/76/3
f 34/77/13 36/78/13 31/71/13 27/79/13
f 27/80/1 31/81/1 32/82/1 28/68/1
f 35/69/14 33/83/14 28/84/14 32/85/14
f 29/86/14 25/87/14 33/88/14 35/89/14
f 26/90/13 30/91/13 36/92/13 34/93/13
f 29/86/15 35/94/15 36/92/15 30/95/15
f 25/73/11 26/96/11 34/97/11 33/98/11
f 45/99/11 46/100/11 39/101/11 40/102/11
f 47/103/16 44/104/16 43/105/16 48/106/16
f 37/107/3 41/108/3 42/109/3 38/110/3
f 46/111/13 48/112/13 43/105/13 39/113/13
f 39/114/1 43/115/1 44/116/1 40/102/1
f 47/103/14 45/117/14 40/118/14 44/119/14
f 41/120/14 37/121/14 45/122/14 47/123/14
f 38/124/13 42/125/13 48/126/13 46/127/13
f 41/120/17 47/128/17 48/126/17 42/129/17
f 37/107/11 38/130/11 46/131/11 45/132/11
f 89/133/11 90/134/11 51/135/11 52/136/11
f 91/137/18 56/138/18 55/139/18 92/140/18
f 49/141/3 53/142/3 54/143/3 50/144/3
f 90/134/13 92/140/13 55/139/13 51/135/13
f 51/135/1 55/139/1 56/138/1 52/136/1
f 91/137/14 89/133/14 52/136/14 56/138/14
f 53/142/14 49/141/14 89/145/14 91/146/14
f 50/144/13 54/143/13 92/147/13 90/148/13
f 53/142/19 91/146/19 92/147/19 54/143/19
f 49/141/11 50/144/11 90/148/11 89/145/11
f 65/149/11 60/150/11 59/151/11 66/152/11
f 67/153/15 68/154/15 63/155/15 64/156/15
f 57/157/1 58/158/1 62/159/1 61/160/1
f 66/161/13 59/162/13 63/155/13 68/163/13
f 59/164/3 60/150/3 64/165/3 63/166/3
f 67/153/14 64/167/14 60/168/14 65/169/14
f 61/170/14 67/171/14 65/172/14 57/173/14
f 58/174/13 66/175/13 68/176/13 62/177/13
f 61/170/12 62/178/12 68/176/12 67/179/12
f 57/157/11 65/180/11 66/181/11 58/182/11
f 77/183/11 72/184/11 71/185/11 78/186/11
f 79/187/17 80/188/17 75/189/17 76/190/17
f 69/191/1 70/192/1 74/193/1 73/194/1
f 78/195/13 71/196/13 75/189/13 80/197/13
f 71/198/3 72/184/3 76/199/3 75/200/3
f 79/187/14 76/201/14 72/202/14 77/203/14
f 73/204/14 79/205/14 77/206/14 69/207/14
f 70/208/13 78/209/13 80/210/13 74/211/13
f 73/204/16 74/212/16 80/210/16 79/213/16
f 69/191/11 77/214/11 78/215/11 70/216/11
f 89/217/11 84/218/11 83/219/11 90/220/11
f 91/221/19 92/222/19 87/223/19 88/224/19
f 81/225/1 82/226/1 86/227/1 85/228/1
f 90/220/13 83/219/13 87/223/13 92/222/13
f 83/219/3 84/218/3 88/224/3 87/223/3
f 91/221/14 88/224/14 84/218/14 89/217/14
f 85/228/14 91/229/14 89/230/14 81/225/14
f 82/226/13 90/231/13 92/232/13 86/227/13
f 85/228/18 86/227/18 92/232/18 91/229/18
f 81/225/11 89/230/11 90/231/11 82/226/11
