# Blender v2.79 (sub 0) OBJ File: 'untitled.blend'
# www.blender.org
g frogplant
v -0.208272 0.006342 -0.071269
v -0.208272 -0.006342 -0.071269
v 0.187139 0.006342 -0.071269
v 0.187139 -0.006342 -0.071269
v 0.200330 -0.006800 -0.033417
v 0.200330 0.006801 -0.033417
v -0.193946 -0.006800 -0.033417
v -0.193946 0.006801 -0.033417
v -0.139544 -0.006893 0.000831
v -0.139544 0.006893 0.000831
v 0.204764 -0.006893 0.000831
v 0.204764 0.006893 0.000831
v -0.204116 0.005779 -0.110869
v -0.204116 -0.005779 -0.110869
v 0.170945 0.005779 -0.110869
v 0.170945 -0.005779 -0.110869
v -0.180134 0.004548 -0.149103
v -0.180134 -0.004547 -0.149103
v 0.135498 0.004548 -0.149103
v 0.135498 -0.004547 -0.149103
v -0.132377 0.002370 -0.186345
v -0.132377 -0.002370 -0.186345
v 0.072837 0.002370 -0.186345
v 0.072837 -0.002370 -0.186345
v -0.055185 0.001122 -0.207200
v -0.055185 -0.001122 -0.207200
v 0.036919 0.001122 -0.197766
v 0.036919 -0.001122 -0.197766
v -0.208272 0.006342 0.072613
v -0.208272 -0.006342 0.072613
v 0.187139 0.006342 0.072613
v 0.187139 -0.006342 0.072613
v 0.200330 -0.006800 0.034760
v 0.200330 0.006801 0.034760
v -0.193946 -0.006800 0.034760
v -0.193946 0.006801 0.034760
v -0.139544 -0.006893 0.000512
v -0.139544 0.006893 0.000512
v 0.204764 -0.006893 0.000512
v 0.204764 0.006893 0.000512
v -0.204116 0.005779 0.112212
v -0.204116 -0.005779 0.112212
v 0.170945 0.005779 0.112212
v 0.170945 -0.005779 0.112212
v -0.180134 0.004548 0.150447
v -0.180134 -0.004547 0.150447
v 0.135498 0.004548 0.150447
v 0.135498 -0.004547 0.150447
v -0.132377 0.002370 0.187688
v -0.132377 -0.002370 0.187688
v 0.072837 0.002370 0.187688
v 0.072837 -0.002370 0.187688
v -0.055185 0.001122 0.208543
v -0.055185 -0.001122 0.208543
v 0.036919 0.001122 0.199109
v 0.036919 -0.001122 0.199109
vt 0.098924 0.092705
vt 0.295620 0.096406
vt 0.303046 0.096476
vt 0.117863 0.095100
vt 0.270544 0.091588
vt 0.270544 0.103577
vt 0.297012 0.097268
vt 0.095642 0.101402
vt 0.117188 0.099751
vt 0.310246 0.097173
vt 0.083005 0.083449
vt 0.067879 0.106657
vt 0.134500 0.098888
vt 0.134578 0.096083
vt 0.155122 0.096764
vt 0.155137 0.098247
vt 0.294572 0.096655
vt 0.295994 0.098358
vt 0.182163 0.098419
vt 0.182155 0.096643
vt 0.279606 0.098291
vt 0.279333 0.096913
vt 0.258149 0.098343
vt 0.258183 0.096822
vt 0.229463 0.096158
vt 0.229485 0.098962
vt 0.195577 0.097235
vt 0.195634 0.097846
vt 0.098289 0.074861
vt 0.117315 0.073290
vt 0.302384 0.079945
vt 0.294961 0.079692
vt 0.269701 0.083419
vt 0.296390 0.078892
vt 0.270221 0.071441
vt 0.309607 0.079561
vt 0.116842 0.068614
vt 0.095388 0.066030
vt 0.081985 0.083419
vt 0.067879 0.059576
vt 0.134100 0.070227
vt 0.154691 0.071761
vt 0.154611 0.073243
vt 0.134057 0.073032
vt 0.293925 0.079399
vt 0.295420 0.077758
vt 0.181613 0.074535
vt 0.181699 0.072762
vt 0.279044 0.077115
vt 0.278712 0.078480
vt 0.257610 0.076133
vt 0.228999 0.074271
vt 0.228856 0.077071
vt 0.257578 0.077654
vt 0.195132 0.073919
vt 0.195049 0.074526
vn -0.0000 -0.9999 -0.0121
vn -0.5327 0.0000 0.8463
vn -0.0000 0.9999 -0.0121
vn 0.9443 0.0000 -0.3291
vn -0.0000 -1.0000 -0.0027
vn -0.9353 0.0000 0.3540
vn -0.0000 1.0000 -0.0027
vn 0.7333 0.0000 -0.6799
vn 0.9917 -0.0000 -0.1284
vn -0.0000 -0.9999 -0.0142
vn -0.9945 0.0000 -0.1044
vn 0.9256 0.0000 -0.3785
vn -0.0000 0.9999 -0.0142
vn 0.5109 0.0000 -0.8596
vn 0.0000 0.9995 -0.0322
vn -0.8472 0.0000 -0.5314
vn 0.0000 -0.9995 -0.0322
vn -0.2608 0.0000 -0.9654
vn 0.0000 0.9983 -0.0584
vn -0.6149 0.0000 -0.7886
vn 0.0000 -0.9983 -0.0584
vn 0.1019 0.0000 -0.9948
vn 0.0024 -0.9972 -0.0741
vn 0.3030 0.0000 -0.9530
vn 0.0024 0.9972 -0.0741
vn 0.0000 -0.9999 0.0121
vn -0.5327 -0.0000 -0.8463
vn 0.0000 0.9999 0.0121
vn 0.9443 0.0000 0.3291
vn 0.0000 -1.0000 0.0027
vn -0.9353 0.0000 -0.3540
vn 0.0000 1.0000 0.0027
vn 0.7333 0.0000 0.6799
vn 0.9917 0.0000 0.1284
vn 0.0000 -0.9999 0.0142
vn -0.9945 0.0000 0.1044
vn 0.9256 0.0000 0.3785
vn 0.0000 0.9999 0.0142
vn 0.5109 0.0000 0.8596
vn 0.0000 0.9995 0.0322
vn -0.8472 0.0000 0.5314
vn 0.0000 -0.9995 0.0322
vn -0.2608 0.0000 0.9654
vn 0.0000 0.9983 0.0584
vn -0.6149 0.0000 0.7886
vn 0.0000 -0.9983 0.0584
vn 0.1019 0.0000 0.9948
vn 0.0024 -0.9972 0.0741
vn 0.3030 0.0000 0.9530
vn 0.0024 0.9972 0.0741
s off
f 5/1/1 7/2/1 2/3/1 4/4/1
f 9/5/2 10/6/2 8/7/2 7/2/2
f 8/7/3 6/8/3 3/9/3 1/10/3
f 6/8/4 5/1/4 4/4/4 3/9/4
f 9/5/5 7/2/5 5/1/5 11/11/5
f 7/2/6 8/7/6 1/10/6 2/3/6
f 8/7/7 10/6/7 12/12/7 6/8/7
f 15/13/8 16/14/8 20/15/8 19/16/8
f 5/1/9 6/8/9 12/12/9 11/11/9
f 4/4/10 2/3/10 14/17/10 16/14/10
f 2/3/11 1/10/11 13/18/11 14/17/11
f 3/9/12 4/4/12 16/14/12 15/13/12
f 1/10/13 3/9/13 15/13/13 13/18/13
f 19/16/14 20/15/14 24/19/14 23/20/14
f 13/18/15 15/13/15 19/16/15 17/21/15
f 14/17/16 13/18/16 17/21/16 18/22/16
f 16/14/17 14/17/17 18/22/17 20/15/17
f 22/23/18 21/24/18 25/25/18 26/26/18
f 17/21/19 19/16/19 23/20/19 21/24/19
f 18/22/20 17/21/20 21/24/20 22/23/20
f 20/15/21 18/22/21 22/23/21 24/19/21
f 26/26/22 25/25/22 27/27/22 28/28/22
f 24/19/23 22/23/23 26/26/23 28/28/23
f 23/20/24 24/19/24 28/28/24 27/27/24
f 21/24/25 23/20/25 27/27/25 25/25/25
f 33/29/26 32/30/26 30/31/26 35/32/26
f 37/33/27 35/32/27 36/34/27 38/35/27
f 36/34/28 29/36/28 31/37/28 34/38/28
f 34/38/29 31/37/29 32/30/29 33/29/29
f 37/33/30 39/39/30 33/29/30 35/32/30
f 35/32/31 30/31/31 29/36/31 36/34/31
f 36/34/32 34/38/32 40/40/32 38/35/32
f 43/41/33 47/42/33 48/43/33 44/44/33
f 33/29/34 39/39/34 40/40/34 34/38/34
f 32/30/35 44/44/35 42/45/35 30/31/35
f 30/31/36 42/45/36 41/46/36 29/36/36
f 31/37/37 43/41/37 44/44/37 32/30/37
f 29/36/38 41/46/38 43/41/38 31/37/38
f 47/42/39 51/47/39 52/48/39 48/43/39
f 41/46/40 45/49/40 47/42/40 43/41/40
f 42/45/41 46/50/41 45/49/41 41/46/41
f 44/44/42 48/43/42 46/50/42 42/45/42
f 50/51/43 54/52/43 53/53/43 49/54/43
f 45/49/44 49/54/44 51/47/44 47/42/44
f 46/50/45 50/51/45 49/54/45 45/49/45
f 48/43/46 52/48/46 50/51/46 46/50/46
f 54/52/47 56/55/47 55/56/47 53/53/47
f 52/48/48 56/55/48 54/52/48 50/51/48
f 51/47/49 55/56/49 56/55/49 52/48/49
f 49/54/50 53/53/50 55/56/50 51/47/50
