# Blender v2.79 (sub 0) OBJ File: 'untitled.blend'
# www.blender.org
g frustum2
v -0.135920 -0.000559 0.392680
v -0.213747 0.066570 0.392680
v -0.038872 0.055472 0.392680
v -0.213747 0.156436 0.392680
v -0.038872 0.167535 0.392680
v -0.135920 0.201369 0.392680
v -0.135920 0.223566 0.392680
v -0.058094 0.156436 0.392680
v -0.232969 0.167535 0.392680
v -0.058094 0.066570 0.392680
v -0.232969 0.055472 0.392680
v -0.135920 0.021637 0.392680
v -0.213747 0.156436 0.371531
v -0.213747 0.066570 0.371531
v -0.058094 0.156436 0.371531
v -0.135920 0.201369 0.371531
v -0.135920 0.021637 0.371531
v -0.058094 0.066570 0.371531
v -0.135920 -0.000559 -0.376366
v -0.213747 0.066570 -0.376366
v -0.038872 0.055472 -0.376366
v -0.213747 0.156436 -0.376366
v -0.038872 0.167535 -0.376366
v -0.135920 0.201369 -0.376366
v -0.135920 0.223566 -0.376366
v -0.058094 0.156436 -0.376366
v -0.232969 0.167535 -0.376366
v -0.058094 0.066570 -0.376366
v -0.232969 0.055472 -0.376366
v -0.135920 0.021638 -0.376366
v -0.135920 -0.000559 0.008157
v -0.038872 0.055472 0.008157
v -0.038872 0.167535 0.008157
v -0.135920 0.223566 0.008157
v -0.232969 0.167535 0.008157
v -0.232969 0.055472 0.008157
v -0.213747 0.156436 -0.355217
v -0.213747 0.066570 -0.355217
v -0.058094 0.156436 -0.355217
v -0.135920 0.201369 -0.355217
v -0.135920 0.021638 -0.355217
v -0.058094 0.066570 -0.355217
v -0.131274 0.289879 -0.340755
v -0.197116 0.244946 -0.299261
v -0.197116 0.424678 -0.299261
v -0.131274 0.379745 -0.340755
v -0.262958 0.289879 -0.257767
v -0.262958 0.379745 -0.257767
v -0.085482 0.278781 0.059900
v -0.085482 0.390843 0.059900
v -0.003378 0.446874 0.008157
v 0.078727 0.390843 -0.043586
v 0.078727 0.278781 -0.043586
v -0.003378 0.222750 0.008157
v -0.208392 0.244946 -0.317153
v -0.290496 0.278781 -0.265410
v -0.142550 0.289879 -0.358647
v -0.290496 0.390843 -0.265410
v -0.142550 0.379745 -0.358647
v -0.208392 0.446874 -0.317153
v -0.208392 0.424678 -0.317153
v -0.126288 0.390843 -0.368896
v -0.274234 0.379745 -0.275659
v -0.126288 0.278781 -0.368896
v -0.274234 0.289879 -0.275659
v -0.208392 0.222750 -0.317153
v 0.256203 0.289879 0.274081
v 0.190361 0.244946 0.315575
v 0.190361 0.424678 0.315575
v 0.256203 0.379745 0.274081
v 0.124519 0.289879 0.357069
v 0.124519 0.379745 0.357069
v 0.201637 0.244946 0.333467
v 0.119532 0.278781 0.385210
v 0.267479 0.289879 0.291973
v 0.119532 0.390843 0.385210
v 0.267479 0.379745 0.291973
v 0.201637 0.446874 0.333467
v 0.201637 0.424678 0.333467
v 0.283741 0.390843 0.281724
v 0.135795 0.379745 0.374961
v 0.283741 0.278781 0.281724
v 0.135795 0.289879 0.374961
v 0.201637 0.222750 0.333467
v 0.227291 0.066570 -0.344871
v 0.149906 0.021638 -0.353153
v 0.149906 0.201369 -0.353153
v 0.227291 0.156436 -0.344871
v 0.072522 0.066570 -0.361436
v 0.072522 0.156436 -0.361436
v 0.014739 0.055472 -0.002171
v 0.014739 0.167535 -0.002171
v 0.111236 0.223566 0.008157
v 0.207734 0.167535 0.018485
v 0.207734 0.055472 0.018485
v 0.111236 -0.000559 0.008157
v 0.152157 0.021638 -0.374182
v 0.055659 0.055472 -0.384510
v 0.229541 0.066570 -0.365900
v 0.055659 0.167535 -0.384510
v 0.229541 0.156436 -0.365900
v 0.152157 0.223566 -0.374182
v 0.152157 0.201369 -0.374182
v 0.248655 0.167535 -0.363854
v 0.074773 0.156436 -0.382464
v 0.248655 0.055472 -0.363854
v 0.074773 0.066570 -0.382464
v 0.152157 -0.000559 -0.374182
v 0.149950 0.066570 0.377750
v 0.072566 0.021637 0.369467
v 0.072566 0.201369 0.369467
v 0.149950 0.156436 0.377750
v -0.004818 0.066570 0.361185
v -0.004818 0.156436 0.361185
v 0.070316 0.021637 0.390496
v -0.026182 0.055472 0.380168
v 0.147700 0.066570 0.398778
v -0.026182 0.167535 0.380168
v 0.147700 0.156436 0.398778
v 0.070316 0.223566 0.390496
v 0.070316 0.201369 0.390496
v 0.166813 0.167535 0.400824
v -0.007069 0.156436 0.382214
v 0.166813 0.055472 0.400824
v -0.007069 0.066570 0.382214
v 0.070316 -0.000559 0.390496
vt 0.366612 0.701278
vt 0.623545 0.701278
vt 0.623545 0.958211
vt 0.366612 0.958211
vt 0.366612 0.701278
vt 0.623545 0.701278
vt 0.623545 0.958211
vt 0.366612 0.958211
vt 0.366612 0.701278
vt 0.623545 0.701278
vt 0.623545 0.958211
vt 0.366612 0.958211
vt 0.366612 0.701278
vt 0.623545 0.701278
vt 0.623545 0.958211
vt 0.366612 0.958211
vt 0.829745 0.960672
vt 0.941000 0.896439
vt 0.941000 0.767972
vt 0.829745 0.703739
vt 0.718490 0.767973
vt 0.718490 0.896439
vt 0.366612 0.701278
vt 0.623545 0.701278
vt 0.623545 0.958211
vt 0.366612 0.958211
vt 0.366612 0.701278
vt 0.623545 0.701278
vt 0.623545 0.958211
vt 0.366612 0.958211
vt 0.366612 0.701278
vt 0.623545 0.701278
vt 0.623545 0.958211
vt 0.366612 0.958211
vt 0.623545 0.701278
vt 0.623545 0.958211
vt 0.366612 0.958211
vt 0.623545 0.701278
vt 0.623545 0.958211
vt 0.366612 0.958211
vt 0.623545 0.701278
vt 0.623545 0.958211
vt 0.366612 0.958211
vt 0.623545 0.701278
vt 0.623545 0.958211
vt 0.366612 0.958211
vt 0.623545 0.701278
vt 0.623545 0.958211
vt 0.366612 0.958211
vt 0.623545 0.701278
vt 0.623545 0.958211
vt 0.366612 0.958211
vt 0.366612 0.701278
vt 0.623545 0.701278
vt 0.623545 0.958211
vt 0.366612 0.958211
vt 0.366612 0.701278
vt 0.623545 0.701278
vt 0.623545 0.958211
vt 0.366612 0.958211
vt 0.366612 0.701278
vt 0.623545 0.701278
vt 0.623545 0.958211
vt 0.366612 0.958211
vt 0.366612 0.701278
vt 0.623545 0.701278
vt 0.623545 0.958211
vt 0.366612 0.958211
vt 0.366612 0.701278
vt 0.623545 0.701278
vt 0.623545 0.958211
vt 0.366612 0.958211
vt 0.366612 0.701278
vt 0.623545 0.701278
vt 0.623545 0.958211
vt 0.366612 0.958211
vt 0.366612 0.701278
vt 0.623545 0.701278
vt 0.623545 0.958211
vt 0.366612 0.958211
vt 0.366612 0.701278
vt 0.623545 0.701278
vt 0.623545 0.958211
vt 0.366612 0.958211
vt 0.366612 0.701278
vt 0.623545 0.701278
vt 0.623545 0.958211
vt 0.366612 0.958211
vt 0.829745 0.960672
vt 0.941000 0.896439
vt 0.941000 0.767972
vt 0.829745 0.703739
vt 0.718490 0.767973
vt 0.718490 0.896439
vt 0.366612 0.701278
vt 0.623545 0.701278
vt 0.623545 0.958211
vt 0.366612 0.958211
vt 0.366612 0.701278
vt 0.623545 0.701278
vt 0.623545 0.958211
vt 0.366612 0.958211
vt 0.366612 0.701278
vt 0.623545 0.701278
vt 0.623545 0.958211
vt 0.366612 0.958211
vt 0.623545 0.701278
vt 0.366612 0.958211
vt 0.623545 0.701278
vt 0.366612 0.958211
vt 0.623545 0.701278
vt 0.366612 0.958211
vt 0.623545 0.701278
vt 0.366612 0.958211
vt 0.623545 0.701278
vt 0.366612 0.958211
vt 0.623545 0.701278
vt 0.366612 0.958211
vt 0.366612 0.701278
vt 0.623545 0.701278
vt 0.623545 0.958211
vt 0.366612 0.958211
vt 0.366612 0.701278
vt 0.623545 0.701278
vt 0.623545 0.958211
vt 0.366612 0.958211
vt 0.366612 0.701278
vt 0.623545 0.701278
vt 0.623545 0.958211
vt 0.366612 0.958211
vt 0.366612 0.701278
vt 0.623545 0.701278
vt 0.623545 0.958211
vt 0.366612 0.958211
vt 0.366612 0.701278
vt 0.623545 0.701278
vt 0.623545 0.958211
vt 0.366612 0.958211
vt 0.366612 0.701278
vt 0.623545 0.701278
vt 0.623545 0.958211
vt 0.366612 0.958211
vt 0.366612 0.701278
vt 0.623545 0.701278
vt 0.623545 0.958211
vt 0.366612 0.958211
vt 0.366612 0.701278
vt 0.623545 0.701278
vt 0.623545 0.958211
vt 0.366612 0.958211
vt 0.366612 0.701278
vt 0.623545 0.701278
vt 0.623545 0.958211
vt 0.366612 0.958211
vt 0.366612 0.701278
vt 0.623545 0.701278
vt 0.623545 0.958211
vt 0.366612 0.958211
vt 0.366612 0.701278
vt 0.623545 0.701278
vt 0.623545 0.958211
vt 0.366612 0.958211
vt 0.366612 0.701278
vt 0.623545 0.701278
vt 0.623545 0.958211
vt 0.366612 0.958211
vt 0.366612 0.701278
vt 0.623545 0.701278
vt 0.623545 0.958211
vt 0.366612 0.958211
vt 0.366612 0.701278
vt 0.623545 0.701278
vt 0.623545 0.958211
vt 0.366612 0.958211
vt 0.366612 0.701278
vt 0.623545 0.701278
vt 0.623545 0.958211
vt 0.366612 0.958211
vt 0.366612 0.701278
vt 0.623545 0.701278
vt 0.623545 0.958211
vt 0.366612 0.958211
vt 0.623545 0.701278
vt 0.623545 0.958211
vt 0.366612 0.958211
vt 0.623545 0.701278
vt 0.623545 0.958211
vt 0.366612 0.958211
vt 0.366612 0.701278
vt 0.623545 0.701278
vt 0.623545 0.958211
vt 0.366612 0.958211
vt 0.829745 0.960672
vt 0.941000 0.896439
vt 0.941000 0.767972
vt 0.829745 0.703739
vt 0.718490 0.767973
vt 0.718490 0.896439
vt 0.623545 0.701278
vt 0.623545 0.958211
vt 0.366612 0.958211
vt 0.623545 0.701278
vt 0.623545 0.958211
vt 0.366612 0.958211
vt 0.623545 0.701278
vt 0.623545 0.958211
vt 0.366612 0.958211
vt 0.623545 0.701278
vt 0.623545 0.958211
vt 0.366612 0.958211
vt 0.366612 0.701278
vt 0.623545 0.701278
vt 0.623545 0.958211
vt 0.366612 0.958211
vt 0.366612 0.701278
vt 0.623545 0.701278
vt 0.623545 0.958211
vt 0.366612 0.958211
vt 0.366612 0.701278
vt 0.623545 0.701278
vt 0.623545 0.958211
vt 0.366612 0.958211
vt 0.366612 0.701278
vt 0.623545 0.701278
vt 0.623545 0.958211
vt 0.366612 0.958211
vt 0.366612 0.701278
vt 0.623545 0.701278
vt 0.623545 0.958211
vt 0.366612 0.958211
vt 0.366612 0.701278
vt 0.623545 0.701278
vt 0.366612 0.958211
vt 0.366612 0.701278
vt 0.623545 0.701278
vt 0.366612 0.958211
vt 0.366612 0.701278
vt 0.623545 0.701278
vt 0.366612 0.958211
vt 0.366612 0.701278
vt 0.623545 0.701278
vt 0.366612 0.958211
vt 0.366612 0.701278
vt 0.623545 0.701278
vt 0.366612 0.958211
vt 0.366612 0.701278
vt 0.623545 0.701278
vt 0.366612 0.958211
vt 0.623545 0.701278
vt 0.623545 0.958211
vt 0.366612 0.958211
vt 0.623545 0.701278
vt 0.623545 0.958211
vt 0.366612 0.958211
vt 0.366612 0.701278
vt 0.623545 0.701278
vt 0.623545 0.958211
vt 0.366612 0.958211
vt 0.829745 0.960672
vt 0.941000 0.896439
vt 0.941000 0.767972
vt 0.829745 0.703739
vt 0.718490 0.767973
vt 0.718490 0.896439
vt 0.623545 0.701278
vt 0.623545 0.958211
vt 0.366612 0.958211
vt 0.623545 0.701278
vt 0.623545 0.958211
vt 0.366612 0.958211
vt 0.623545 0.701278
vt 0.623545 0.958211
vt 0.366612 0.958211
vt 0.623545 0.701278
vt 0.623545 0.958211
vt 0.366612 0.958211
vt 0.366612 0.701278
vt 0.623545 0.701278
vt 0.623545 0.958211
vt 0.366612 0.958211
vt 0.366612 0.701278
vt 0.623545 0.701278
vt 0.623545 0.958211
vt 0.366612 0.958211
vt 0.366612 0.701278
vt 0.623545 0.701278
vt 0.623545 0.958211
vt 0.366612 0.958211
vt 0.366612 0.701278
vt 0.623545 0.701278
vt 0.623545 0.958211
vt 0.366612 0.958211
vt 0.366612 0.701278
vt 0.623545 0.701278
vt 0.623545 0.958211
vt 0.366612 0.958211
vt 0.366612 0.701278
vt 0.623545 0.701278
vt 0.623545 0.958211
vt 0.366612 0.958211
vt 0.366612 0.701278
vt 0.623545 0.701278
vt 0.623545 0.958211
vt 0.366612 0.958211
vt 0.366612 0.701278
vt 0.623545 0.701278
vt 0.623545 0.958211
vt 0.366612 0.958211
vt 0.366612 0.701278
vt 0.623545 0.701278
vt 0.623545 0.958211
vt 0.366612 0.958211
vt 0.366612 0.701278
vt 0.623545 0.701278
vt 0.623545 0.958211
vt 0.366612 0.958211
vt 0.366612 0.701278
vt 0.623545 0.701278
vt 0.623545 0.958211
vt 0.366612 0.958211
vt 0.623545 0.701278
vt 0.623545 0.958211
vt 0.366612 0.958211
vt 0.623545 0.701278
vt 0.623545 0.958211
vt 0.366612 0.958211
vt 0.366612 0.701278
vt 0.623545 0.701278
vt 0.623545 0.958211
vt 0.366612 0.958211
vt 0.829745 0.960672
vt 0.941000 0.896439
vt 0.941000 0.767972
vt 0.829745 0.703739
vt 0.718490 0.767973
vt 0.718490 0.896439
vt 0.623545 0.701278
vt 0.623545 0.958211
vt 0.366612 0.958211
vt 0.623545 0.701278
vt 0.623545 0.958211
vt 0.366612 0.958211
vt 0.623545 0.701278
vt 0.623545 0.958211
vt 0.366612 0.958211
vt 0.623545 0.701278
vt 0.623545 0.958211
vt 0.366612 0.958211
vt 0.366612 0.701278
vt 0.623545 0.701278
vt 0.623545 0.958211
vt 0.366612 0.958211
vt 0.366612 0.701278
vt 0.623545 0.701278
vt 0.623545 0.958211
vt 0.366612 0.958211
vt 0.366612 0.701278
vt 0.623545 0.701278
vt 0.623545 0.958211
vt 0.366612 0.958211
vt 0.366612 0.701278
vt 0.623545 0.701278
vt 0.623545 0.958211
vt 0.366612 0.958211
vt 0.366612 0.701278
vt 0.623545 0.701278
vt 0.623545 0.958211
vt 0.366612 0.958211
vt 0.366612 0.701278
vt 0.623545 0.701278
vt 0.366612 0.958211
vt 0.366612 0.701278
vt 0.623545 0.701278
vt 0.366612 0.958211
vt 0.366612 0.701278
vt 0.623545 0.701278
vt 0.366612 0.958211
vt 0.366612 0.701278
vt 0.623545 0.701278
vt 0.366612 0.958211
vt 0.366612 0.701278
vt 0.623545 0.701278
vt 0.366612 0.958211
vt 0.366612 0.701278
vt 0.623545 0.701278
vt 0.366612 0.958211
vt 0.623545 0.701278
vt 0.623545 0.958211
vt 0.366612 0.958211
vt 0.623545 0.701278
vt 0.623545 0.958211
vt 0.366612 0.958211
vt 0.366612 0.701278
vt 0.623545 0.701278
vt 0.623545 0.958211
vt 0.366612 0.958211
vt 0.829745 0.960672
vt 0.941000 0.896439
vt 0.941000 0.767972
vt 0.829745 0.703739
vt 0.718490 0.767973
vt 0.718490 0.896439
vt 0.623545 0.701278
vt 0.623545 0.958211
vt 0.366612 0.958211
vt 0.623545 0.701278
vt 0.623545 0.958211
vt 0.366612 0.958211
vt 0.623545 0.701278
vt 0.623545 0.958211
vt 0.366612 0.958211
vt 0.623545 0.701278
vt 0.623545 0.958211
vt 0.366612 0.958211
vn 0.0000 0.0000 1.0000
vn -1.0000 0.0000 0.0000
vn -0.5000 -0.8660 -0.0000
vn -0.5000 0.8660 0.0000
vn 0.5000 0.8660 0.0000
vn 1.0000 0.0000 0.0000
vn 0.5000 -0.8660 -0.0000
vn -0.0000 0.0000 -1.0000
vn 0.4230 -0.8660 -0.2666
vn -0.4230 0.8660 0.2666
vn -0.4230 -0.8660 0.2666
vn 0.4230 0.8660 -0.2666
vn 0.8460 0.0000 -0.5332
vn -0.8460 0.0000 0.5332
vn -0.5332 0.0000 -0.8460
vn 0.5332 0.0000 0.8460
vn 0.4972 -0.8660 0.0532
vn -0.4972 0.8660 -0.0532
vn -0.4972 -0.8660 -0.0532
vn 0.4972 0.8660 0.0532
vn 0.9943 0.0000 0.1064
vn -0.9943 -0.0000 -0.1064
vn 0.1064 0.0000 -0.9943
vn -0.1064 -0.0000 0.9943
s off
f 7/1/1 9/2/1 4/3/1 6/4/1
f 5/5/1 7/6/1 6/7/1 8/8/1
f 1/9/1 3/10/1 10/11/1 12/12/1
f 9/13/1 11/14/1 2/15/1 4/16/1
f 17/17/1 18/18/1 15/19/1 16/20/1 13/21/1 14/22/1
f 10/23/2 8/24/2 15/25/2 18/26/2
f 11/27/1 1/28/1 12/29/1 2/30/1
f 3/31/1 5/32/1 8/33/1 10/34/1
f 11/27/3 36/35/3 31/36/3 1/37/3
f 9/13/2 35/38/2 36/39/2 11/40/2
f 7/1/4 34/41/4 35/42/4 9/43/4
f 5/5/5 33/44/5 34/45/5 7/46/5
f 3/31/6 32/47/6 33/48/6 5/49/6
f 1/9/7 31/50/7 32/51/7 3/52/7
f 4/53/6 2/54/6 14/55/6 13/56/6
f 2/57/5 12/58/5 17/59/5 14/60/5
f 8/61/3 6/62/3 16/63/3 15/64/3
f 12/65/4 10/66/4 18/67/4 17/68/4
f 6/69/7 4/70/7 13/71/7 16/72/7
f 25/73/8 24/74/8 22/75/8 27/76/8
f 23/77/8 26/78/8 24/79/8 25/80/8
f 19/81/8 30/82/8 28/83/8 21/84/8
f 27/85/8 22/86/8 20/87/8 29/88/8
f 41/89/8 38/90/8 37/91/8 40/92/8 39/93/8 42/94/8
f 28/95/2 42/96/2 39/97/2 26/98/2
f 29/99/8 20/100/8 30/101/8 19/102/8
f 21/103/8 28/104/8 26/105/8 23/106/8
f 29/99/3 19/107/3 31/36/3 36/108/3
f 27/85/2 29/109/2 36/39/2 35/110/2
f 25/73/4 27/111/4 35/42/4 34/112/4
f 23/77/5 25/113/5 34/45/5 33/114/5
f 21/103/6 23/115/6 33/48/6 32/116/6
f 19/81/7 21/117/7 32/51/7 31/118/7
f 22/119/6 37/120/6 38/121/6 20/122/6
f 20/123/5 38/124/5 41/125/5 30/126/5
f 26/127/3 39/128/3 40/129/3 24/130/3
f 30/131/4 41/132/4 42/133/4 28/134/4
f 24/135/7 40/136/7 37/137/7 22/138/7
f 61/139/9 45/140/9 48/141/9 63/142/9
f 55/143/10 44/144/10 43/145/10 57/146/10
f 59/147/11 46/148/11 45/149/11 61/150/11
f 65/151/12 47/152/12 44/153/12 55/154/12
f 63/155/13 48/156/13 47/157/13 65/158/13
f 66/159/9 64/160/9 53/161/9 54/162/9
f 64/163/13 62/164/13 52/165/13 53/166/13
f 62/167/12 60/168/12 51/169/12 52/170/12
f 60/171/10 58/172/10 50/173/10 51/174/10
f 58/175/14 56/176/14 49/177/14 50/178/14
f 56/179/11 66/180/11 54/181/11 49/182/11
f 64/163/15 57/183/15 59/184/15 62/185/15
f 56/179/15 65/186/15 55/187/15 66/188/15
f 57/189/14 43/190/14 46/191/14 59/192/14
f 44/193/15 47/194/15 48/195/15 45/196/15 46/197/15 43/198/15
f 58/175/15 63/199/15 65/200/15 56/201/15
f 66/159/15 55/202/15 57/203/15 64/204/15
f 62/167/15 59/205/15 61/206/15 60/207/15
f 60/171/15 61/208/15 63/209/15 58/210/15
f 79/211/9 81/212/9 72/213/9 69/214/9
f 73/215/10 75/216/10 67/217/10 68/218/10
f 77/219/11 79/220/11 69/221/11 70/222/11
f 83/223/12 73/224/12 68/225/12 71/226/12
f 81/227/13 83/228/13 71/229/13 72/230/13
f 84/231/9 54/232/9 53/161/9 82/233/9
f 82/234/13 53/235/13 52/165/13 80/236/13
f 80/237/12 52/238/12 51/169/12 78/239/12
f 78/240/10 51/241/10 50/173/10 76/242/10
f 76/243/14 50/244/14 49/177/14 74/245/14
f 74/246/11 49/247/11 54/181/11 84/248/11
f 82/234/16 80/249/16 77/250/16 75/251/16
f 74/246/16 84/252/16 73/253/16 83/254/16
f 75/255/14 77/256/14 70/257/14 67/258/14
f 68/259/16 67/260/16 70/261/16 69/262/16 72/263/16 71/264/16
f 76/243/16 74/265/16 83/266/16 81/267/16
f 84/231/16 82/268/16 75/269/16 73/270/16
f 80/237/16 78/271/16 79/272/16 77/273/16
f 78/240/16 76/274/16 81/275/16 79/276/16
f 103/277/17 87/278/17 90/279/17 105/280/17
f 97/281/18 86/282/18 85/283/18 99/284/18
f 101/285/19 88/286/19 87/287/19 103/288/19
f 107/289/20 89/290/20 86/291/20 97/292/20
f 105/293/21 90/294/21 89/295/21 107/296/21
f 108/297/17 106/298/17 95/299/17 96/300/17
f 106/301/21 104/302/21 94/303/21 95/304/21
f 104/305/20 102/306/20 93/307/20 94/308/20
f 102/309/18 100/310/18 92/311/18 93/312/18
f 100/313/22 98/314/22 91/315/22 92/316/22
f 98/317/19 108/318/19 96/319/19 91/320/19
f 106/301/23 99/321/23 101/322/23 104/323/23
f 98/317/23 107/324/23 97/325/23 108/326/23
f 99/327/22 85/328/22 88/329/22 101/330/22
f 86/331/23 89/332/23 90/333/23 87/334/23 88/335/23 85/336/23
f 100/313/23 105/337/23 107/338/23 98/339/23
f 108/297/23 97/340/23 99/341/23 106/342/23
f 104/305/23 101/343/23 103/344/23 102/345/23
f 102/309/23 103/346/23 105/347/23 100/348/23
f 121/349/17 123/350/17 114/351/17 111/352/17
f 115/353/18 117/354/18 109/355/18 110/356/18
f 119/357/19 121/358/19 111/359/19 112/360/19
f 125/361/20 115/362/20 110/363/20 113/364/20
f 123/365/21 125/366/21 113/367/21 114/368/21
f 126/369/17 96/370/17 95/299/17 124/371/17
f 124/372/21 95/373/21 94/303/21 122/374/21
f 122/375/20 94/376/20 93/307/20 120/377/20
f 120/378/18 93/379/18 92/311/18 118/380/18
f 118/381/22 92/382/22 91/315/22 116/383/22
f 116/384/19 91/385/19 96/319/19 126/386/19
f 124/372/24 122/387/24 119/388/24 117/389/24
f 116/384/24 126/390/24 115/391/24 125/392/24
f 117/393/22 119/394/22 112/395/22 109/396/22
f 110/397/24 109/398/24 112/399/24 111/400/24 114/401/24 113/402/24
f 118/381/24 116/403/24 125/404/24 123/405/24
f 126/369/24 124/406/24 117/407/24 115/408/24
f 122/375/24 120/409/24 121/410/24 119/411/24
f 120/378/24 118/412/24 123/413/24 121/414/24
