# Blender v2.78 (sub 0) OBJ File: 'grass.blend'
# www.blender.org
g Grass
v -0.261088 -0.031399 -0.347615
v -0.228608 -0.031399 -0.403163
v -0.168780 -0.031399 -0.368180
v -0.201260 -0.031399 -0.312632
v -0.281517 0.364128 -0.382920
v -0.269394 0.364128 -0.403652
v -0.247065 0.364128 -0.390596
v -0.259188 0.364128 -0.369864
v -0.257237 0.100443 -0.348473
v -0.262994 0.232285 -0.358979
v -0.227467 0.100443 -0.399386
v -0.239446 0.232285 -0.399251
v -0.172631 0.100443 -0.367322
v -0.196071 0.232285 -0.373888
v -0.202401 0.100443 -0.316409
v -0.219619 0.232285 -0.333616
v 0.321940 -0.031399 -0.425786
v 0.262130 -0.031399 -0.402050
v 0.236566 -0.031399 -0.466469
v 0.296376 -0.031399 -0.490204
v 0.316275 0.364128 -0.385392
v 0.293952 0.364128 -0.376533
v 0.284411 0.364128 -0.400576
v 0.306734 0.364128 -0.409434
v 0.318378 0.100443 -0.427483
v 0.316438 0.232285 -0.415662
v 0.263559 0.100443 -0.405728
v 0.273077 0.232285 -0.398454
v 0.240128 0.100443 -0.464771
v 0.254543 0.232285 -0.445156
v 0.294947 0.100443 -0.486526
v 0.297905 0.232285 -0.462364
v 0.263927 -0.031399 0.202934
v 0.229178 -0.031399 0.148776
v 0.287509 -0.031399 0.111349
v 0.322258 -0.031399 0.165508
v 0.223196 0.364128 0.205109
v 0.210226 0.364128 0.184895
v 0.231997 0.364128 0.170927
v 0.244966 0.364128 0.191140
v 0.264911 0.100443 0.199113
v 0.252937 0.232285 0.199473
v 0.233062 0.100443 0.149474
v 0.227744 0.232285 0.160209
v 0.286525 0.100443 0.115170
v 0.270033 0.232285 0.133075
v 0.318375 0.100443 0.164810
v 0.295226 0.232285 0.172339
v -0.245743 -0.031399 0.109512
v -0.184963 -0.031399 0.130639
v -0.207717 -0.031399 0.196102
v -0.268498 -0.031399 0.174975
v -0.215054 0.364128 0.082642
v -0.192369 0.364128 0.090527
v -0.200862 0.364128 0.114960
v -0.223547 0.364128 0.107075
v -0.244157 0.100443 0.113124
v -0.234962 0.232285 0.105445
v -0.188448 0.100443 0.132488
v -0.190897 0.232285 0.120762
v -0.209304 0.100443 0.192489
v -0.207394 0.232285 0.168222
v -0.265013 0.100443 0.173125
v -0.251459 0.232285 0.152905
v 0.056447 -0.031680 0.400769
v -0.040335 -0.031680 0.278004
v 0.091889 -0.031680 0.173766
v 0.188670 -0.031680 0.296531
v -0.041528 0.929212 0.415624
v -0.077649 0.929212 0.369805
v -0.028300 0.929212 0.330900
v 0.007821 0.929212 0.376719
v 0.057926 0.288617 0.391299
v 0.029057 0.608915 0.394990
v -0.030780 0.288617 0.278777
v -0.041109 0.608915 0.305987
v 0.090410 0.288617 0.183237
v 0.054752 0.608915 0.230416
v 0.179116 0.288617 0.295758
v 0.124917 0.608915 0.319419
v 0.454651 -0.034045 -0.222096
v 0.391047 -0.034045 -0.085844
v 0.244298 -0.034045 -0.154348
v 0.307902 -0.034045 -0.290600
v 0.509795 0.890214 -0.144350
v 0.486056 0.890214 -0.093497
v 0.431285 0.890214 -0.119065
v 0.455024 0.890214 -0.169918
v 0.445875 0.274042 -0.219270
v 0.461534 0.582128 -0.196065
v 0.387578 0.274042 -0.094387
v 0.415422 0.582128 -0.097284
v 0.253074 0.274042 -0.157175
v 0.309031 0.582128 -0.146948
v 0.311371 0.274042 -0.282058
v 0.355143 0.582128 -0.245729
v -0.060127 -0.028506 -0.321238
v 0.082721 -0.028506 -0.438453
v 0.208966 -0.028506 -0.284600
v 0.066119 -0.028506 -0.167386
v -0.079946 1.107299 -0.436682
v -0.026632 1.107299 -0.480429
v 0.020486 1.107299 -0.423007
v -0.032828 1.107299 -0.379260
v -0.048900 0.350096 -0.319710
v -0.053930 0.728697 -0.353742
v 0.082028 0.350096 -0.427144
v 0.049633 0.728697 -0.438721
v 0.197739 0.350096 -0.286129
v 0.141159 0.728697 -0.327180
v 0.066811 0.350096 -0.178695
v 0.037597 0.728697 -0.242200
v -0.229539 -0.027436 -0.041680
v -0.380142 -0.027436 -0.125172
v -0.290218 -0.027436 -0.287378
v -0.139614 -0.027436 -0.203886
v -0.322741 1.031016 0.015139
v -0.378950 1.031016 -0.016023
v -0.345388 1.031016 -0.076562
v -0.289179 1.031016 -0.045401
v -0.232071 0.325381 -0.051930
v -0.259825 0.678199 -0.035885
v -0.370107 0.325381 -0.128456
v -0.369010 0.678199 -0.096416
v -0.287686 0.325381 -0.277127
v -0.303816 0.678199 -0.214013
v -0.149649 0.325381 -0.200602
v -0.194631 0.678199 -0.153482
v 0.117949 -0.027336 -0.101001
v 0.117949 -0.027336 0.101001
v -0.099617 -0.027336 0.101001
v -0.099616 -0.027336 -0.101001
v 0.229255 1.214316 -0.037696
v 0.229255 1.214316 0.037696
v 0.148053 1.214316 0.037696
v 0.148053 1.214316 -0.037696
v 0.108872 0.386548 -0.092574
v 0.141120 0.800432 -0.073225
v 0.108872 0.386548 0.092574
v 0.141120 0.800432 0.073225
v -0.090540 0.386548 0.092574
v -0.016612 0.800432 0.073225
v -0.090540 0.386548 -0.092574
v -0.016612 0.800432 -0.073225
vt 0.7284 0.0649
vt 0.9413 0.0649
vt 0.9413 0.2778
vt 0.7284 0.2778
vt 0.7284 0.0649
vt 0.9413 0.0649
vt 0.9413 0.2778
vt 0.7284 0.2778
vt 0.7284 0.0649
vt 0.9413 0.0649
vt 0.9413 0.2778
vt 0.7284 0.2778
vt 0.7284 0.0649
vt 0.9413 0.0649
vt 0.7284 0.2778
vt 0.7284 0.0649
vt 0.9413 0.0649
vt 0.9413 0.2778
vt 0.7284 0.2778
vt 0.7284 0.0649
vt 0.9413 0.0649
vt 0.9413 0.2778
vt 0.7284 0.2778
vt 0.9413 0.0649
vt 0.9413 0.2778
vt 0.7284 0.2778
vt 0.9413 0.0649
vt 0.9413 0.2778
vt 0.7284 0.0649
vt 0.9413 0.0649
vt 0.7284 0.0649
vt 0.9413 0.0649
vt 0.7284 0.0649
vt 0.9413 0.0649
vt 0.9413 0.2778
vt 0.7284 0.2778
vt 0.7284 0.0649
vt 0.9413 0.0649
vt 0.9413 0.2778
vt 0.7284 0.2778
vt 0.9413 0.2778
vt 0.7284 0.2778
vt 0.9413 0.2778
vt 0.7284 0.2778
vt 0.7284 0.0649
vt 0.9413 0.0649
vt 0.9413 0.2778
vt 0.7284 0.2778
vt 0.7284 0.0649
vt 0.9413 0.0649
vt 0.9413 0.2778
vt 0.7284 0.2778
vt 0.7284 0.0649
vt 0.9413 0.0649
vt 0.9413 0.2778
vt 0.7284 0.2778
vt 0.7284 0.0649
vt 0.9413 0.0649
vt 0.7284 0.2778
vt 0.7284 0.0649
vt 0.9413 0.0649
vt 0.9413 0.2778
vt 0.7284 0.2778
vt 0.7284 0.0649
vt 0.9413 0.0649
vt 0.9413 0.2778
vt 0.7284 0.2778
vt 0.9413 0.0649
vt 0.9413 0.2778
vt 0.7284 0.2778
vt 0.9413 0.0649
vt 0.9413 0.2778
vt 0.7284 0.0649
vt 0.9413 0.0649
vt 0.7284 0.0649
vt 0.9413 0.0649
vt 0.7284 0.0649
vt 0.9413 0.0649
vt 0.9413 0.2778
vt 0.7284 0.2778
vt 0.7284 0.0649
vt 0.9413 0.0649
vt 0.9413 0.2778
vt 0.7284 0.2778
vt 0.9413 0.2778
vt 0.7284 0.2778
vt 0.9413 0.2778
vt 0.7284 0.2778
vt 0.7284 0.0649
vt 0.9413 0.0649
vt 0.9413 0.2778
vt 0.7284 0.2778
vt 0.7284 0.0649
vt 0.9413 0.0649
vt 0.9413 0.2778
vt 0.7284 0.2778
vt 0.7284 0.0649
vt 0.9413 0.0649
vt 0.9413 0.2778
vt 0.7284 0.2778
vt 0.7284 0.0649
vt 0.9413 0.0649
vt 0.7284 0.2778
vt 0.7284 0.0649
vt 0.9413 0.0649
vt 0.9413 0.2778
vt 0.7284 0.2778
vt 0.7284 0.0649
vt 0.9413 0.0649
vt 0.9413 0.2778
vt 0.7284 0.2778
vt 0.9413 0.0649
vt 0.9413 0.2778
vt 0.7284 0.2778
vt 0.9413 0.0649
vt 0.9413 0.2778
vt 0.7284 0.0649
vt 0.9413 0.0649
vt 0.7284 0.0649
vt 0.9413 0.0649
vt 0.7284 0.0649
vt 0.9413 0.0649
vt 0.9413 0.2778
vt 0.7284 0.2778
vt 0.7284 0.0649
vt 0.9413 0.0649
vt 0.9413 0.2778
vt 0.7284 0.2778
vt 0.9413 0.2778
vt 0.7284 0.2778
vt 0.9413 0.2778
vt 0.7284 0.2778
vt 0.7284 0.0649
vt 0.9413 0.0649
vt 0.9413 0.2778
vt 0.7284 0.2778
vt 0.7284 0.0649
vt 0.9413 0.0649
vt 0.9413 0.2778
vt 0.7284 0.2778
vt 0.7284 0.0649
vt 0.9413 0.0649
vt 0.9413 0.2778
vt 0.7284 0.2778
vt 0.7284 0.0649
vt 0.9413 0.0649
vt 0.7284 0.2778
vt 0.7284 0.0649
vt 0.9413 0.0649
vt 0.9413 0.2778
vt 0.7284 0.2778
vt 0.7284 0.0649
vt 0.9413 0.0649
vt 0.9413 0.2778
vt 0.7284 0.2778
vt 0.9413 0.0649
vt 0.9413 0.2778
vt 0.7284 0.2778
vt 0.9413 0.0649
vt 0.9413 0.2778
vt 0.7284 0.0649
vt 0.9413 0.0649
vt 0.7284 0.0649
vt 0.9413 0.0649
vt 0.7284 0.0649
vt 0.9413 0.0649
vt 0.9413 0.2778
vt 0.7284 0.2778
vt 0.7284 0.0649
vt 0.9413 0.0649
vt 0.9413 0.2778
vt 0.7284 0.2778
vt 0.9413 0.2778
vt 0.7284 0.2778
vt 0.9413 0.2778
vt 0.7284 0.2778
vt 0.7284 0.0649
vt 0.9413 0.0649
vt 0.9413 0.2778
vt 0.7284 0.2778
vt 0.7284 0.0649
vt 0.9413 0.0649
vt 0.9413 0.2778
vt 0.7284 0.2778
vt 0.7284 0.0649
vt 0.9413 0.0649
vt 0.9413 0.2778
vt 0.7284 0.2778
vt 0.7284 0.0649
vt 0.9413 0.0649
vt 0.7284 0.2778
vt 0.7284 0.0649
vt 0.9413 0.0649
vt 0.9413 0.2778
vt 0.7284 0.2778
vt 0.7284 0.0649
vt 0.9413 0.0649
vt 0.9413 0.2778
vt 0.7284 0.2778
vt 0.9413 0.0649
vt 0.9413 0.2778
vt 0.7284 0.2778
vt 0.9413 0.0649
vt 0.9413 0.2778
vt 0.7284 0.0649
vt 0.9413 0.0649
vt 0.7284 0.0649
vt 0.9413 0.0649
vt 0.7284 0.0649
vt 0.9413 0.0649
vt 0.9413 0.2778
vt 0.7284 0.2778
vt 0.7284 0.0649
vt 0.9413 0.0649
vt 0.9413 0.2778
vt 0.7284 0.2778
vt 0.9413 0.2778
vt 0.7284 0.2778
vt 0.9413 0.2778
vt 0.7284 0.2778
vt 0.7284 0.0649
vt 0.9413 0.0649
vt 0.9413 0.2778
vt 0.7284 0.2778
vt 0.7284 0.0649
vt 0.9413 0.0649
vt 0.9413 0.2778
vt 0.7284 0.2778
vt 0.7284 0.0649
vt 0.9413 0.0649
vt 0.9413 0.2778
vt 0.7284 0.2778
vt 0.7284 0.0649
vt 0.9413 0.0649
vt 0.7284 0.2778
vt 0.7284 0.0649
vt 0.9413 0.0649
vt 0.9413 0.2778
vt 0.7284 0.2778
vt 0.7284 0.0649
vt 0.9413 0.0649
vt 0.9413 0.2778
vt 0.7284 0.2778
vt 0.9413 0.0649
vt 0.9413 0.2778
vt 0.7284 0.2778
vt 0.9413 0.0649
vt 0.9413 0.2778
vt 0.7284 0.0649
vt 0.9413 0.0649
vt 0.7284 0.0649
vt 0.9413 0.0649
vt 0.7284 0.0649
vt 0.9413 0.0649
vt 0.9413 0.2778
vt 0.7284 0.2778
vt 0.7284 0.0649
vt 0.9413 0.0649
vt 0.9413 0.2778
vt 0.7284 0.2778
vt 0.9413 0.2778
vt 0.7284 0.2778
vt 0.9413 0.2778
vt 0.7284 0.2778
vt 0.7284 0.0649
vt 0.9413 0.0649
vt 0.9413 0.2778
vt 0.7284 0.2778
vt 0.7284 0.0649
vt 0.9413 0.0649
vt 0.9413 0.2778
vt 0.7284 0.2778
vt 0.7284 0.0649
vt 0.9413 0.0649
vt 0.9413 0.2778
vt 0.7284 0.2778
vt 0.7284 0.0649
vt 0.9413 0.0649
vt 0.7284 0.2778
vt 0.7284 0.0649
vt 0.9413 0.0649
vt 0.9413 0.2778
vt 0.7284 0.2778
vt 0.7284 0.0649
vt 0.9413 0.0649
vt 0.9413 0.2778
vt 0.7284 0.2778
vt 0.9413 0.0649
vt 0.9413 0.2778
vt 0.7284 0.2778
vt 0.9413 0.0649
vt 0.9413 0.2778
vt 0.7284 0.0649
vt 0.9413 0.0649
vt 0.7284 0.0649
vt 0.9413 0.0649
vt 0.7284 0.0649
vt 0.9413 0.0649
vt 0.9413 0.2778
vt 0.7284 0.2778
vt 0.7284 0.0649
vt 0.9413 0.0649
vt 0.9413 0.2778
vt 0.7284 0.2778
vt 0.9413 0.2778
vt 0.7284 0.2778
vt 0.9413 0.2778
vt 0.7284 0.2778
vt 0.7284 0.0649
vt 0.9413 0.0649
vt 0.9413 0.2778
vt 0.7284 0.2778
vt 0.7284 0.0649
vt 0.9413 0.0649
vt 0.9413 0.2778
vt 0.7284 0.2778
vt 0.7284 0.0649
vt 0.9413 0.0649
vt 0.9413 0.2778
vt 0.7284 0.2778
vt 0.7284 0.0649
vt 0.9413 0.0649
vt 0.7284 0.2778
vt 0.7284 0.0649
vt 0.9413 0.0649
vt 0.9413 0.2778
vt 0.7284 0.2778
vt 0.7284 0.0649
vt 0.9413 0.0649
vt 0.9413 0.2778
vt 0.7284 0.2778
vt 0.9413 0.0649
vt 0.9413 0.2778
vt 0.7284 0.2778
vt 0.9413 0.0649
vt 0.9413 0.2778
vt 0.7284 0.0649
vt 0.9413 0.0649
vt 0.7284 0.0649
vt 0.9413 0.0649
vt 0.7284 0.0649
vt 0.9413 0.0649
vt 0.9413 0.2778
vt 0.7284 0.2778
vt 0.7284 0.0649
vt 0.9413 0.0649
vt 0.9413 0.2778
vt 0.7284 0.2778
vt 0.9413 0.2778
vt 0.7284 0.2778
vt 0.9413 0.2778
vt 0.7284 0.2778
vt 0.7284 0.0649
vt 0.9413 0.0649
vt 0.9413 0.2778
vt 0.7284 0.2778
vt 0.7284 0.0649
vt 0.9413 0.0649
vt 0.9413 0.2778
vt 0.7284 0.2778
vt 0.7284 0.0649
vt 0.9413 0.0649
vt 0.9413 0.2778
vt 0.7284 0.2778
vt 0.7284 0.0649
vt 0.9413 0.0649
vt 0.7284 0.2778
vt 0.7284 0.0649
vt 0.9413 0.0649
vt 0.9413 0.2778
vt 0.7284 0.2778
vt 0.7284 0.0649
vt 0.9413 0.0649
vt 0.9413 0.2778
vt 0.7284 0.2778
vt 0.9413 0.0649
vt 0.9413 0.2778
vt 0.7284 0.2778
vt 0.9413 0.0649
vt 0.9413 0.2778
vt 0.7284 0.0649
vt 0.9413 0.0649
vt 0.7284 0.0649
vt 0.9413 0.0649
vt 0.7284 0.0649
vt 0.9413 0.0649
vt 0.9413 0.2778
vt 0.7284 0.2778
vt 0.7284 0.0649
vt 0.9413 0.0649
vt 0.9413 0.2778
vt 0.7284 0.2778
vt 0.9413 0.2778
vt 0.7284 0.2778
vt 0.9413 0.2778
vt 0.7284 0.2778
vn 0.0000 -1.0000 0.0000
vn 0.0000 1.0000 0.0000
vn -0.8443 -0.2083 -0.4937
vn 0.5029 0.0855 -0.8601
vn 0.8021 0.3697 0.4690
vn -0.5047 0.0204 0.8631
vn -0.5029 0.0855 0.8601
vn -0.5042 0.0467 0.8623
vn 0.8630 0.0219 0.5046
vn 0.8498 0.1758 0.4969
vn 0.5047 0.0204 -0.8631
vn 0.5042 0.0467 -0.8623
vn -0.8630 0.0219 -0.5046
vn -0.8606 -0.0777 -0.5032
vn 0.3608 -0.2083 0.9091
vn -0.9261 0.0855 0.3675
vn -0.3427 0.3697 -0.8636
vn 0.9293 0.0204 -0.3688
vn 0.9261 0.0855 -0.3675
vn 0.9285 0.0467 -0.3685
vn -0.3688 0.0219 -0.9293
vn -0.3631 0.1758 -0.9150
vn -0.9293 0.0204 0.3688
vn -0.9285 0.0467 0.3685
vn 0.3688 0.0219 0.9293
vn 0.3677 -0.0777 0.9267
vn -0.8232 -0.2083 0.5282
vn -0.5380 0.0855 -0.8386
vn 0.7820 0.3697 -0.5018
vn 0.5399 0.0204 0.8415
vn 0.5380 0.0855 0.8386
vn 0.5394 0.0467 0.8407
vn 0.8414 0.0219 -0.5399
vn 0.8285 0.1758 -0.5316
vn -0.5399 0.0204 -0.8415
vn -0.5394 0.0467 -0.8407
vn -0.8414 0.0219 0.5399
vn -0.8391 -0.0777 0.5384
vn 0.3211 -0.2083 -0.9239
vn 0.9411 0.0855 0.3271
vn -0.3051 0.3697 0.8777
vn -0.9444 0.0204 -0.3283
vn -0.9411 0.0855 -0.3271
vn -0.9435 0.0467 -0.3280
vn -0.3282 0.0219 0.9443
vn -0.3232 0.1758 0.9298
vn 0.9444 0.0204 0.3283
vn 0.9435 0.0467 0.3280
vn 0.3282 0.0219 -0.9443
vn 0.3273 -0.0777 -0.9417
vn -0.7681 -0.2083 0.6055
vn -0.6168 0.0855 -0.7824
vn 0.7297 0.3697 -0.5752
vn 0.6190 0.0204 0.7851
vn 0.6168 0.0855 0.7824
vn 0.6184 0.0467 0.7845
vn 0.7851 0.0219 -0.6190
vn 0.7731 0.1758 -0.6095
vn -0.6190 0.0204 -0.7852
vn -0.6184 0.0467 -0.7845
vn -0.7851 0.0219 0.6190
vn -0.7829 -0.0777 0.6172
vn 0.8863 -0.2083 0.4137
vn -0.4214 0.0855 0.9028
vn -0.8419 0.3697 -0.3930
vn 0.4229 0.0204 -0.9059
vn 0.4214 0.0855 -0.9028
vn 0.4225 0.0467 -0.9051
vn -0.9059 0.0219 -0.4229
vn -0.8920 0.1758 -0.4164
vn -0.4229 0.0204 0.9059
vn -0.4225 0.0467 0.9051
vn 0.9059 0.0219 0.4229
vn 0.9034 -0.0777 0.4217
vn -0.6204 -0.2083 -0.7561
vn 0.7702 0.0855 -0.6320
vn 0.5894 0.3697 0.7183
vn -0.7729 0.0204 0.6342
vn -0.7702 0.0855 0.6320
vn -0.7722 0.0467 0.6336
vn 0.6342 0.0219 0.7729
vn 0.6245 0.1758 0.7610
vn 0.7729 0.0204 -0.6342
vn 0.7722 0.0467 -0.6336
vn -0.6342 0.0219 -0.7729
vn -0.6324 -0.0777 -0.7707
vn -0.4742 -0.2083 0.8554
vn -0.8714 0.0855 -0.4831
vn 0.4505 0.3697 -0.8126
vn 0.8744 0.0204 0.4848
vn 0.8714 0.0855 0.4831
vn 0.8736 0.0467 0.4843
vn 0.4847 0.0219 -0.8744
vn 0.4773 0.1758 -0.8610
vn -0.8744 0.0204 -0.4848
vn -0.8736 0.0467 -0.4843
vn -0.4847 0.0219 0.8744
vn -0.4834 -0.0777 0.8719
vn 0.9781 -0.2083 0.0000
vn -0.0000 0.0855 0.9963
vn -0.9292 0.3697 0.0000
vn 0.0000 0.0204 -0.9998
vn 0.0000 0.0855 -0.9963
vn 0.0000 0.0467 -0.9989
vn -0.9998 0.0219 -0.0000
vn -0.9844 0.1758 -0.0000
vn -0.0000 0.0204 0.9998
vn -0.0000 0.0467 0.9989
vn 0.9998 0.0219 0.0000
vn 0.9970 -0.0777 0.0000
s off
f 1/1/1 2/2/1 3/3/1 4/4/1
f 5/5/2 8/6/2 7/7/2 6/8/2
f 10/9/3 5/10/3 6/11/3 12/12/3
f 12/13/4 6/14/4 7/7/4 14/15/4
f 14/16/5 7/17/5 8/18/5 16/19/5
f 9/20/6 1/21/6 4/22/6 15/23/6
f 5/5/7 10/24/7 16/25/7 8/26/7
f 10/9/8 9/27/8 15/28/8 16/19/8
f 3/29/9 13/30/9 15/28/9 4/4/9
f 13/31/10 14/32/10 16/25/10 15/23/10
f 2/33/11 11/34/11 13/35/11 3/36/11
f 11/37/12 12/38/12 14/39/12 13/40/12
f 1/1/13 9/27/13 11/41/13 2/42/13
f 9/20/14 10/24/14 12/43/14 11/44/14
f 17/45/1 18/46/1 19/47/1 20/48/1
f 21/49/2 24/50/2 23/51/2 22/52/2
f 26/53/15 21/54/15 22/55/15 28/56/15
f 28/57/16 22/58/16 23/51/16 30/59/16
f 30/60/17 23/61/17 24/62/17 32/63/17
f 25/64/18 17/65/18 20/66/18 31/67/18
f 21/49/19 26/68/19 32/69/19 24/70/19
f 26/53/20 25/71/20 31/72/20 32/63/20
f 19/73/21 29/74/21 31/72/21 20/48/21
f 29/75/22 30/76/22 32/69/22 31/67/22
f 18/77/23 27/78/23 29/79/23 19/80/23
f 27/81/24 28/82/24 30/83/24 29/84/24
f 17/45/25 25/71/25 27/85/25 18/86/25
f 25/64/26 26/68/26 28/87/26 27/88/26
f 33/89/1 34/90/1 35/91/1 36/92/1
f 37/93/2 40/94/2 39/95/2 38/96/2
f 42/97/27 37/98/27 38/99/27 44/100/27
f 44/101/28 38/102/28 39/95/28 46/103/28
f 46/104/29 39/105/29 40/106/29 48/107/29
f 41/108/30 33/109/30 36/110/30 47/111/30
f 37/93/31 42/112/31 48/113/31 40/114/31
f 42/97/32 41/115/32 47/116/32 48/107/32
f 35/117/33 45/118/33 47/116/33 36/92/33
f 45/119/34 46/120/34 48/113/34 47/111/34
f 34/121/35 43/122/35 45/123/35 35/124/35
f 43/125/36 44/126/36 46/127/36 45/128/36
f 33/89/37 41/115/37 43/129/37 34/130/37
f 41/108/38 42/112/38 44/131/38 43/132/38
f 49/133/1 50/134/1 51/135/1 52/136/1
f 53/137/2 56/138/2 55/139/2 54/140/2
f 58/141/39 53/142/39 54/143/39 60/144/39
f 60/145/40 54/146/40 55/139/40 62/147/40
f 62/148/41 55/149/41 56/150/41 64/151/41
f 57/152/42 49/153/42 52/154/42 63/155/42
f 53/137/43 58/156/43 64/157/43 56/158/43
f 58/141/44 57/159/44 63/160/44 64/151/44
f 51/161/45 61/162/45 63/160/45 52/136/45
f 61/163/46 62/164/46 64/157/46 63/155/46
f 50/165/47 59/166/47 61/167/47 51/168/47
f 59/169/48 60/170/48 62/171/48 61/172/48
f 49/133/49 57/159/49 59/173/49 50/174/49
f 57/152/50 58/156/50 60/175/50 59/176/50
f 65/177/1 66/178/1 67/179/1 68/180/1
f 69/181/2 72/182/2 71/183/2 70/184/2
f 74/185/51 69/186/51 70/187/51 76/188/51
f 76/189/52 70/190/52 71/183/52 78/191/52
f 78/192/53 71/193/53 72/194/53 80/195/53
f 73/196/54 65/197/54 68/198/54 79/199/54
f 69/181/55 74/200/55 80/201/55 72/202/55
f 74/185/56 73/203/56 79/204/56 80/195/56
f 67/205/57 77/206/57 79/204/57 68/180/57
f 77/207/58 78/208/58 80/201/58 79/199/58
f 66/209/59 75/210/59 77/211/59 67/212/59
f 75/213/60 76/214/60 78/215/60 77/216/60
f 65/177/61 73/203/61 75/217/61 66/218/61
f 73/196/62 74/200/62 76/219/62 75/220/62
f 81/221/1 82/222/1 83/223/1 84/224/1
f 85/225/2 88/226/2 87/227/2 86/228/2
f 90/229/63 85/230/63 86/231/63 92/232/63
f 92/233/64 86/234/64 87/227/64 94/235/64
f 94/236/65 87/237/65 88/238/65 96/239/65
f 89/240/66 81/241/66 84/242/66 95/243/66
f 85/225/67 90/244/67 96/245/67 88/246/67
f 90/229/68 89/247/68 95/248/68 96/239/68
f 83/249/69 93/250/69 95/248/69 84/224/69
f 93/251/70 94/252/70 96/245/70 95/243/70
f 82/253/71 91/254/71 93/255/71 83/256/71
f 91/257/72 92/258/72 94/259/72 93/260/72
f 81/221/73 89/247/73 91/261/73 82/262/73
f 89/240/74 90/244/74 92/263/74 91/264/74
f 97/265/1 98/266/1 99/267/1 100/268/1
f 101/269/2 104/270/2 103/271/2 102/272/2
f 106/273/75 101/274/75 102/275/75 108/276/75
f 108/277/76 102/278/76 103/271/76 110/279/76
f 110/280/77 103/281/77 104/282/77 112/283/77
f 105/284/78 97/285/78 100/286/78 111/287/78
f 101/269/79 106/288/79 112/289/79 104/290/79
f 106/273/80 105/291/80 111/292/80 112/283/80
f 99/293/81 109/294/81 111/292/81 100/268/81
f 109/295/82 110/296/82 112/289/82 111/287/82
f 98/297/83 107/298/83 109/299/83 99/300/83
f 107/301/84 108/302/84 110/303/84 109/304/84
f 97/265/85 105/291/85 107/305/85 98/306/85
f 105/284/86 106/288/86 108/307/86 107/308/86
f 113/309/1 114/310/1 115/311/1 116/312/1
f 117/313/2 120/314/2 119/315/2 118/316/2
f 122/317/87 117/318/87 118/319/87 124/320/87
f 124/321/88 118/322/88 119/315/88 126/323/88
f 126/324/89 119/325/89 120/326/89 128/327/89
f 121/328/90 113/329/90 116/330/90 127/331/90
f 117/313/91 122/332/91 128/333/91 120/334/91
f 122/317/92 121/335/92 127/336/92 128/327/92
f 115/337/93 125/338/93 127/336/93 116/312/93
f 125/339/94 126/340/94 128/333/94 127/331/94
f 114/341/95 123/342/95 125/343/95 115/344/95
f 123/345/96 124/346/96 126/347/96 125/348/96
f 113/309/97 121/335/97 123/349/97 114/350/97
f 121/328/98 122/332/98 124/351/98 123/352/98
f 129/353/1 130/354/1 131/355/1 132/356/1
f 133/357/2 136/358/2 135/359/2 134/360/2
f 138/361/99 133/362/99 134/363/99 140/364/99
f 140/365/100 134/366/100 135/359/100 142/367/100
f 142/368/101 135/369/101 136/370/101 144/371/101
f 137/372/102 129/373/102 132/374/102 143/375/102
f 133/357/103 138/376/103 144/377/103 136/378/103
f 138/361/104 137/379/104 143/380/104 144/371/104
f 131/381/105 141/382/105 143/380/105 132/356/105
f 141/383/106 142/384/106 144/377/106 143/375/106
f 130/385/107 139/386/107 141/387/107 131/388/107
f 139/389/108 140/390/108 142/391/108 141/392/108
f 129/353/109 137/379/109 139/393/109 130/394/109
f 137/372/110 138/376/110 140/395/110 139/396/110
