# Blender v2.78 (sub 0) OBJ File: 'mediumrock3.blend'
# www.blender.org
g MediumRock3
v 1.003011 0.393876 -0.113282
v -0.500772 0.111576 -0.202607
v -0.225060 0.628600 0.939243
v -0.305618 0.405309 0.928715
v 0.737409 0.957855 0.472119
v -1.108645 0.754309 -0.076416
v 0.219796 2.432664 0.254591
v 0.407033 2.408070 -0.414743
v 0.765077 1.902243 -0.580357
v 0.326199 1.741231 -1.119624
v -0.076322 2.135699 -1.099825
v 0.020468 1.976991 -1.222448
v -0.869701 1.930398 0.010219
v -0.947196 1.820755 -0.171844
v -0.055795 2.370677 0.749058
v -0.156078 2.323711 0.764417
v 0.091328 2.106099 0.982285
v -0.038089 2.010790 0.977562
v 0.549094 2.291944 -0.151144
v -0.364973 1.443701 -1.338987
v -0.644725 1.233061 -1.165355
v -0.468218 1.077080 -1.335488
v -1.042144 1.541789 -0.111753
v -0.043145 1.558578 1.006568
v -0.062826 1.311809 1.021735
v -0.054747 1.188655 1.012828
v 0.146325 0.992016 -1.226548
v -0.811435 0.921849 -0.928702
v -0.893069 0.801452 -0.748971
v -1.038089 0.547735 -0.350981
v 1.076474 1.098033 -0.449832
v 1.165080 0.703148 -0.528176
v 1.134305 0.645885 -0.596132
v 0.220168 0.435698 -1.023797
v -0.188720 -0.010456 -0.241093
v 0.857789 0.331662 -0.681049
v 0.811486 0.129081 -0.266017
v 0.829731 0.113085 -0.174712
v 0.338761 -0.014515 0.078561
v 0.274957 -0.091579 0.027130
v -0.225060 0.628600 0.939243
v -0.225060 0.628600 0.939243
v -0.305618 0.405309 0.928715
v -0.305618 0.405309 0.928715
v -0.305618 0.405309 0.928715
v 0.407033 2.408070 -0.414743
v 0.407033 2.408070 -0.414743
v 0.407033 2.408070 -0.414743
v 0.549094 2.291944 -0.151144
v 0.549094 2.291944 -0.151144
v 0.765077 1.902243 -0.580357
v 0.765077 1.902243 -0.580357
v 0.326199 1.741231 -1.119624
v 0.326199 1.741231 -1.119624
v 0.020468 1.976991 -1.222448
v 0.020468 1.976991 -1.222448
v 0.020468 1.976991 -1.222448
v -0.076322 2.135699 -1.099825
v -0.076322 2.135699 -1.099825
v -0.644725 1.233061 -1.165355
v -0.644725 1.233061 -1.165355
v -0.947196 1.820755 -0.171844
v -0.947196 1.820755 -0.171844
v -0.947196 1.820755 -0.171844
v -0.869701 1.930398 0.010219
v -0.869701 1.930398 0.010219
v -1.042144 1.541789 -0.111753
v -1.042144 1.541789 -0.111753
v 0.219796 2.432664 0.254591
v -0.055795 2.370677 0.749058
v -0.055795 2.370677 0.749058
v -0.156078 2.323711 0.764417
v -0.156078 2.323711 0.764417
v 0.091328 2.106099 0.982285
v 0.091328 2.106099 0.982285
v 0.091328 2.106099 0.982285
v 0.091328 2.106099 0.982285
v -0.038089 2.010790 0.977562
v -0.038089 2.010790 0.977562
v 1.134305 0.645885 -0.596132
v 1.134305 0.645885 -0.596132
v -0.364973 1.443701 -1.338987
v -0.364973 1.443701 -1.338987
v -0.468218 1.077080 -1.335488
v -0.468218 1.077080 -1.335488
v -0.468218 1.077080 -1.335488
v 0.220168 0.435698 -1.023797
v 0.220168 0.435698 -1.023797
v 0.146325 0.992016 -1.226548
v 0.146325 0.992016 -1.226548
v -1.108645 0.754309 -0.076416
v -1.108645 0.754309 -0.076416
v -0.043145 1.558578 1.006568
v -0.043145 1.558578 1.006568
v -0.062826 1.311809 1.021735
v -0.062826 1.311809 1.021735
v -0.054747 1.188655 1.012828
v -0.054747 1.188655 1.012828
v 0.737409 0.957855 0.472119
v 0.737409 0.957855 0.472119
v -0.811435 0.921849 -0.928702
v -0.811435 0.921849 -0.928702
v -0.893069 0.801452 -0.748971
v -1.038089 0.547735 -0.350981
v -1.038089 0.547735 -0.350981
v 1.076474 1.098033 -0.449832
v 1.076474 1.098033 -0.449832
v 1.165080 0.703148 -0.528176
v 1.165080 0.703148 -0.528176
v 1.003011 0.393876 -0.113282
v 1.003011 0.393876 -0.113282
v -0.188720 -0.010456 -0.241093
v -0.188720 -0.010456 -0.241093
v -0.500772 0.111576 -0.202607
v -0.500772 0.111576 -0.202607
v 0.274957 -0.091579 0.027130
v 0.274957 -0.091579 0.027130
v 0.274957 -0.091579 0.027130
v 0.857789 0.331662 -0.681049
v 0.857789 0.331662 -0.681049
v 0.857789 0.331662 -0.681049
v 0.829731 0.113085 -0.174712
v 0.829731 0.113085 -0.174712
v 0.811486 0.129081 -0.266017
v 0.811486 0.129081 -0.266017
v 0.811486 0.129081 -0.266017
v 0.338761 -0.014515 0.078561
v 0.338761 -0.014515 0.078561
vt 0.4969 0.6302
vt 0.6060 0.5777
vt 0.6329 0.4597
vt 0.5574 0.3650
vt 0.4364 0.3650
vt 0.3609 0.4597
vt 0.3878 0.5777
vt 0.4969 0.6302
vt 0.6296 0.5338
vt 0.5789 0.3778
vt 0.4149 0.3778
vt 0.3642 0.5338
vt 0.4969 0.6302
vt 0.6296 0.5338
vt 0.5789 0.3778
vt 0.4149 0.3778
vt 0.3642 0.5338
vt 0.3574 0.3512
vt 0.6364 0.3512
vt 0.6364 0.6302
vt 0.3574 0.6302
vt 0.4969 0.6302
vt 0.6296 0.5338
vt 0.5789 0.3778
vt 0.4149 0.3778
vt 0.3642 0.5338
vt 0.4969 0.6302
vt 0.6296 0.5338
vt 0.5789 0.3778
vt 0.4149 0.3778
vt 0.3642 0.5338
vt 0.4969 0.6302
vt 0.6177 0.5605
vt 0.6177 0.4209
vt 0.4969 0.3512
vt 0.3761 0.4209
vt 0.3761 0.5605
vt 0.4969 0.6302
vt 0.6296 0.5338
vt 0.5789 0.3778
vt 0.4149 0.3778
vt 0.3642 0.5338
vt 0.3574 0.3512
vt 0.6364 0.3512
vt 0.6364 0.6302
vt 0.3574 0.6302
vt 0.3574 0.3512
vt 0.6364 0.3512
vt 0.6364 0.6302
vt 0.3574 0.6302
vt 0.3574 0.3512
vt 0.6364 0.3512
vt 0.6364 0.6302
vt 0.4969 0.6302
vt 0.6060 0.5777
vt 0.6329 0.4597
vt 0.5574 0.3650
vt 0.4364 0.3650
vt 0.3609 0.4597
vt 0.3878 0.5777
vt 0.4969 0.6302
vt 0.6296 0.5338
vt 0.5789 0.3778
vt 0.4149 0.3778
vt 0.3642 0.5338
vt 0.3574 0.3512
vt 0.6364 0.3512
vt 0.6364 0.6302
vt 0.4969 0.6302
vt 0.5866 0.5976
vt 0.6343 0.5149
vt 0.6177 0.4209
vt 0.5446 0.3596
vt 0.4492 0.3596
vt 0.3761 0.4209
vt 0.3595 0.5149
vt 0.4072 0.5976
vt 0.4969 0.6302
vt 0.5955 0.5893
vt 0.6364 0.4907
vt 0.5955 0.3920
vt 0.4969 0.3512
vt 0.3982 0.3920
vt 0.3574 0.4907
vt 0.3982 0.5893
vt 0.3574 0.3512
vt 0.6364 0.3512
vt 0.6364 0.6302
vt 0.3574 0.6302
vt 0.4969 0.6302
vt 0.6296 0.5338
vt 0.5789 0.3778
vt 0.4149 0.3778
vt 0.3642 0.5338
vt 0.3574 0.3512
vt 0.6364 0.3512
vt 0.6364 0.6302
vt 0.4969 0.6302
vt 0.6177 0.5605
vt 0.6177 0.4209
vt 0.4969 0.3512
vt 0.3761 0.4209
vt 0.3761 0.5605
vt 0.4969 0.6302
vt 0.6060 0.5777
vt 0.6329 0.4597
vt 0.5574 0.3650
vt 0.4364 0.3650
vt 0.3609 0.4597
vt 0.3878 0.5777
vt 0.3574 0.3512
vt 0.6364 0.3512
vt 0.6364 0.6302
vt 0.3574 0.6302
vt 0.3574 0.3512
vt 0.6364 0.3512
vt 0.6364 0.6302
vt 0.3574 0.3512
vt 0.6364 0.3512
vt 0.6364 0.6302
vt 0.3574 0.6302
vt 0.3574 0.3512
vt 0.6364 0.3512
vt 0.6364 0.6302
vt 0.3574 0.3512
vt 0.6364 0.3512
vt 0.6364 0.6302
vt 0.3574 0.6302
vn -0.9265 0.1340 -0.3515
vn 0.7502 0.2297 -0.6200
vn 0.1065 -0.8887 -0.4460
vn -0.3216 -0.9019 0.2884
vn 0.5348 -0.0566 0.8430
vn 0.4925 -0.0493 -0.8689
vn 0.8120 -0.5683 -0.1329
vn 0.6417 0.6910 0.3328
vn -0.6621 -0.6856 0.3027
vn 0.2182 0.0041 -0.9759
vn -0.9189 0.3514 0.1795
vn -0.3811 -0.7002 -0.6037
vn -0.6856 0.4844 -0.5434
vn 0.5340 -0.7285 0.4290
vn -0.7459 0.1078 0.6572
vn 0.5209 -0.4406 0.7311
vn 0.8903 0.4540 0.0358
vn 0.5468 0.5885 -0.5955
vn -0.0839 0.0647 0.9944
vn 0.8872 0.2543 0.3849
vn -0.4036 0.9062 -0.1258
vn -0.2753 0.5056 0.8177
vn -0.1572 -0.0815 0.9842
vn -0.6866 0.0159 -0.7269
vn 0.1488 -0.9685 -0.1994
vn 0.2846 -0.2947 -0.9122
s 1
f 91/1/1 67/2/1 62/3/1 60/4/1 101/5/1 103/6/1 104/7/1
f 80/8/2 53/9/2 52/10/2 106/11/2 108/12/2
f 88/13/3 119/14/3 124/15/3 116/16/3 113/17/3
f 44/18/4 114/19/4 112/20/4 118/21/4
f 97/22/5 99/23/5 76/24/5 94/25/5 95/26/5
f 90/27/6 55/28/6 54/29/6 81/30/6 120/31/6
f 125/32/7 121/33/7 33/34/7 109/35/7 111/36/7 122/37/7
f 70/38/8 74/39/8 49/40/8 46/41/8 69/42/8
f 92/43/9 105/44/9 115/45/9 45/46/9
f 89/47/10 84/48/10 82/49/10 57/50/10
f 64/51/11 68/52/11 65/53/11
f 85/54/12 87/55/12 35/56/12 2/57/12 30/58/12 29/59/12 102/60/12
f 58/61/13 56/62/13 83/63/13 61/64/13 63/65/13
f 128/66/14 117/67/14 126/68/14
f 96/69/15 93/70/15 78/71/15 72/72/15 66/73/15 23/74/15 6/75/15 43/76/15 41/77/15
f 100/78/16 98/79/16 42/80/16 4/81/16 40/82/16 127/83/16 123/84/16 110/85/16
f 51/86/17 47/87/17 50/88/17 107/89/17
f 59/90/18 48/91/18 9/92/18 10/93/18 12/94/18
f 24/95/19 75/96/19 79/97/19
f 31/98/20 19/99/20 77/100/20 5/101/20 1/102/20 32/103/20
f 7/104/21 8/105/21 11/106/21 14/107/21 13/108/21 73/109/21 71/110/21
f 16/111/22 18/112/22 17/113/22 15/114/22
f 3/115/23 26/116/23 25/117/23
f 21/118/24 20/119/24 86/120/24 28/121/24
f 38/122/25 39/123/25 37/124/25
f 34/125/26 22/126/26 27/127/26 36/128/26
