# Blender v2.78 (sub 0) OBJ File: 'pinetree1.blend'
# www.blender.org
g PineTree1
v 0.000000 0.057428 -0.429552
v 0.000000 2.206252 -0.429552
v 0.303739 0.057428 -0.303739
v 0.303739 2.206252 -0.303739
v 0.429552 0.057428 0.000000
v 0.429552 2.206252 0.000000
v 0.303739 0.057428 0.303739
v 0.303739 2.206252 0.303739
v -0.000000 0.057428 0.429552
v -0.000000 2.206252 0.429552
v -0.303739 0.057428 0.303739
v -0.303739 2.206252 0.303739
v -0.429552 0.057428 -0.000000
v -0.429552 2.206252 -0.000000
v -0.303739 0.057428 -0.303739
v -0.303739 2.206252 -0.303739
v -0.000000 0.964709 -0.340331
v 0.240650 0.964709 -0.240650
v 0.340331 0.964709 0.000000
v 0.240650 0.964709 0.240650
v -0.000000 0.964709 0.340331
v -0.240650 0.964709 0.240650
v -0.340331 0.964709 -0.000000
v -0.240650 0.964709 -0.240650
v 0.000000 1.916849 -1.667936
v -0.000000 9.150908 0.013053
v 1.214415 1.916849 -1.164908
v 0.025777 9.150908 0.023730
v 1.717443 1.916849 0.049507
v 0.036454 9.150908 0.049507
v 1.214415 1.916849 1.263922
v 0.025777 9.150908 0.075284
v -0.000000 1.916849 1.766950
v -0.000000 9.150908 0.085961
v -1.214416 1.916849 1.263922
v -0.025777 9.150908 0.075284
v -1.717443 1.916849 0.049507
v -0.036454 9.150908 0.049507
v -1.214416 1.916849 -1.164908
v -0.025777 9.150908 0.023730
v 0.000000 3.122525 -1.390011
v 0.000000 4.328202 -1.112086
v 0.000000 5.533878 -0.834161
v 0.000000 6.739555 -0.556236
v 0.000000 7.945232 -0.278311
v 0.231803 7.945232 -0.182295
v 0.428325 6.739556 -0.378818
v 0.624848 5.533880 -0.575341
v 0.821370 4.328202 -0.771863
v 1.017893 3.122525 -0.968386
v 0.327819 7.945232 0.049507
v 0.605743 6.739556 0.049507
v 0.883668 5.533880 0.049507
v 1.161593 4.328202 0.049507
v 1.439518 3.122525 0.049507
v 0.231803 7.945232 0.281310
v 0.428325 6.739556 0.477832
v 0.624848 5.533880 0.674355
v 0.821370 4.328202 0.870877
v 1.017893 3.122525 1.067400
v -0.000000 7.945232 0.377326
v -0.000000 6.739556 0.655251
v -0.000000 5.533880 0.933175
v -0.000000 4.328202 1.211100
v -0.000000 3.122525 1.489025
v -0.231803 7.945232 0.281310
v -0.428325 6.739556 0.477832
v -0.624848 5.533880 0.674355
v -0.821370 4.328202 0.870877
v -1.017893 3.122525 1.067400
v -0.327818 7.945232 0.049507
v -0.605743 6.739556 0.049507
v -0.883668 5.533880 0.049507
v -1.161593 4.328202 0.049507
v -1.439518 3.122525 0.049507
v -0.231803 7.945232 -0.182295
v -0.428325 6.739556 -0.378818
v -0.624848 5.533880 -0.575341
v -0.821370 4.328202 -0.771863
v -1.017893 3.122525 -0.968386
v 0.000000 7.818136 -0.605362
v 0.453605 7.945232 -0.404098
v 0.654869 7.818136 0.049507
v 0.453605 7.945232 0.503113
v -0.000000 7.818136 0.704376
v -0.453606 7.945232 0.503113
v -0.654869 7.818136 0.049507
v -0.453606 7.945232 -0.404098
v 0.000000 6.587323 -0.830510
v 0.609557 6.739556 -0.560050
v 0.880017 6.587324 0.049507
v 0.609557 6.739556 0.659065
v -0.000000 6.587324 0.929524
v -0.609557 6.739556 0.659064
v -0.880017 6.587324 0.049507
v -0.609557 6.739556 -0.560050
v 0.000000 5.356509 -1.146792
v 0.828635 5.533880 -0.779128
v 1.196300 5.356510 0.049507
v 0.828635 5.533880 0.878143
v -0.000000 5.356510 1.245807
v -0.828636 5.533880 0.878143
v -1.196300 5.356510 0.049507
v -0.828636 5.533880 -0.779128
v 0.000000 4.125696 -1.373518
v 0.985680 4.328202 -0.936173
v 1.423025 4.125696 0.049507
v 0.985680 4.328202 1.035187
v -0.000000 4.125696 1.472532
v -0.985680 4.328202 1.035187
v -1.423025 4.125696 0.049507
v -0.985680 4.328202 -0.936173
v 0.000000 2.894883 -1.657608
v 1.182460 3.122525 -1.132953
v 1.707115 2.894883 0.049507
v 1.182460 3.122525 1.231967
v -0.000000 2.894883 1.756622
v -1.182460 3.122525 1.231967
v -1.707115 2.894883 0.049507
v -1.182460 3.122525 -1.132953
v 1.503443 1.916849 -1.453936
v 2.170518 1.664070 0.049507
v 1.503443 1.916849 1.552950
v -0.000000 1.664070 2.220025
v -1.503443 1.916849 1.552950
v -2.170518 1.664069 0.049507
v -1.503443 1.916849 -1.453936
v 0.000000 1.664070 -2.121011
vt 0.0350 0.7047
vt 0.2829 0.7047
vt 0.2829 0.9526
vt 0.0350 0.9526
vt 0.0350 0.7047
vt 0.2829 0.7047
vt 0.2829 0.9526
vt 0.0350 0.9526
vt 0.0350 0.7047
vt 0.2829 0.7047
vt 0.2829 0.9526
vt 0.0350 0.9526
vt 0.0350 0.7047
vt 0.2829 0.7047
vt 0.2829 0.9526
vt 0.0350 0.9526
vt 0.0350 0.7047
vt 0.2829 0.7047
vt 0.2829 0.9526
vt 0.0350 0.9526
vt 0.0350 0.7047
vt 0.2829 0.7047
vt 0.2829 0.9526
vt 0.0350 0.9526
vt 0.1590 0.9526
vt 0.2466 0.9163
vt 0.2829 0.8286
vt 0.2466 0.7410
vt 0.1590 0.7047
vt 0.0713 0.7410
vt 0.0350 0.8286
vt 0.0713 0.9163
vt 0.0350 0.7047
vt 0.2829 0.7047
vt 0.2829 0.9526
vt 0.0350 0.9526
vt 0.0350 0.7047
vt 0.2829 0.7047
vt 0.2829 0.9526
vt 0.0350 0.9526
vt 0.1590 0.9526
vt 0.2466 0.9163
vt 0.2829 0.8286
vt 0.2466 0.7410
vt 0.1590 0.7047
vt 0.0713 0.7410
vt 0.0350 0.8286
vt 0.0713 0.9163
vt 0.0350 0.7047
vt 0.2829 0.7047
vt 0.2829 0.9526
vt 0.0350 0.9526
vt 0.0350 0.7047
vt 0.2829 0.7047
vt 0.2829 0.9526
vt 0.0350 0.9526
vt 0.0350 0.7047
vt 0.2829 0.7047
vt 0.2829 0.9526
vt 0.0350 0.9526
vt 0.0350 0.7047
vt 0.2829 0.7047
vt 0.2829 0.9526
vt 0.0350 0.9526
vt 0.0350 0.7047
vt 0.2829 0.7047
vt 0.2829 0.9526
vt 0.0350 0.9526
vt 0.0350 0.7047
vt 0.2829 0.7047
vt 0.2829 0.9526
vt 0.0350 0.9526
vt 0.0350 0.7047
vt 0.2829 0.7047
vt 0.2829 0.9526
vt 0.0350 0.9526
vt 0.0350 0.7047
vt 0.2829 0.7047
vt 0.2829 0.9526
vt 0.0350 0.9526
vt 0.0381 0.0350
vt 0.2860 0.0350
vt 0.2860 0.2829
vt 0.0381 0.2829
vt 0.0381 0.0350
vt 0.2860 0.0350
vt 0.2860 0.2829
vt 0.0381 0.2829
vt 0.0381 0.0350
vt 0.2860 0.0350
vt 0.2860 0.2829
vt 0.0381 0.2829
vt 0.0381 0.0350
vt 0.2860 0.0350
vt 0.2860 0.2829
vt 0.0381 0.2829
vt 0.0381 0.0350
vt 0.2860 0.0350
vt 0.2860 0.2829
vt 0.0381 0.2829
vt 0.0381 0.0350
vt 0.2860 0.0350
vt 0.2860 0.2829
vt 0.0381 0.2829
vt 0.1621 0.2829
vt 0.2497 0.2466
vt 0.2860 0.1590
vt 0.2497 0.0713
vt 0.1621 0.0350
vt 0.0744 0.0713
vt 0.0381 0.1590
vt 0.0744 0.2466
vt 0.0381 0.0350
vt 0.2860 0.0350
vt 0.2860 0.2829
vt 0.0381 0.2829
vt 0.0381 0.0350
vt 0.2860 0.0350
vt 0.2860 0.2829
vt 0.0381 0.2829
vt 0.1621 0.2829
vt 0.2497 0.2466
vt 0.2860 0.1590
vt 0.2497 0.0713
vt 0.1621 0.0350
vt 0.0744 0.0713
vt 0.0381 0.1590
vt 0.0744 0.2466
vt 0.0381 0.0350
vt 0.2860 0.0350
vt 0.2860 0.2829
vt 0.0381 0.2829
vt 0.0381 0.0350
vt 0.2860 0.0350
vt 0.2860 0.2829
vt 0.0381 0.2829
vt 0.0381 0.0350
vt 0.2860 0.0350
vt 0.2860 0.2829
vt 0.0381 0.2829
vt 0.0381 0.0350
vt 0.2860 0.0350
vt 0.2860 0.2829
vt 0.0381 0.2829
vt 0.0381 0.0350
vt 0.2860 0.0350
vt 0.2860 0.2829
vt 0.0381 0.2829
vt 0.0381 0.0350
vt 0.2860 0.0350
vt 0.2860 0.2829
vt 0.0381 0.2829
vt 0.0381 0.0350
vt 0.2860 0.0350
vt 0.2860 0.2829
vt 0.0381 0.2829
vt 0.0381 0.0350
vt 0.2860 0.0350
vt 0.2860 0.2829
vt 0.0381 0.2829
vt 0.0381 0.0350
vt 0.2860 0.0350
vt 0.2860 0.2829
vt 0.0381 0.2829
vt 0.0381 0.0350
vt 0.2860 0.0350
vt 0.2860 0.2829
vt 0.0381 0.2829
vt 0.0381 0.0350
vt 0.2860 0.0350
vt 0.2860 0.2829
vt 0.0381 0.2829
vt 0.0381 0.0350
vt 0.2860 0.0350
vt 0.2860 0.2829
vt 0.0381 0.2829
vt 0.0381 0.0350
vt 0.2860 0.0350
vt 0.2860 0.2829
vt 0.0381 0.2829
vt 0.0381 0.0350
vt 0.2860 0.0350
vt 0.2860 0.2829
vt 0.0381 0.2829
vt 0.0381 0.0350
vt 0.2860 0.0350
vt 0.2860 0.2829
vt 0.0381 0.2829
vt 0.0381 0.0350
vt 0.2860 0.0350
vt 0.2860 0.2829
vt 0.0381 0.2829
vt 0.0381 0.0350
vt 0.2860 0.0350
vt 0.2860 0.2829
vt 0.0381 0.2829
vt 0.0381 0.0350
vt 0.2860 0.0350
vt 0.2860 0.2829
vt 0.0381 0.2829
vt 0.0381 0.0350
vt 0.2860 0.0350
vt 0.2860 0.2829
vt 0.0381 0.2829
vt 0.0381 0.0350
vt 0.2860 0.0350
vt 0.2860 0.2829
vt 0.0381 0.2829
vt 0.0381 0.0350
vt 0.2860 0.0350
vt 0.2860 0.2829
vt 0.0381 0.2829
vt 0.0381 0.0350
vt 0.2860 0.0350
vt 0.2860 0.2829
vt 0.0381 0.2829
vt 0.0381 0.0350
vt 0.2860 0.0350
vt 0.2860 0.2829
vt 0.0381 0.2829
vt 0.0381 0.0350
vt 0.2860 0.0350
vt 0.2860 0.2829
vt 0.0381 0.2829
vt 0.0381 0.0350
vt 0.2860 0.0350
vt 0.2860 0.2829
vt 0.0381 0.2829
vt 0.0381 0.0350
vt 0.2860 0.0350
vt 0.2860 0.2829
vt 0.0381 0.2829
vt 0.0381 0.0350
vt 0.2860 0.0350
vt 0.2860 0.2829
vt 0.0381 0.2829
vt 0.0381 0.0350
vt 0.2860 0.0350
vt 0.2860 0.2829
vt 0.0381 0.2829
vt 0.0381 0.0350
vt 0.2860 0.0350
vt 0.2860 0.2829
vt 0.0381 0.2829
vt 0.0381 0.0350
vt 0.2860 0.0350
vt 0.2860 0.2829
vt 0.0381 0.2829
vt 0.0381 0.0350
vt 0.2860 0.0350
vt 0.2860 0.2829
vt 0.0381 0.2829
vt 0.0381 0.0350
vt 0.2860 0.0350
vt 0.2860 0.2829
vt 0.0381 0.2829
vt 0.0381 0.0350
vt 0.2860 0.0350
vt 0.2860 0.2829
vt 0.0381 0.2829
vt 0.0381 0.0350
vt 0.2860 0.0350
vt 0.2860 0.2829
vt 0.0381 0.2829
vt 0.0381 0.0350
vt 0.2860 0.0350
vt 0.2860 0.2829
vt 0.0381 0.2829
vt 0.0381 0.0350
vt 0.2860 0.0350
vt 0.2860 0.2829
vt 0.0381 0.2829
vt 0.0381 0.0350
vt 0.2860 0.0350
vt 0.2860 0.2829
vt 0.0381 0.2829
vt 0.0381 0.0350
vt 0.2860 0.0350
vt 0.2860 0.2829
vt 0.0381 0.2829
vt 0.0381 0.0350
vt 0.2860 0.0350
vt 0.2860 0.2829
vt 0.0381 0.2829
vt 0.0381 0.0350
vt 0.2860 0.0350
vt 0.2860 0.2829
vt 0.0381 0.2829
vt 0.0381 0.0350
vt 0.2860 0.0350
vt 0.2860 0.2829
vt 0.0381 0.2829
vt 0.0381 0.0350
vt 0.2860 0.0350
vt 0.2860 0.2829
vt 0.0381 0.2829
vt 0.0381 0.0350
vt 0.2860 0.0350
vt 0.2860 0.2829
vt 0.0381 0.2829
vt 0.0381 0.0350
vt 0.2860 0.0350
vt 0.2860 0.2829
vt 0.0381 0.2829
vt 0.0381 0.0350
vt 0.2860 0.0350
vt 0.2860 0.2829
vt 0.0381 0.2829
vt 0.0381 0.0350
vt 0.2860 0.0350
vt 0.2860 0.2829
vt 0.0381 0.2829
vt 0.0381 0.0350
vt 0.2860 0.0350
vt 0.2860 0.2829
vt 0.0381 0.2829
vt 0.0381 0.0350
vt 0.2860 0.0350
vt 0.2860 0.2829
vt 0.0381 0.2829
vt 0.0381 0.0350
vt 0.2860 0.0350
vt 0.2860 0.2829
vt 0.0381 0.2829
vt 0.0381 0.0350
vt 0.2860 0.0350
vt 0.2860 0.2829
vt 0.0381 0.2829
vt 0.0381 0.0350
vt 0.2860 0.0350
vt 0.2860 0.2829
vt 0.0381 0.2829
vt 0.0381 0.0350
vt 0.2860 0.0350
vt 0.2860 0.2829
vt 0.0381 0.2829
vt 0.0381 0.0350
vt 0.2860 0.0350
vt 0.2860 0.2829
vt 0.0381 0.2829
vt 0.0381 0.0350
vt 0.2860 0.0350
vt 0.2860 0.2829
vt 0.0381 0.2829
vt 0.0381 0.0350
vt 0.2860 0.0350
vt 0.2860 0.2829
vt 0.0381 0.2829
vt 0.0381 0.0350
vt 0.2860 0.0350
vt 0.2860 0.2829
vt 0.0381 0.2829
vt 0.0381 0.0350
vt 0.2860 0.0350
vt 0.2860 0.2829
vt 0.0381 0.2829
vt 0.0381 0.0350
vt 0.2860 0.0350
vt 0.2860 0.2829
vt 0.0381 0.2829
vt 0.0381 0.0350
vt 0.2860 0.0350
vt 0.2860 0.2829
vt 0.0381 0.2829
vt 0.0381 0.0350
vt 0.2860 0.0350
vt 0.2860 0.2829
vt 0.0381 0.2829
vt 0.0381 0.0350
vt 0.2860 0.0350
vt 0.2860 0.2829
vt 0.0381 0.2829
vt 0.0381 0.0350
vt 0.2860 0.0350
vt 0.2860 0.2829
vt 0.0381 0.2829
vt 0.0381 0.0350
vt 0.2860 0.0350
vt 0.2860 0.2829
vt 0.0381 0.2829
vt 0.0381 0.0350
vt 0.2860 0.0350
vt 0.2860 0.2829
vt 0.0381 0.2829
vt 0.0381 0.0350
vt 0.2860 0.0350
vt 0.2860 0.2829
vt 0.0381 0.2829
vt 0.0381 0.0350
vt 0.2860 0.0350
vt 0.2860 0.2829
vt 0.0381 0.2829
vt 0.0381 0.0350
vt 0.2860 0.0350
vt 0.2860 0.2829
vt 0.0381 0.2829
vt 0.0381 0.0350
vt 0.2860 0.0350
vt 0.2860 0.2829
vt 0.0381 0.2829
vt 0.0381 0.0350
vt 0.2860 0.0350
vt 0.2860 0.2829
vt 0.0381 0.2829
vt 0.0381 0.0350
vt 0.2860 0.0350
vt 0.2860 0.2829
vt 0.0381 0.2829
vt 0.0381 0.0350
vt 0.2860 0.0350
vt 0.2860 0.2829
vt 0.0381 0.2829
vt 0.0381 0.0350
vt 0.2860 0.0350
vt 0.2860 0.2829
vt 0.0381 0.2829
vt 0.0381 0.0350
vt 0.2860 0.0350
vt 0.2860 0.2829
vt 0.0381 0.2829
vt 0.0381 0.0350
vt 0.2860 0.0350
vt 0.2860 0.2829
vt 0.0381 0.2829
vt 0.0381 0.0350
vt 0.2860 0.0350
vt 0.2860 0.2829
vt 0.0381 0.2829
vt 0.0381 0.0350
vt 0.2860 0.0350
vt 0.2860 0.2829
vt 0.0381 0.2829
vt 0.0381 0.0350
vt 0.2860 0.0350
vt 0.2860 0.2829
vt 0.0381 0.2829
vt 0.0381 0.0350
vt 0.2860 0.0350
vt 0.2860 0.2829
vt 0.0381 0.2829
vt 0.0381 0.0350
vt 0.2860 0.0350
vt 0.2860 0.2829
vt 0.0381 0.2829
vt 0.0381 0.0350
vt 0.2860 0.0350
vt 0.2860 0.2829
vt 0.0381 0.2829
vt 0.0381 0.0350
vt 0.2860 0.0350
vt 0.2860 0.2829
vt 0.0381 0.2829
vt 0.0381 0.0350
vt 0.2860 0.0350
vt 0.2860 0.2829
vt 0.0381 0.2829
vt 0.0381 0.0350
vt 0.2860 0.0350
vt 0.2860 0.2829
vt 0.0381 0.2829
vt 0.0381 0.0350
vt 0.2860 0.0350
vt 0.2860 0.2829
vt 0.0381 0.2829
vt 0.0381 0.0350
vt 0.2860 0.0350
vt 0.2860 0.2829
vt 0.0381 0.2829
vt 0.0381 0.0350
vt 0.2860 0.0350
vt 0.2860 0.2829
vt 0.0381 0.2829
vt 0.0381 0.0350
vt 0.2860 0.0350
vt 0.2860 0.2829
vt 0.0381 0.2829
vt 0.0381 0.0350
vt 0.2860 0.0350
vt 0.2860 0.2829
vt 0.0381 0.2829
vn 0.3818 -0.0662 -0.9219
vn 0.9219 -0.0662 -0.3818
vn 0.9218 -0.0662 0.3818
vn 0.3818 -0.0662 0.9219
vn -0.3818 -0.0662 0.9218
vn -0.9219 -0.0662 0.3818
vn 0.0000 1.0000 0.0000
vn -0.9219 -0.0662 -0.3818
vn -0.3818 -0.0662 -0.9218
vn 0.0000 -1.0000 0.0000
vn -0.3811 0.0905 -0.9201
vn -0.9201 0.0905 -0.3811
vn -0.9201 0.0905 0.3811
vn -0.3811 0.0905 0.9201
vn 0.3811 0.0905 0.9201
vn 0.9201 0.0905 0.3811
vn 0.9201 0.0905 -0.3811
vn 0.3811 0.0905 -0.9201
vn 0.2775 0.4057 -0.8709
vn 0.8709 0.4057 -0.2775
vn 0.8709 0.4057 0.2775
vn 0.2775 0.4057 0.8709
vn -0.2775 0.4057 0.8709
vn -0.8709 0.4057 0.2775
vn -0.8709 0.4057 -0.2775
vn -0.2775 0.4057 -0.8709
vn -0.3181 0.4412 -0.8392
vn -0.3382 0.3468 -0.8748
vn -0.3348 0.3478 -0.8757
vn -0.3219 0.3815 -0.8665
vn -0.3157 0.3643 -0.8761
vn -0.8392 0.4412 -0.3181
vn -0.8748 0.3468 -0.3382
vn -0.8757 0.3478 -0.3348
vn -0.8665 0.3815 -0.3219
vn -0.8761 0.3643 -0.3157
vn -0.8392 0.4412 0.3181
vn -0.8748 0.3468 0.3382
vn -0.8757 0.3478 0.3348
vn -0.8665 0.3815 0.3219
vn -0.8761 0.3643 0.3157
vn -0.3181 0.4412 0.8392
vn -0.3382 0.3468 0.8748
vn -0.3348 0.3478 0.8757
vn -0.3219 0.3815 0.8665
vn -0.3157 0.3643 0.8761
vn 0.3181 0.4412 0.8392
vn 0.3382 0.3468 0.8748
vn 0.3348 0.3478 0.8757
vn 0.3219 0.3815 0.8665
vn 0.3157 0.3643 0.8761
vn 0.8392 0.4412 0.3181
vn 0.8748 0.3468 0.3382
vn 0.8757 0.3478 0.3348
vn 0.8665 0.3815 0.3219
vn 0.8761 0.3643 0.3157
vn 0.8392 0.4412 -0.3181
vn 0.8748 0.3468 -0.3382
vn 0.8757 0.3478 -0.3348
vn 0.8665 0.3815 -0.3219
vn 0.8761 0.3643 -0.3157
vn 0.3181 0.4412 -0.8392
vn 0.3382 0.3468 -0.8748
vn 0.3348 0.3478 -0.8757
vn 0.3219 0.3815 -0.8665
vn 0.3157 0.3643 -0.8761
vn -0.0698 -0.9653 0.2517
vn 0.2517 -0.9653 -0.0698
vn 0.2517 -0.9653 0.0698
vn -0.0698 -0.9653 -0.2517
vn 0.0698 -0.9653 -0.2517
vn -0.2517 -0.9653 0.0698
vn -0.2517 -0.9653 -0.0698
vn 0.0698 -0.9653 0.2517
vn 0.0020 -0.9482 0.3177
vn -0.3177 -0.9482 -0.0020
vn -0.3177 -0.9482 0.0020
vn 0.0020 -0.9482 -0.3177
vn -0.0020 -0.9482 -0.3177
vn 0.3177 -0.9482 0.0020
vn 0.3177 -0.9482 -0.0020
vn -0.0020 -0.9482 0.3177
vn -0.0211 -0.9481 0.3173
vn -0.3173 -0.9481 0.0211
vn -0.3173 -0.9481 -0.0211
vn -0.0211 -0.9481 -0.3173
vn 0.0211 -0.9481 -0.3173
vn 0.3173 -0.9481 -0.0211
vn 0.3173 -0.9481 0.0211
vn 0.0211 -0.9481 0.3173
vn -0.0724 -0.9112 0.4055
vn -0.4055 -0.9112 0.0724
vn -0.4055 -0.9112 -0.0724
vn -0.0724 -0.9112 -0.4055
vn 0.0724 -0.9112 -0.4055
vn 0.4055 -0.9112 -0.0724
vn 0.4055 -0.9112 0.0724
vn 0.0724 -0.9112 0.4055
vn -0.0947 -0.8952 0.4355
vn -0.4355 -0.8952 0.0947
vn -0.4355 -0.8952 -0.0947
vn -0.0947 -0.8952 -0.4355
vn 0.0947 -0.8952 -0.4355
vn 0.4355 -0.8952 -0.0947
vn 0.4355 -0.8952 0.0947
vn 0.0947 -0.8952 0.4355
vn -0.0437 -0.9508 0.3068
vn -0.3068 -0.9508 0.0437
vn -0.3068 -0.9508 -0.0437
vn -0.0437 -0.9508 -0.3068
vn 0.0437 -0.9508 -0.3068
vn 0.3068 -0.9508 -0.0437
vn 0.3068 -0.9508 0.0437
vn 0.0437 -0.9508 0.3068
s off
f 17/1/1 2/2/1 4/3/1 18/4/1
f 18/5/2 4/6/2 6/7/2 19/8/2
f 19/9/3 6/10/3 8/11/3 20/12/3
f 20/13/4 8/14/4 10/15/4 21/16/4
f 21/17/5 10/18/5 12/19/5 22/20/5
f 22/21/6 12/22/6 14/23/6 23/24/6
f 4/25/7 2/26/7 16/27/7 14/28/7 12/29/7 10/30/7 8/31/7 6/32/7
f 23/33/8 14/34/8 16/35/8 24/36/8
f 24/37/9 16/38/9 2/39/9 17/40/9
f 1/41/10 3/42/10 5/43/10 7/44/10 9/45/10 11/46/10 13/47/10 15/48/10
f 15/49/11 24/50/11 17/51/11 1/52/11
f 13/53/12 23/54/12 24/55/12 15/56/12
f 11/57/13 22/58/13 23/59/13 13/60/13
f 9/61/14 21/62/14 22/63/14 11/64/14
f 7/65/15 20/66/15 21/67/15 9/68/15
f 5/69/16 19/70/16 20/71/16 7/72/16
f 3/73/17 18/74/17 19/75/17 5/76/17
f 1/77/18 17/78/18 18/79/18 3/80/18
f 81/81/19 26/82/19 28/83/19 82/84/19
f 82/85/20 28/86/20 30/87/20 83/88/20
f 83/89/21 30/90/21 32/91/21 84/92/21
f 84/93/22 32/94/22 34/95/22 85/96/22
f 85/97/23 34/98/23 36/99/23 86/100/23
f 86/101/24 36/102/24 38/103/24 87/104/24
f 28/105/7 26/106/7 40/107/7 38/108/7 36/109/7 34/110/7 32/111/7 30/112/7
f 87/113/25 38/114/25 40/115/25 88/116/25
f 88/117/26 40/118/26 26/119/26 81/120/26
f 25/121/10 27/122/10 29/123/10 31/124/10 33/125/10 35/126/10 37/127/10 39/128/10
f 127/129/27 80/130/27 41/131/27 128/132/27
f 120/133/28 79/134/28 42/135/28 113/136/28
f 112/137/29 78/138/29 43/139/29 105/140/29
f 104/141/30 77/142/30 44/143/30 97/144/30
f 96/145/31 76/146/31 45/147/31 89/148/31
f 126/149/32 75/150/32 80/151/32 127/152/32
f 119/153/33 74/154/33 79/155/33 120/156/33
f 111/157/34 73/158/34 78/159/34 112/160/34
f 103/161/35 72/162/35 77/163/35 104/164/35
f 95/165/36 71/166/36 76/167/36 96/168/36
f 125/169/37 70/170/37 75/171/37 126/172/37
f 118/173/38 69/174/38 74/175/38 119/176/38
f 110/177/39 68/178/39 73/179/39 111/180/39
f 102/181/40 67/182/40 72/183/40 103/184/40
f 94/185/41 66/186/41 71/187/41 95/188/41
f 124/189/42 65/190/42 70/191/42 125/192/42
f 117/193/43 64/194/43 69/195/43 118/196/43
f 109/197/44 63/198/44 68/199/44 110/200/44
f 101/201/45 62/202/45 67/203/45 102/204/45
f 93/205/46 61/206/46 66/207/46 94/208/46
f 123/209/47 60/210/47 65/211/47 124/212/47
f 116/213/48 59/214/48 64/215/48 117/216/48
f 108/217/49 58/218/49 63/219/49 109/220/49
f 100/221/50 57/222/50 62/223/50 101/224/50
f 92/225/51 56/226/51 61/227/51 93/228/51
f 122/229/52 55/230/52 60/231/52 123/232/52
f 115/233/53 54/234/53 59/235/53 116/236/53
f 107/237/54 53/238/54 58/239/54 108/240/54
f 99/241/55 52/242/55 57/243/55 100/244/55
f 91/245/56 51/246/56 56/247/56 92/248/56
f 121/249/57 50/250/57 55/251/57 122/252/57
f 114/253/58 49/254/58 54/255/58 115/256/58
f 106/257/59 48/258/59 53/259/59 107/260/59
f 98/261/60 47/262/60 52/263/60 99/264/60
f 90/265/61 46/266/61 51/267/61 91/268/61
f 128/269/62 41/270/62 50/271/62 121/272/62
f 113/273/63 42/274/63 49/275/63 114/276/63
f 105/277/64 43/278/64 48/279/64 106/280/64
f 97/281/65 44/282/65 47/283/65 98/284/65
f 89/285/66 45/286/66 46/287/66 90/288/66
f 76/289/67 88/290/67 81/291/67 45/292/67
f 71/293/68 87/294/68 88/295/68 76/296/68
f 66/297/69 86/298/69 87/299/69 71/300/69
f 61/301/70 85/302/70 86/303/70 66/304/70
f 56/305/71 84/306/71 85/307/71 61/308/71
f 51/309/72 83/310/72 84/311/72 56/312/72
f 46/313/73 82/314/73 83/315/73 51/316/73
f 45/317/74 81/318/74 82/319/74 46/320/74
f 44/321/75 89/322/75 90/323/75 47/324/75
f 47/325/76 90/326/76 91/327/76 52/328/76
f 52/329/77 91/330/77 92/331/77 57/332/77
f 57/333/78 92/334/78 93/335/78 62/336/78
f 62/337/79 93/338/79 94/339/79 67/340/79
f 67/341/80 94/342/80 95/343/80 72/344/80
f 72/345/81 95/346/81 96/347/81 77/348/81
f 77/349/82 96/350/82 89/351/82 44/352/82
f 43/353/83 97/354/83 98/355/83 48/356/83
f 48/357/84 98/358/84 99/359/84 53/360/84
f 53/361/85 99/362/85 100/363/85 58/364/85
f 58/365/86 100/366/86 101/367/86 63/368/86
f 63/369/87 101/370/87 102/371/87 68/372/87
f 68/373/88 102/374/88 103/375/88 73/376/88
f 73/377/89 103/378/89 104/379/89 78/380/89
f 78/381/90 104/382/90 97/383/90 43/384/90
f 42/385/91 105/386/91 106/387/91 49/388/91
f 49/389/92 106/390/92 107/391/92 54/392/92
f 54/393/93 107/394/93 108/395/93 59/396/93
f 59/397/94 108/398/94 109/399/94 64/400/94
f 64/401/95 109/402/95 110/403/95 69/404/95
f 69/405/96 110/406/96 111/407/96 74/408/96
f 74/409/97 111/410/97 112/411/97 79/412/97
f 79/413/98 112/414/98 105/415/98 42/416/98
f 41/417/99 113/418/99 114/419/99 50/420/99
f 50/421/100 114/422/100 115/423/100 55/424/100
f 55/425/101 115/426/101 116/427/101 60/428/101
f 60/429/102 116/430/102 117/431/102 65/432/102
f 65/433/103 117/434/103 118/435/103 70/436/103
f 70/437/104 118/438/104 119/439/104 75/440/104
f 75/441/105 119/442/105 120/443/105 80/444/105
f 80/445/106 120/446/106 113/447/106 41/448/106
f 25/449/107 128/450/107 121/451/107 27/452/107
f 27/453/108 121/454/108 122/455/108 29/456/108
f 29/457/109 122/458/109 123/459/109 31/460/109
f 31/461/110 123/462/110 124/463/110 33/464/110
f 33/465/111 124/466/111 125/467/111 35/468/111
f 35/469/112 125/470/112 126/471/112 37/472/112
f 37/473/113 126/474/113 127/475/113 39/476/113
f 39/477/114 127/478/114 128/479/114 25/480/114
