# Blender v2.78 (sub 0) OBJ File: 'pinetree3.blend'
# www.blender.org
g PineTree3
v 0.000000 1.585833 -1.667936
v -0.000000 7.570662 0.013053
v 1.214415 1.585833 -1.164908
v 0.025777 7.570662 0.023730
v 1.717443 1.585833 0.049507
v 0.036454 7.570662 0.049507
v 1.214415 1.585833 1.263922
v 0.025777 7.570662 0.075284
v -0.000000 1.585833 1.766950
v -0.000000 7.570662 0.085961
v -1.214416 1.585833 1.263922
v -0.025777 7.570662 0.075284
v -1.717443 1.585833 0.049507
v -0.036454 7.570662 0.049507
v -1.214416 1.585833 -1.164908
v -0.025777 7.570662 0.023730
v 0.000000 2.583305 -1.390011
v 0.000000 3.580776 -1.112086
v 0.000000 4.578248 -0.834161
v 0.000000 5.575719 -0.556236
v 0.000000 6.573191 -0.278311
v 0.231803 6.573191 -0.182295
v 0.428325 5.575720 -0.378818
v 0.624848 4.578249 -0.575341
v 0.821370 3.580776 -0.771863
v 1.017893 2.583305 -0.968386
v 0.327819 6.573191 0.049507
v 0.605743 5.575720 0.049507
v 0.883668 4.578249 0.049507
v 1.161593 3.580776 0.049507
v 1.439518 2.583305 0.049507
v 0.231803 6.573191 0.281310
v 0.428325 5.575720 0.477832
v 0.624848 4.578249 0.674355
v 0.821370 3.580776 0.870877
v 1.017893 2.583305 1.067400
v -0.000000 6.573191 0.377326
v -0.000000 5.575720 0.655251
v -0.000000 4.578249 0.933175
v -0.000000 3.580776 1.211100
v -0.000000 2.583305 1.489025
v -0.231803 6.573191 0.281310
v -0.428325 5.575720 0.477832
v -0.624848 4.578249 0.674355
v -0.821370 3.580776 0.870877
v -1.017893 2.583305 1.067400
v -0.327818 6.573191 0.049507
v -0.605743 5.575720 0.049507
v -0.883668 4.578249 0.049507
v -1.161593 3.580776 0.049507
v -1.439518 2.583305 0.049507
v -0.231803 6.573191 -0.182295
v -0.428325 5.575720 -0.378818
v -0.624848 4.578249 -0.575341
v -0.821370 3.580776 -0.771863
v -1.017893 2.583305 -0.968386
v 0.000000 6.468043 -0.605362
v 0.453605 6.573191 -0.404098
v 0.654869 6.468043 0.049507
v 0.453605 6.573191 0.503113
v -0.000000 6.468043 0.704376
v -0.453606 6.573191 0.503113
v -0.654869 6.468043 0.049507
v -0.453606 6.573191 -0.404098
v 0.000000 5.449775 -0.830510
v 0.609557 5.575720 -0.560050
v 0.880017 5.449776 0.049507
v 0.609557 5.575720 0.659065
v -0.000000 5.449776 0.929524
v -0.609557 5.575720 0.659064
v -0.880017 5.449776 0.049507
v -0.609557 5.575720 -0.560050
v 0.000000 4.431508 -1.146792
v 0.828635 4.578249 -0.779128
v 1.196300 4.431509 0.049507
v 0.828635 4.578249 0.878143
v -0.000000 4.431509 1.245807
v -0.828636 4.578249 0.878143
v -1.196300 4.431509 0.049507
v -0.828636 4.578249 -0.779128
v 0.000000 3.413240 -1.373518
v 0.985680 3.580776 -0.936173
v 1.423025 3.413240 0.049507
v 0.985680 3.580776 1.035187
v -0.000000 3.413240 1.472532
v -0.985680 3.580776 1.035187
v -1.423025 3.413240 0.049507
v -0.985680 3.580776 -0.936173
v 0.000000 2.394974 -1.657608
v 1.182460 2.583305 -1.132953
v 1.707115 2.394974 0.049507
v 1.182460 2.583305 1.231967
v -0.000000 2.394974 1.756622
v -1.182460 2.583305 1.231967
v -1.707115 2.394974 0.049507
v -1.182460 2.583305 -1.132953
v 1.503443 1.585833 -1.453936
v 2.170518 1.376706 0.049507
v 1.503443 1.585833 1.552950
v -0.000000 1.376706 2.220025
v -1.503443 1.585833 1.552950
v -2.170518 1.376705 0.049507
v -1.503443 1.585833 -1.453936
v 0.000000 1.376706 -2.121011
v 0.000000 0.047511 -0.429552
v 0.000000 1.825261 -0.429552
v 0.303739 0.047511 -0.303739
v 0.303739 1.825261 -0.303739
v 0.429552 0.047511 0.000000
v 0.429552 1.825261 0.000000
v 0.303739 0.047511 0.303739
v 0.303739 1.825261 0.303739
v -0.000000 0.047511 0.429552
v -0.000000 1.825261 0.429552
v -0.303739 0.047511 0.303739
v -0.303739 1.825261 0.303739
v -0.429552 0.047511 -0.000000
v -0.429552 1.825261 -0.000000
v -0.303739 0.047511 -0.303739
v -0.303739 1.825261 -0.303739
v -0.000000 0.798116 -0.340331
v 0.240650 0.798116 -0.240650
v 0.340331 0.798116 0.000000
v 0.240650 0.798116 0.240650
v -0.000000 0.798116 0.340331
v -0.240650 0.798116 0.240650
v -0.340331 0.798116 -0.000000
v -0.240650 0.798116 -0.240650
vt 0.6128 0.2780
vt 0.3747 0.2780
vt 0.3747 0.0399
vt 0.6128 0.0399
vt 0.6128 0.2780
vt 0.3747 0.2780
vt 0.3747 0.0399
vt 0.6128 0.0399
vt 0.6128 0.2780
vt 0.3747 0.2780
vt 0.3747 0.0399
vt 0.6128 0.0399
vt 0.6128 0.2780
vt 0.3747 0.2780
vt 0.3747 0.0399
vt 0.6128 0.0399
vt 0.6128 0.2780
vt 0.3747 0.2780
vt 0.3747 0.0399
vt 0.6128 0.0399
vt 0.6128 0.2780
vt 0.3747 0.2780
vt 0.3747 0.0399
vt 0.6128 0.0399
vt 0.4938 0.0399
vt 0.4096 0.0748
vt 0.3747 0.1590
vt 0.4096 0.2431
vt 0.4938 0.2780
vt 0.5780 0.2431
vt 0.6128 0.1590
vt 0.5780 0.0748
vt 0.6128 0.2780
vt 0.3747 0.2780
vt 0.3747 0.0399
vt 0.6128 0.0399
vt 0.6128 0.2780
vt 0.3747 0.2780
vt 0.3747 0.0399
vt 0.6128 0.0399
vt 0.4938 0.0399
vt 0.4096 0.0748
vt 0.3747 0.1590
vt 0.4096 0.2431
vt 0.4938 0.2780
vt 0.5780 0.2431
vt 0.6128 0.1590
vt 0.5780 0.0748
vt 0.6128 0.2780
vt 0.3747 0.2780
vt 0.3747 0.0399
vt 0.6128 0.0399
vt 0.6128 0.2780
vt 0.3747 0.2780
vt 0.3747 0.0399
vt 0.6128 0.0399
vt 0.6128 0.2780
vt 0.3747 0.2780
vt 0.3747 0.0399
vt 0.6128 0.0399
vt 0.6128 0.2780
vt 0.3747 0.2780
vt 0.3747 0.0399
vt 0.6128 0.0399
vt 0.6128 0.2780
vt 0.3747 0.2780
vt 0.3747 0.0399
vt 0.6128 0.0399
vt 0.6128 0.2780
vt 0.3747 0.2780
vt 0.3747 0.0399
vt 0.6128 0.0399
vt 0.6128 0.2780
vt 0.3747 0.2780
vt 0.3747 0.0399
vt 0.6128 0.0399
vt 0.6128 0.2780
vt 0.3747 0.2780
vt 0.3747 0.0399
vt 0.6128 0.0399
vt 0.6128 0.2780
vt 0.3747 0.2780
vt 0.3747 0.0399
vt 0.6128 0.0399
vt 0.6128 0.2780
vt 0.3747 0.2780
vt 0.3747 0.0399
vt 0.6128 0.0399
vt 0.6128 0.2780
vt 0.3747 0.2780
vt 0.3747 0.0399
vt 0.6128 0.0399
vt 0.6128 0.2780
vt 0.3747 0.2780
vt 0.3747 0.0399
vt 0.6128 0.0399
vt 0.6128 0.2780
vt 0.3747 0.2780
vt 0.3747 0.0399
vt 0.6128 0.0399
vt 0.6128 0.2780
vt 0.3747 0.2780
vt 0.3747 0.0399
vt 0.6128 0.0399
vt 0.6128 0.2780
vt 0.3747 0.2780
vt 0.3747 0.0399
vt 0.6128 0.0399
vt 0.6128 0.2780
vt 0.3747 0.2780
vt 0.3747 0.0399
vt 0.6128 0.0399
vt 0.6128 0.2780
vt 0.3747 0.2780
vt 0.3747 0.0399
vt 0.6128 0.0399
vt 0.6128 0.2780
vt 0.3747 0.2780
vt 0.3747 0.0399
vt 0.6128 0.0399
vt 0.6128 0.2780
vt 0.3747 0.2780
vt 0.3747 0.0399
vt 0.6128 0.0399
vt 0.6128 0.2780
vt 0.3747 0.2780
vt 0.3747 0.0399
vt 0.6128 0.0399
vt 0.6128 0.2780
vt 0.3747 0.2780
vt 0.3747 0.0399
vt 0.6128 0.0399
vt 0.6128 0.2780
vt 0.3747 0.2780
vt 0.3747 0.0399
vt 0.6128 0.0399
vt 0.6128 0.2780
vt 0.3747 0.2780
vt 0.3747 0.0399
vt 0.6128 0.0399
vt 0.6128 0.2780
vt 0.3747 0.2780
vt 0.3747 0.0399
vt 0.6128 0.0399
vt 0.6128 0.2780
vt 0.3747 0.2780
vt 0.3747 0.0399
vt 0.6128 0.0399
vt 0.6128 0.2780
vt 0.3747 0.2780
vt 0.3747 0.0399
vt 0.6128 0.0399
vt 0.6128 0.2780
vt 0.3747 0.2780
vt 0.3747 0.0399
vt 0.6128 0.0399
vt 0.6128 0.2780
vt 0.3747 0.2780
vt 0.3747 0.0399
vt 0.6128 0.0399
vt 0.6128 0.2780
vt 0.3747 0.2780
vt 0.3747 0.0399
vt 0.6128 0.0399
vt 0.6128 0.2780
vt 0.3747 0.2780
vt 0.3747 0.0399
vt 0.6128 0.0399
vt 0.6128 0.2780
vt 0.3747 0.2780
vt 0.3747 0.0399
vt 0.6128 0.0399
vt 0.6128 0.2780
vt 0.3747 0.2780
vt 0.3747 0.0399
vt 0.6128 0.0399
vt 0.6128 0.2780
vt 0.3747 0.2780
vt 0.3747 0.0399
vt 0.6128 0.0399
vt 0.6128 0.2780
vt 0.3747 0.2780
vt 0.3747 0.0399
vt 0.6128 0.0399
vt 0.6128 0.2780
vt 0.3747 0.2780
vt 0.3747 0.0399
vt 0.6128 0.0399
vt 0.6128 0.2780
vt 0.3747 0.2780
vt 0.3747 0.0399
vt 0.6128 0.0399
vt 0.6128 0.2780
vt 0.3747 0.2780
vt 0.3747 0.0399
vt 0.6128 0.0399
vt 0.6128 0.2780
vt 0.3747 0.2780
vt 0.3747 0.0399
vt 0.6128 0.0399
vt 0.6128 0.2780
vt 0.3747 0.2780
vt 0.3747 0.0399
vt 0.6128 0.0399
vt 0.6128 0.2780
vt 0.3747 0.2780
vt 0.3747 0.0399
vt 0.6128 0.0399
vt 0.6128 0.2780
vt 0.3747 0.2780
vt 0.3747 0.0399
vt 0.6128 0.0399
vt 0.6128 0.2780
vt 0.3747 0.2780
vt 0.3747 0.0399
vt 0.6128 0.0399
vt 0.6128 0.2780
vt 0.3747 0.2780
vt 0.3747 0.0399
vt 0.6128 0.0399
vt 0.6128 0.2780
vt 0.3747 0.2780
vt 0.3747 0.0399
vt 0.6128 0.0399
vt 0.6128 0.2780
vt 0.3747 0.2780
vt 0.3747 0.0399
vt 0.6128 0.0399
vt 0.6128 0.2780
vt 0.3747 0.2780
vt 0.3747 0.0399
vt 0.6128 0.0399
vt 0.6128 0.2780
vt 0.3747 0.2780
vt 0.3747 0.0399
vt 0.6128 0.0399
vt 0.6128 0.2780
vt 0.3747 0.2780
vt 0.3747 0.0399
vt 0.6128 0.0399
vt 0.6128 0.2780
vt 0.3747 0.2780
vt 0.3747 0.0399
vt 0.6128 0.0399
vt 0.6128 0.2780
vt 0.3747 0.2780
vt 0.3747 0.0399
vt 0.6128 0.0399
vt 0.6128 0.2780
vt 0.3747 0.2780
vt 0.3747 0.0399
vt 0.6128 0.0399
vt 0.6128 0.2780
vt 0.3747 0.2780
vt 0.3747 0.0399
vt 0.6128 0.0399
vt 0.6128 0.2780
vt 0.3747 0.2780
vt 0.3747 0.0399
vt 0.6128 0.0399
vt 0.6128 0.2780
vt 0.3747 0.2780
vt 0.3747 0.0399
vt 0.6128 0.0399
vt 0.6128 0.2780
vt 0.3747 0.2780
vt 0.3747 0.0399
vt 0.6128 0.0399
vt 0.6128 0.2780
vt 0.3747 0.2780
vt 0.3747 0.0399
vt 0.6128 0.0399
vt 0.6128 0.2780
vt 0.3747 0.2780
vt 0.3747 0.0399
vt 0.6128 0.0399
vt 0.6128 0.2780
vt 0.3747 0.2780
vt 0.3747 0.0399
vt 0.6128 0.0399
vt 0.6128 0.2780
vt 0.3747 0.2780
vt 0.3747 0.0399
vt 0.6128 0.0399
vt 0.6128 0.2780
vt 0.3747 0.2780
vt 0.3747 0.0399
vt 0.6128 0.0399
vt 0.6128 0.2780
vt 0.3747 0.2780
vt 0.3747 0.0399
vt 0.6128 0.0399
vt 0.6128 0.2780
vt 0.3747 0.2780
vt 0.3747 0.0399
vt 0.6128 0.0399
vt 0.6128 0.2780
vt 0.3747 0.2780
vt 0.3747 0.0399
vt 0.6128 0.0399
vt 0.6128 0.2780
vt 0.3747 0.2780
vt 0.3747 0.0399
vt 0.6128 0.0399
vt 0.6128 0.2780
vt 0.3747 0.2780
vt 0.3747 0.0399
vt 0.6128 0.0399
vt 0.6128 0.2780
vt 0.3747 0.2780
vt 0.3747 0.0399
vt 0.6128 0.0399
vt 0.6128 0.2780
vt 0.3747 0.2780
vt 0.3747 0.0399
vt 0.6128 0.0399
vt 0.6128 0.2780
vt 0.3747 0.2780
vt 0.3747 0.0399
vt 0.6128 0.0399
vt 0.6128 0.2780
vt 0.3747 0.2780
vt 0.3747 0.0399
vt 0.6128 0.0399
vt 0.6128 0.2780
vt 0.3747 0.2780
vt 0.3747 0.0399
vt 0.6128 0.0399
vt 0.6128 0.2780
vt 0.3747 0.2780
vt 0.3747 0.0399
vt 0.6128 0.0399
vt 0.6128 0.2780
vt 0.3747 0.2780
vt 0.3747 0.0399
vt 0.6128 0.0399
vt 0.6128 0.2780
vt 0.3747 0.2780
vt 0.3747 0.0399
vt 0.6128 0.0399
vt 0.6128 0.2780
vt 0.3747 0.2780
vt 0.3747 0.0399
vt 0.6128 0.0399
vt 0.6128 0.2780
vt 0.3747 0.2780
vt 0.3747 0.0399
vt 0.6128 0.0399
vt 0.6128 0.2780
vt 0.3747 0.2780
vt 0.3747 0.0399
vt 0.6128 0.0399
vt 0.6128 0.2780
vt 0.3747 0.2780
vt 0.3747 0.0399
vt 0.6128 0.0399
vt 0.6128 0.2780
vt 0.3747 0.2780
vt 0.3747 0.0399
vt 0.6128 0.0399
vt 0.6128 0.2780
vt 0.3747 0.2780
vt 0.3747 0.0399
vt 0.6128 0.0399
vt 0.6128 0.2780
vt 0.3747 0.2780
vt 0.3747 0.0399
vt 0.6128 0.0399
vt 0.6128 0.2780
vt 0.3747 0.2780
vt 0.3747 0.0399
vt 0.6128 0.0399
vt 0.6128 0.2780
vt 0.3747 0.2780
vt 0.3747 0.0399
vt 0.6128 0.0399
vt 0.6128 0.2780
vt 0.3747 0.2780
vt 0.3747 0.0399
vt 0.6128 0.0399
vt 0.6128 0.2780
vt 0.3747 0.2780
vt 0.3747 0.0399
vt 0.6128 0.0399
vt 0.6128 0.2780
vt 0.3747 0.2780
vt 0.3747 0.0399
vt 0.6128 0.0399
vt 0.6128 0.2780
vt 0.3747 0.2780
vt 0.3747 0.0399
vt 0.6128 0.0399
vt 0.6128 0.2780
vt 0.3747 0.2780
vt 0.3747 0.0399
vt 0.6128 0.0399
vt 0.6128 0.2780
vt 0.3747 0.2780
vt 0.3747 0.0399
vt 0.6128 0.0399
vt 0.9570 0.9446
vt 0.7189 0.9446
vt 0.7189 0.7065
vt 0.9570 0.7065
vt 0.9570 0.9446
vt 0.7189 0.9446
vt 0.7189 0.7065
vt 0.9570 0.7065
vt 0.9570 0.9446
vt 0.7189 0.9446
vt 0.7189 0.7065
vt 0.9570 0.7065
vt 0.9570 0.9446
vt 0.7189 0.9446
vt 0.7189 0.7065
vt 0.9570 0.7065
vt 0.9570 0.9446
vt 0.7189 0.9446
vt 0.7189 0.7065
vt 0.9570 0.7065
vt 0.9570 0.9446
vt 0.7189 0.9446
vt 0.7189 0.7065
vt 0.9570 0.7065
vt 0.8379 0.7065
vt 0.7538 0.7414
vt 0.7189 0.8255
vt 0.7538 0.9097
vt 0.8379 0.9446
vt 0.9221 0.9097
vt 0.9570 0.8255
vt 0.9221 0.7414
vt 0.9570 0.9446
vt 0.7189 0.9446
vt 0.7189 0.7065
vt 0.9570 0.7065
vt 0.9570 0.9446
vt 0.7189 0.9446
vt 0.7189 0.7065
vt 0.9570 0.7065
vt 0.8379 0.7065
vt 0.7538 0.7414
vt 0.7189 0.8255
vt 0.7538 0.9097
vt 0.8379 0.9446
vt 0.9221 0.9097
vt 0.9570 0.8255
vt 0.9221 0.7414
vt 0.9570 0.9446
vt 0.7189 0.9446
vt 0.7189 0.7065
vt 0.9570 0.7065
vt 0.9570 0.9446
vt 0.7189 0.9446
vt 0.7189 0.7065
vt 0.9570 0.7065
vt 0.9570 0.9446
vt 0.7189 0.9446
vt 0.7189 0.7065
vt 0.9570 0.7065
vt 0.9570 0.9446
vt 0.7189 0.9446
vt 0.7189 0.7065
vt 0.9570 0.7065
vt 0.9570 0.9446
vt 0.7189 0.9446
vt 0.7189 0.7065
vt 0.9570 0.7065
vt 0.9570 0.9446
vt 0.7189 0.9446
vt 0.7189 0.7065
vt 0.9570 0.7065
vt 0.9570 0.9446
vt 0.7189 0.9446
vt 0.7189 0.7065
vt 0.9570 0.7065
vt 0.9570 0.9446
vt 0.7189 0.9446
vt 0.7189 0.7065
vt 0.9570 0.7065
vn 0.2675 0.4728 -0.8396
vn 0.8396 0.4728 -0.2675
vn 0.8396 0.4728 0.2675
vn 0.2675 0.4728 0.8396
vn -0.2675 0.4728 0.8396
vn -0.8396 0.4728 0.2675
vn 0.0000 1.0000 0.0000
vn -0.8396 0.4728 -0.2675
vn -0.2675 0.4728 -0.8396
vn 0.0000 -1.0000 0.0000
vn -0.3047 0.5108 -0.8039
vn -0.3292 0.4081 -0.8515
vn -0.3258 0.4092 -0.8523
vn -0.3117 0.4463 -0.8388
vn -0.3065 0.4275 -0.8505
vn -0.8039 0.5108 -0.3047
vn -0.8515 0.4081 -0.3292
vn -0.8523 0.4092 -0.3258
vn -0.8388 0.4463 -0.3117
vn -0.8505 0.4275 -0.3065
vn -0.8039 0.5108 0.3047
vn -0.8515 0.4081 0.3292
vn -0.8523 0.4092 0.3258
vn -0.8388 0.4463 0.3117
vn -0.8505 0.4275 0.3065
vn -0.3047 0.5108 0.8039
vn -0.3292 0.4081 0.8515
vn -0.3258 0.4092 0.8523
vn -0.3117 0.4463 0.8388
vn -0.3065 0.4275 0.8505
vn 0.3047 0.5108 0.8039
vn 0.3292 0.4081 0.8515
vn 0.3258 0.4092 0.8523
vn 0.3117 0.4463 0.8388
vn 0.3065 0.4275 0.8505
vn 0.8039 0.5108 0.3047
vn 0.8515 0.4081 0.3292
vn 0.8523 0.4092 0.3258
vn 0.8388 0.4463 0.3117
vn 0.8505 0.4275 0.3065
vn 0.8039 0.5108 -0.3047
vn 0.8515 0.4081 -0.3292
vn 0.8523 0.4092 -0.3258
vn 0.8388 0.4463 -0.3117
vn 0.8505 0.4275 -0.3065
vn 0.3047 0.5108 -0.8039
vn 0.3292 0.4081 -0.8515
vn 0.3258 0.4092 -0.8523
vn 0.3117 0.4463 -0.8388
vn 0.3065 0.4275 -0.8505
vn -0.0584 -0.9758 0.2105
vn 0.2105 -0.9758 -0.0584
vn 0.2105 -0.9758 0.0584
vn -0.0584 -0.9758 -0.2105
vn 0.0584 -0.9758 -0.2105
vn -0.2105 -0.9758 0.0584
vn -0.2105 -0.9758 -0.0584
vn 0.0584 -0.9758 0.2105
vn 0.0017 -0.9637 0.2671
vn -0.2671 -0.9637 -0.0017
vn -0.2671 -0.9637 0.0017
vn 0.0017 -0.9637 -0.2671
vn -0.0017 -0.9637 -0.2671
vn 0.2671 -0.9637 0.0017
vn 0.2671 -0.9637 -0.0017
vn -0.0017 -0.9637 0.2671
vn -0.0177 -0.9636 0.2668
vn -0.2668 -0.9636 0.0177
vn -0.2668 -0.9636 -0.0177
vn -0.0177 -0.9636 -0.2668
vn 0.0177 -0.9636 -0.2668
vn 0.2668 -0.9636 -0.0177
vn 0.2668 -0.9636 0.0177
vn 0.0177 -0.9636 0.2668
vn -0.0615 -0.9366 0.3448
vn -0.3448 -0.9366 0.0615
vn -0.3448 -0.9366 -0.0615
vn -0.0615 -0.9366 -0.3448
vn 0.0615 -0.9366 -0.3448
vn 0.3448 -0.9366 -0.0615
vn 0.3448 -0.9366 0.0615
vn 0.0615 -0.9366 0.3448
vn -0.0809 -0.9246 0.3721
vn -0.3721 -0.9246 0.0809
vn -0.3721 -0.9246 -0.0809
vn -0.0809 -0.9246 -0.3721
vn 0.0809 -0.9246 -0.3721
vn 0.3721 -0.9246 -0.0809
vn 0.3721 -0.9246 0.0809
vn 0.0809 -0.9246 0.3721
vn -0.0367 -0.9655 0.2578
vn -0.2578 -0.9655 0.0367
vn -0.2578 -0.9655 -0.0367
vn -0.0367 -0.9655 -0.2578
vn 0.0367 -0.9655 -0.2578
vn 0.2578 -0.9655 -0.0367
vn 0.2578 -0.9655 0.0367
vn 0.0367 -0.9655 0.2578
vn 0.3815 -0.0800 -0.9209
vn 0.9209 -0.0800 -0.3815
vn 0.9209 -0.0800 0.3815
vn 0.3815 -0.0800 0.9209
vn -0.3815 -0.0800 0.9209
vn -0.9209 -0.0800 0.3815
vn -0.9209 -0.0800 -0.3815
vn -0.3815 -0.0800 -0.9209
vn -0.3804 0.1092 -0.9184
vn -0.9184 0.1092 -0.3804
vn -0.9184 0.1092 0.3804
vn -0.3804 0.1092 0.9184
vn 0.3804 0.1092 0.9184
vn 0.9184 0.1092 0.3804
vn 0.9184 0.1092 -0.3804
vn 0.3804 0.1092 -0.9184
s off
f 57/1/1 2/2/1 4/3/1 58/4/1
f 58/5/2 4/6/2 6/7/2 59/8/2
f 59/9/3 6/10/3 8/11/3 60/12/3
f 60/13/4 8/14/4 10/15/4 61/16/4
f 61/17/5 10/18/5 12/19/5 62/20/5
f 62/21/6 12/22/6 14/23/6 63/24/6
f 4/25/7 2/26/7 16/27/7 14/28/7 12/29/7 10/30/7 8/31/7 6/32/7
f 63/33/8 14/34/8 16/35/8 64/36/8
f 64/37/9 16/38/9 2/39/9 57/40/9
f 1/41/10 3/42/10 5/43/10 7/44/10 9/45/10 11/46/10 13/47/10 15/48/10
f 103/49/11 56/50/11 17/51/11 104/52/11
f 96/53/12 55/54/12 18/55/12 89/56/12
f 88/57/13 54/58/13 19/59/13 81/60/13
f 80/61/14 53/62/14 20/63/14 73/64/14
f 72/65/15 52/66/15 21/67/15 65/68/15
f 102/69/16 51/70/16 56/71/16 103/72/16
f 95/73/17 50/74/17 55/75/17 96/76/17
f 87/77/18 49/78/18 54/79/18 88/80/18
f 79/81/19 48/82/19 53/83/19 80/84/19
f 71/85/20 47/86/20 52/87/20 72/88/20
f 101/89/21 46/90/21 51/91/21 102/92/21
f 94/93/22 45/94/22 50/95/22 95/96/22
f 86/97/23 44/98/23 49/99/23 87/100/23
f 78/101/24 43/102/24 48/103/24 79/104/24
f 70/105/25 42/106/25 47/107/25 71/108/25
f 100/109/26 41/110/26 46/111/26 101/112/26
f 93/113/27 40/114/27 45/115/27 94/116/27
f 85/117/28 39/118/28 44/119/28 86/120/28
f 77/121/29 38/122/29 43/123/29 78/124/29
f 69/125/30 37/126/30 42/127/30 70/128/30
f 99/129/31 36/130/31 41/131/31 100/132/31
f 92/133/32 35/134/32 40/135/32 93/136/32
f 84/137/33 34/138/33 39/139/33 85/140/33
f 76/141/34 33/142/34 38/143/34 77/144/34
f 68/145/35 32/146/35 37/147/35 69/148/35
f 98/149/36 31/150/36 36/151/36 99/152/36
f 91/153/37 30/154/37 35/155/37 92/156/37
f 83/157/38 29/158/38 34/159/38 84/160/38
f 75/161/39 28/162/39 33/163/39 76/164/39
f 67/165/40 27/166/40 32/167/40 68/168/40
f 97/169/41 26/170/41 31/171/41 98/172/41
f 90/173/42 25/174/42 30/175/42 91/176/42
f 82/177/43 24/178/43 29/179/43 83/180/43
f 74/181/44 23/182/44 28/183/44 75/184/44
f 66/185/45 22/186/45 27/187/45 67/188/45
f 104/189/46 17/190/46 26/191/46 97/192/46
f 89/193/47 18/194/47 25/195/47 90/196/47
f 81/197/48 19/198/48 24/199/48 82/200/48
f 73/201/49 20/202/49 23/203/49 74/204/49
f 65/205/50 21/206/50 22/207/50 66/208/50
f 52/209/51 64/210/51 57/211/51 21/212/51
f 47/213/52 63/214/52 64/215/52 52/216/52
f 42/217/53 62/218/53 63/219/53 47/220/53
f 37/221/54 61/222/54 62/223/54 42/224/54
f 32/225/55 60/226/55 61/227/55 37/228/55
f 27/229/56 59/230/56 60/231/56 32/232/56
f 22/233/57 58/234/57 59/235/57 27/236/57
f 21/237/58 57/238/58 58/239/58 22/240/58
f 20/241/59 65/242/59 66/243/59 23/244/59
f 23/245/60 66/246/60 67/247/60 28/248/60
f 28/249/61 67/250/61 68/251/61 33/252/61
f 33/253/62 68/254/62 69/255/62 38/256/62
f 38/257/63 69/258/63 70/259/63 43/260/63
f 43/261/64 70/262/64 71/263/64 48/264/64
f 48/265/65 71/266/65 72/267/65 53/268/65
f 53/269/66 72/270/66 65/271/66 20/272/66
f 19/273/67 73/274/67 74/275/67 24/276/67
f 24/277/68 74/278/68 75/279/68 29/280/68
f 29/281/69 75/282/69 76/283/69 34/284/69
f 34/285/70 76/286/70 77/287/70 39/288/70
f 39/289/71 77/290/71 78/291/71 44/292/71
f 44/293/72 78/294/72 79/295/72 49/296/72
f 49/297/73 79/298/73 80/299/73 54/300/73
f 54/301/74 80/302/74 73/303/74 19/304/74
f 18/305/75 81/306/75 82/307/75 25/308/75
f 25/309/76 82/310/76 83/311/76 30/312/76
f 30/313/77 83/314/77 84/315/77 35/316/77
f 35/317/78 84/318/78 85/319/78 40/320/78
f 40/321/79 85/322/79 86/323/79 45/324/79
f 45/325/80 86/326/80 87/327/80 50/328/80
f 50/329/81 87/330/81 88/331/81 55/332/81
f 55/333/82 88/334/82 81/335/82 18/336/82
f 17/337/83 89/338/83 90/339/83 26/340/83
f 26/341/84 90/342/84 91/343/84 31/344/84
f 31/345/85 91/346/85 92/347/85 36/348/85
f 36/349/86 92/350/86 93/351/86 41/352/86
f 41/353/87 93/354/87 94/355/87 46/356/87
f 46/357/88 94/358/88 95/359/88 51/360/88
f 51/361/89 95/362/89 96/363/89 56/364/89
f 56/365/90 96/366/90 89/367/90 17/368/90
f 1/369/91 104/370/91 97/371/91 3/372/91
f 3/373/92 97/374/92 98/375/92 5/376/92
f 5/377/93 98/378/93 99/379/93 7/380/93
f 7/381/94 99/382/94 100/383/94 9/384/94
f 9/385/95 100/386/95 101/387/95 11/388/95
f 11/389/96 101/390/96 102/391/96 13/392/96
f 13/393/97 102/394/97 103/395/97 15/396/97
f 15/397/98 103/398/98 104/399/98 1/400/98
f 121/401/99 106/402/99 108/403/99 122/404/99
f 122/405/100 108/406/100 110/407/100 123/408/100
f 123/409/101 110/410/101 112/411/101 124/412/101
f 124/413/102 112/414/102 114/415/102 125/416/102
f 125/417/103 114/418/103 116/419/103 126/420/103
f 126/421/104 116/422/104 118/423/104 127/424/104
f 108/425/7 106/426/7 120/427/7 118/428/7 116/429/7 114/430/7 112/431/7 110/432/7
f 127/433/105 118/434/105 120/435/105 128/436/105
f 128/437/106 120/438/106 106/439/106 121/440/106
f 105/441/10 107/442/10 109/443/10 111/444/10 113/445/10 115/446/10 117/447/10 119/448/10
f 119/449/107 128/450/107 121/451/107 105/452/107
f 117/453/108 127/454/108 128/455/108 119/456/108
f 115/457/109 126/458/109 127/459/109 117/460/109
f 113/461/110 125/462/110 126/463/110 115/464/110
f 111/465/111 124/466/111 125/467/111 113/468/111
f 109/469/112 123/470/112 124/471/112 111/472/112
f 107/473/113 122/474/113 123/475/113 109/476/113
f 105/477/114 121/478/114 122/479/114 107/480/114
