# Blender v2.79 (sub 0) OBJ File: 'untitled.blend'
# www.blender.org
g rocks1
v -0.028311 -0.006050 0.182414
v 0.196005 -0.008660 0.345387
v -0.113991 -0.008660 0.446113
v -0.305583 -0.008660 0.182414
v -0.113991 -0.008660 -0.081284
v 0.196005 -0.008660 0.019441
v 0.057368 0.208359 0.415121
v -0.252627 0.159164 0.345387
v -0.252627 0.159164 0.019441
v 0.057368 0.159164 -0.081284
v 0.248961 0.159164 0.182414
v -0.028311 0.308387 0.182414
v -0.028280 0.001773 -0.225470
v 0.196036 -0.007047 -0.062497
v -0.113960 -0.007047 0.038228
v -0.305552 -0.007047 -0.225470
v -0.113960 -0.007047 -0.489168
v 0.196036 -0.007047 -0.388443
v 0.057399 0.835864 0.007237
v -0.252596 0.519372 -0.062497
v -0.252596 0.519372 -0.388443
v 0.057399 0.519372 -0.489168
v 0.248991 0.519372 -0.225470
v -0.028280 0.861193 -0.225470
v 0.338119 -0.023587 -0.042824
v 0.449190 -0.013315 0.037873
v 0.295695 -0.013315 0.087748
v 0.200827 -0.013315 -0.042824
v 0.295695 -0.013315 -0.173395
v 0.449190 -0.013315 -0.123521
v 0.380543 0.094142 0.072402
v 0.227048 0.069783 0.037873
v 0.227048 0.069783 -0.123521
v 0.380543 0.069783 -0.173395
v 0.475411 0.069783 -0.042824
v 0.338119 0.143672 -0.042824
v 0.303540 -0.017186 -0.209840
v 0.348994 -0.012982 -0.176816
v 0.286178 -0.012982 -0.156406
v 0.247355 -0.012982 -0.209840
v 0.286178 -0.012982 -0.263274
v 0.348994 -0.012982 -0.242864
v 0.320901 0.030993 -0.162686
v 0.258086 0.021025 -0.176816
v 0.258086 0.021025 -0.242864
v 0.320901 0.021025 -0.263274
v 0.359725 0.021025 -0.209840
v 0.303540 0.051262 -0.209840
v 0.250684 -0.017186 0.139231
v 0.296138 -0.012982 0.172254
v 0.233323 -0.012982 0.192665
v 0.194500 -0.012982 0.139231
v 0.233323 -0.012982 0.085796
v 0.296138 -0.012982 0.106207
v 0.268046 0.030993 0.186385
v 0.205230 0.021025 0.172254
v 0.205230 0.021025 0.106207
v 0.268046 0.021025 0.085796
v 0.306869 0.021025 0.139231
v 0.250684 0.051262 0.139231
v 0.341450 -0.009836 0.113645
v 0.373104 -0.006909 0.136642
v 0.329360 -0.006909 0.150855
v 0.302324 -0.006909 0.113645
v 0.329360 -0.006909 0.076434
v 0.373104 -0.006909 0.090647
v 0.353540 0.023715 0.146482
v 0.309796 0.016773 0.136642
v 0.309796 0.016773 0.090647
v 0.353540 0.016773 0.076434
v 0.380576 0.016773 0.113645
v 0.341450 0.037830 0.113645
vt 0.375462 0.375462
vt 0.624538 0.375462
vt 0.624538 0.624538
vt 0.375462 0.375462
vt 0.624538 0.375462
vt 0.624538 0.624538
vt 0.624538 0.375462
vt 0.624538 0.624538
vt 0.624538 0.375462
vt 0.624538 0.624538
vt 0.624538 0.375462
vt 0.624538 0.375462
vt 0.624538 0.624538
vt 0.375462 0.375462
vt 0.624538 0.624538
vt 0.375462 0.375462
vt 0.624538 0.624538
vt 0.375462 0.375462
vt 0.624538 0.624538
vt 0.375462 0.375462
vt 0.624538 0.624538
vt 0.624538 0.375462
vt 0.624538 0.375462
vt 0.624538 0.375462
vt 0.624538 0.375462
vt 0.624538 0.375462
vt 0.375462 0.375462
vt 0.624538 0.624538
vt 0.375462 0.375462
vt 0.375462 0.375462
vt 0.375462 0.375462
vt 0.375462 0.375462
vt 0.375462 0.375462
vt 0.624538 0.375462
vt 0.624538 0.624538
vt 0.375462 0.375462
vt 0.624538 0.375462
vt 0.624538 0.624538
vt 0.624538 0.375462
vt 0.624538 0.624538
vt 0.624538 0.375462
vt 0.624538 0.624538
vt 0.624538 0.375462
vt 0.624538 0.375462
vt 0.624538 0.624538
vt 0.375462 0.375462
vt 0.624538 0.624538
vt 0.375462 0.375462
vt 0.624538 0.624538
vt 0.375462 0.375462
vt 0.624538 0.624538
vt 0.375462 0.375462
vt 0.624538 0.624538
vt 0.624538 0.375462
vt 0.624538 0.375462
vt 0.624538 0.375462
vt 0.624538 0.375462
vt 0.624538 0.375462
vt 0.375462 0.375462
vt 0.624538 0.624538
vt 0.375462 0.375462
vt 0.375462 0.375462
vt 0.375462 0.375462
vt 0.375462 0.375462
vt 0.375462 0.375462
vt 0.624538 0.375462
vt 0.624538 0.624538
vt 0.375462 0.375462
vt 0.624538 0.375462
vt 0.624538 0.624538
vt 0.624538 0.375462
vt 0.624538 0.624538
vt 0.624538 0.375462
vt 0.624538 0.624538
vt 0.624538 0.375462
vt 0.624538 0.375462
vt 0.624538 0.624538
vt 0.375462 0.375462
vt 0.624538 0.624538
vt 0.375462 0.375462
vt 0.624538 0.624538
vt 0.375462 0.375462
vt 0.624538 0.624538
vt 0.375462 0.375462
vt 0.624538 0.624538
vt 0.624538 0.375462
vt 0.624538 0.375462
vt 0.624538 0.375462
vt 0.624538 0.375462
vt 0.624538 0.375462
vt 0.375462 0.375462
vt 0.624538 0.624538
vt 0.375462 0.375462
vt 0.375462 0.375462
vt 0.375462 0.375462
vt 0.375462 0.375462
vt 0.375462 0.375462
vt 0.624538 0.375462
vt 0.624538 0.624538
vt 0.375462 0.375462
vt 0.624538 0.375462
vt 0.624538 0.624538
vt 0.624538 0.375462
vt 0.624538 0.624538
vt 0.624538 0.375462
vt 0.624538 0.624538
vt 0.624538 0.375462
vt 0.624538 0.375462
vt 0.624538 0.624538
vt 0.375462 0.375462
vt 0.624538 0.624538
vt 0.375462 0.375462
vt 0.624538 0.624538
vt 0.375462 0.375462
vt 0.624538 0.624538
vt 0.375462 0.375462
vt 0.624538 0.624538
vt 0.624538 0.375462
vt 0.624538 0.375462
vt 0.624538 0.375462
vt 0.624538 0.375462
vt 0.624538 0.375462
vt 0.375462 0.375462
vt 0.624538 0.624538
vt 0.375462 0.375462
vt 0.375462 0.375462
vt 0.375462 0.375462
vt 0.375462 0.375462
vt 0.375462 0.375462
vt 0.624538 0.375462
vt 0.624538 0.624538
vt 0.375462 0.375462
vt 0.624538 0.375462
vt 0.624538 0.624538
vt 0.624538 0.375462
vt 0.624538 0.624538
vt 0.624538 0.375462
vt 0.624538 0.624538
vt 0.624538 0.375462
vt 0.624538 0.375462
vt 0.624538 0.624538
vt 0.375462 0.375462
vt 0.624538 0.624538
vt 0.375462 0.375462
vt 0.624538 0.624538
vt 0.375462 0.375462
vt 0.624538 0.624538
vt 0.375462 0.375462
vt 0.624538 0.624538
vt 0.624538 0.375462
vt 0.624538 0.375462
vt 0.624538 0.375462
vt 0.624538 0.375462
vt 0.624538 0.375462
vt 0.375462 0.375462
vt 0.624538 0.624538
vt 0.375462 0.375462
vt 0.375462 0.375462
vt 0.375462 0.375462
vt 0.375462 0.375462
vt 0.375462 0.375462
vt 0.624538 0.375462
vt 0.624538 0.624538
vt 0.375462 0.375462
vt 0.624538 0.375462
vt 0.624538 0.624538
vt 0.624538 0.375462
vt 0.624538 0.624538
vt 0.624538 0.375462
vt 0.624538 0.624538
vt 0.624538 0.375462
vt 0.624538 0.375462
vt 0.624538 0.624538
vt 0.375462 0.375462
vt 0.624538 0.624538
vt 0.375462 0.375462
vt 0.624538 0.624538
vt 0.375462 0.375462
vt 0.624538 0.624538
vt 0.375462 0.375462
vt 0.624538 0.624538
vt 0.624538 0.375462
vt 0.624538 0.375462
vt 0.624538 0.375462
vt 0.624538 0.375462
vt 0.624538 0.375462
vt 0.375462 0.375462
vt 0.624538 0.624538
vt 0.375462 0.375462
vt 0.375462 0.375462
vt 0.375462 0.375462
vt 0.375462 0.375462
vn -0.0036 -0.9999 -0.0111
vn -0.0116 -0.9999 0.0000
vn 0.0094 -0.9999 -0.0068
vn 0.0094 -0.9999 0.0068
vn -0.0036 -0.9999 0.0111
vn 0.9537 -0.3009 0.0000
vn 0.3072 -0.1076 0.9455
vn -0.7715 -0.3009 0.5606
vn -0.7715 -0.3009 -0.5606
vn 0.2947 -0.3009 -0.9070
vn 0.7655 0.3074 0.5653
vn -0.2569 0.3324 0.9075
vn -0.9537 0.3009 0.0000
vn -0.2947 0.3009 -0.9070
vn 0.7715 0.3009 -0.5606
vn 0.4643 0.8628 0.1999
vn -0.2387 0.8572 0.4563
vn -0.5539 0.8326 0.0000
vn -0.1712 0.8326 -0.5268
vn 0.4481 0.8326 -0.3256
vn -0.0121 -0.9992 -0.0374
vn -0.0393 -0.9992 0.0000
vn 0.0318 -0.9992 -0.0231
vn 0.0318 -0.9992 0.0231
vn -0.0121 -0.9992 0.0374
vn 0.9950 -0.1001 0.0000
vn 0.3089 -0.0278 0.9507
vn -0.8049 -0.1001 0.5848
vn -0.8049 -0.1001 -0.5848
vn 0.3075 -0.1001 -0.9463
vn 0.8253 0.0896 0.5576
vn -0.3129 0.0983 0.9447
vn -0.9950 0.1001 0.0000
vn -0.3075 0.1001 -0.9463
vn 0.8049 0.1001 -0.5848
vn 0.7589 0.6156 -0.2124
vn -0.7098 0.6227 0.3291
vn -0.8361 0.5486 0.0000
vn -0.2584 0.5486 -0.7951
vn 0.6764 0.5486 -0.4914
vn 0.0285 -0.9958 0.0876
vn 0.0921 -0.9958 0.0000
vn -0.0745 -0.9958 0.0541
vn -0.0745 -0.9958 -0.0541
vn 0.0285 -0.9958 -0.0876
s off
f 1/1/1 2/2/1 3/3/1
f 2/4/2 1/5/2 6/6/2
f 1/1/3 3/7/3 4/8/3
f 1/1/4 4/9/4 5/10/4
f 1/1/5 5/11/5 6/6/5
f 2/4/6 6/12/6 11/13/6
f 3/14/7 2/2/7 7/15/7
f 4/16/8 3/7/8 8/17/8
f 5/18/9 4/9/9 9/19/9
f 6/20/10 5/11/10 10/21/10
f 2/4/11 11/22/11 7/15/11
f 3/14/12 7/23/12 8/17/12
f 4/16/13 8/24/13 9/19/13
f 5/18/14 9/25/14 10/21/14
f 6/20/15 10/26/15 11/13/15
f 7/27/16 11/22/16 12/28/16
f 8/29/17 7/23/17 12/28/17
f 9/30/18 8/24/18 12/28/18
f 10/31/19 9/25/19 12/28/19
f 11/32/20 10/26/20 12/28/20
f 13/33/21 14/34/21 15/35/21
f 14/36/22 13/37/22 18/38/22
f 13/33/23 15/39/23 16/40/23
f 13/33/24 16/41/24 17/42/24
f 13/33/25 17/43/25 18/38/25
f 14/36/26 18/44/26 23/45/26
f 15/46/27 14/34/27 19/47/27
f 16/48/28 15/39/28 20/49/28
f 17/50/29 16/41/29 21/51/29
f 18/52/30 17/43/30 22/53/30
f 14/36/31 23/54/31 19/47/31
f 15/46/32 19/55/32 20/49/32
f 16/48/33 20/56/33 21/51/33
f 17/50/34 21/57/34 22/53/34
f 18/52/35 22/58/35 23/45/35
f 19/59/36 23/54/36 24/60/36
f 20/61/37 19/55/37 24/60/37
f 21/62/38 20/56/38 24/60/38
f 22/63/39 21/57/39 24/60/39
f 23/64/40 22/58/40 24/60/40
f 25/65/41 26/66/41 27/67/41
f 26/68/42 25/69/42 30/70/42
f 25/65/43 27/71/43 28/72/43
f 25/65/44 28/73/44 29/74/44
f 25/65/45 29/75/45 30/70/45
f 26/68/6 30/76/6 35/77/6
f 27/78/7 26/66/7 31/79/7
f 28/80/8 27/71/8 32/81/8
f 29/82/9 28/73/9 33/83/9
f 30/84/10 29/75/10 34/85/10
f 26/68/11 35/86/11 31/79/11
f 27/78/12 31/87/12 32/81/12
f 28/80/13 32/88/13 33/83/13
f 29/82/14 33/89/14 34/85/14
f 30/84/15 34/90/15 35/77/15
f 31/91/16 35/86/16 36/92/16
f 32/93/17 31/87/17 36/92/17
f 33/94/18 32/88/18 36/92/18
f 34/95/19 33/89/19 36/92/19
f 35/96/20 34/90/20 36/92/20
f 37/97/41 38/98/41 39/99/41
f 38/100/42 37/101/42 42/102/42
f 37/97/43 39/103/43 40/104/43
f 37/97/44 40/105/44 41/106/44
f 37/97/45 41/107/45 42/102/45
f 38/100/6 42/108/6 47/109/6
f 39/110/7 38/98/7 43/111/7
f 40/112/8 39/103/8 44/113/8
f 41/114/9 40/105/9 45/115/9
f 42/116/10 41/107/10 46/117/10
f 38/100/11 47/118/11 43/111/11
f 39/110/12 43/119/12 44/113/12
f 40/112/13 44/120/13 45/115/13
f 41/114/14 45/121/14 46/117/14
f 42/116/15 46/122/15 47/109/15
f 43/123/16 47/118/16 48/124/16
f 44/125/17 43/119/17 48/124/17
f 45/126/18 44/120/18 48/124/18
f 46/127/19 45/121/19 48/124/19
f 47/128/20 46/122/20 48/124/20
f 49/129/41 50/130/41 51/131/41
f 50/132/42 49/133/42 54/134/42
f 49/129/43 51/135/43 52/136/43
f 49/129/44 52/137/44 53/138/44
f 49/129/45 53/139/45 54/134/45
f 50/132/6 54/140/6 59/141/6
f 51/142/7 50/130/7 55/143/7
f 52/144/8 51/135/8 56/145/8
f 53/146/9 52/137/9 57/147/9
f 54/148/10 53/139/10 58/149/10
f 50/132/11 59/150/11 55/143/11
f 51/142/12 55/151/12 56/145/12
f 52/144/13 56/152/13 57/147/13
f 53/146/14 57/153/14 58/149/14
f 54/148/15 58/154/15 59/141/15
f 55/155/16 59/150/16 60/156/16
f 56/157/17 55/151/17 60/156/17
f 57/158/18 56/152/18 60/156/18
f 58/159/19 57/153/19 60/156/19
f 59/160/20 58/154/20 60/156/20
f 61/161/41 62/162/41 63/163/41
f 62/164/42 61/165/42 66/166/42
f 61/161/43 63/167/43 64/168/43
f 61/161/44 64/169/44 65/170/44
f 61/161/45 65/171/45 66/166/45
f 62/164/6 66/172/6 71/173/6
f 63/174/7 62/162/7 67/175/7
f 64/176/8 63/167/8 68/177/8
f 65/178/9 64/169/9 69/179/9
f 66/180/10 65/171/10 70/181/10
f 62/164/11 71/182/11 67/175/11
f 63/174/12 67/183/12 68/177/12
f 64/176/13 68/184/13 69/179/13
f 65/178/14 69/185/14 70/181/14
f 66/180/15 70/186/15 71/173/15
f 67/187/16 71/182/16 72/188/16
f 68/189/17 67/183/17 72/188/17
f 69/190/18 68/184/18 72/188/18
f 70/191/19 69/185/19 72/188/19
f 71/192/20 70/186/20 72/188/20
