# Blender v2.78 (sub 0) OBJ File: 'smallrock2.blend'
# www.blender.org
g SmallRock2
v -0.163588 -0.052525 -0.136543
v -0.170396 0.845145 -0.704829
v 0.056401 1.286291 0.148938
v 0.034364 1.256718 0.251944
v 0.174368 1.263694 -0.230233
v -0.425666 1.037401 0.110344
v -0.055456 1.032109 -0.679699
v 0.349897 0.970879 -0.309888
v -0.084956 1.126367 -0.592969
v 0.097229 0.887156 -0.621390
v -0.088095 1.048375 -0.662487
v -0.549773 0.984917 -0.010833
v -0.575555 0.931847 -0.101919
v -0.094749 1.259144 0.419485
v -0.156177 1.229637 0.425938
v -0.039769 1.126682 0.546971
v 0.010202 1.079471 0.536246
v -0.058783 0.939223 0.556805
v 0.227457 1.202802 -0.047432
v -0.261257 0.727740 -0.734606
v -0.407303 0.609172 -0.637136
v -0.316218 0.531549 -0.732025
v -0.621516 0.757721 -0.072273
v -0.671859 0.371959 -0.044628
v -0.102039 0.642603 0.551367
v -0.498729 0.439537 -0.495604
v -0.622459 0.241417 -0.203575
v 0.507719 0.544863 -0.246125
v 0.551786 0.284464 -0.335218
v 0.485952 0.164731 -0.068518
v 0.049548 0.191776 -0.553168
v 0.401432 0.119287 -0.373660
v 0.387545 -0.008792 -0.108728
v -0.223881 0.152104 0.502459
v 0.091698 -0.105065 0.016749
v 0.174368 1.263694 -0.230233
v 0.174368 1.263694 -0.230233
v 0.174368 1.263694 -0.230233
v 0.349897 0.970879 -0.309888
v 0.349897 0.970879 -0.309888
v -0.055456 1.032109 -0.679699
v -0.055456 1.032109 -0.679699
v -0.055456 1.032109 -0.679699
v -0.084956 1.126367 -0.592969
v -0.084956 1.126367 -0.592969
v -0.084956 1.126367 -0.592969
v -0.088095 1.048375 -0.662487
v -0.088095 1.048375 -0.662487
v 0.097229 0.887156 -0.621390
v 0.097229 0.887156 -0.621390
v -0.170396 0.845145 -0.704829
v -0.170396 0.845145 -0.704829
v -0.549773 0.984917 -0.010833
v -0.549773 0.984917 -0.010833
v -0.549773 0.984917 -0.010833
v -0.425666 1.037401 0.110344
v -0.575555 0.931847 -0.101919
v -0.575555 0.931847 -0.101919
v 0.056401 1.286291 0.148938
v 0.034364 1.256718 0.251944
v -0.094749 1.259144 0.419485
v -0.094749 1.259144 0.419485
v -0.156177 1.229637 0.425938
v -0.156177 1.229637 0.425938
v -0.039769 1.126682 0.546971
v -0.039769 1.126682 0.546971
v -0.039769 1.126682 0.546971
v 0.010202 1.079471 0.536246
v 0.010202 1.079471 0.536246
v 0.010202 1.079471 0.536246
v -0.058783 0.939223 0.556805
v -0.058783 0.939223 0.556805
v 0.227457 1.202802 -0.047432
v 0.227457 1.202802 -0.047432
v 0.551786 0.284464 -0.335218
v 0.551786 0.284464 -0.335218
v 0.551786 0.284464 -0.335218
v -0.407303 0.609172 -0.637136
v -0.407303 0.609172 -0.637136
v -0.261257 0.727740 -0.734606
v -0.261257 0.727740 -0.734606
v -0.316218 0.531549 -0.732025
v -0.316218 0.531549 -0.732025
v -0.621516 0.757721 -0.072273
v -0.621516 0.757721 -0.072273
v -0.671859 0.371959 -0.044628
v -0.671859 0.371959 -0.044628
v -0.102039 0.642603 0.551367
v 0.485952 0.164731 -0.068518
v 0.485952 0.164731 -0.068518
v 0.049548 0.191776 -0.553168
v 0.049548 0.191776 -0.553168
v -0.498729 0.439537 -0.495604
v -0.498729 0.439537 -0.495604
v -0.622459 0.241417 -0.203575
v -0.622459 0.241417 -0.203575
v -0.223881 0.152104 0.502459
v -0.223881 0.152104 0.502459
v 0.507719 0.544863 -0.246125
v 0.507719 0.544863 -0.246125
v 0.401432 0.119287 -0.373660
v 0.401432 0.119287 -0.373660
v -0.163588 -0.052525 -0.136543
v -0.163588 -0.052525 -0.136543
v 0.387545 -0.008792 -0.108728
v 0.387545 -0.008792 -0.108728
v 0.091698 -0.105065 0.016749
v 0.091698 -0.105065 0.016749
vt 0.5000 0.6312
vt 0.6248 0.5405
vt 0.5771 0.3938
vt 0.4229 0.3938
vt 0.3752 0.5405
vt 0.3688 0.3688
vt 0.6312 0.3688
vt 0.6312 0.6312
vt 0.3688 0.3688
vt 0.6312 0.3688
vt 0.6312 0.6312
vt 0.3688 0.3688
vt 0.6312 0.3688
vt 0.6312 0.6312
vt 0.3688 0.6312
vt 0.3688 0.3688
vt 0.6312 0.3688
vt 0.6312 0.6312
vt 0.3688 0.6312
vt 0.3688 0.3688
vt 0.6312 0.3688
vt 0.6312 0.6312
vt 0.5000 0.6312
vt 0.5843 0.6005
vt 0.6292 0.5228
vt 0.6136 0.4344
vt 0.5449 0.3767
vt 0.4551 0.3767
vt 0.3864 0.4344
vt 0.3708 0.5228
vt 0.4157 0.6005
vt 0.3688 0.3688
vt 0.6312 0.3688
vt 0.6312 0.6312
vt 0.3688 0.6312
vt 0.3688 0.3688
vt 0.6312 0.3688
vt 0.6312 0.6312
vt 0.5000 0.6312
vt 0.6248 0.5405
vt 0.5771 0.3938
vt 0.4229 0.3938
vt 0.3752 0.5405
vt 0.5000 0.6312
vt 0.6248 0.5405
vt 0.5771 0.3938
vt 0.4229 0.3938
vt 0.3752 0.5405
vt 0.5000 0.6312
vt 0.6026 0.5818
vt 0.6279 0.4708
vt 0.5569 0.3818
vt 0.4431 0.3818
vt 0.3721 0.4708
vt 0.3974 0.5818
vt 0.5000 0.6312
vt 0.6026 0.5818
vt 0.6279 0.4708
vt 0.5569 0.3818
vt 0.4431 0.3818
vt 0.3721 0.4708
vt 0.3974 0.5818
vt 0.3688 0.3688
vt 0.6312 0.3688
vt 0.6312 0.6312
vt 0.3688 0.6312
vt 0.5000 0.6312
vt 0.5928 0.5928
vt 0.6312 0.5000
vt 0.5928 0.4072
vt 0.5000 0.3688
vt 0.4072 0.4072
vt 0.3688 0.5000
vt 0.4072 0.5928
vt 0.3688 0.3688
vt 0.6312 0.3688
vt 0.6312 0.6312
vt 0.5000 0.6312
vt 0.5928 0.5928
vt 0.6312 0.5000
vt 0.5928 0.4072
vt 0.5000 0.3688
vt 0.4072 0.4072
vt 0.3688 0.5000
vt 0.4072 0.5928
vt 0.5000 0.6312
vt 0.6026 0.5818
vt 0.6279 0.4708
vt 0.5569 0.3818
vt 0.4431 0.3818
vt 0.3721 0.4708
vt 0.3974 0.5818
vt 0.5000 0.6312
vt 0.6136 0.5656
vt 0.6136 0.4344
vt 0.5000 0.3688
vt 0.3864 0.4344
vt 0.3864 0.5656
vt 0.5000 0.6312
vt 0.6248 0.5405
vt 0.5771 0.3938
vt 0.4229 0.3938
vt 0.3752 0.5405
vt 0.5000 0.6312
vt 0.6248 0.5405
vt 0.5771 0.3938
vt 0.4229 0.3938
vt 0.3752 0.5405
vn -0.5319 -0.8101 0.2466
vn -0.0606 0.6655 -0.7439
vn -0.3155 0.3143 -0.8953
vn -0.7165 0.0119 -0.6975
vn 0.9064 0.4191 0.0524
vn -0.2225 0.6265 0.7469
vn -0.7493 0.1072 0.6535
vn 0.8132 -0.5645 -0.1412
vn 0.2343 0.0272 0.9718
vn 0.0801 -0.8852 -0.4582
vn 0.8918 0.2000 0.4056
vn 0.6764 0.6508 0.3448
vn 0.6097 -0.2909 0.7373
vn 0.7575 0.2451 -0.6050
vn 0.3783 -0.1136 -0.9186
vn -0.9558 0.2714 0.1124
vn -0.3970 0.9111 -0.1101
vn -0.6905 0.5274 -0.4950
vn -0.9216 0.1280 -0.3663
vn -0.3739 -0.7039 -0.6039
vn 0.5999 0.5279 -0.6011
s 1
f 87/1/1 95/2/1 104/3/1 108/4/1 98/5/1
f 41/6/2 47/7/2 44/8/2
f 43/9/3 51/10/3 48/11/3
f 82/12/4 93/13/4 79/14/4 81/15/4
f 39/16/5 36/17/5 73/18/5 99/19/5
f 63/20/6 65/21/6 62/22/6
f 86/23/7 97/24/7 88/25/7 71/26/7 67/27/7 64/28/7 56/29/7 53/30/7 85/31/7
f 102/32/8 76/33/8 90/34/8 105/35/8
f 66/36/9 72/37/9 68/38/9
f 92/39/10 101/40/10 106/41/10 107/42/10 103/43/10
f 100/44/11 74/45/11 69/46/11 89/47/11 77/48/11
f 59/49/12 60/50/12 61/51/12 16/52/12 70/53/12 19/54/12 38/55/12
f 30/56/13 17/57/13 18/58/13 25/59/13 34/60/13 35/61/13 33/62/13
f 49/63/14 40/64/14 28/65/14 75/66/14
f 91/67/15 83/68/15 80/69/15 52/70/15 42/71/15 50/72/15 29/73/15 32/74/15
f 84/75/16 55/76/16 57/77/16
f 45/78/17 54/79/17 6/80/17 15/81/17 14/82/17 4/83/17 3/84/17 37/85/17
f 12/86/18 9/87/18 11/88/18 2/89/18 20/90/18 78/91/18 58/92/18
f 96/93/19 24/94/19 23/95/19 13/96/19 21/97/19 94/98/19
f 1/99/20 27/100/20 26/101/20 22/102/20 31/103/20
f 8/104/21 10/105/21 7/106/21 46/107/21 5/108/21
