# Blender v2.78 (sub 0) OBJ File: 'smallrock3.blend'
# www.blender.org
g SmallRock3
v 0.266009 0.079184 -0.255486
v 0.523639 0.533075 -0.290252
v 0.565948 0.626158 -0.162387
v -0.352107 0.349644 -0.795340
v 0.344162 1.088353 -0.105346
v 0.105247 0.867000 -0.603290
v -0.286179 1.098982 -0.127097
v -0.423595 1.084004 -0.073956
v -0.438353 1.054094 -0.019404
v 0.308048 0.896622 0.245508
v -0.321226 0.389868 -0.841740
v -0.583210 0.530031 0.056686
v -0.092224 0.793887 0.484750
v 0.383484 0.706832 0.347376
v 0.563190 0.522712 0.016328
v 0.138101 0.642056 -0.924467
v 0.130081 0.508921 -0.948307
v 0.225135 0.500468 -0.909052
v 0.131076 0.384188 -0.913479
v 0.150299 0.315548 -0.774160
v -0.628883 0.379569 -0.669798
v -0.625833 0.325715 -0.657037
v -0.617589 0.194448 -0.309808
v -0.611746 0.173821 -0.372180
v -0.479799 0.399391 0.260745
v -0.334961 0.463117 0.390484
v 0.225981 0.479518 0.619951
v 0.227332 0.421379 0.573683
v 0.223031 0.244860 0.474314
v 0.254177 0.261635 0.469153
v 0.492890 0.277723 -0.115359
v 0.571531 0.126662 0.005987
v -0.436322 0.017417 -0.014914
v -0.416361 0.058647 0.093810
v 0.573272 -0.009025 0.005932
v 0.491322 -0.087789 -0.017595
v 0.566191 -0.092536 0.059466
v 0.279797 0.086232 0.451089
v 0.273764 0.045015 0.410763
v 0.354010 0.035831 0.324280
v 0.344162 1.088353 -0.105346
v 0.344162 1.088353 -0.105346
v 0.344162 1.088353 -0.105346
v 0.105247 0.867000 -0.603290
v 0.105247 0.867000 -0.603290
v -0.286179 1.098982 -0.127097
v -0.286179 1.098982 -0.127097
v -0.423595 1.084004 -0.073956
v -0.423595 1.084004 -0.073956
v -0.438353 1.054094 -0.019404
v -0.438353 1.054094 -0.019404
v -0.092224 0.793887 0.484750
v -0.092224 0.793887 0.484750
v -0.092224 0.793887 0.484750
v 0.308048 0.896622 0.245508
v 0.308048 0.896622 0.245508
v 0.565948 0.626158 -0.162387
v 0.565948 0.626158 -0.162387
v 0.523639 0.533075 -0.290252
v 0.523639 0.533075 -0.290252
v 0.138101 0.642056 -0.924467
v 0.138101 0.642056 -0.924467
v 0.138101 0.642056 -0.924467
v -0.352107 0.349644 -0.795340
v -0.352107 0.349644 -0.795340
v -0.321226 0.389868 -0.841740
v -0.321226 0.389868 -0.841740
v -0.583210 0.530031 0.056686
v -0.583210 0.530031 0.056686
v -0.334961 0.463117 0.390484
v -0.334961 0.463117 0.390484
v 0.383484 0.706832 0.347376
v 0.383484 0.706832 0.347376
v 0.563190 0.522712 0.016328
v 0.563190 0.522712 0.016328
v 0.225135 0.500468 -0.909052
v 0.225135 0.500468 -0.909052
v 0.225135 0.500468 -0.909052
v 0.130081 0.508921 -0.948307
v 0.130081 0.508921 -0.948307
v 0.131076 0.384188 -0.913479
v 0.131076 0.384188 -0.913479
v 0.131076 0.384188 -0.913479
v 0.150299 0.315548 -0.774160
v -0.628883 0.379569 -0.669798
v -0.628883 0.379569 -0.669798
v -0.625833 0.325715 -0.657037
v -0.625833 0.325715 -0.657037
v -0.617589 0.194448 -0.309808
v -0.611746 0.173821 -0.372180
v -0.611746 0.173821 -0.372180
v -0.479799 0.399391 0.260745
v -0.479799 0.399391 0.260745
v 0.225981 0.479518 0.619951
v 0.225981 0.479518 0.619951
v 0.225981 0.479518 0.619951
v 0.223031 0.244860 0.474314
v 0.223031 0.244860 0.474314
v 0.254177 0.261635 0.469153
v 0.254177 0.261635 0.469153
v 0.227332 0.421379 0.573683
v 0.227332 0.421379 0.573683
v 0.492890 0.277723 -0.115359
v 0.492890 0.277723 -0.115359
v 0.571531 0.126662 0.005987
v 0.571531 0.126662 0.005987
v 0.266009 0.079184 -0.255486
v 0.266009 0.079184 -0.255486
v 0.491322 -0.087789 -0.017595
v 0.491322 -0.087789 -0.017595
v -0.436322 0.017417 -0.014914
v -0.436322 0.017417 -0.014914
v -0.416361 0.058647 0.093810
v -0.416361 0.058647 0.093810
v 0.573272 -0.009025 0.005932
v 0.573272 -0.009025 0.005932
v 0.566191 -0.092536 0.059466
v 0.566191 -0.092536 0.059466
v 0.566191 -0.092536 0.059466
v 0.354010 0.035831 0.324280
v 0.354010 0.035831 0.324280
v 0.273764 0.045015 0.410763
v 0.273764 0.045015 0.410763
v 0.279797 0.086232 0.451089
v 0.279797 0.086232 0.451089
v 0.279797 0.086232 0.451089
vt 0.5000 0.6136
vt 0.5731 0.5871
vt 0.6119 0.5197
vt 0.5984 0.4432
vt 0.5389 0.3932
vt 0.4611 0.3932
vt 0.4016 0.4432
vt 0.3881 0.5197
vt 0.4269 0.5871
vt 0.3864 0.3864
vt 0.6136 0.3864
vt 0.6136 0.6136
vt 0.5000 0.6136
vt 0.5889 0.5709
vt 0.6108 0.4747
vt 0.5493 0.3976
vt 0.4507 0.3976
vt 0.3892 0.4747
vt 0.4111 0.5709
vt 0.5000 0.6136
vt 0.5804 0.5804
vt 0.6136 0.5000
vt 0.5804 0.4196
vt 0.5000 0.3864
vt 0.4196 0.4196
vt 0.3864 0.5000
vt 0.4196 0.5804
vt 0.5000 0.6136
vt 0.6081 0.5351
vt 0.5668 0.4081
vt 0.4332 0.4081
vt 0.3919 0.5351
vt 0.5000 0.6136
vt 0.5984 0.5568
vt 0.5984 0.4432
vt 0.5000 0.3864
vt 0.4016 0.4432
vt 0.4016 0.5568
vt 0.5000 0.6136
vt 0.5984 0.5568
vt 0.5984 0.4432
vt 0.5000 0.3864
vt 0.4016 0.4432
vt 0.4016 0.5568
vt 0.5000 0.6136
vt 0.5984 0.5568
vt 0.5984 0.4432
vt 0.5000 0.3864
vt 0.4016 0.4432
vt 0.4016 0.5568
vt 0.3864 0.3864
vt 0.6136 0.3864
vt 0.6136 0.6136
vt 0.3864 0.6136
vt 0.5000 0.6136
vt 0.5984 0.5568
vt 0.5984 0.4432
vt 0.5000 0.3864
vt 0.4016 0.4432
vt 0.4016 0.5568
vt 0.3864 0.3864
vt 0.6136 0.3864
vt 0.6136 0.6136
vt 0.3864 0.3864
vt 0.6136 0.3864
vt 0.6136 0.6136
vt 0.5000 0.6136
vt 0.5984 0.5568
vt 0.5984 0.4432
vt 0.5000 0.3864
vt 0.4016 0.4432
vt 0.4016 0.5568
vt 0.3864 0.3864
vt 0.6136 0.3864
vt 0.6136 0.6136
vt 0.5000 0.6136
vt 0.6081 0.5351
vt 0.5668 0.4081
vt 0.4332 0.4081
vt 0.3919 0.5351
vt 0.5000 0.6136
vt 0.5984 0.5568
vt 0.5984 0.4432
vt 0.5000 0.3864
vt 0.4016 0.4432
vt 0.4016 0.5568
vt 0.3864 0.3864
vt 0.6136 0.3864
vt 0.6136 0.6136
vt 0.3864 0.6136
vt 0.5000 0.6136
vt 0.5984 0.5568
vt 0.5984 0.4432
vt 0.5000 0.3864
vt 0.4016 0.4432
vt 0.4016 0.5568
vt 0.5000 0.6136
vt 0.5804 0.5804
vt 0.6136 0.5000
vt 0.5804 0.4196
vt 0.5000 0.3864
vt 0.4196 0.4196
vt 0.3864 0.5000
vt 0.4196 0.5804
vt 0.3864 0.3864
vt 0.6136 0.3864
vt 0.6136 0.6136
vt 0.5000 0.6136
vt 0.6081 0.5351
vt 0.5668 0.4081
vt 0.4332 0.4081
vt 0.3919 0.5351
vt 0.5000 0.6136
vt 0.6081 0.5351
vt 0.5668 0.4081
vt 0.4332 0.4081
vt 0.3919 0.5351
vt 0.3864 0.3864
vt 0.6136 0.3864
vt 0.6136 0.6136
vt 0.3864 0.3864
vt 0.6136 0.3864
vt 0.6136 0.6136
vt 0.3864 0.3864
vt 0.6136 0.3864
vt 0.6136 0.6136
vn 0.8457 -0.0349 0.5325
vn 0.5351 -0.6295 0.5633
vn -0.9806 0.1955 0.0110
vn -0.3551 -0.4738 0.8058
vn 0.8699 0.4133 0.2692
vn 0.7679 -0.4987 -0.4020
vn 0.7467 0.4819 -0.4584
vn 0.9459 -0.1219 -0.3008
vn 0.3215 0.5967 0.7352
vn 0.0223 0.8912 0.4531
vn 0.3885 0.1397 -0.9108
vn 0.3506 -0.2492 -0.9027
vn -0.1161 -0.9557 0.2703
vn 0.0297 0.9080 -0.4179
vn -0.7134 0.3158 0.6256
vn -0.3952 0.6717 -0.6265
vn -0.4147 -0.3933 -0.8206
vn -0.8944 -0.3217 0.3105
vn -0.0619 -0.9035 -0.4241
vn 0.3809 -0.4606 0.8017
vn 0.6011 -0.2260 -0.7665
vn -0.2109 -0.1653 -0.9634
vn 0.9885 0.0126 0.1504
vn 0.2003 -0.0714 0.9771
vn -0.3789 0.0144 0.9253
s 1
f 117/1/1 105/2/1 74/3/1 73/4/1 94/5/1 101/6/1 100/7/1 125/8/1 120/9/1
f 121/10/2 126/11/2 123/12/2
f 50/13/3 49/14/3 86/15/3 87/16/3 90/17/3 89/18/3 68/19/3
f 98/20/4 102/21/4 95/22/4 71/23/4 92/24/4 113/25/4 122/26/4 124/27/4
f 43/28/5 55/29/5 72/30/5 75/31/5 57/32/5
f 84/33/6 82/34/6 77/35/6 60/36/6 103/37/6 107/38/6
f 41/39/7 58/40/7 59/41/7 78/42/7 61/43/7 44/44/7
f 106/45/8 115/46/8 104/47/8 2/48/8 3/49/8 15/50/8
f 53/51/9 96/52/9 14/53/9 56/54/9
f 51/55/10 52/56/10 10/57/10 42/58/10 47/59/10 48/60/10
f 76/61/11 79/62/11 63/63/11
f 18/64/12 83/65/12 80/66/12
f 109/67/13 119/68/13 40/69/13 39/70/13 114/71/13 111/72/13
f 45/73/14 46/74/14 5/75/14
f 9/76/15 69/77/15 93/78/15 70/79/15 54/80/15
f 8/81/16 7/82/16 6/83/16 62/84/16 67/85/16 85/86/16
f 88/87/17 21/88/17 66/89/17 64/90/17
f 112/91/18 34/92/18 25/93/18 12/94/18 23/95/18 91/96/18
f 110/97/19 33/98/19 24/99/19 22/100/19 65/101/19 81/102/19 20/103/19 108/104/19
f 97/105/20 99/106/20 28/107/20
f 36/108/21 1/109/21 31/110/21 116/111/21 118/112/21
f 16/113/22 17/114/22 19/115/22 4/116/22 11/117/22
f 32/118/23 37/119/23 35/120/23
f 38/121/24 30/122/24 29/123/24
f 26/124/25 27/125/25 13/126/25
