# Blender v2.79 (sub 0) OBJ File: 'untitled.blend'
# www.blender.org
g stonepath3
v -0.138019 -0.001820 0.029764
v -0.072168 -0.000596 0.004391
v -0.093538 -0.000596 0.084552
v -0.176380 -0.000596 0.088999
v -0.206208 -0.000596 0.011585
v -0.141801 -0.000596 -0.040705
v -0.069830 0.009942 0.047944
v -0.134237 0.009942 0.100234
v -0.203870 0.009942 0.055138
v -0.182500 0.009942 -0.025023
v -0.099658 0.009942 -0.029470
v -0.138019 0.010025 0.029764
v 0.088427 -0.008104 -0.002012
v 0.157160 -0.006446 0.064382
v 0.046522 -0.006446 0.083873
v -0.006205 -0.006446 -0.015327
v 0.071848 -0.006446 -0.096126
v 0.172812 -0.006446 -0.046863
v 0.105007 0.007824 0.092102
v 0.004043 0.007824 0.042839
v 0.019695 0.007824 -0.068407
v 0.130333 0.007824 -0.087898
v 0.183060 0.007824 0.011303
v 0.088427 0.007936 -0.002012
v -0.118646 -0.005087 -0.172013
v -0.065582 -0.003807 -0.120755
v -0.150998 -0.003807 -0.105707
v -0.191704 -0.003807 -0.182292
v -0.131445 -0.003807 -0.244671
v -0.053499 -0.003807 -0.206639
v -0.105846 0.007210 -0.099354
v -0.183793 0.007210 -0.137387
v -0.171709 0.007210 -0.223271
v -0.086294 0.007210 -0.238319
v -0.045587 0.007210 -0.161733
v -0.118646 0.007296 -0.172013
v 0.094399 -0.004845 0.186250
v 0.150028 -0.003810 0.164815
v 0.131975 -0.003810 0.232533
v 0.061992 -0.003810 0.236290
v 0.036794 -0.003810 0.170893
v 0.091204 -0.003810 0.126720
v 0.152003 0.005091 0.201608
v 0.097594 0.005091 0.245781
v 0.038769 0.005091 0.207685
v 0.056822 0.005091 0.139967
v 0.126805 0.005091 0.136210
v 0.094399 0.005162 0.186250
v -0.010873 0.002190 -0.120325
v 0.015151 0.002674 -0.130353
v 0.006705 0.002674 -0.098674
v -0.026033 0.002674 -0.096917
v -0.037821 0.002674 -0.127510
v -0.012368 0.002674 -0.148174
v 0.016074 0.006839 -0.113141
v -0.009379 0.006839 -0.092477
v -0.036897 0.006839 -0.110298
v -0.028451 0.006839 -0.141977
v 0.004287 0.006839 -0.143734
v -0.010873 0.006872 -0.120325
v -0.044926 0.002737 -0.061131
v -0.024531 0.003117 -0.068990
v -0.031150 0.003117 -0.044163
v -0.056807 0.003117 -0.042785
v -0.066045 0.003117 -0.066761
v -0.046097 0.003117 -0.082956
v -0.023807 0.006380 -0.055501
v -0.043755 0.006380 -0.039306
v -0.065321 0.006380 -0.053273
v -0.058702 0.006380 -0.078099
v -0.033045 0.006380 -0.079477
v -0.044926 0.006406 -0.061131
v 0.085648 0.006406 -0.130709
v 0.097528 0.006380 -0.149055
v 0.071871 0.006380 -0.147677
v 0.065253 0.006380 -0.122851
v 0.086819 0.006380 -0.108884
v 0.106766 0.006380 -0.125079
v 0.084476 0.003117 -0.152534
v 0.064529 0.003117 -0.136340
v 0.073767 0.003117 -0.112364
v 0.099424 0.003117 -0.113741
v 0.106042 0.003117 -0.138568
v 0.085648 0.002737 -0.130709
v -0.013214 -0.002858 0.118053
v 0.021967 -0.002204 0.104497
v 0.010550 -0.002204 0.147323
v -0.033708 -0.002204 0.149699
v -0.049643 -0.002204 0.108341
v -0.015234 -0.002204 0.080405
v 0.023216 0.003426 0.127765
v -0.011193 0.003426 0.155701
v -0.048394 0.003426 0.131609
v -0.036977 0.003426 0.088783
v 0.007280 0.003426 0.086407
v -0.013214 0.003470 0.118053
vt 0.359310 0.359310
vt 0.640690 0.359310
vt 0.640690 0.640690
vt 0.359310 0.359310
vt 0.640690 0.359310
vt 0.640690 0.640690
vt 0.640690 0.359310
vt 0.640690 0.640690
vt 0.640690 0.359310
vt 0.640690 0.640690
vt 0.640690 0.359310
vt 0.640690 0.359310
vt 0.640690 0.640690
vt 0.359310 0.359310
vt 0.640690 0.640690
vt 0.359310 0.359310
vt 0.640690 0.640690
vt 0.359310 0.359310
vt 0.640690 0.640690
vt 0.359310 0.359310
vt 0.640690 0.640690
vt 0.640690 0.359310
vt 0.640690 0.359310
vt 0.640690 0.359310
vt 0.640690 0.359310
vt 0.640690 0.359310
vt 0.359310 0.359310
vt 0.640690 0.640690
vt 0.359310 0.359310
vt 0.359310 0.359310
vt 0.359310 0.359310
vt 0.359310 0.359310
vt 0.359310 0.359310
vt 0.640690 0.359310
vt 0.640690 0.640690
vt 0.359310 0.359310
vt 0.640690 0.359310
vt 0.640690 0.640690
vt 0.640690 0.359310
vt 0.640690 0.640690
vt 0.640690 0.359310
vt 0.640690 0.640690
vt 0.640690 0.359310
vt 0.640690 0.359310
vt 0.640690 0.640690
vt 0.359310 0.359310
vt 0.640690 0.640690
vt 0.359310 0.359310
vt 0.640690 0.640690
vt 0.359310 0.359310
vt 0.640690 0.640690
vt 0.359310 0.359310
vt 0.640690 0.640690
vt 0.640690 0.359310
vt 0.640690 0.359310
vt 0.640690 0.359310
vt 0.640690 0.359310
vt 0.640690 0.359310
vt 0.359310 0.359310
vt 0.640690 0.640690
vt 0.359310 0.359310
vt 0.359310 0.359310
vt 0.359310 0.359310
vt 0.359310 0.359310
vt 0.359310 0.359310
vt 0.640690 0.359310
vt 0.640690 0.640690
vt 0.359310 0.359310
vt 0.640690 0.359310
vt 0.640690 0.640690
vt 0.640690 0.359310
vt 0.640690 0.640690
vt 0.640690 0.359310
vt 0.640690 0.640690
vt 0.640690 0.359310
vt 0.640690 0.359310
vt 0.640690 0.640690
vt 0.359310 0.359310
vt 0.640690 0.640690
vt 0.359310 0.359310
vt 0.640690 0.640690
vt 0.359310 0.359310
vt 0.640690 0.640690
vt 0.359310 0.359310
vt 0.640690 0.640690
vt 0.640690 0.359310
vt 0.640690 0.359310
vt 0.640690 0.359310
vt 0.640690 0.359310
vt 0.640690 0.359310
vt 0.359310 0.359310
vt 0.640690 0.640690
vt 0.359310 0.359310
vt 0.359310 0.359310
vt 0.359310 0.359310
vt 0.359310 0.359310
vt 0.359310 0.359310
vt 0.640690 0.359310
vt 0.640690 0.640690
vt 0.359310 0.359310
vt 0.640690 0.359310
vt 0.640690 0.640690
vt 0.640690 0.359310
vt 0.640690 0.640690
vt 0.640690 0.359310
vt 0.640690 0.640690
vt 0.640690 0.359310
vt 0.640690 0.359310
vt 0.640690 0.640690
vt 0.359310 0.359310
vt 0.640690 0.640690
vt 0.359310 0.359310
vt 0.640690 0.640690
vt 0.359310 0.359310
vt 0.640690 0.640690
vt 0.359310 0.359310
vt 0.640690 0.640690
vt 0.640690 0.359310
vt 0.640690 0.359310
vt 0.640690 0.359310
vt 0.640690 0.359310
vt 0.640690 0.359310
vt 0.359310 0.359310
vt 0.640690 0.640690
vt 0.359310 0.359310
vt 0.359310 0.359310
vt 0.359310 0.359310
vt 0.359310 0.359310
vt 0.359310 0.359310
vt 0.640690 0.359310
vt 0.640690 0.640690
vt 0.359310 0.359310
vt 0.640690 0.359310
vt 0.640690 0.640690
vt 0.640690 0.359310
vt 0.640690 0.640690
vt 0.640690 0.359310
vt 0.640690 0.640690
vt 0.640690 0.359310
vt 0.640690 0.359310
vt 0.640690 0.640690
vt 0.359310 0.359310
vt 0.640690 0.640690
vt 0.359310 0.359310
vt 0.640690 0.640690
vt 0.359310 0.359310
vt 0.640690 0.640690
vt 0.359310 0.359310
vt 0.640690 0.640690
vt 0.640690 0.359310
vt 0.640690 0.359310
vt 0.640690 0.359310
vt 0.640690 0.359310
vt 0.640690 0.359310
vt 0.359310 0.359310
vt 0.640690 0.640690
vt 0.359310 0.359310
vt 0.359310 0.359310
vt 0.359310 0.359310
vt 0.359310 0.359310
vt 0.359310 0.359310
vt 0.640690 0.359310
vt 0.640690 0.640690
vt 0.359310 0.359310
vt 0.640690 0.359310
vt 0.640690 0.640690
vt 0.640690 0.359310
vt 0.640690 0.640690
vt 0.640690 0.359310
vt 0.640690 0.640690
vt 0.640690 0.359310
vt 0.640690 0.359310
vt 0.640690 0.640690
vt 0.359310 0.359310
vt 0.640690 0.640690
vt 0.359310 0.359310
vt 0.640690 0.640690
vt 0.359310 0.359310
vt 0.640690 0.640690
vt 0.359310 0.359310
vt 0.640690 0.640690
vt 0.640690 0.359310
vt 0.640690 0.359310
vt 0.640690 0.359310
vt 0.640690 0.359310
vt 0.640690 0.359310
vt 0.359310 0.359310
vt 0.640690 0.640690
vt 0.359310 0.359310
vt 0.359310 0.359310
vt 0.359310 0.359310
vt 0.359310 0.359310
vt 0.359310 0.359310
vt 0.640690 0.359310
vt 0.640690 0.640690
vt 0.359310 0.359310
vt 0.640690 0.359310
vt 0.359310 0.359310
vt 0.640690 0.359310
vt 0.359310 0.359310
vt 0.640690 0.359310
vt 0.359310 0.359310
vt 0.640690 0.359310
vt 0.359310 0.359310
vt 0.640690 0.640690
vt 0.359310 0.359310
vt 0.640690 0.640690
vt 0.359310 0.359310
vt 0.640690 0.640690
vt 0.640690 0.359310
vt 0.359310 0.359310
vt 0.640690 0.359310
vt 0.640690 0.640690
vt 0.359310 0.359310
vt 0.640690 0.640690
vt 0.640690 0.359310
vt 0.640690 0.359310
vt 0.640690 0.359310
vt 0.359310 0.359310
vt 0.640690 0.640690
vt 0.640690 0.640690
vt 0.640690 0.640690
vt 0.640690 0.359310
vt 0.640690 0.640690
vt 0.359310 0.359310
vt 0.640690 0.359310
vt 0.640690 0.640690
vt 0.359310 0.359310
vt 0.640690 0.359310
vt 0.640690 0.640690
vt 0.640690 0.359310
vt 0.640690 0.640690
vt 0.640690 0.359310
vt 0.640690 0.640690
vt 0.640690 0.359310
vt 0.640690 0.359310
vt 0.640690 0.640690
vt 0.359310 0.359310
vt 0.640690 0.640690
vt 0.359310 0.359310
vt 0.640690 0.640690
vt 0.359310 0.359310
vt 0.640690 0.640690
vt 0.359310 0.359310
vt 0.640690 0.640690
vt 0.640690 0.359310
vt 0.640690 0.359310
vt 0.640690 0.359310
vt 0.640690 0.359310
vt 0.640690 0.359310
vt 0.359310 0.359310
vt 0.640690 0.640690
vt 0.359310 0.359310
vt 0.359310 0.359310
vt 0.359310 0.359310
vt 0.359310 0.359310
vn 0.0207 -0.9998 0.0055
vn 0.0117 -0.9998 -0.0180
vn 0.0011 -0.9998 0.0214
vn -0.0200 -0.9998 0.0077
vn -0.0135 -0.9998 -0.0167
vn 0.3348 -0.7878 -0.5170
vn 0.5952 -0.7878 0.1587
vn 0.0330 -0.7878 0.6151
vn -0.5748 -0.7878 0.2215
vn -0.3882 -0.7878 -0.4782
vn 0.5748 0.7878 -0.2215
vn 0.3882 0.7878 0.4782
vn -0.3348 0.7878 0.5170
vn -0.5952 0.7878 -0.1587
vn -0.0330 0.7878 -0.6151
vn 0.0014 1.0000 -0.0005
vn 0.0009 1.0000 0.0011
vn -0.0008 1.0000 0.0012
vn -0.0014 1.0000 -0.0004
vn -0.0001 1.0000 -0.0015
vn 0.0037 -0.9998 0.0211
vn 0.0212 -0.9998 0.0030
vn -0.0189 -0.9998 0.0101
vn -0.0154 -0.9998 -0.0149
vn 0.0094 -0.9998 -0.0193
vn 0.6099 -0.7878 0.0858
vn 0.1069 -0.7878 0.6066
vn -0.5439 -0.7878 0.2891
vn -0.4430 -0.7878 -0.4279
vn 0.2701 -0.7878 -0.5536
vn 0.4430 0.7878 0.4279
vn -0.2701 0.7878 0.5536
vn -0.6099 0.7878 -0.0858
vn -0.1069 0.7878 -0.6066
vn 0.5439 0.7878 -0.2891
vn 0.0010 1.0000 0.0010
vn -0.0006 1.0000 0.0013
vn -0.0014 1.0000 -0.0002
vn -0.0003 1.0000 -0.0014
vn 0.0013 1.0000 -0.0007
s off
f 1/1/1 2/2/1 3/3/1
f 2/4/2 1/5/2 6/6/2
f 1/1/3 3/7/3 4/8/3
f 1/1/4 4/9/4 5/10/4
f 1/1/5 5/11/5 6/6/5
f 2/4/6 6/12/6 11/13/6
f 3/14/7 2/2/7 7/15/7
f 4/16/8 3/7/8 8/17/8
f 5/18/9 4/9/9 9/19/9
f 6/20/10 5/11/10 10/21/10
f 2/4/11 11/22/11 7/15/11
f 3/14/12 7/23/12 8/17/12
f 4/16/13 8/24/13 9/19/13
f 5/18/14 9/25/14 10/21/14
f 6/20/15 10/26/15 11/13/15
f 7/27/16 11/22/16 12/28/16
f 8/29/17 7/23/17 12/28/17
f 9/30/18 8/24/18 12/28/18
f 10/31/19 9/25/19 12/28/19
f 11/32/20 10/26/20 12/28/20
f 13/33/21 14/34/21 15/35/21
f 14/36/22 13/37/22 18/38/22
f 13/33/23 15/39/23 16/40/23
f 13/33/24 16/41/24 17/42/24
f 13/33/25 17/43/25 18/38/25
f 14/36/26 18/44/26 23/45/26
f 15/46/27 14/34/27 19/47/27
f 16/48/28 15/39/28 20/49/28
f 17/50/29 16/41/29 21/51/29
f 18/52/30 17/43/30 22/53/30
f 14/36/31 23/54/31 19/47/31
f 15/46/32 19/55/32 20/49/32
f 16/48/33 20/56/33 21/51/33
f 17/50/34 21/57/34 22/53/34
f 18/52/35 22/58/35 23/45/35
f 19/59/36 23/54/36 24/60/36
f 20/61/37 19/55/37 24/60/37
f 21/62/38 20/56/38 24/60/38
f 22/63/39 21/57/39 24/60/39
f 23/64/40 22/58/40 24/60/40
f 25/65/21 26/66/21 27/67/21
f 26/68/22 25/69/22 30/70/22
f 25/65/23 27/71/23 28/72/23
f 25/65/24 28/73/24 29/74/24
f 25/65/25 29/75/25 30/70/25
f 26/68/26 30/76/26 35/77/26
f 27/78/27 26/66/27 31/79/27
f 28/80/28 27/71/28 32/81/28
f 29/82/29 28/73/29 33/83/29
f 30/84/30 29/75/30 34/85/30
f 26/68/31 35/86/31 31/79/31
f 27/78/32 31/87/32 32/81/32
f 28/80/33 32/88/33 33/83/33
f 29/82/34 33/89/34 34/85/34
f 30/84/35 34/90/35 35/77/35
f 31/91/36 35/86/36 36/92/36
f 32/93/37 31/87/37 36/92/37
f 33/94/38 32/88/38 36/92/38
f 34/95/39 33/89/39 36/92/39
f 35/96/40 34/90/40 36/92/40
f 37/97/1 38/98/1 39/99/1
f 38/100/2 37/101/2 42/102/2
f 37/97/3 39/103/3 40/104/3
f 37/97/4 40/105/4 41/106/4
f 37/97/5 41/107/5 42/102/5
f 38/100/6 42/108/6 47/109/6
f 39/110/7 38/98/7 43/111/7
f 40/112/8 39/103/8 44/113/8
f 41/114/9 40/105/9 45/115/9
f 42/116/10 41/107/10 46/117/10
f 38/100/11 47/118/11 43/111/11
f 39/110/12 43/119/12 44/113/12
f 40/112/13 44/120/13 45/115/13
f 41/114/14 45/121/14 46/117/14
f 42/116/15 46/122/15 47/109/15
f 43/123/16 47/118/16 48/124/16
f 44/125/17 43/119/17 48/124/17
f 45/126/18 44/120/18 48/124/18
f 46/127/19 45/121/19 48/124/19
f 47/128/20 46/122/20 48/124/20
f 49/129/1 50/130/1 51/131/1
f 50/132/2 49/133/2 54/134/2
f 49/129/3 51/135/3 52/136/3
f 49/129/4 52/137/4 53/138/4
f 49/129/5 53/139/5 54/134/5
f 50/132/6 54/140/6 59/141/6
f 51/142/7 50/130/7 55/143/7
f 52/144/8 51/135/8 56/145/8
f 53/146/9 52/137/9 57/147/9
f 54/148/10 53/139/10 58/149/10
f 50/132/11 59/150/11 55/143/11
f 51/142/12 55/151/12 56/145/12
f 52/144/13 56/152/13 57/147/13
f 53/146/14 57/153/14 58/149/14
f 54/148/15 58/154/15 59/141/15
f 55/155/16 59/150/16 60/156/16
f 56/157/17 55/151/17 60/156/17
f 57/158/18 56/152/18 60/156/18
f 58/159/19 57/153/19 60/156/19
f 59/160/20 58/154/20 60/156/20
f 61/161/1 62/162/1 63/163/1
f 62/164/2 61/165/2 66/166/2
f 61/161/3 63/167/3 64/168/3
f 61/161/4 64/169/4 65/170/4
f 61/161/5 65/171/5 66/166/5
f 62/164/6 66/172/6 71/173/6
f 63/174/7 62/162/7 67/175/7
f 64/176/8 63/167/8 68/177/8
f 65/178/9 64/169/9 69/179/9
f 66/180/10 65/171/10 70/181/10
f 62/164/11 71/182/11 67/175/11
f 63/174/12 67/183/12 68/177/12
f 64/176/13 68/184/13 69/179/13
f 65/178/14 69/185/14 70/181/14
f 66/180/15 70/186/15 71/173/15
f 67/187/16 71/182/16 72/188/16
f 68/189/17 67/183/17 72/188/17
f 69/190/18 68/184/18 72/188/18
f 70/191/19 69/185/19 72/188/19
f 71/192/20 70/186/20 72/188/20
f 75/193/19 76/194/19 73/195/19
f 76/196/18 77/197/18 73/195/18
f 74/198/20 75/199/20 73/195/20
f 78/200/16 74/201/16 73/195/16
f 77/202/17 78/203/17 73/195/17
f 80/204/14 76/194/14 75/205/14
f 79/206/15 75/199/15 74/207/15
f 82/208/12 78/203/12 77/209/12
f 79/206/10 80/210/10 75/205/10
f 81/211/8 82/212/8 77/209/8
f 81/211/13 77/197/13 76/213/13
f 83/214/11 74/201/11 78/215/11
f 80/204/9 81/216/9 76/213/9
f 82/208/7 83/217/7 78/215/7
f 83/214/6 79/218/6 74/207/6
f 84/219/5 80/210/5 79/220/5
f 84/219/4 81/216/4 80/221/4
f 84/219/3 82/212/3 81/222/3
f 83/214/2 84/223/2 79/220/2
f 84/219/1 83/217/1 82/224/1
f 85/225/1 86/226/1 87/227/1
f 86/228/2 85/229/2 90/230/2
f 85/225/3 87/231/3 88/232/3
f 85/225/4 88/233/4 89/234/4
f 85/225/5 89/235/5 90/230/5
f 86/228/6 90/236/6 95/237/6
f 87/238/7 86/226/7 91/239/7
f 88/240/8 87/231/8 92/241/8
f 89/242/9 88/233/9 93/243/9
f 90/244/10 89/235/10 94/245/10
f 86/228/11 95/246/11 91/239/11
f 87/238/12 91/247/12 92/241/12
f 88/240/13 92/248/13 93/243/13
f 89/242/14 93/249/14 94/245/14
f 90/244/15 94/250/15 95/237/15
f 91/251/16 95/246/16 96/252/16
f 92/253/17 91/247/17 96/252/17
f 93/254/18 92/248/18 96/252/18
f 94/255/19 93/249/19 96/252/19
f 95/256/20 94/250/20 96/252/20
