# Blender v2.78 (sub 0) OBJ File: 'tree1.blend'
# www.blender.org
g Tree1
v 0.352401 0.021311 -0.367889
v 0.352401 0.021311 0.367889
v -0.352401 0.021311 0.367889
v -0.352401 0.021311 -0.367889
v 0.343227 2.397785 -0.367889
v 0.343227 2.397785 0.367890
v -0.343227 2.238020 0.367889
v -0.343227 2.238019 -0.367889
v -0.701402 4.769917 -0.316396
v -0.701402 4.769917 0.316397
v -1.306035 4.812788 -0.316396
v -1.306036 4.812788 0.316396
v 0.153824 9.093924 -0.275900
v 0.153824 9.093923 0.275901
v -0.370017 9.164463 -0.275900
v -0.370017 9.164463 0.275901
v -0.926862 13.871524 -0.209020
v -0.926862 13.871524 0.209022
v -1.317690 13.784307 -0.209020
v -1.317690 13.784307 0.209022
v -1.162829 5.478575 0.310201
v -1.162828 5.478575 -0.310200
v -0.570556 5.431471 -0.310200
v -0.570556 5.431471 0.310201
v -2.588233 6.113422 0.199124
v -2.588233 6.113422 -0.199126
v -2.358096 6.474993 -0.195226
v -2.358096 6.474993 0.195225
v -4.521342 8.775528 0.156215
v -4.521343 8.775528 -0.156218
v -4.254403 8.979984 -0.153159
v -4.254404 8.979983 0.153156
v -2.627027 6.830246 0.189259
v -2.862384 6.490957 0.193039
v -2.862384 6.490957 -0.193040
v -2.627027 6.830246 -0.189260
v -1.967048 8.627637 0.943927
v -1.967048 8.627638 0.699065
v -2.241301 8.681156 0.940186
v -2.241301 8.681156 0.702806
v -2.583240 10.692490 0.905935
v -2.583240 10.692491 0.737058
v -2.769864 10.644420 0.903354
v -2.769864 10.644419 0.739638
v -5.826525 10.584732 -0.861245
v -5.826525 10.584732 -1.054849
v -5.661112 10.711425 -1.052954
v -5.661112 10.711425 -0.863141
v -0.525459 8.441795 0.282626
v 0.011800 8.375849 0.282626
v -0.525458 8.441794 -0.282625
v 0.011800 8.375850 -0.282625
v 3.471856 10.763601 -0.146881
v 3.471856 10.763602 0.146885
v 3.632843 10.408717 0.150465
v 3.632843 10.408719 -0.150461
v 6.024007 13.733017 -1.534218
v 6.024006 13.733016 -1.304868
v 6.269988 13.553973 -1.302073
v 6.269988 13.553973 -1.537013
v -0.041920 9.959290 0.263787
v -0.541669 10.001254 0.263787
v -0.041920 9.959290 -0.263786
v -0.541669 10.001255 -0.263786
v 0.008834 11.057641 -3.395540
v -0.294846 11.096292 -3.382184
v -0.394356 11.552497 -3.217104
v -0.104643 11.529503 -3.225050
v 1.591979 13.849375 -6.355160
v 1.372955 13.869665 -6.333756
v 1.301186 14.106689 -6.076354
v 1.510136 14.094619 -6.089087
v 0.052294 10.021919 2.160597
v -0.309549 10.065847 2.139513
v -0.416920 9.617827 2.359701
v -0.045810 9.576761 2.379411
v 2.129707 12.448925 4.303009
v 1.888097 12.468127 4.276743
v 1.816403 12.273926 4.547658
v 2.064202 12.255978 4.572214
vt 0.9212 0.9493
vt 0.7191 0.9493
vt 0.7191 0.7472
vt 0.9212 0.7472
vt 0.9212 0.9493
vt 0.7191 0.9493
vt 0.7191 0.7472
vt 0.9212 0.7472
vt 0.7191 0.9493
vt 0.7191 0.7472
vt 0.9212 0.7472
vt 0.9212 0.9493
vt 0.7191 0.9493
vt 0.7191 0.7472
vt 0.9212 0.7472
vt 0.9212 0.9493
vt 0.7191 0.7472
vt 0.9212 0.9493
vt 0.7191 0.9493
vt 0.7191 0.7472
vt 0.9212 0.7472
vt 0.9212 0.9493
vt 0.7191 0.9493
vt 0.7191 0.7472
vt 0.9212 0.7472
vt 0.7191 0.9493
vt 0.7191 0.7472
vt 0.9212 0.7472
vt 0.9212 0.9493
vt 0.7191 0.7472
vt 0.9212 0.7472
vt 0.9212 0.9493
vt 0.7191 0.7472
vt 0.9212 0.7472
vt 0.9212 0.9493
vt 0.7191 0.9493
vt 0.7191 0.7472
vt 0.9212 0.7472
vt 0.9212 0.9493
vt 0.7191 0.9493
vt 0.7191 0.7472
vt 0.9212 0.7472
vt 0.9212 0.9493
vt 0.7191 0.7472
vt 0.9212 0.7472
vt 0.9212 0.9493
vt 0.7191 0.9493
vt 0.7191 0.7472
vt 0.9212 0.7472
vt 0.9212 0.9493
vt 0.7191 0.9493
vt 0.7191 0.7472
vt 0.9212 0.7472
vt 0.9212 0.9493
vt 0.7191 0.9493
vt 0.7191 0.7472
vt 0.9212 0.9493
vt 0.7191 0.9493
vt 0.9212 0.7472
vt 0.9212 0.9493
vt 0.7191 0.9493
vt 0.7191 0.7472
vt 0.9212 0.7472
vt 0.9212 0.9493
vt 0.7191 0.9493
vt 0.7191 0.7472
vt 0.9212 0.7472
vt 0.9212 0.9493
vt 0.7191 0.9493
vt 0.7191 0.7472
vt 0.9212 0.7472
vt 0.9212 0.9493
vt 0.7191 0.9493
vt 0.7191 0.7472
vt 0.9212 0.7472
vt 0.9212 0.9493
vt 0.7191 0.9493
vt 0.7191 0.7472
vt 0.9212 0.7472
vt 0.9212 0.9493
vt 0.7191 0.9493
vt 0.7191 0.7472
vt 0.9212 0.7472
vt 0.9212 0.9493
vt 0.7191 0.7472
vt 0.9212 0.7472
vt 0.7191 0.9493
vt 0.7191 0.7472
vt 0.9212 0.7472
vt 0.9212 0.9493
vt 0.7191 0.9493
vt 0.7191 0.7472
vt 0.9212 0.7472
vt 0.9212 0.9493
vt 0.7191 0.9493
vt 0.7191 0.7472
vt 0.9212 0.7472
vt 0.9212 0.9493
vt 0.7191 0.9493
vt 0.7191 0.7472
vt 0.9212 0.7472
vt 0.9212 0.9493
vt 0.7191 0.9493
vt 0.7191 0.7472
vt 0.9212 0.7472
vt 0.9212 0.9493
vt 0.7191 0.9493
vt 0.7191 0.7472
vt 0.9212 0.7472
vt 0.9212 0.9493
vt 0.7191 0.9493
vt 0.7191 0.7472
vt 0.9212 0.7472
vt 0.7191 0.9493
vt 0.7191 0.7472
vt 0.9212 0.7472
vt 0.9212 0.9493
vt 0.7191 0.7472
vt 0.9212 0.7472
vt 0.9212 0.9493
vt 0.7191 0.9493
vt 0.7191 0.7472
vt 0.9212 0.7472
vt 0.9212 0.9493
vt 0.7191 0.9493
vt 0.7191 0.7472
vt 0.9212 0.7472
vt 0.7191 0.7472
vt 0.9212 0.7472
vt 0.7191 0.7472
vt 0.9212 0.7472
vt 0.9212 0.9493
vt 0.7191 0.9493
vt 0.9212 0.7472
vt 0.9212 0.9493
vt 0.7191 0.9493
vt 0.7191 0.7472
vt 0.9212 0.7472
vt 0.9212 0.9493
vt 0.7191 0.9493
vt 0.7191 0.7472
vt 0.9212 0.7472
vt 0.9212 0.9493
vt 0.7191 0.9493
vt 0.7191 0.7472
vt 0.9212 0.9493
vt 0.7191 0.9493
vt 0.7191 0.7472
vt 0.9212 0.7472
vt 0.9212 0.9493
vt 0.7191 0.9493
vt 0.7191 0.7472
vt 0.9212 0.7472
vt 0.9212 0.9493
vt 0.7191 0.9493
vt 0.7191 0.7472
vt 0.9212 0.9493
vt 0.7191 0.9493
vt 0.9212 0.7472
vt 0.9212 0.9493
vt 0.7191 0.9493
vt 0.7191 0.7472
vt 0.9212 0.7472
vt 0.9212 0.9493
vt 0.7191 0.9493
vt 0.7191 0.7472
vt 0.9212 0.7472
vt 0.7191 0.9493
vt 0.7191 0.7472
vt 0.9212 0.7472
vt 0.9212 0.9493
vt 0.7191 0.7472
vt 0.9212 0.7472
vt 0.7191 0.7472
vt 0.9212 0.7472
vt 0.9212 0.9493
vt 0.7191 0.9493
vt 0.7191 0.7472
vt 0.9212 0.7472
vt 0.9212 0.9493
vt 0.7191 0.9493
vt 0.7191 0.7472
vt 0.9212 0.7472
vt 0.9212 0.9493
vt 0.7191 0.9493
vt 0.7191 0.7472
vt 0.9212 0.7472
vt 0.7191 0.9493
vt 0.7191 0.7472
vt 0.9212 0.7472
vt 0.9212 0.9493
vt 0.7191 0.9493
vt 0.7191 0.7472
vt 0.9212 0.7472
vt 0.9212 0.9493
vt 0.7191 0.9493
vt 0.7191 0.7472
vt 0.9212 0.9493
vt 0.7191 0.9493
vt 0.9212 0.7472
vt 0.9212 0.9493
vt 0.7191 0.9493
vt 0.7191 0.7472
vt 0.9212 0.7472
vt 0.7191 0.7472
vt 0.9212 0.7472
vt 0.9212 0.9493
vt 0.7191 0.9493
vt 0.7191 0.7472
vt 0.9212 0.7472
vt 0.7191 0.7472
vt 0.9212 0.7472
vt 0.7191 0.7472
vt 0.9212 0.7472
vt 0.9212 0.9493
vt 0.7191 0.9493
vt 0.7191 0.7472
vt 0.9212 0.7472
vt 0.7191 0.7472
vt 0.9212 0.7472
vt 0.7191 0.7472
vt 0.9212 0.7472
vt 0.7191 0.9493
vt 0.7191 0.7472
vt 0.9212 0.7472
vt 0.9212 0.9493
vt 0.7191 0.9493
vt 0.7191 0.7472
vt 0.9212 0.7472
vt 0.9212 0.9493
vt 0.7191 0.9493
vt 0.9212 0.7472
vt 0.9212 0.9493
vt 0.7191 0.9493
vt 0.7191 0.7472
vt 0.9212 0.9493
vt 0.7191 0.9493
vt 0.7191 0.7472
vt 0.9212 0.7472
vt 0.9212 0.9493
vt 0.7191 0.9493
vt 0.7191 0.7472
vt 0.9212 0.7472
vt 0.7191 0.7472
vt 0.9212 0.7472
vt 0.7191 0.7472
vt 0.9212 0.7472
vt 0.9212 0.9493
vt 0.7191 0.7472
vt 0.9212 0.7472
vt 0.9212 0.9493
vt 0.7191 0.9493
vt 0.9212 0.7472
vt 0.9212 0.9493
vt 0.7191 0.9493
vt 0.7191 0.7472
vt 0.9212 0.7472
vt 0.9212 0.9493
vt 0.7191 0.9493
vt 0.7191 0.7472
vt 0.9212 0.7472
vt 0.9212 0.9493
vt 0.7191 0.9493
vt 0.7191 0.7472
vn 0.0000 -1.0000 -0.0000
vn -0.9367 -0.3503 -0.0000
vn 1.0000 0.0039 0.0000
vn -0.0000 -0.0000 1.0000
vn -1.0000 0.0041 -0.0000
vn 0.0000 0.0000 -1.0000
vn -0.9776 0.2103 -0.0000
vn -0.0018 0.0201 -0.9998
vn -0.0018 0.0201 0.9998
vn 0.9152 0.4030 0.0000
vn -0.0007 0.0141 0.9999
vn 0.0012 0.0091 -1.0000
vn -0.9762 0.2062 -0.0668
vn 0.4895 -0.8720 -0.0000
vn -0.2178 0.9760 0.0000
vn 0.9754 0.2206 0.0000
vn -0.9796 -0.2009 -0.0000
vn -0.0007 0.0141 -0.9999
vn 0.9810 -0.1940 0.0000
vn 0.0007 0.0092 1.0000
vn 0.0007 0.0092 -1.0000
vn -0.7121 -0.7020 -0.0000
vn -0.0023 0.0147 0.9999
vn -0.0631 0.0327 -0.9975
vn -0.0631 0.0327 0.9975
vn 0.6403 0.7681 0.0000
vn 0.7761 0.6306 0.0000
vn -0.8092 -0.5876 0.0000
vn 0.7973 0.6036 0.0000
vn -0.0023 0.0147 -0.9999
vn -0.0039 0.0135 -0.9999
vn -0.2415 -0.2990 0.9232
vn -0.0039 0.0135 0.9999
vn -0.0135 0.0147 -0.9998
vn 0.9839 -0.1787 0.0000
vn -0.9790 0.2040 -0.0000
vn 0.2500 0.3537 -0.9013
vn -0.2494 0.9684 0.0000
vn 0.9582 0.2860 0.0000
vn -0.9656 -0.2600 0.0000
vn -0.0135 0.0147 0.9998
vn -0.6081 0.7939 0.0000
vn 0.2341 -0.2918 -0.9274
vn -0.2457 0.3344 0.9098
vn -0.8110 -0.5851 0.0000
vn 0.0009 0.0091 1.0000
vn 0.0009 0.0091 -1.0000
vn 0.7663 -0.6425 -0.0000
vn -0.4495 0.8933 -0.0000
vn 0.0322 0.0102 0.9994
vn 0.0322 0.0102 -0.9994
vn 0.5885 0.8085 0.0000
vn 0.2697 0.2168 0.9382
vn -0.2723 -0.1963 -0.9420
vn -0.7584 0.6518 -0.0000
vn 0.0772 0.8813 0.4662
vn 0.0016 0.0146 0.9999
vn 0.0792 0.7198 0.6897
vn -0.9725 -0.1845 -0.1418
vn 0.9729 0.2126 0.0903
vn -0.1196 -0.8422 -0.5257
vn 0.0016 0.7357 -0.6773
vn -0.8868 0.0601 -0.4582
vn 0.8893 -0.0353 0.4559
vn -0.1251 -0.6871 -0.7157
vn 0.8463 -0.4431 -0.2956
vn 0.1256 0.8921 -0.4340
vn 0.9755 -0.1756 0.1329
vn -0.1123 -0.8629 0.4928
vn 0.0012 0.8126 0.5828
vn 0.1245 0.5941 -0.7947
vn -0.1127 -0.5741 0.8110
vn -0.8304 0.4656 0.3061
s off
f 1/1/1 2/2/1 3/3/1 4/4/1
f 8/5/2 7/6/2 12/7/2 11/8/2
f 1/1/3 5/9/3 6/10/3 2/11/3
f 2/12/4 6/13/4 7/14/4 3/15/4
f 3/16/5 7/6/5 8/17/5 4/4/5
f 5/18/6 1/19/6 4/20/6 8/21/6
f 51/22/7 49/23/7 16/24/7 15/25/7
f 5/18/8 8/26/8 11/27/8 9/28/8
f 7/29/9 6/13/9 10/30/9 12/31/9
f 6/32/10 5/9/10 9/33/10 10/34/10
f 62/35/11 61/36/11 18/37/11 20/38/11
f 52/39/12 51/40/12 15/41/12 13/42/12
f 16/43/13 49/23/13 75/44/13 74/45/13
f 50/46/14 52/47/14 56/48/14 55/49/14
f 17/50/15 19/51/15 20/52/15 18/53/15
f 61/54/16 63/55/16 17/56/16 18/53/16
f 64/57/17 62/58/17 20/52/17 19/59/17
f 63/60/18 64/61/18 19/62/18 17/63/18
f 10/64/19 9/65/19 23/66/19 24/67/19
f 12/68/20 10/69/20 24/70/20 21/71/20
f 9/72/21 11/73/21 22/74/21 23/75/21
f 11/76/22 12/77/22 25/78/22 26/79/22
f 34/80/23 33/81/23 32/82/23 29/83/23
f 22/84/24 11/73/24 26/85/24 27/86/24
f 12/68/25 21/87/25 28/88/25 25/89/25
f 21/90/26 22/91/26 27/92/26 28/93/26
f 32/94/27 31/95/27 47/96/27 48/97/27
f 35/98/28 34/99/28 29/100/28 30/101/28
f 33/102/29 36/103/29 31/104/29 32/105/29
f 36/106/30 35/107/30 30/108/30 31/109/30
f 27/110/31 26/111/31 35/112/31 36/113/31
f 33/102/32 28/114/32 37/115/32 39/116/32
f 25/117/33 28/114/33 33/118/33 34/119/33
f 38/120/34 40/121/34 44/122/34 42/123/34
f 28/124/35 27/125/35 38/126/35 37/127/35
f 36/106/36 33/81/36 39/128/36 40/129/36
f 27/110/37 36/103/37 40/130/37 38/131/37
f 41/132/38 42/133/38 44/122/38 43/134/38
f 37/135/39 38/136/39 42/137/39 41/138/39
f 40/139/40 39/140/40 43/141/40 44/142/40
f 39/143/41 37/144/41 41/145/41 43/134/41
f 26/146/28 25/147/28 34/148/28 35/149/28
f 46/150/42 45/151/42 48/152/42 47/153/42
f 31/154/43 30/155/43 46/156/43 47/153/43
f 29/157/44 32/158/44 48/152/44 45/159/44
f 30/160/45 29/161/45 45/162/45 46/163/45
f 24/164/19 23/165/19 52/166/19 50/167/19
f 21/90/46 24/168/46 50/169/46 49/170/46
f 23/171/47 22/91/47 51/172/47 52/173/47
f 22/84/7 21/87/7 49/174/7 51/175/7
f 55/176/48 56/177/48 60/178/48 59/179/48
f 13/180/49 14/181/49 54/182/49 53/183/49
f 14/184/50 50/185/50 55/186/50 54/187/50
f 52/39/51 13/188/51 53/189/51 56/190/51
f 59/191/52 60/192/52 57/193/52 58/194/52
f 54/195/53 55/196/53 59/197/53 58/194/53
f 56/198/54 53/199/54 57/193/54 60/200/54
f 53/201/55 54/202/55 58/203/55 57/204/55
f 64/57/56 63/55/56 68/205/56 67/206/56
f 15/207/17 16/208/17 62/209/17 64/210/17
f 14/184/16 13/188/16 63/211/16 61/212/16
f 16/43/57 14/181/57 61/213/57 62/214/57
f 67/215/58 68/216/58 72/217/58 71/218/58
f 15/207/59 64/61/59 67/219/59 66/220/59
f 63/60/60 13/188/60 65/221/60 68/222/60
f 13/180/61 15/223/61 66/224/61 65/225/61
f 69/226/62 70/227/62 71/228/62 72/229/62
f 66/230/63 67/231/63 71/228/63 70/232/63
f 68/233/64 65/234/64 69/235/64 72/229/64
f 65/236/65 66/237/65 70/238/65 69/239/65
f 76/240/66 73/241/66 77/242/66 80/243/66
f 14/184/67 16/208/67 74/244/67 73/245/67
f 50/46/68 14/181/68 73/246/68 76/247/68
f 49/248/69 50/185/69 76/249/69 75/250/69
f 79/251/70 80/252/70 77/242/70 78/253/70
f 73/254/71 74/255/71 78/256/71 77/257/71
f 75/258/72 76/259/72 80/260/72 79/261/72
f 74/262/73 75/263/73 79/264/73 78/253/73
