# Blender v2.78 (sub 0) OBJ File: 'tree3.blend'
# www.blender.org
g Tree3
v 0.761863 0.012666 -0.627834
v -0.794427 0.012011 0.813602
v -0.497676 2.012011 0.509688
v -0.171153 4.447346 -0.374997
v -0.872831 4.191705 -0.379888
v -0.871008 4.191758 0.376207
v 0.055035 3.611757 0.424333
v -0.744376 3.445363 0.424333
v 1.975866 5.892524 0.654196
v 1.974760 5.891688 1.231777
v 2.315135 5.330942 0.621396
v 3.426277 9.054872 1.724225
v 3.671813 8.927039 1.735703
v -3.400937 5.260437 -0.467978
v -3.617925 4.665517 -1.144478
v -5.423116 7.550863 -0.787767
v -5.659515 7.356019 -0.616673
v -5.659516 7.356017 -0.956450
v 0.171470 5.586219 -2.573516
v 0.050939 5.077414 -2.820480
v 0.166037 8.451081 -4.513950
v 0.225274 8.299131 -4.729355
v 0.054342 5.685047 -3.196146
v 0.542829 5.775929 -3.153974
v 0.401991 6.219629 -2.918587
v -0.024152 6.081425 -2.982717
v 1.950522 5.866981 -2.447320
v 1.900718 6.019618 -2.684988
v 1.831230 6.238534 -2.568851
v 3.827388 8.167391 -2.028387
v -3.673622 5.580656 -0.485017
v -3.722768 4.760318 -0.470568
v -3.412922 5.279246 -1.099572
v -3.592115 6.512996 1.323824
v -3.613807 6.099247 1.316179
v -3.739382 6.255965 1.254306
v -4.060414 8.037334 2.963911
v 0.491909 4.893827 0.644288
v 0.756498 4.145338 0.685408
v -0.508259 4.627858 2.196568
v -0.615373 4.976860 2.027787
v -0.182261 4.903464 2.212543
v -0.305226 5.216851 2.060375
v -1.660800 7.467960 4.469507
v -1.584898 5.757216 -3.090624
v -1.447409 5.897507 -3.289726
v -1.437645 6.091038 -3.187375
v -3.263228 6.996179 -4.695240
v 0.702264 0.762121 -0.647163
v 0.688362 0.726852 0.704977
v -0.688362 0.726852 -0.704977
v 0.497888 2.010890 0.510012
v -0.497681 2.012189 -0.509449
v -0.178589 4.443146 0.379841
v -0.749530 3.447677 -0.428785
v 2.314959 5.330712 1.268094
v -0.688362 0.726852 -0.000000
v -2.639006 -0.161695 -0.206259
v -2.948943 -0.126649 -0.530214
v -2.734285 0.154300 -0.206259
v -3.933521 -1.036036 -0.377784
v 0.010176 0.022475 -0.852305
v 0.000000 0.012011 0.813602
v 0.058272 3.615241 -0.429763
v -0.517683 4.320563 0.379913
v 0.583319 5.175447 -2.778580
v 0.000000 0.726852 -0.704977
v -0.000000 0.726852 0.704977
v -0.794426 0.012014 -0.001746
v 1.275315 0.008882 -2.390959
v 1.186869 0.321876 -2.591031
v 0.902268 0.008882 -2.390959
v 2.650680 -0.113416 -3.876278
v 0.965178 -0.008602 3.120115
v 0.932734 0.330221 3.190285
v 0.588854 0.016213 3.097865
v 0.606654 0.351723 3.171006
v 0.640216 -0.677857 4.731419
vt 0.8053 0.8762
vt 0.8046 0.8714
vt 0.8049 0.8763
vt 0.8051 0.8764
vt 0.8049 0.8758
vt 0.8045 0.8716
vt 0.8031 0.8607
vt 0.8031 0.8602
vt 0.8032 0.8610
vt 0.8037 0.8498
vt 0.7992 0.8490
vt 0.7999 0.8416
vt 0.8013 0.8397
vt 0.7839 0.7208
vt 0.8141 0.7592
vt 0.8115 0.7193
vt 0.8137 0.7612
vt 0.8027 0.8599
vt 0.8027 0.8599
vt 0.8027 0.8599
vt 0.8027 0.8599
vt 0.8027 0.8599
vt 0.8027 0.8599
vt 0.8027 0.8599
vt 0.8032 0.8606
vt 0.8032 0.8606
vt 0.8032 0.8606
vt 0.8033 0.8606
vt 0.8032 0.8606
vt 0.8032 0.8606
vt 0.8032 0.8606
vt 0.8032 0.8582
vt 0.8031 0.8579
vt 0.8030 0.8583
vt 0.8031 0.8581
vt 0.8027 0.8599
vt 0.8027 0.8599
vt 0.8027 0.8599
vt 0.8027 0.8599
vt 0.8028 0.8599
vt 0.8031 0.8593
vt 0.8029 0.8599
vt 0.8026 0.8590
vt 0.8032 0.8606
vt 0.8032 0.8606
vt 0.8032 0.8606
vt 0.8032 0.8606
vt 0.8034 0.8618
vt 0.8032 0.8606
vt 0.8060 0.8857
vt 0.8108 0.9224
vt 0.8065 0.8840
vt 0.8067 0.8867
vt 0.8033 0.8609
vt 0.8051 0.8754
vt 0.8051 0.8753
vt 0.8032 0.8608
vt 0.8033 0.8618
vt 0.8050 0.8759
vt 0.8052 0.8760
vt 0.8054 0.8773
vt 0.8049 0.8754
vt 0.8050 0.8759
vt 0.8050 0.8760
vt 0.8049 0.8760
vt 0.8051 0.8757
vt 0.8052 0.8757
vt 0.8051 0.8757
vt 0.8052 0.8757
vt 0.8053 0.8764
vt 0.8034 0.8573
vt 0.8045 0.8713
vt 0.7851 0.7248
vt 0.8026 0.8599
vt 0.8146 0.7651
vt 0.8137 0.7675
vt 0.8116 0.7210
vt 0.8027 0.8599
vt 0.8027 0.8599
vt 0.8170 0.7187
vt 0.8171 0.7204
vt 0.8150 0.7203
vt 0.8146 0.7187
vt 0.8030 0.8582
vt 0.8052 0.8757
vt 0.8050 0.8760
vn -0.9892 0.1467 -0.0000
vn 0.0000 0.2047 -0.9788
vn -0.0172 0.0487 0.9987
vn 0.6052 -0.7961 -0.0001
vn 0.2707 0.2183 -0.9376
vn -0.9088 0.4172 -0.0011
vn -0.2929 0.5354 0.7922
vn -0.2933 0.5375 0.7906
vn -0.1651 0.4208 -0.8920
vn 0.7224 -0.5030 -0.4744
vn 0.7245 0.5988 -0.3413
vn -0.7856 -0.4712 0.4010
vn 0.9453 -0.0555 0.3215
vn 0.3704 -0.4841 0.7927
vn 0.9025 0.4132 0.1217
vn 0.6921 0.3099 -0.6519
vn -0.2956 -0.3596 0.8851
vn -0.4424 0.4242 0.7902
vn -0.5581 0.8298 -0.0009
vn 0.6056 -0.7957 -0.0010
vn 0.7483 0.6633 -0.0079
vn -0.6360 0.7717 -0.0000
vn -0.4038 -0.9125 0.0655
vn -0.1125 0.0953 -0.9891
vn -0.6829 0.7117 -0.1648
vn 0.5131 -0.6495 -0.5611
vn -0.3166 0.8615 0.3969
vn 0.0000 0.1501 0.9887
vn -0.0319 0.0589 0.9978
vn 0.0003 -1.0000 -0.0003
vn -0.0301 0.9732 -0.2279
vn 0.6421 0.5334 0.5506
vn -0.9979 0.0422 0.0493
vn -0.0376 -0.9201 -0.3898
vn 0.0000 -1.0000 -0.0000
vn -0.0173 0.0486 0.9987
vn 0.2759 0.0497 -0.9599
vn -0.5583 0.8296 0.0001
vn -0.9413 0.0756 -0.3289
vn -0.0355 0.0619 -0.9974
vn -0.9852 -0.1712 0.0025
vn 0.2200 0.2161 -0.9513
vn 0.9718 0.2248 -0.0709
vn -0.3044 -0.0845 0.9488
vn -0.1643 -0.0715 0.9838
vn 0.9356 -0.3530 0.0001
vn 0.0764 0.1584 0.9844
vn -0.2696 0.0773 0.9599
vn 0.3891 0.9212 0.0086
vn 0.1168 0.1935 -0.9741
vn -0.4039 -0.9148 -0.0000
vn 0.1819 -0.8386 -0.5135
vn -0.7998 -0.5990 -0.0402
vn 0.1673 -0.5069 -0.8456
vn 0.8528 0.3612 0.3771
vn 0.9659 0.2117 0.1489
vn -0.9719 -0.0680 -0.2252
vn -0.0777 -0.5983 -0.7975
vn -0.1717 0.4304 0.8861
vn 0.1649 -0.5171 -0.8399
vn -0.0146 0.4682 -0.8835
vn 0.4033 -0.5481 -0.7327
vn 0.0061 -0.4418 0.8971
vn 0.1984 0.5077 -0.8383
vn 0.9008 -0.3416 0.2681
vn -0.4031 0.1650 0.9001
vn -0.9770 0.1836 -0.1082
vn -0.5824 0.5058 -0.6364
vn 0.4083 -0.7134 0.5695
vn -0.7918 -0.4911 0.3631
vn 0.8517 0.3771 0.3638
vn 0.3403 0.1549 -0.9275
vn -0.5583 0.8296 0.0018
vn -0.9441 -0.2980 -0.1410
vn -0.4426 0.8014 -0.4023
vn 0.1254 0.4795 -0.8685
vn -0.3635 0.5698 -0.7370
vn -0.9431 -0.3246 -0.0726
vn -0.1638 0.5069 0.8463
vn 0.0368 0.1642 -0.9857
vn -0.0314 -0.8067 -0.5901
vn 0.0668 -0.9977 -0.0105
vn -0.3424 0.9396 0.0007
vn -0.0000 0.1502 0.9887
vn 0.9894 0.1434 -0.0223
vn 0.9928 0.0812 0.0877
vn -0.9892 0.1468 -0.0000
vn 0.7612 0.6485 0.0049
vn -0.7966 -0.6045 0.0000
vn 0.6056 -0.7958 -0.0009
vn 0.9637 0.2669 0.0047
vn -0.1049 -0.0006 0.9945
vn -0.1094 -0.0330 0.9935
vn -0.3073 0.9323 -0.1905
vn 0.0181 0.9884 0.1509
vn -0.0001 0.1502 0.9887
vn -0.0073 -0.9998 -0.0192
vn -0.3400 0.9404 0.0019
vn -0.0041 0.0561 0.9984
vn -0.0090 -1.0000 0.0014
vn 0.9548 0.1816 0.2353
vn -0.8275 0.1959 -0.5262
vn -0.9690 0.0247 0.2458
vn -0.6406 0.0954 -0.7619
vn 0.0000 -0.9966 0.0821
vn -0.0213 -0.9998 -0.0000
vn 0.9825 0.1770 -0.0587
vn 0.0225 0.8347 0.5503
vn 0.9750 0.0485 0.2168
s off
f 57/1/1 53/2/1 51/3/1
f 62/4/2 51/3/2 67/5/2
f 52/6/3 7/7/3 65/8/3
f 64/9/4 11/10/4 56/11/4
f 9/12/5 11/10/5 64/9/5
f 10/13/6 12/14/6 9/12/6
f 25/15/7 21/16/7 26/17/7
f 19/18/8 25/19/8 26/20/8
f 29/21/9 30/22/9 28/23/9
f 28/23/10 30/22/10 27/24/10
f 31/25/11 34/26/11 14/27/11
f 32/28/12 35/29/12 36/30/12
f 34/26/13 37/31/13 35/29/13
f 42/32/14 44/33/14 40/34/14
f 43/35/15 44/33/15 42/32/15
f 46/36/16 48/37/16 47/38/16
f 19/18/17 45/39/17 20/40/17
f 47/38/18 48/37/18 45/39/18
f 54/41/19 9/12/19 4/42/19
f 7/7/20 64/9/20 39/43/20
f 33/44/21 16/45/21 31/25/21
f 17/46/22 16/45/22 18/47/22
f 55/48/23 32/28/23 15/49/23
f 62/4/24 59/50/24 51/3/24
f 59/50/25 61/51/25 60/52/25
f 58/53/26 61/51/26 59/50/26
f 4/42/27 19/18/27 5/54/27
f 52/6/28 68/55/28 50/56/28
f 65/8/29 6/57/29 8/58/29
f 1/59/30 63/60/30 69/61/30
f 49/62/31 71/63/31 67/5/31
f 70/64/32 73/65/32 71/63/32
f 76/66/33 78/67/33 77/68/33
f 74/69/34 78/67/34 76/66/34
f 69/61/35 63/60/35 2/70/35
f 7/7/36 54/41/36 65/8/36
f 15/49/37 33/44/37 5/54/37 55/48/37
f 38/71/38 10/13/38 9/12/38
f 20/40/39 55/48/39 5/54/39 19/18/39
f 64/9/40 49/62/40 53/2/40 55/48/40
f 8/58/41 55/48/41 53/2/41 3/72/41
f 13/73/42 11/10/42 9/12/42 12/14/42
f 52/6/43 49/62/43 64/9/43
f 56/11/44 10/13/44 38/71/44 39/43/44
f 13/73/45 12/14/45 10/13/45 56/11/45
f 56/11/46 11/10/46 13/73/46
f 17/46/47 32/28/47 31/25/47 16/45/47
f 32/28/48 8/58/48 6/57/48 14/27/48
f 14/27/49 6/57/49 5/54/49 33/44/49
f 18/47/50 16/45/50 33/44/50 15/49/50
f 55/48/51 8/58/51 32/28/51
f 20/40/52 66/74/52 64/9/52 55/48/52
f 15/49/53 32/28/53 17/46/53
f 24/75/54 23/76/54 22/77/54
f 66/74/55 19/18/55 4/42/55 64/9/55
f 22/77/56 21/16/56 25/15/56 24/75/56
f 22/77/57 23/76/57 26/17/57 21/16/57
f 45/39/58 46/36/58 23/78/58 20/40/58
f 29/21/59 25/19/59 19/18/59 27/24/59
f 23/78/60 24/79/60 66/74/60 20/40/60
f 24/80/61 23/81/61 26/82/61 25/83/61
f 27/24/62 66/74/62 24/79/62 28/23/62
f 19/18/63 66/74/63 27/24/63
f 29/21/64 28/23/64 24/79/64 25/19/64
f 35/29/65 32/28/65 14/27/65 34/26/65
f 29/21/66 27/24/66 30/22/66
f 36/30/67 34/26/67 31/25/67 32/28/67
f 34/26/68 36/30/68 37/31/68
f 40/34/69 7/7/69 39/43/69 42/32/69
f 36/30/70 35/29/70 37/31/70
f 42/32/71 39/43/71 38/71/71 43/35/71
f 4/42/72 9/12/72 64/9/72
f 54/41/73 38/71/73 9/12/73
f 40/34/74 41/84/74 54/41/74 7/7/74
f 41/84/75 43/35/75 38/71/75 54/41/75
f 46/36/76 47/38/76 26/20/76 23/78/76
f 43/35/77 41/84/77 44/33/77
f 41/84/78 40/34/78 44/33/78
f 45/39/79 19/18/79 26/20/79 47/38/79
f 53/2/80 49/62/80 67/5/80 51/3/80
f 46/36/81 45/39/81 48/37/81
f 59/50/82 62/4/82 69/61/82 58/53/82
f 6/57/83 65/8/83 4/42/83 5/54/83
f 63/60/84 68/55/84 2/70/84
f 1/59/85 52/6/85 50/56/85
f 49/62/86 52/6/86 1/59/86
f 2/70/87 57/1/87 69/61/87
f 14/27/88 33/44/88 31/25/88
f 15/49/89 17/46/89 18/47/89
f 39/43/90 64/9/90 56/11/90
f 52/6/91 64/9/91 7/7/91
f 57/1/87 2/70/87 3/72/87 53/2/87
f 60/52/92 58/53/92 69/61/92 57/1/92
f 58/53/93 60/52/93 61/51/93
f 60/52/94 57/1/94 51/3/94 59/50/94
f 77/68/95 75/85/95 50/56/95 68/55/95
f 3/72/96 2/70/96 68/55/96 52/6/96
f 1/59/97 69/61/97 62/4/97
f 4/42/98 65/8/98 54/41/98
f 65/8/99 8/58/99 3/72/99 52/6/99
f 72/86/100 70/64/100 1/59/100 62/4/100
f 71/63/101 49/62/101 1/59/101 70/64/101
f 71/63/102 72/86/102 62/4/102 67/5/102
f 77/68/103 68/55/103 63/60/103 76/66/103
f 72/86/104 71/63/104 73/65/104
f 70/64/105 72/86/105 73/65/105
f 76/66/106 63/60/106 1/59/106 74/69/106
f 75/85/107 74/69/107 1/59/107 50/56/107
f 75/85/108 77/68/108 78/67/108
f 74/69/109 75/85/109 78/67/109
