# Blender v2.78 (sub 0) OBJ File: 'woodbarrel.blend'
# www.blender.org
g Barrel_collider
v 0.653695 2.805843 -0.653695
v 0.653695 2.805843 0.653695
v -0.653695 2.805843 0.653695
v 0.825236 1.880299 0.825236
v -0.825236 1.880299 0.825236
v -0.825236 1.880299 -0.825236
v 0.000000 2.805843 -0.924464
v -0.653695 2.805843 -0.653695
v -0.924464 2.805843 0.000000
v 0.000000 2.805843 0.924464
v 0.924464 2.805843 -0.000000
v 0.000000 1.880299 -1.167060
v -1.167060 1.880299 0.000000
v 0.000000 1.880299 1.167060
v 1.167060 1.880299 -0.000000
v 0.825236 1.880299 -0.825236
v 0.000000 0.008413 0.000000
v 0.000000 2.805843 -0.000000
v 0.653695 0.008413 -0.653695
v 0.924464 0.008413 0.000000
v 0.653695 0.008413 0.653695
v -0.653695 0.008413 0.653695
v -0.653695 0.008413 -0.653695
v 0.825236 0.933956 -0.825236
v 1.167060 0.933956 0.000000
v 0.825236 0.933956 0.825236
v -0.825236 0.933956 0.825236
v -0.825236 0.933956 -0.825236
v 0.000000 0.008413 -0.924464
v -0.924464 0.008413 0.000000
v 0.000000 0.008413 0.924464
v 0.000000 0.933956 -1.167060
v -1.167060 0.933956 0.000000
v 0.000000 0.933956 1.167060
vn 0.0000 -1.0000 0.0000
vn 0.0000 1.0000 0.0000
vn -0.8979 0.2354 0.3719
vn -0.8979 0.2354 -0.3719
vn -0.3719 0.2354 -0.8979
vn 0.3719 0.2354 -0.8979
vn -0.9239 0.0000 0.3827
vn -0.9239 0.0000 -0.3827
vn -0.3827 0.0000 -0.9239
vn 0.3827 -0.0000 -0.9239
vn 0.9239 0.0000 -0.3827
vn 0.9239 0.0000 0.3827
vn 0.8979 -0.2354 -0.3719
vn 0.3719 -0.2354 0.8979
vn 0.8979 -0.2354 0.3719
vn -0.3719 -0.2354 0.8979
vn -0.8979 -0.2354 0.3719
vn 0.3827 0.0000 0.9239
vn -0.3827 0.0000 0.9239
vn 0.8979 0.2354 -0.3719
vn 0.8979 0.2354 0.3719
vn 0.3719 0.2354 0.8979
vn -0.3719 0.2354 0.8979
vn 0.3719 -0.2354 -0.8979
vn -0.3719 -0.2354 -0.8979
vn -0.8979 -0.2354 -0.3719
s off
f 21//1 31//1 17//1
f 8//2 9//2 18//2
f 2//2 11//2 18//2
f 11//2 1//2 18//2
f 7//2 8//2 18//2
f 2//2 18//2 10//2
f 9//2 3//2 18//2
f 1//2 7//2 18//2
f 13//3 5//3 3//3 9//3
f 8//4 6//4 13//4 9//4
f 12//5 6//5 8//5 7//5
f 7//6 1//6 16//6 12//6
f 33//7 27//7 5//7 13//7
f 33//8 13//8 6//8 28//8
f 12//9 32//9 28//9 6//9
f 16//10 24//10 32//10 12//10
f 15//11 25//11 24//11 16//11
f 26//12 25//12 15//12 4//12
f 20//13 19//13 24//13 25//13
f 31//14 21//14 26//14 34//14
f 21//15 20//15 25//15 26//15
f 22//16 31//16 34//16 27//16
f 33//17 30//17 22//17 27//17
f 14//18 34//18 26//18 4//18
f 5//19 27//19 34//19 14//19
f 16//20 1//20 11//20 15//20
f 2//21 4//21 15//21 11//21
f 10//22 14//22 4//22 2//22
f 3//23 5//23 14//23 10//23
f 17//1 31//1 22//1
f 18//2 3//2 10//2
f 19//24 29//24 32//24 24//24
f 29//25 23//25 28//25 32//25
f 33//26 28//26 23//26 30//26
f 17//1 30//1 23//1
f 19//1 20//1 17//1
f 30//1 17//1 22//1
f 29//1 19//1 17//1
f 20//1 21//1 17//1
f 29//1 17//1 23//1
