# Blender v2.78 (sub 0) OBJ File: 'bigrock1.blend'
# www.blender.org
g BigRock1_collider
v 2.309433 1.405179 -0.966432
v 2.683254 2.562330 -0.693691
v -0.187101 1.809925 3.377207
v -0.092698 1.614086 3.217352
v -0.837412 0.916185 2.642854
v -1.189871 1.397079 2.907312
v -1.914764 1.786615 0.099696
v 0.321921 3.738845 1.831731
v 0.179387 4.994970 -0.372912
v 0.271628 4.784226 0.202029
v 0.761803 4.062468 -0.765433
v 1.379419 3.543204 -1.127347
v -0.294181 5.048211 -0.303614
v -1.005797 4.510904 0.038222
v -0.095986 4.857406 -0.713609
v -0.587696 4.894052 -0.589993
v -1.520203 3.866868 0.771731
v -0.321527 3.449964 2.003969
v 0.149454 3.574075 2.706518
v 2.275373 2.995677 -1.143672
v 2.342016 2.418816 -1.264494
v 1.847101 3.060018 -1.621582
v 1.903233 2.851681 -1.647871
v -0.712097 2.275809 -1.702396
v -0.902459 2.550227 -1.485255
v -2.179970 2.489775 1.059005
v -0.125457 2.826533 2.975250
v -0.744056 1.556929 3.140832
v -0.293018 2.133590 3.325069
v 0.252688 3.310930 2.961537
v 0.177416 2.882329 2.997743
v 0.718492 1.351058 2.143619
v 2.735570 2.413167 0.206654
v 2.859814 2.077113 -0.008142
v 2.611482 0.983110 0.046344
v 2.414928 0.821571 -0.388101
v -0.358363 -0.058936 -0.185394
v -0.986226 0.156430 -0.106383
v -1.358908 0.385372 -0.177022
v -0.748103 -0.071184 0.081257
v -0.799091 0.452131 1.943571
v -1.030246 1.040536 2.748710
v -0.683399 0.498594 2.105191
v 2.148482 0.258200 0.456944
v 1.897165 0.194110 -0.007940
v 1.686326 0.651012 1.705398
v 0.741509 0.831986 1.604466
v -0.187101 1.809925 3.377207
v -0.187101 1.809925 3.377207
v -0.092698 1.614086 3.217352
v -0.092698 1.614086 3.217352
v 0.321921 3.738845 1.831731
v 0.321921 3.738845 1.831731
v 0.271628 4.784226 0.202029
v 0.271628 4.784226 0.202029
v 0.179387 4.994970 -0.372912
v 0.179387 4.994970 -0.372912
v 0.179387 4.994970 -0.372912
v 0.761803 4.062468 -0.765433
v 0.761803 4.062468 -0.765433
v 1.379419 3.543204 -1.127347
v 1.379419 3.543204 -1.127347
v -0.294181 5.048211 -0.303614
v -0.294181 5.048211 -0.303614
v -0.294181 5.048211 -0.303614
v -1.005797 4.510904 0.038222
v -1.005797 4.510904 0.038222
v -0.095986 4.857406 -0.713609
v -0.095986 4.857406 -0.713609
v -0.587696 4.894052 -0.589993
v -0.587696 4.894052 -0.589993
v -0.587696 4.894052 -0.589993
v -1.520203 3.866868 0.771731
v -1.520203 3.866868 0.771731
v -0.321527 3.449964 2.003969
v -0.321527 3.449964 2.003969
v 0.149454 3.574075 2.706518
v 0.149454 3.574075 2.706518
v 0.252688 3.310930 2.961537
v 0.252688 3.310930 2.961537
v 0.252688 3.310930 2.961537
v 2.683254 2.562330 -0.693691
v 2.683254 2.562330 -0.693691
v 2.683254 2.562330 -0.693691
v 2.275373 2.995677 -1.143672
v 2.275373 2.995677 -1.143672
v 2.342016 2.418816 -1.264494
v 2.342016 2.418816 -1.264494
v 1.847101 3.060018 -1.621582
v 1.847101 3.060018 -1.621582
v 2.309433 1.405179 -0.966432
v 2.309433 1.405179 -0.966432
v 2.309433 1.405179 -0.966432
v 1.903233 2.851681 -1.647871
v 1.903233 2.851681 -1.647871
v 1.903233 2.851681 -1.647871
v -0.712097 2.275809 -1.702396
v -0.712097 2.275809 -1.702396
v -0.902459 2.550227 -1.485255
v -0.902459 2.550227 -1.485255
v -1.914764 1.786615 0.099696
v -1.914764 1.786615 0.099696
v -2.179970 2.489775 1.059005
v -2.179970 2.489775 1.059005
v -0.744056 1.556929 3.140832
v -0.744056 1.556929 3.140832
v -0.293018 2.133590 3.325069
v -0.293018 2.133590 3.325069
v -0.293018 2.133590 3.325069
v 0.177416 2.882329 2.997743
v 0.177416 2.882329 2.997743
v -1.189871 1.397079 2.907312
v -1.189871 1.397079 2.907312
v -0.125457 2.826533 2.975250
v -0.125457 2.826533 2.975250
v -1.030246 1.040536 2.748710
v -1.030246 1.040536 2.748710
v 0.718492 1.351058 2.143619
v 0.718492 1.351058 2.143619
v -0.837412 0.916185 2.642854
v -0.837412 0.916185 2.642854
v 2.735570 2.413167 0.206654
v 2.735570 2.413167 0.206654
v 2.859814 2.077113 -0.008142
v 2.859814 2.077113 -0.008142
v 2.414928 0.821571 -0.388101
v 2.414928 0.821571 -0.388101
v 2.611482 0.983110 0.046344
v 2.611482 0.983110 0.046344
v 1.897165 0.194110 -0.007940
v 1.897165 0.194110 -0.007940
v 1.897165 0.194110 -0.007940
v -0.358363 -0.058936 -0.185394
v -0.358363 -0.058936 -0.185394
v -0.986226 0.156430 -0.106383
v -0.986226 0.156430 -0.106383
v -0.748103 -0.071184 0.081257
v -0.748103 -0.071184 0.081257
v -1.358908 0.385372 -0.177022
v -1.358908 0.385372 -0.177022
v -0.799091 0.452131 1.943571
v -0.799091 0.452131 1.943571
v -0.683399 0.498594 2.105191
v -0.683399 0.498594 2.105191
v 2.148482 0.258200 0.456944
v 2.148482 0.258200 0.456944
v 1.686326 0.651012 1.705398
v 1.686326 0.651012 1.705398
v 0.741509 0.831986 1.604466
v 0.741509 0.831986 1.604466
vn -0.7941 -0.1828 -0.5796
vn -0.8380 -0.5154 0.1791
vn 0.1518 0.9356 0.3186
vn -0.5571 0.8202 0.1295
vn 0.7793 0.2223 -0.5859
vn 0.2709 -0.6524 -0.7078
vn -0.0726 -0.5948 0.8005
vn 0.0001 0.9066 -0.4219
vn 0.4881 0.8086 -0.3286
vn -0.8652 0.2841 -0.4131
vn 0.9385 0.3453 0.0027
vn 0.6615 0.7237 0.1965
vn 0.0323 -0.5352 -0.8441
vn 0.3836 -0.7211 0.5770
vn -0.2962 -0.8032 0.5168
vn -0.1518 0.4744 0.8671
vn -0.0920 0.0998 0.9907
vn -0.3974 0.0177 0.9174
vn -0.6259 0.4819 0.6132
vn 0.7329 -0.6496 -0.2020
vn 0.5010 0.5824 -0.6401
vn -0.2078 -0.7091 0.6738
vn -0.0425 0.4366 -0.8986
vn -0.2436 0.8052 0.5406
vn -0.3860 0.9174 0.0967
vn 0.8986 -0.2004 -0.3903
vn 0.4751 -0.2622 -0.8399
vn 0.0983 -0.9424 0.3197
vn -0.3345 -0.7826 -0.5249
vn 0.7544 -0.0405 0.6552
s 1
f 97//1 139//1 102//1 99//1
f 113//2 103//2 101//2 140//2 136//2 138//2 141//2 116//2
f 56//3 63//3 55//3
f 64//4 71//4 66//4
f 87//5 94//5 90//5 85//5 82//5
f 126//6 132//6 93//6
f 120//7 50//7 48//7 106//7 112//7 117//7
f 69//8 70//8 13//8 58//8
f 86//9 89//9 62//9
f 7//10 104//10 73//10 67//10 72//10 100//10
f 124//11 83//11 122//11
f 59//12 57//12 54//12 52//12 77//12 79//12 123//12 84//12 20//12 61//12
f 98//13 95//13 92//13 130//13 133//13 135//13 39//13
f 51//14 121//14 143//14 149//14 118//14
f 144//15 5//15 42//15 142//15
f 108//16 110//16 114//16
f 115//17 111//17 80//17
f 105//18 49//18 107//18
f 74//19 26//19 6//19 28//19 29//19 27//19 81//19 78//19 75//19
f 128//20 145//20 131//20 127//20
f 60//21 68//21 9//21
f 150//22 148//22 119//22
f 25//23 16//23 15//23 11//23 12//23 22//23 23//23 24//23
f 17//24 76//24 53//24 10//24 65//24 14//24
f 18//25 19//25 8//25
f 91//26 88//26 2//26 125//26 129//26 36//26
f 1//27 96//27 21//27
f 45//28 146//28 147//28 47//28 43//28 41//28 137//28 134//28
f 37//29 40//29 38//29
f 30//30 31//30 109//30 3//30 4//30 32//30 46//30 44//30 35//30 34//30 33//30
