# Blender v2.78 (sub 0) OBJ File: 'bigrock2.blend'
# www.blender.org
g BigRock2_collider
v -1.814094 0.839794 -0.674066
v 1.642023 1.201347 1.389559
v -1.023504 1.558249 -1.709063
v 0.555370 3.602869 1.140438
v -0.428450 3.760338 -0.372221
v -1.174651 3.163915 -1.112761
v 0.690913 2.578759 -1.948275
v 0.506122 3.748997 0.954088
v 0.330641 3.669173 1.208804
v -0.413048 3.446292 1.063347
v 0.620260 3.170522 1.350256
v 0.864744 4.090852 -0.010744
v 1.020248 4.021347 -0.211297
v 1.356180 1.709597 -1.777955
v -0.263021 2.481319 -2.035558
v -0.811576 2.678553 -1.746218
v -0.524879 1.580114 -1.977421
v -1.579931 2.546526 -0.597520
v -0.138378 1.446413 1.659234
v -1.769870 0.866272 -0.852497
v -1.063911 2.687379 1.091969
v -1.078990 1.996925 1.293973
v 0.980249 1.875377 1.844616
v 1.297757 1.532751 1.631422
v 1.595566 1.065726 1.422417
v 2.296786 1.762680 -0.365728
v 2.317669 1.469054 -0.206295
v 2.249069 0.859137 0.411949
v 1.818278 0.519587 0.223307
v 0.569467 0.675738 -1.752281
v 0.527129 0.360540 -1.473803
v -1.689862 0.336173 -0.504263
v -1.770674 0.384656 -0.414221
v -1.451297 0.014089 0.573299
v -1.105009 0.007077 0.617653
v -0.689071 0.329644 0.933912
v -0.303369 0.584825 1.226602
v 1.010720 0.011693 -0.294658
v 1.642023 1.201347 1.389559
v 1.642023 1.201347 1.389559
v 1.297757 1.532751 1.631422
v 1.297757 1.532751 1.631422
v 1.020248 4.021347 -0.211297
v 1.020248 4.021347 -0.211297
v 0.690913 2.578759 -1.948275
v 0.690913 2.578759 -1.948275
v -0.428450 3.760338 -0.372221
v -0.428450 3.760338 -0.372221
v -1.174651 3.163915 -1.112761
v -1.174651 3.163915 -1.112761
v 0.506122 3.748997 0.954088
v 0.506122 3.748997 0.954088
v 0.555370 3.602869 1.140438
v 0.555370 3.602869 1.140438
v 0.330641 3.669173 1.208804
v 0.330641 3.669173 1.208804
v 0.330641 3.669173 1.208804
v 0.620260 3.170522 1.350256
v 0.620260 3.170522 1.350256
v -0.413048 3.446292 1.063347
v -0.413048 3.446292 1.063347
v -1.063911 2.687379 1.091969
v -1.063911 2.687379 1.091969
v 0.864744 4.090852 -0.010744
v 0.864744 4.090852 -0.010744
v 1.356180 1.709597 -1.777955
v 1.356180 1.709597 -1.777955
v 1.356180 1.709597 -1.777955
v -0.811576 2.678553 -1.746218
v -0.811576 2.678553 -1.746218
v -1.023504 1.558249 -1.709063
v -1.023504 1.558249 -1.709063
v -0.263021 2.481319 -2.035558
v -0.263021 2.481319 -2.035558
v -0.524879 1.580114 -1.977421
v -0.524879 1.580114 -1.977421
v -1.579931 2.546526 -0.597520
v -1.579931 2.546526 -0.597520
v 0.569467 0.675738 -1.752281
v 0.569467 0.675738 -1.752281
v -1.769870 0.866272 -0.852497
v -1.769870 0.866272 -0.852497
v -1.814094 0.839794 -0.674066
v -1.814094 0.839794 -0.674066
v -1.078990 1.996925 1.293973
v -1.078990 1.996925 1.293973
v -0.138378 1.446413 1.659234
v -0.138378 1.446413 1.659234
v 0.980249 1.875377 1.844616
v 0.980249 1.875377 1.844616
v 1.595566 1.065726 1.422417
v 1.595566 1.065726 1.422417
v 1.595566 1.065726 1.422417
v 2.296786 1.762680 -0.365728
v 2.296786 1.762680 -0.365728
v 2.317669 1.469054 -0.206295
v 2.317669 1.469054 -0.206295
v 2.249069 0.859137 0.411949
v 2.249069 0.859137 0.411949
v 2.249069 0.859137 0.411949
v 1.818278 0.519587 0.223307
v 0.527129 0.360540 -1.473803
v 0.527129 0.360540 -1.473803
v -1.689862 0.336173 -0.504263
v -1.689862 0.336173 -0.504263
v -1.689862 0.336173 -0.504263
v -1.770674 0.384656 -0.414221
v -1.770674 0.384656 -0.414221
v -1.451297 0.014089 0.573299
v -1.451297 0.014089 0.573299
v -1.451297 0.014089 0.573299
v -1.451297 0.014089 0.573299
v -1.105009 0.007077 0.617653
v -1.105009 0.007077 0.617653
v -0.689071 0.329644 0.933912
v -0.689071 0.329644 0.933912
v -0.303369 0.584825 1.226602
v -0.303369 0.584825 1.226602
v 1.010720 0.011693 -0.294658
v 1.010720 0.011693 -0.294658
vn -0.0493 0.7901 -0.6110
vn -0.7351 0.6560 0.1711
vn -0.5958 -0.7961 -0.1061
vn 0.6782 -0.5568 -0.4795
vn -0.4604 0.0662 -0.8853
vn -0.8631 -0.3391 -0.3742
vn 0.3820 0.7736 0.5056
vn 0.3787 0.4494 0.8090
vn -0.4093 -0.2891 0.8654
vn -0.0909 -0.9659 -0.2423
vn 0.8171 -0.1447 0.5580
vn -0.2277 0.2544 0.9399
vn 0.1099 -0.1059 -0.9883
vn 0.5755 0.0010 0.8178
vn -0.8345 0.1481 -0.5307
vn 0.8136 -0.2316 -0.5332
vn 0.7320 0.4519 -0.5098
vn -0.3350 -0.5747 -0.7466
vn 0.8008 0.4088 0.4376
vn 0.0317 -0.4449 0.8950
vn -0.1122 -0.6182 0.7780
vn 0.2206 -0.8505 0.4775
vn -0.2922 0.9343 0.2043
vn -0.9493 0.0935 0.3001
s 1
f 45//1 73//1 69//1 49//1 47//1 64//1 43//1
f 60//2 48//2 50//2 77//2 62//2
f 104//3 109//3 107//3
f 102//4 80//4 67//4 96//4 99//4 101//4 119//4
f 71//5 70//5 74//5 75//5
f 108//6 83//6 82//6 106//6
f 55//7 53//7 51//7
f 56//8 58//8 54//8
f 87//9 86//9 110//9 116//9 117//9
f 103//10 120//10 114//10 111//10 105//10
f 91//11 98//11 40//11
f 57//12 61//12 63//12 85//12 88//12 89//12 59//12
f 15//13 46//13 66//13 79//13 76//13
f 41//14 92//14 39//14
f 78//15 6//15 16//15 72//15 81//15 84//15
f 68//16 94//16 97//16
f 44//17 95//17 14//17 7//17
f 31//18 32//18 20//18 3//18 17//18 30//18
f 2//19 100//19 27//19 26//19 13//19 65//19 52//19 4//19 11//19 90//19 42//19
f 93//20 24//20 23//20 19//20 118//20
f 113//21 115//21 34//21
f 35//22 38//22 29//22 28//22 25//22 37//22 36//22
f 12//23 5//23 10//23 9//23 8//23
f 21//24 18//24 1//24 33//24 112//24 22//24
