# Blender v2.78 (sub 0) OBJ File: 'bigrock3.blend'
# www.blender.org
g BigRock3_collider
v -0.189107 0.044033 0.523924
v 1.268270 2.386091 -1.489497
v 0.298664 4.551938 0.796525
v -1.339770 3.921844 -0.322791
v -1.582986 3.673340 -0.401258
v 1.427832 3.869073 0.262883
v -1.368554 3.530452 -0.735895
v -1.957386 3.378709 -0.025684
v -1.797942 3.620706 1.069000
v -0.041137 4.002561 2.248677
v -0.614258 4.132641 2.185033
v 0.351345 3.406516 2.621314
v 0.830715 4.131352 1.375817
v 1.666190 3.097833 1.620430
v 1.506626 2.410528 -1.405223
v -2.114113 3.265548 0.607956
v -2.214178 2.621737 1.094208
v -0.596266 1.652631 3.367514
v -0.471747 1.949908 3.426397
v -0.220867 2.321304 3.354772
v 2.291036 2.510135 1.039047
v 0.718663 1.497236 -1.120528
v -0.111410 0.703941 -0.924470
v -2.085579 1.978144 -0.337306
v -2.027483 1.718378 -0.315878
v 1.342926 1.778547 2.499721
v 0.182108 0.808457 2.817461
v 0.790579 1.030052 2.548923
v 2.460199 2.426502 0.038641
v 2.454959 1.813857 0.922116
v 2.504594 2.230891 0.168874
v 2.419897 1.527440 0.954847
v 1.872952 1.101350 0.913414
v -0.034403 -0.105236 -0.017306
v -0.320758 0.073737 -0.704898
v -0.964559 0.816371 2.192356
v -0.551095 0.221622 1.487268
v -0.463201 0.145723 1.310343
v -0.418240 0.302512 1.887478
v -0.283738 0.508433 2.585675
v -0.283738 0.508433 2.585675
v -0.283738 0.508433 2.585675
v -0.283738 0.508433 2.585675
v -0.418240 0.302512 1.887478
v -0.418240 0.302512 1.887478
v -1.339770 3.921844 -0.322791
v -1.339770 3.921844 -0.322791
v -1.339770 3.921844 -0.322791
v -1.582986 3.673340 -0.401258
v -1.582986 3.673340 -0.401258
v -1.368554 3.530452 -0.735895
v -1.368554 3.530452 -0.735895
v -1.368554 3.530452 -0.735895
v 1.268270 2.386091 -1.489497
v 1.268270 2.386091 -1.489497
v -1.957386 3.378709 -0.025684
v -1.957386 3.378709 -0.025684
v -1.797942 3.620706 1.069000
v -1.797942 3.620706 1.069000
v -1.797942 3.620706 1.069000
v -2.114113 3.265548 0.607956
v -2.114113 3.265548 0.607956
v -0.614258 4.132641 2.185033
v -0.614258 4.132641 2.185033
v -0.614258 4.132641 2.185033
v -0.614258 4.132641 2.185033
v -0.041137 4.002561 2.248677
v -0.041137 4.002561 2.248677
v 0.351345 3.406516 2.621314
v 0.351345 3.406516 2.621314
v 0.298664 4.551938 0.796525
v 0.298664 4.551938 0.796525
v 0.298664 4.551938 0.796525
v 1.427832 3.869073 0.262883
v 1.427832 3.869073 0.262883
v 0.830715 4.131352 1.375817
v 0.830715 4.131352 1.375817
v 1.666190 3.097833 1.620430
v 1.666190 3.097833 1.620430
v 2.504594 2.230891 0.168874
v 2.504594 2.230891 0.168874
v 2.504594 2.230891 0.168874
v 1.506626 2.410528 -1.405223
v 1.506626 2.410528 -1.405223
v 1.506626 2.410528 -1.405223
v 1.506626 2.410528 -1.405223
v 2.460199 2.426502 0.038641
v 2.460199 2.426502 0.038641
v 2.460199 2.426502 0.038641
v -2.085579 1.978144 -0.337306
v -2.085579 1.978144 -0.337306
v -2.085579 1.978144 -0.337306
v -2.214178 2.621737 1.094208
v -2.214178 2.621737 1.094208
v -2.214178 2.621737 1.094208
v -0.596266 1.652631 3.367514
v -0.596266 1.652631 3.367514
v -0.596266 1.652631 3.367514
v -0.596266 1.652631 3.367514
v -0.471747 1.949908 3.426397
v -0.471747 1.949908 3.426397
v -0.220867 2.321304 3.354772
v -0.220867 2.321304 3.354772
v -0.220867 2.321304 3.354772
v 2.291036 2.510135 1.039047
v 2.291036 2.510135 1.039047
v 0.718663 1.497236 -1.120528
v 0.718663 1.497236 -1.120528
v -0.111410 0.703941 -0.924470
v -0.111410 0.703941 -0.924470
v -2.027483 1.718378 -0.315878
v -2.027483 1.718378 -0.315878
v -0.964559 0.816371 2.192356
v -0.964559 0.816371 2.192356
v 1.342926 1.778547 2.499721
v 1.342926 1.778547 2.499721
v 2.419897 1.527440 0.954847
v 2.419897 1.527440 0.954847
v 2.419897 1.527440 0.954847
v 0.182108 0.808457 2.817461
v 0.182108 0.808457 2.817461
v 0.790579 1.030052 2.548923
v 0.790579 1.030052 2.548923
v 2.454959 1.813857 0.922116
v 2.454959 1.813857 0.922116
v 1.872952 1.101350 0.913414
v 1.872952 1.101350 0.913414
v -0.034403 -0.105236 -0.017306
v -0.034403 -0.105236 -0.017306
v -0.320758 0.073737 -0.704898
v -0.320758 0.073737 -0.704898
v -0.320758 0.073737 -0.704898
v -0.189107 0.044033 0.523924
v -0.189107 0.044033 0.523924
v -0.551095 0.221622 1.487268
v -0.551095 0.221622 1.487268
v -0.463201 0.145723 1.310343
v -0.463201 0.145723 1.310343
vn 0.6142 -0.6356 -0.4678
vn -0.3269 -0.0941 -0.9404
vn 0.6763 0.2305 0.6996
vn 0.1460 0.7445 -0.6514
vn -0.4788 0.6537 -0.5860
vn -0.8739 0.3720 0.3127
vn 0.3192 -0.5249 -0.7890
vn 0.9602 0.2267 0.1629
vn 0.4039 -0.8812 0.2456
vn 0.5386 0.6214 0.5689
vn -0.8671 -0.3882 0.3120
vn 0.1307 -0.3646 -0.9219
vn 0.2190 0.8945 0.3897
vn 0.6452 -0.6007 0.4720
vn 0.9926 -0.1217 -0.0020
vn 0.8226 -0.1737 -0.5414
vn 0.7378 0.6544 0.1653
vn -0.6876 -0.7245 0.0474
vn -0.0401 -0.5712 0.8198
vn -0.6869 0.7236 -0.0674
vn -0.9824 0.0960 -0.1604
vn -0.4083 0.4310 0.8047
vn -0.7229 0.2969 0.6238
vn 0.0332 0.5468 0.8366
vn -0.7744 0.2070 -0.5978
vn -0.5896 -0.5592 0.5828
vn 0.6868 0.5629 -0.4598
vn -0.8685 -0.4296 -0.2471
vn -0.2541 -0.9282 0.2719
vn -0.4013 0.9151 0.0392
vn 0.4238 -0.2191 0.8788
s 1
f 83//1 80//1 118//1 126//1 128//1 130//1 108//1
f 111//2 92//2 53//2 54//2 110//2 131//2
f 125//3 105//3 79//3 70//3 103//3 115//3 117//3
f 74//4 85//4 55//4 51//4 47//4 71//4
f 46//5 52//5 49//5
f 93//6 59//6 61//6
f 107//7 109//7 2//7 86//7
f 81//8 88//8 106//8 124//8
f 129//9 127//9 123//9 121//9 41//9 44//9 137//9 133//9
f 77//10 68//10 69//10 78//10
f 112//11 113//11 97//11 94//11 91//11
f 132//12 23//12 22//12
f 76//13 72//13 64//13 67//13
f 33//14 32//14 116//14 122//14
f 30//15 119//15 31//15
f 82//16 84//16 87//16
f 75//17 3//17 13//17 14//17 21//17 89//17
f 134//18 135//18 45//18 42//18 114//18 25//18 35//18 34//18
f 120//19 98//19 43//19
f 58//20 48//20 50//20 56//20 62//20
f 16//21 57//21 90//21 17//21
f 102//22 65//22 101//22
f 60//23 95//23 96//23 100//23 63//23
f 12//24 10//24 11//24 104//24
f 7//25 24//25 8//25 5//25
f 40//26 99//26 36//26
f 6//27 29//27 15//27
f 1//28 138//28 136//28
f 38//29 39//29 37//29
f 4//30 9//30 66//30 73//30
f 27//31 28//31 26//31 20//31 19//31 18//31
