# Blender v2.78 (sub 0) OBJ File: 'fence.blend'
# www.blender.org
g Fence_collider_Fence_collider.001
v -2.452281 -0.027650 0.454694
v -2.452281 2.879786 0.454694
v -2.452281 -0.027650 -0.580771
v -2.452281 2.879786 -0.580771
v 2.453110 -0.027650 0.454694
v 2.453110 2.879786 0.454694
v 2.453110 -0.027650 -0.580771
v 2.453110 2.879786 -0.580771
vn -1.0000 0.0000 0.0000
vn 0.0000 0.0000 -1.0000
vn 1.0000 0.0000 0.0000
vn 0.0000 0.0000 1.0000
vn 0.0000 -1.0000 0.0000
vn 0.0000 1.0000 0.0000
s off
f 1//1 2//1 4//1 3//1
f 3//2 4//2 8//2 7//2
f 7//3 8//3 6//3 5//3
f 5//4 6//4 2//4 1//4
f 3//5 7//5 5//5 1//5
f 8//6 4//6 2//6 6//6
