# Blender v2.78 (sub 0) OBJ File: 'island6.blend'
# www.blender.org
g Island6_collider_Island6_collider.001
v 1.801544 14.226778 5.743791
v -5.207493 14.226778 3.515595
v -5.172015 14.226778 -3.433827
v 1.655777 14.226778 -5.854369
v 4.986917 14.226778 -0.058869
v -1.638808 14.226778 -1.024976
v 6.607087 14.226778 2.099673
v 6.607087 14.226778 -2.173881
v -0.167115 14.226778 6.820126
v 4.019569 14.226778 5.520418
v -6.941318 14.226778 2.117712
v -4.180807 14.226778 5.403420
v -4.045335 14.226778 -5.185416
v -6.941318 14.226778 -2.088170
v 3.978573 14.226778 -5.541431
v -0.368511 14.226778 -6.704848
v 3.762567 14.226778 2.637046
v -1.980726 14.226778 5.480646
v -6.110716 14.226778 0.056731
v -2.050549 14.226778 -5.432934
v 4.002772 14.266329 -2.446707
v 0.960170 14.226778 3.217876
v -0.991953 14.226778 2.110954
v -3.194708 14.226778 -2.086690
v 0.621175 14.226778 -3.364124
v 5.359877 14.226778 -3.894716
v -2.134346 14.226778 -6.002563
v -7.069746 14.226778 0.026255
v -2.190264 14.226778 6.122799
v 5.313329 14.226778 3.819065
v 1.869690 14.226778 -6.353977
v -5.368957 14.226778 -3.771833
v -5.721034 14.226778 3.665012
v 1.925751 14.226778 6.242355
v 6.728250 14.226778 -0.067175
v 0.621175 12.487556 -3.364124
v 0.960170 12.487556 3.217876
v 3.762567 12.487556 2.637046
v -1.638808 12.487556 -1.024976
v 1.709006 12.487556 -0.029245
v 4.986917 12.487556 -0.058869
v 4.002772 12.527106 -2.446707
v -1.638808 13.313681 -1.024976
v 0.960170 13.313681 3.217876
v -0.991953 13.313681 2.110954
v 6.607087 14.226778 -2.173881
v 6.607087 14.226778 -2.173881
v 4.986917 14.226778 -0.058869
v 4.986917 14.226778 -0.058869
v 4.986917 14.226778 -0.058869
v 4.986917 14.226778 -0.058869
v 4.002772 14.266329 -2.446707
v 4.002772 14.266329 -2.446707
v 4.002772 14.266329 -2.446707
v 4.002772 14.266329 -2.446707
v 4.002772 14.266329 -2.446707
v 0.621175 14.226778 -3.364124
v 0.621175 14.226778 -3.364124
v 0.621175 14.226778 -3.364124
v 1.655777 14.226778 -5.854369
v 1.655777 14.226778 -5.854369
v 6.607087 14.226778 2.099673
v 6.607087 14.226778 2.099673
v -5.207493 14.226778 3.515595
v -6.941318 14.226778 2.117712
v -6.941318 14.226778 2.117712
v 3.978573 14.226778 -5.541431
v 3.978573 14.226778 -5.541431
v 3.762567 14.226778 2.637046
v 3.762567 14.226778 2.637046
v 3.762567 14.226778 2.637046
v -6.110716 14.226778 0.056731
v 4.002772 12.527106 -2.446707
v 4.002772 12.527106 -2.446707
v 4.002772 12.527106 -2.446707
v -1.638808 14.226778 -1.024976
v -1.638808 14.226778 -1.024976
v -0.991953 14.226778 2.110954
v -0.991953 14.226778 2.110954
v 0.621175 12.487556 -3.364124
v 0.621175 12.487556 -3.364124
v 0.621175 12.487556 -3.364124
v 0.960170 14.226778 3.217876
v 0.960170 14.226778 3.217876
v 3.762567 12.487556 2.637046
v 3.762567 12.487556 2.637046
v 4.986917 12.487556 -0.058869
v 4.986917 12.487556 -0.058869
v 4.986917 12.487556 -0.058869
v 0.960170 12.487556 3.217876
v 0.960170 12.487556 3.217876
v 1.709006 12.487556 -0.029245
v 1.709006 12.487556 -0.029245
v -1.638808 12.487556 -1.024976
v -1.638808 12.487556 -1.024976
v -1.638808 13.313681 -1.024976
v -1.638808 13.313681 -1.024976
v 0.960170 13.313681 3.217876
v 0.960170 13.313681 3.217876
v -0.991953 13.313681 2.110954
v -0.991953 13.313681 2.110954
vn 0.0000 1.0000 0.0000
vn -0.2618 0.0000 0.9651
vn -0.2029 0.0000 -0.9792
vn -0.0105 0.9999 -0.0044
vn 0.4933 0.0000 -0.8699
vn -0.9246 0.0000 0.3811
vn 0.7192 0.0000 0.6948
vn -0.9105 0.0000 -0.4135
vn 0.0141 0.9998 0.0108
vn 0.0159 0.9998 -0.0124
vn 0.0017 0.9999 -0.0128
vn -0.0128 0.9999 0.0042
vn 0.0001 0.9999 0.0165
vn 0.9794 0.0000 -0.2020
vn 0.8527 0.0000 -0.5223
s off
f 1//1 69//1 83//1
f 64//1 18//1 78//1
f 3//1 72//1 24//1
f 60//1 20//1 57//1
f 54//2 58//2 80//2 73//2
f 84//3 71//3 85//3 90//3
f 53//4 4//4 59//4
f 57//1 24//1 76//1
f 57//1 20//1 24//1
f 20//1 3//1 24//1
f 24//1 78//1 76//1
f 24//1 72//1 78//1
f 72//1 64//1 78//1
f 79//5 22//5 99//5 101//5
f 78//1 18//1 83//1
f 18//1 1//1 83//1
f 49//6 52//6 75//6 87//6
f 25//7 77//7 95//7 82//7
f 70//8 51//8 89//8 38//8
f 46//9 55//9 48//9
f 8//10 26//10 68//10 56//10
f 67//11 61//11 21//11
f 16//1 20//1 60//1
f 16//1 27//1 13//1 20//1
f 13//1 3//1 20//1
f 14//1 72//1 3//1
f 14//1 28//1 66//1 72//1
f 65//1 2//1 19//1
f 12//1 18//1 64//1
f 12//1 29//1 9//1 18//1
f 9//1 1//1 18//1
f 10//1 69//1 1//1
f 10//1 30//1 63//1 69//1
f 62//1 50//1 17//1
f 15//1 31//1 16//1 60//1
f 13//1 32//1 14//1 3//1
f 11//1 33//1 12//1 64//1
f 9//1 34//1 10//1 1//1
f 7//1 35//1 47//1 5//1
f 86//1 88//1 92//1
f 91//1 86//1 92//1
f 91//1 92//1 39//1
f 93//12 74//12 81//12
f 92//1 36//1 39//1
f 41//13 42//13 40//13
f 100//1 98//1 97//1
f 6//14 23//14 45//14 43//14
f 96//15 44//15 37//15 94//15
