# Blender v2.78 (sub 0) OBJ File: 'island1.blend'
# www.blender.org
g Island1_collider
v 1.801544 14.226778 5.743791
v -5.207493 14.226778 3.515595
v -5.172015 14.226778 -3.433827
v 1.655777 14.226778 -5.854369
v 6.203712 14.226778 -0.006882
v -0.167115 14.226778 0.014771
v 6.607087 14.226778 2.099673
v 6.607087 14.226778 -2.173881
v -0.167115 14.226778 6.820126
v 4.019569 14.226778 5.520418
v -6.941318 14.226778 2.117712
v -4.180807 14.226778 5.403420
v -4.045335 14.226778 -5.185416
v -6.941318 14.226778 -2.088170
v 3.978573 14.226778 -5.541431
v -0.368511 14.226778 -6.704848
v 4.734726 14.226778 3.417428
v -1.980726 14.226778 5.480646
v -6.110716 14.226778 0.056731
v -2.050549 14.226778 -5.432934
v 4.672567 14.226778 -3.465060
v 0.960170 14.226778 3.217876
v 3.577557 14.226778 0.006689
v -3.186628 14.226778 2.110954
v -3.194708 14.226778 -2.086690
v 0.621175 14.226778 -3.364124
v 5.359877 14.226778 -3.894716
v -2.134346 14.226778 -6.002563
v -7.069746 14.226778 0.026255
v -2.190264 14.226778 6.122799
v 5.313329 14.226778 3.819065
v 1.869690 14.226778 -6.353977
v -5.368957 14.226778 -3.771833
v -5.721034 14.226778 3.665012
v 1.925751 14.226778 6.242355
v 6.728250 14.226778 -0.067175
v -5.207493 14.226778 3.515595
v -6.941318 14.226778 2.117712
v -6.941318 14.226778 2.117712
v -6.110716 14.226778 0.056731
v 0.960170 14.226778 3.217876
v 3.577557 14.226778 0.006689
v 4.734726 14.226778 3.417428
v 4.734726 14.226778 3.417428
v 4.734726 14.226778 3.417428
v 4.019569 14.226778 5.520418
v 6.607087 14.226778 2.099673
vn 0.0000 1.0000 0.0000
s off
f 1//1 43//1 41//1
f 37//1 18//1 24//1
f 3//1 40//1 25//1
f 4//1 20//1 26//1
f 5//1 21//1 42//1
f 42//1 26//1 6//1
f 42//1 21//1 26//1
f 21//1 4//1 26//1
f 26//1 25//1 6//1
f 26//1 20//1 25//1
f 20//1 3//1 25//1
f 25//1 24//1 6//1
f 25//1 40//1 24//1
f 40//1 37//1 24//1
f 24//1 41//1 6//1
f 24//1 18//1 41//1
f 18//1 1//1 41//1
f 41//1 42//1 6//1
f 22//1 45//1 23//1
f 44//1 5//1 42//1
f 8//1 21//1 5//1
f 8//1 27//1 15//1 21//1
f 15//1 4//1 21//1
f 16//1 20//1 4//1
f 16//1 28//1 13//1 20//1
f 13//1 3//1 20//1
f 14//1 40//1 3//1
f 14//1 29//1 39//1 40//1
f 38//1 2//1 19//1
f 12//1 18//1 37//1
f 12//1 30//1 9//1 18//1
f 9//1 1//1 18//1
f 46//1 43//1 1//1
f 10//1 31//1 7//1 17//1
f 47//1 5//1 44//1
f 15//1 32//1 16//1 4//1
f 13//1 33//1 14//1 3//1
f 11//1 34//1 12//1 37//1
f 9//1 35//1 46//1 1//1
f 47//1 36//1 8//1 5//1
