# Blender v2.78 (sub 0) OBJ File: 'mediumrock2.blend'
# www.blender.org
g MediumRock2_collider
v 1.013364 0.862043 0.326585
v 0.025358 0.857685 -0.977141
v 0.485052 2.670342 0.827555
v 1.120790 1.966928 -0.070794
v 0.897977 2.632738 -0.043101
v 0.849125 2.728308 0.109452
v -0.508767 2.659914 0.647125
v -0.577788 1.959039 -0.609251
v 0.337947 2.547399 -0.532231
v 0.117023 2.017464 -0.932740
v 0.424693 2.484278 -0.541846
v 0.225896 2.190258 -0.778992
v 0.231339 1.556835 -0.986863
v -0.487437 2.569761 -0.092904
v -0.736971 2.278472 0.266243
v -0.386708 2.755812 0.671585
v 0.272461 2.822425 0.909025
v -0.436468 2.679386 0.753067
v 0.172945 2.729112 1.008387
v 0.869273 2.623407 0.232218
v 1.001382 2.461881 0.018336
v -0.763322 0.767664 -0.659272
v -0.562231 0.632988 -0.773344
v -0.883701 0.764866 0.877037
v -0.925164 0.769810 0.744373
v -0.928354 0.467917 0.509378
v 0.408811 1.322371 1.215799
v -0.039694 0.603190 1.224097
v 1.119287 0.896042 0.135780
v 0.946053 0.624814 -0.669070
v 0.725576 0.345299 -0.978651
v 0.345111 0.034188 -0.732457
v -0.295207 0.295680 -0.687623
v -0.847253 0.403352 0.521725
v -0.563367 0.175387 0.422402
v -0.009304 -0.074915 0.615937
v 0.009341 -0.055823 0.676986
v 0.025358 0.857685 -0.977141
v 0.025358 0.857685 -0.977141
v 0.231339 1.556835 -0.986863
v 0.231339 1.556835 -0.986863
v 0.272461 2.822425 0.909025
v 0.272461 2.822425 0.909025
v 0.272461 2.822425 0.909025
v 0.485052 2.670342 0.827555
v 0.485052 2.670342 0.827555
v 1.120790 1.966928 -0.070794
v 1.120790 1.966928 -0.070794
v 1.001382 2.461881 0.018336
v 1.001382 2.461881 0.018336
v 0.897977 2.632738 -0.043101
v 0.897977 2.632738 -0.043101
v 0.849125 2.728308 0.109452
v 0.849125 2.728308 0.109452
v 0.225896 2.190258 -0.778992
v 0.225896 2.190258 -0.778992
v 0.117023 2.017464 -0.932740
v 0.117023 2.017464 -0.932740
v 0.424693 2.484278 -0.541846
v 0.424693 2.484278 -0.541846
v 0.337947 2.547399 -0.532231
v 0.337947 2.547399 -0.532231
v -0.577788 1.959039 -0.609251
v -0.577788 1.959039 -0.609251
v -0.487437 2.569761 -0.092904
v -0.487437 2.569761 -0.092904
v -0.487437 2.569761 -0.092904
v -0.736971 2.278472 0.266243
v -0.736971 2.278472 0.266243
v -0.508767 2.659914 0.647125
v -0.508767 2.659914 0.647125
v -0.386708 2.755812 0.671585
v -0.386708 2.755812 0.671585
v -0.386708 2.755812 0.671585
v -0.436468 2.679386 0.753067
v -0.436468 2.679386 0.753067
v -0.436468 2.679386 0.753067
v 0.172945 2.729112 1.008387
v 0.172945 2.729112 1.008387
v -0.883701 0.764866 0.877037
v -0.883701 0.764866 0.877037
v -0.883701 0.764866 0.877037
v 0.869273 2.623407 0.232218
v 0.869273 2.623407 0.232218
v 0.946053 0.624814 -0.669070
v 0.946053 0.624814 -0.669070
v 0.408811 1.322371 1.215799
v 0.408811 1.322371 1.215799
v 0.408811 1.322371 1.215799
v 1.013364 0.862043 0.326585
v 1.013364 0.862043 0.326585
v 0.725576 0.345299 -0.978651
v 0.725576 0.345299 -0.978651
v 0.725576 0.345299 -0.978651
v -0.562231 0.632988 -0.773344
v -0.562231 0.632988 -0.773344
v -0.763322 0.767664 -0.659272
v -0.763322 0.767664 -0.659272
v -0.925164 0.769810 0.744373
v -0.925164 0.769810 0.744373
v -0.925164 0.769810 0.744373
v -0.039694 0.603190 1.224097
v -0.039694 0.603190 1.224097
v -0.928354 0.467917 0.509378
v -0.928354 0.467917 0.509378
v -0.847253 0.403352 0.521725
v -0.847253 0.403352 0.521725
v -0.847253 0.403352 0.521725
v 1.119287 0.896042 0.135780
v 1.119287 0.896042 0.135780
v 0.345111 0.034188 -0.732457
v 0.345111 0.034188 -0.732457
v -0.295207 0.295680 -0.687623
v -0.295207 0.295680 -0.687623
v -0.563367 0.175387 0.422402
v -0.563367 0.175387 0.422402
v -0.009304 -0.074915 0.615937
v -0.009304 -0.074915 0.615937
v 0.009341 -0.055823 0.676986
v 0.009341 -0.055823 0.676986
vn -0.9060 0.2215 0.3606
vn 0.2649 0.4905 -0.8302
vn 0.6439 -0.4332 0.6306
vn -0.3687 -0.9122 -0.1785
vn -0.7597 0.6425 -0.1002
vn 0.6824 -0.7202 0.1247
vn -0.6262 0.7218 0.2947
vn -0.6721 -0.6925 -0.2621
vn -0.0437 0.9735 -0.2245
vn -0.3884 0.0884 -0.9172
vn 0.8786 0.4653 0.1074
vn 0.9795 -0.0395 -0.1975
vn -0.4337 -0.6462 0.6279
vn -0.9763 0.1390 -0.1657
vn -0.5185 -0.5218 0.6774
vn -0.8967 -0.3529 0.2671
vn 0.5196 0.2163 0.8266
vn -0.2778 0.8042 0.5254
vn 0.6476 0.2407 -0.7229
vn 0.8487 0.1003 0.5192
vn -0.0101 -0.0109 -0.9999
vn 0.6529 0.6530 0.3837
vn -0.2247 -0.3631 -0.9042
vn -0.3306 0.1338 0.9342
vn -0.3420 0.6424 -0.6858
s 1
f 69//1 99//1 80//1 76//1 70//1
f 60//2 56//2 61//2
f 103//3 120//3 90//3 87//3
f 118//4 115//4 113//4 112//4
f 66//5 68//5 71//5 72//5
f 111//6 93//6 86//6 110//6 91//6 119//6 117//6
f 7//7 77//7 74//7
f 97//8 96//8 114//8 116//8 108//8 105//8
f 62//9 67//9 73//9 43//9 53//9 51//9 59//9
f 95//10 98//10 63//10 58//10 40//10 38//10
f 50//11 52//11 54//11 84//11
f 85//12 48//12 109//12
f 81//13 107//13 35//13 36//13 37//13 102//13
f 22//14 104//14 100//14 15//14 65//14 64//14
f 26//15 106//15 101//15
f 25//16 34//16 24//16
f 79//17 88//17 45//17 42//17
f 75//18 78//18 17//18 16//18
f 57//19 55//19 11//19 5//19 49//19 47//19 30//19 92//19 41//19
f 21//20 83//20 46//20 89//20 1//20 29//20 4//20
f 39//21 13//21 94//21
f 3//22 20//22 6//22 44//22
f 2//23 31//23 32//23 33//23 23//23
f 28//24 27//24 19//24 18//24 82//24
f 10//25 8//25 14//25 9//25 12//25
