# Blender v2.78 (sub 0) OBJ File: 'mediumrock1.blend'
# www.blender.org
g MediumRock1_collider
v 0.974860 0.726731 -0.322413
v 0.839558 0.787086 0.959079
v -1.146233 0.544208 0.236908
v -0.529038 1.021508 1.069105
v -1.200824 0.485832 0.092609
v 0.557093 1.149765 -1.256087
v 0.183171 1.753122 0.738168
v -0.017079 1.911208 -0.659177
v 1.113952 1.928524 0.176561
v -0.662275 1.829988 -0.736551
v -0.864631 1.725205 -0.919589
v -1.066851 1.688781 -0.531831
v 0.029355 1.847359 0.579340
v -0.186772 1.732241 1.041499
v 0.753102 2.011093 0.293005
v 0.497294 1.897455 0.578584
v 1.012713 1.980419 0.209551
v 0.737643 1.912411 0.528675
v 0.891120 1.896107 0.475639
v 0.680283 1.085632 -1.138601
v -0.522717 1.149608 -1.145664
v -1.060108 1.335297 -0.316304
v -1.045607 1.530517 -0.307349
v -1.145204 1.083284 -0.112781
v -1.134047 0.767446 -0.052377
v -0.592616 1.048421 1.050208
v -0.368927 1.320038 1.201216
v -0.244889 1.382162 1.248330
v 1.049067 1.203650 0.475217
v 1.118477 0.944028 0.691118
v 1.129868 1.084694 0.382026
v 1.180691 1.279861 0.254932
v 0.436905 1.048537 -1.246332
v 0.395223 0.824998 -1.079186
v 0.045655 0.445794 -1.065292
v -1.072870 0.571149 0.479474
v -0.718129 0.554592 0.852239
v -0.196960 0.160502 -1.117255
v -0.152885 0.037412 -0.840732
v -0.258439 0.134060 -1.078880
v -0.292536 0.398626 -1.061543
v -0.570960 0.027386 -0.461848
v -0.372848 -0.024447 -0.430090
v 0.894042 0.260334 0.081484
v 0.780321 0.129795 0.136849
v 0.463800 -0.013178 0.608339
v -1.146233 0.544208 0.236908
v -1.146233 0.544208 0.236908
v -1.146233 0.544208 0.236908
v -1.200824 0.485832 0.092609
v -1.200824 0.485832 0.092609
v 0.557093 1.149765 -1.256087
v 0.557093 1.149765 -1.256087
v 0.557093 1.149765 -1.256087
v 0.680283 1.085632 -1.138601
v 0.680283 1.085632 -1.138601
v -0.017079 1.911208 -0.659177
v -0.017079 1.911208 -0.659177
v -0.017079 1.911208 -0.659177
v -0.662275 1.829988 -0.736551
v -0.662275 1.829988 -0.736551
v -0.864631 1.725205 -0.919589
v -0.864631 1.725205 -0.919589
v -0.864631 1.725205 -0.919589
v -1.066851 1.688781 -0.531831
v -1.066851 1.688781 -0.531831
v -1.066851 1.688781 -0.531831
v 0.029355 1.847359 0.579340
v 0.029355 1.847359 0.579340
v 0.183171 1.753122 0.738168
v 0.183171 1.753122 0.738168
v -0.186772 1.732241 1.041499
v -0.186772 1.732241 1.041499
v -0.186772 1.732241 1.041499
v -0.186772 1.732241 1.041499
v 1.012713 1.980419 0.209551
v 1.012713 1.980419 0.209551
v 0.497294 1.897455 0.578584
v 0.497294 1.897455 0.578584
v 0.753102 2.011093 0.293005
v 0.753102 2.011093 0.293005
v 0.737643 1.912411 0.528675
v 0.737643 1.912411 0.528675
v 1.113952 1.928524 0.176561
v 1.113952 1.928524 0.176561
v 1.113952 1.928524 0.176561
v 0.891120 1.896107 0.475639
v 0.891120 1.896107 0.475639
v 0.974860 0.726731 -0.322413
v 0.974860 0.726731 -0.322413
v -0.522717 1.149608 -1.145664
v -0.522717 1.149608 -1.145664
v -1.060108 1.335297 -0.316304
v -1.060108 1.335297 -0.316304
v -1.045607 1.530517 -0.307349
v -1.045607 1.530517 -0.307349
v -1.145204 1.083284 -0.112781
v -1.145204 1.083284 -0.112781
v -1.145204 1.083284 -0.112781
v -1.134047 0.767446 -0.052377
v -1.134047 0.767446 -0.052377
v -0.529038 1.021508 1.069105
v -0.529038 1.021508 1.069105
v -0.592616 1.048421 1.050208
v -0.592616 1.048421 1.050208
v -0.368927 1.320038 1.201216
v -0.368927 1.320038 1.201216
v -0.368927 1.320038 1.201216
v -0.244889 1.382162 1.248330
v -0.244889 1.382162 1.248330
v 1.118477 0.944028 0.691118
v 1.118477 0.944028 0.691118
v 1.118477 0.944028 0.691118
v 1.049067 1.203650 0.475217
v 1.049067 1.203650 0.475217
v 1.129868 1.084694 0.382026
v 1.129868 1.084694 0.382026
v 1.180691 1.279861 0.254932
v 1.180691 1.279861 0.254932
v 0.839558 0.787086 0.959079
v 0.839558 0.787086 0.959079
v 0.436905 1.048537 -1.246332
v 0.395223 0.824998 -1.079186
v -1.072870 0.571149 0.479474
v -1.072870 0.571149 0.479474
v -0.718129 0.554592 0.852239
v -0.718129 0.554592 0.852239
v 0.894042 0.260334 0.081484
v 0.894042 0.260334 0.081484
v 0.045655 0.445794 -1.065292
v -0.196960 0.160502 -1.117255
v -0.196960 0.160502 -1.117255
v -0.196960 0.160502 -1.117255
v -0.152885 0.037412 -0.840732
v -0.152885 0.037412 -0.840732
v -0.152885 0.037412 -0.840732
v -0.258439 0.134060 -1.078880
v -0.258439 0.134060 -1.078880
v -0.258439 0.134060 -1.078880
v -0.292536 0.398626 -1.061543
v -0.292536 0.398626 -1.061543
v 0.780321 0.129795 0.136849
v 0.780321 0.129795 0.136849
v -0.570960 0.027386 -0.461848
v -0.570960 0.027386 -0.461848
v -0.372848 -0.024447 -0.430090
v -0.372848 -0.024447 -0.430090
v 0.463800 -0.013178 0.608339
v 0.463800 -0.013178 0.608339
v 0.463800 -0.013178 0.608339
vn -0.8147 0.4126 0.4075
vn 0.9391 0.0332 -0.3419
vn 0.0146 0.5314 -0.8470
vn -0.9954 -0.0506 -0.0810
vn -0.5145 0.4978 0.6981
vn -0.0866 0.8177 0.5690
vn 0.2199 0.9175 0.3314
vn -0.2258 0.9677 0.1121
vn -0.0278 -0.1730 -0.9845
vn -0.9878 0.0669 0.1407
vn -0.9521 0.0842 -0.2938
vn -0.9196 0.3287 0.2149
vn -0.0043 -0.4153 0.9097
vn 0.8787 0.4213 0.2241
vn -0.3589 -0.8810 0.3082
vn -0.8079 -0.2482 -0.5345
vn 0.3002 0.8610 0.4104
vn 0.7516 -0.5439 0.3731
vn -0.0561 0.9966 -0.0592
vn 0.8004 0.1648 0.5763
vn -0.0589 0.8930 -0.4461
vn 0.9638 -0.2542 -0.0801
vn -0.3591 -0.2098 0.9094
vn 0.1245 -0.8989 -0.4200
vn -0.5257 -0.0120 -0.8506
vn -0.2204 -0.9379 -0.2680
vn -0.6853 -0.1141 0.7193
vn 0.5919 -0.6070 -0.5302
vn 0.4381 0.7136 -0.5466
vn 0.1863 -0.9759 -0.1133
vn 0.4603 0.4092 0.7878
s 1
f 49//1 124//1 105//1 108//1 73//1 66//1 96//1 97//1
f 85//2 119//2 89//2 56//2
f 53//3 91//3 62//3 58//3
f 100//4 48//4 99//4
f 74//5 107//5 109//5
f 70//6 78//6 68//6
f 72//7 71//7 69//7
f 63//8 65//8 75//8 13//8 79//8 82//8 81//8 61//8
f 92//9 54//9 122//9 123//9 130//9 131//9 141//9
f 93//10 95//10 67//10
f 94//11 98//11 23//11
f 50//12 47//12 101//12
f 121//13 110//13 106//13 103//13 127//13 148//13
f 111//14 116//14 114//14
f 147//15 149//15 126//15 125//15 3//15 51//15 145//15
f 144//16 5//16 25//16 24//16 22//16 12//16 11//16 21//16 140//16 138//16
f 87//17 84//17 77//17 80//17 83//17
f 112//18 120//18 150//18 143//18 128//18
f 60//19 15//19 76//19 57//19
f 88//20 115//20 117//20 118//20 9//20
f 64//21 10//21 8//21
f 30//22 129//22 90//22 32//22 31//22
f 102//23 27//23 104//23
f 134//24 137//24 132//24
f 139//25 41//25 38//25
f 42//26 40//26 136//26 146//26
f 26//27 36//27 37//27 4//27
f 34//28 33//28 52//28 55//28 1//28 44//28 142//28 135//28 133//28 35//28
f 59//29 17//29 86//29 20//29 6//29
f 45//30 46//30 43//30 39//30
f 19//31 18//31 16//31 7//31 14//31 28//31 2//31 113//31 29//31
