# Blender v2.78 (sub 0) OBJ File: 'mediumrock3.blend'
# www.blender.org
g MediumRock3_collider
v 1.003011 0.393876 -0.113282
v -0.500772 0.111576 -0.202607
v -0.225060 0.628600 0.939243
v -0.305618 0.405309 0.928715
v 0.737409 0.957855 0.472119
v -1.108645 0.754309 -0.076416
v 0.219796 2.432664 0.254591
v 0.407033 2.408070 -0.414743
v 0.765077 1.902243 -0.580357
v 0.326199 1.741231 -1.119624
v -0.076322 2.135699 -1.099825
v 0.020468 1.976991 -1.222448
v -0.869701 1.930398 0.010219
v -0.947196 1.820755 -0.171844
v -0.055795 2.370677 0.749058
v -0.156078 2.323711 0.764417
v 0.091328 2.106099 0.982285
v -0.038089 2.010790 0.977562
v 0.549094 2.291944 -0.151144
v -0.364973 1.443701 -1.338987
v -0.644725 1.233061 -1.165355
v -0.468218 1.077080 -1.335488
v -1.042144 1.541789 -0.111753
v -0.043145 1.558578 1.006568
v -0.062826 1.311809 1.021735
v -0.054747 1.188655 1.012828
v 0.146325 0.992016 -1.226548
v -0.811435 0.921849 -0.928702
v -0.893069 0.801452 -0.748971
v -1.038089 0.547735 -0.350981
v 1.076474 1.098033 -0.449832
v 1.165080 0.703148 -0.528176
v 1.134305 0.645885 -0.596132
v 0.220168 0.435698 -1.023797
v -0.188720 -0.010456 -0.241093
v 0.857789 0.331662 -0.681049
v 0.811486 0.129081 -0.266017
v 0.829731 0.113085 -0.174712
v 0.338761 -0.014515 0.078561
v 0.274957 -0.091579 0.027130
v -0.225060 0.628600 0.939243
v -0.225060 0.628600 0.939243
v -0.305618 0.405309 0.928715
v -0.305618 0.405309 0.928715
v -0.305618 0.405309 0.928715
v 0.407033 2.408070 -0.414743
v 0.407033 2.408070 -0.414743
v 0.407033 2.408070 -0.414743
v 0.549094 2.291944 -0.151144
v 0.549094 2.291944 -0.151144
v 0.765077 1.902243 -0.580357
v 0.765077 1.902243 -0.580357
v 0.326199 1.741231 -1.119624
v 0.326199 1.741231 -1.119624
v 0.020468 1.976991 -1.222448
v 0.020468 1.976991 -1.222448
v 0.020468 1.976991 -1.222448
v -0.076322 2.135699 -1.099825
v -0.076322 2.135699 -1.099825
v -0.644725 1.233061 -1.165355
v -0.644725 1.233061 -1.165355
v -0.947196 1.820755 -0.171844
v -0.947196 1.820755 -0.171844
v -0.947196 1.820755 -0.171844
v -0.869701 1.930398 0.010219
v -0.869701 1.930398 0.010219
v -1.042144 1.541789 -0.111753
v -1.042144 1.541789 -0.111753
v 0.219796 2.432664 0.254591
v -0.055795 2.370677 0.749058
v -0.055795 2.370677 0.749058
v -0.156078 2.323711 0.764417
v -0.156078 2.323711 0.764417
v 0.091328 2.106099 0.982285
v 0.091328 2.106099 0.982285
v 0.091328 2.106099 0.982285
v 0.091328 2.106099 0.982285
v -0.038089 2.010790 0.977562
v -0.038089 2.010790 0.977562
v 1.134305 0.645885 -0.596132
v 1.134305 0.645885 -0.596132
v -0.364973 1.443701 -1.338987
v -0.364973 1.443701 -1.338987
v -0.468218 1.077080 -1.335488
v -0.468218 1.077080 -1.335488
v -0.468218 1.077080 -1.335488
v 0.220168 0.435698 -1.023797
v 0.220168 0.435698 -1.023797
v 0.146325 0.992016 -1.226548
v 0.146325 0.992016 -1.226548
v -1.108645 0.754309 -0.076416
v -1.108645 0.754309 -0.076416
v -0.043145 1.558578 1.006568
v -0.043145 1.558578 1.006568
v -0.062826 1.311809 1.021735
v -0.062826 1.311809 1.021735
v -0.054747 1.188655 1.012828
v -0.054747 1.188655 1.012828
v 0.737409 0.957855 0.472119
v 0.737409 0.957855 0.472119
v -0.811435 0.921849 -0.928702
v -0.811435 0.921849 -0.928702
v -0.893069 0.801452 -0.748971
v -1.038089 0.547735 -0.350981
v -1.038089 0.547735 -0.350981
v 1.076474 1.098033 -0.449832
v 1.076474 1.098033 -0.449832
v 1.165080 0.703148 -0.528176
v 1.165080 0.703148 -0.528176
v 1.003011 0.393876 -0.113282
v 1.003011 0.393876 -0.113282
v -0.188720 -0.010456 -0.241093
v -0.188720 -0.010456 -0.241093
v -0.500772 0.111576 -0.202607
v -0.500772 0.111576 -0.202607
v 0.274957 -0.091579 0.027130
v 0.274957 -0.091579 0.027130
v 0.274957 -0.091579 0.027130
v 0.857789 0.331662 -0.681049
v 0.857789 0.331662 -0.681049
v 0.857789 0.331662 -0.681049
v 0.829731 0.113085 -0.174712
v 0.829731 0.113085 -0.174712
v 0.811486 0.129081 -0.266017
v 0.811486 0.129081 -0.266017
v 0.811486 0.129081 -0.266017
v 0.338761 -0.014515 0.078561
v 0.338761 -0.014515 0.078561
vn -0.9265 0.1340 -0.3515
vn 0.7502 0.2297 -0.6200
vn 0.1065 -0.8887 -0.4460
vn -0.3216 -0.9019 0.2884
vn 0.5348 -0.0566 0.8430
vn 0.4925 -0.0493 -0.8689
vn 0.8120 -0.5683 -0.1329
vn 0.6417 0.6910 0.3328
vn -0.6621 -0.6856 0.3027
vn 0.2182 0.0041 -0.9759
vn -0.9189 0.3514 0.1795
vn -0.3811 -0.7002 -0.6037
vn -0.6856 0.4844 -0.5434
vn 0.5340 -0.7285 0.4290
vn -0.7459 0.1078 0.6572
vn 0.5209 -0.4406 0.7311
vn 0.8903 0.4540 0.0358
vn 0.5468 0.5885 -0.5955
vn -0.0839 0.0647 0.9944
vn 0.8872 0.2543 0.3849
vn -0.4036 0.9062 -0.1258
vn -0.2753 0.5056 0.8177
vn -0.1572 -0.0815 0.9842
vn -0.6866 0.0159 -0.7269
vn 0.1488 -0.9685 -0.1994
vn 0.2846 -0.2947 -0.9122
s 1
f 91//1 67//1 62//1 60//1 101//1 103//1 104//1
f 80//2 53//2 52//2 106//2 108//2
f 88//3 119//3 124//3 116//3 113//3
f 44//4 114//4 112//4 118//4
f 97//5 99//5 76//5 94//5 95//5
f 90//6 55//6 54//6 81//6 120//6
f 125//7 121//7 33//7 109//7 111//7 122//7
f 70//8 74//8 49//8 46//8 69//8
f 92//9 105//9 115//9 45//9
f 89//10 84//10 82//10 57//10
f 64//11 68//11 65//11
f 85//12 87//12 35//12 2//12 30//12 29//12 102//12
f 58//13 56//13 83//13 61//13 63//13
f 128//14 117//14 126//14
f 96//15 93//15 78//15 72//15 66//15 23//15 6//15 43//15 41//15
f 100//16 98//16 42//16 4//16 40//16 127//16 123//16 110//16
f 51//17 47//17 50//17 107//17
f 59//18 48//18 9//18 10//18 12//18
f 24//19 75//19 79//19
f 31//20 19//20 77//20 5//20 1//20 32//20
f 7//21 8//21 11//21 14//21 13//21 73//21 71//21
f 16//22 18//22 17//22 15//22
f 3//23 26//23 25//23
f 21//24 20//24 86//24 28//24
f 38//25 39//25 37//25
f 34//26 22//26 27//26 36//26
