# Blender v2.78 (sub 0) OBJ File: 'palmtree2blend.blend'
# www.blender.org
g PalmTree2_collider
v 0.146129 0.007316 -0.455469
v 0.263627 1.190556 -0.455469
v 0.658487 0.007316 -0.159659
v 0.775985 1.190556 -0.159659
v 0.658487 0.007316 0.431961
v 0.775985 1.190556 0.431961
v 0.146129 0.007316 0.727771
v 0.263627 1.190556 0.727771
v -0.366228 0.007316 0.431961
v -0.248731 1.190556 0.431961
v -0.366228 0.007316 -0.159659
v -0.248731 1.190556 -0.159659
v 0.875017 1.894824 -0.159659
v 0.362660 1.894824 -0.455469
v 0.875017 1.894824 0.431961
v 0.362659 1.894824 0.727771
v -0.149698 1.894824 0.431961
v -0.149698 1.894824 -0.159659
v 0.785663 2.695863 -0.159659
v 0.273305 2.695863 -0.455469
v 0.785663 2.695863 0.431961
v 0.273305 2.695863 0.727771
v -0.239053 2.695863 0.431961
v -0.239053 2.695863 -0.159659
v 0.470835 3.308393 -0.159659
v -0.041523 3.308393 -0.455469
v 0.470835 3.308393 0.431961
v -0.041523 3.308393 0.727771
v -0.553881 3.308393 0.431961
v -0.553881 3.308393 -0.159659
v 0.214771 3.842127 -0.159659
v -0.297587 3.842127 -0.455469
v 0.214771 3.842127 0.431961
v -0.297587 3.842127 0.727771
v -0.809945 3.842127 0.431961
v -0.809945 3.842127 -0.159659
v 0.174060 4.475183 -0.159659
v -0.338298 4.475183 -0.455469
v 0.174060 4.475183 0.431961
v -0.338298 4.475183 0.727771
v -0.850656 4.475183 0.431961
v -0.850656 4.475183 -0.159659
v 0.174060 5.243749 -0.159659
v -0.338298 5.243749 -0.455469
v 0.174060 5.243749 0.431961
v -0.338298 5.243749 0.727771
v -0.850656 5.243749 0.431961
v -0.850656 5.243749 -0.159659
vn 0.4994 -0.0496 -0.8650
vn 0.9951 -0.0988 0.0000
vn 0.4994 -0.0496 0.8650
vn -0.4994 0.0496 0.8650
vn 0.9903 -0.1392 0.0000
vn -0.9951 0.0988 0.0000
vn -0.4994 0.0496 -0.8650
vn 0.0000 -1.0000 -0.0000
vn 0.4992 0.0557 0.8647
vn -0.9903 0.1392 0.0000
vn 0.4988 -0.0701 -0.8639
vn 0.4988 -0.0701 0.8639
vn -0.4988 0.0701 -0.8639
vn -0.4988 0.0701 0.8639
vn 0.8894 0.4571 0.0000
vn 0.4992 0.0557 -0.8647
vn -0.4992 -0.0557 -0.8647
vn -0.4992 -0.0557 0.8647
vn 0.9938 0.1109 0.0000
vn -0.9938 -0.1109 0.0000
vn 0.4862 0.2333 -0.8421
vn -0.8894 -0.4571 0.0000
vn 0.4843 0.2489 0.8388
vn 0.4843 0.2489 -0.8388
vn -0.4843 -0.2489 -0.8388
vn -0.4843 -0.2489 0.8388
vn -0.9979 -0.0642 0.0000
vn -0.4862 -0.2333 -0.8421
vn -0.4862 -0.2333 0.8421
vn 0.9016 0.4326 0.0000
vn -0.9016 -0.4326 0.0000
vn 0.4862 0.2333 0.8421
vn -0.5000 0.0000 -0.8660
vn 0.4997 0.0321 0.8656
vn 0.4997 0.0321 -0.8656
vn -0.4997 -0.0321 -0.8656
vn -0.4997 -0.0321 0.8656
vn 0.9979 0.0642 0.0000
vn 0.0000 1.0000 -0.0000
vn -0.5000 0.0000 0.8660
vn 1.0000 -0.0000 0.0000
vn -1.0000 0.0000 0.0000
vn 0.5000 -0.0000 0.8660
vn 0.5000 -0.0000 -0.8660
s off
f 1//1 2//1 4//1 3//1
f 3//2 4//2 6//2 5//2
f 5//3 6//3 8//3 7//3
f 7//4 8//4 10//4 9//4
f 6//5 4//5 13//5 15//5
f 9//6 10//6 12//6 11//6
f 11//7 12//7 2//7 1//7
f 1//8 3//8 5//8 7//8 9//8 11//8
f 16//9 15//9 21//9 22//9
f 12//10 10//10 17//10 18//10
f 4//11 2//11 14//11 13//11
f 8//12 6//12 15//12 16//12
f 2//13 12//13 18//13 14//13
f 10//14 8//14 16//14 17//14
f 21//15 19//15 25//15 27//15
f 13//16 14//16 20//16 19//16
f 14//17 18//17 24//17 20//17
f 17//18 16//18 22//18 23//18
f 15//19 13//19 19//19 21//19
f 18//20 17//20 23//20 24//20
f 25//21 26//21 32//21 31//21
f 24//22 23//22 29//22 30//22
f 22//23 21//23 27//23 28//23
f 19//24 20//24 26//24 25//24
f 20//25 24//25 30//25 26//25
f 23//26 22//26 28//26 29//26
f 36//27 35//27 41//27 42//27
f 26//28 30//28 36//28 32//28
f 29//29 28//29 34//29 35//29
f 27//30 25//30 31//30 33//30
f 30//31 29//31 35//31 36//31
f 28//32 27//32 33//32 34//32
f 38//33 42//33 48//33 44//33
f 34//34 33//34 39//34 40//34
f 31//35 32//35 38//35 37//35
f 32//36 36//36 42//36 38//36
f 35//37 34//37 40//37 41//37
f 33//38 31//38 37//38 39//38
f 43//39 44//39 48//39 47//39 46//39 45//39
f 41//40 40//40 46//40 47//40
f 39//41 37//41 43//41 45//41
f 42//42 41//42 47//42 48//42
f 40//43 39//43 45//43 46//43
f 37//44 38//44 44//44 43//44
