# Blender v2.78 (sub 0) OBJ File: 'pinetree2.blend'
# www.blender.org
g PineTree2_collider
v 0.000000 -0.045747 -0.447445
v 0.000000 2.377225 -0.447445
v 0.316392 -0.045747 -0.316392
v 0.316392 2.377225 -0.316392
v 0.447445 -0.045747 0.000000
v 0.447445 2.377225 0.000000
v 0.316392 -0.045747 0.316392
v 0.316392 2.377225 0.316392
v 0.000000 -0.045747 0.447445
v 0.000000 2.377225 0.447445
v -0.316392 -0.045747 0.316392
v -0.316392 2.377225 0.316392
v -0.447445 -0.045747 0.000000
v -0.447445 2.377225 0.000000
v -0.316392 -0.045747 -0.316392
v -0.316392 2.377225 -0.316392
v 0.000000 0.977286 -0.354508
v 0.250675 0.977286 -0.250675
v 0.354508 0.977286 0.000000
v 0.250675 0.977286 0.250675
v 0.000000 0.977286 0.354508
v -0.250675 0.977286 0.250675
v -0.354508 0.977286 0.000000
v -0.250675 0.977286 -0.250675
v 1.527773 2.377226 -1.527772
v 0.000000 2.377226 -2.160596
v 2.160595 2.377226 0.000000
v 1.527773 2.377226 1.527772
v 0.000000 2.377226 2.160596
v -1.527773 2.377226 1.527772
v -2.160596 2.377226 -0.000000
v -1.527773 2.377226 -1.527772
v 0.025126 11.471629 -0.025126
v 0.000000 11.471629 -0.035534
v 0.035533 11.471629 0.000000
v 0.025126 11.471629 0.025126
v 0.000000 11.471629 0.035534
v -0.025126 11.471629 0.025126
v -0.035533 11.471629 0.000000
v -0.025126 11.471629 -0.025126
v 0.121327 11.471629 -0.121327
v 0.000000 11.471629 -0.171582
v 0.171582 11.471629 0.000000
v 0.121327 11.471629 0.121327
v 0.000000 11.471629 0.171582
v -0.121327 11.471629 0.121327
v -0.171582 11.471629 0.000000
v -0.121327 11.471629 -0.121327
vn 0.3820 -0.0612 -0.9221
vn 0.9221 -0.0612 -0.3820
vn 0.9221 -0.0612 0.3820
vn 0.3820 -0.0612 0.9221
vn -0.3820 -0.0612 0.9221
vn -0.9221 -0.0612 0.3820
vn -0.9221 -0.0612 -0.3820
vn -0.3820 -0.0612 -0.9221
vn 0.0000 -1.0000 0.0000
vn -0.3813 0.0836 -0.9206
vn -0.9206 0.0836 -0.3813
vn -0.9206 0.0836 0.3813
vn -0.3813 0.0836 0.9206
vn 0.3813 0.0836 0.9206
vn 0.9206 0.0836 0.3813
vn 0.9206 0.0836 -0.3813
vn 0.3813 0.0836 -0.9206
vn 0.9231 0.0418 0.3823
vn 0.0000 1.0000 0.0000
vn 0.9056 -0.1981 -0.3751
vn 0.3751 -0.1981 -0.9056
vn -0.3823 0.0418 0.9231
vn -0.3751 -0.1981 -0.9056
vn -0.9231 0.0418 -0.3823
vn -0.9056 -0.1981 -0.3751
vn 0.9231 0.0418 -0.3823
vn -0.3823 0.0418 -0.9231
vn 0.3823 0.0418 -0.9231
vn 0.9056 -0.1981 0.3751
vn -0.9231 0.0418 0.3823
vn 0.3751 -0.1981 0.9056
vn -0.3751 -0.1981 0.9056
vn 0.3823 0.0418 0.9231
vn -0.9056 -0.1981 0.3751
s off
f 17//1 2//1 4//1 18//1
f 18//2 4//2 6//2 19//2
f 19//3 6//3 8//3 20//3
f 20//4 8//4 10//4 21//4
f 21//5 10//5 12//5 22//5
f 22//6 12//6 14//6 23//6
f 23//7 14//7 16//7 24//7
f 24//8 16//8 2//8 17//8
f 1//9 3//9 5//9 7//9 9//9 11//9 13//9 15//9
f 15//10 24//10 17//10 1//10
f 13//11 23//11 24//11 15//11
f 11//12 22//12 23//12 13//12
f 9//13 21//13 22//13 11//13
f 7//14 20//14 21//14 9//14
f 5//15 19//15 20//15 7//15
f 3//16 18//16 19//16 5//16
f 1//17 17//17 18//17 3//17
f 8//18 6//18 35//18 36//18
f 25//19 26//19 32//19 31//19 30//19 29//19 28//19 27//19
f 30//20 31//20 47//20 46//20
f 29//21 30//21 46//21 45//21
f 12//22 10//22 37//22 38//22
f 28//23 29//23 45//23 44//23
f 16//24 14//24 39//24 40//24
f 27//25 28//25 44//25 43//25
f 6//26 4//26 33//26 35//26
f 35//9 33//9 41//9 43//9
f 38//9 37//9 45//9 46//9
f 34//9 40//9 48//9 42//9
f 33//9 34//9 42//9 41//9
f 36//9 35//9 43//9 44//9
f 39//9 38//9 46//9 47//9
f 37//9 36//9 44//9 45//9
f 40//9 39//9 47//9 48//9
f 2//27 16//27 40//27 34//27
f 4//28 2//28 34//28 33//28
f 31//29 32//29 48//29 47//29
f 14//30 12//30 38//30 39//30
f 32//31 26//31 42//31 48//31
f 26//32 25//32 41//32 42//32
f 10//33 8//33 36//33 37//33
f 25//34 27//34 43//34 41//34
f 35//19 33//19 34//19 40//19 39//19 38//19 37//19 36//19
