# Blender v2.78 (sub 0) OBJ File: 'pinetree3.blend'
# www.blender.org
g PineTree3_collider
v 0.000000 0.009393 -0.429552
v 0.000000 1.787143 -0.429552
v 0.303739 0.009393 -0.303739
v 0.303739 1.787143 -0.303739
v 0.429552 0.009393 0.000000
v 0.429552 1.787143 0.000000
v 0.303739 0.009393 0.303739
v 0.303739 1.787143 0.303739
v 0.000000 0.009393 0.429552
v 0.000000 1.787143 0.429552
v -0.303739 0.009393 0.303739
v -0.303739 1.787143 0.303739
v -0.429552 0.009393 0.000000
v -0.429552 1.787143 0.000000
v -0.303739 0.009393 -0.303739
v -0.303739 1.787143 -0.303739
v 0.000000 0.759998 -0.340331
v 0.240651 0.759998 -0.240650
v 0.340331 0.759998 0.000000
v 0.240651 0.759998 0.240650
v 0.000000 0.759998 0.340331
v -0.240650 0.759998 0.240650
v -0.340331 0.759998 0.000000
v -0.240650 0.759998 -0.240650
v 1.510784 1.787143 -1.510784
v 0.000000 1.787143 -2.136571
v 2.136571 1.787143 0.000000
v 1.510784 1.787143 1.510784
v 0.000000 1.787143 2.136571
v -1.510785 1.787143 1.510784
v -2.136570 1.787143 0.000000
v -1.510785 1.787143 -1.510784
v 0.062835 7.516971 -0.062836
v -0.000000 7.516971 -0.088863
v 0.088863 7.516971 0.000000
v 0.062835 7.516971 0.062836
v -0.000000 7.516971 0.088863
v -0.062836 7.516971 0.062836
v -0.088863 7.516971 0.000000
v -0.062836 7.516971 -0.062836
vn 0.3815 -0.0800 -0.9209
vn 0.9209 -0.0800 -0.3815
vn 0.9209 -0.0800 0.3815
vn 0.3815 -0.0800 0.9209
vn -0.3815 -0.0800 0.9209
vn -0.9209 -0.0800 0.3815
vn -0.9209 -0.0800 -0.3815
vn -0.3815 -0.0800 -0.9209
vn 0.0000 -1.0000 0.0000
vn -0.3804 0.1092 -0.9184
vn -0.9184 0.1092 -0.3804
vn -0.9184 0.1092 0.3804
vn -0.3804 0.1092 0.9184
vn 0.3804 0.1092 0.9184
vn 0.9184 0.1092 0.3804
vn 0.9184 0.1092 -0.3804
vn 0.3804 0.1092 -0.9184
vn -0.8773 0.3135 -0.3634
vn 0.0000 1.0000 0.0000
vn -0.3634 0.3135 0.8773
vn 0.8773 0.3135 0.3634
vn 0.3634 0.3135 -0.8773
vn -0.3634 0.3135 -0.8773
vn -0.8773 0.3135 0.3634
vn 0.3634 0.3135 0.8773
vn 0.8773 0.3135 -0.3634
s off
f 17//1 2//1 4//1 18//1
f 18//2 4//2 6//2 19//2
f 19//3 6//3 8//3 20//3
f 20//4 8//4 10//4 21//4
f 21//5 10//5 12//5 22//5
f 22//6 12//6 14//6 23//6
f 23//7 14//7 16//7 24//7
f 24//8 16//8 2//8 17//8
f 1//9 3//9 5//9 7//9 9//9 11//9 13//9 15//9
f 15//10 24//10 17//10 1//10
f 13//11 23//11 24//11 15//11
f 11//12 22//12 23//12 13//12
f 9//13 21//13 22//13 11//13
f 7//14 20//14 21//14 9//14
f 5//15 19//15 20//15 7//15
f 3//16 18//16 19//16 5//16
f 1//17 17//17 18//17 3//17
f 10//9 8//9 28//9 29//9
f 32//18 31//18 39//18 40//18
f 16//9 14//9 31//9 32//9
f 6//9 4//9 25//9 27//9
f 12//9 10//9 29//9 30//9
f 2//9 16//9 32//9 26//9
f 4//9 2//9 26//9 25//9
f 8//9 6//9 27//9 28//9
f 14//9 12//9 30//9 31//9
f 33//19 34//19 40//19 39//19 38//19 37//19 36//19 35//19
f 30//20 29//20 37//20 38//20
f 28//21 27//21 35//21 36//21
f 25//22 26//22 34//22 33//22
f 26//23 32//23 40//23 34//23
f 31//24 30//24 38//24 39//24
f 29//25 28//25 36//25 37//25
f 27//26 25//26 33//26 35//26
