# Blender v2.78 (sub 0) OBJ File: 'smallrock3.blend'
# www.blender.org
g SmallRock3_collider
v 0.266009 0.079184 -0.255486
v 0.523639 0.533075 -0.290252
v 0.565948 0.626158 -0.162387
v -0.352107 0.349644 -0.795340
v 0.344162 1.088353 -0.105346
v 0.105247 0.867000 -0.603290
v -0.286179 1.098982 -0.127097
v -0.423595 1.084004 -0.073956
v -0.438353 1.054094 -0.019404
v 0.308048 0.896622 0.245508
v -0.321226 0.389868 -0.841740
v -0.583210 0.530031 0.056686
v -0.092224 0.793887 0.484750
v 0.383484 0.706832 0.347376
v 0.563190 0.522712 0.016328
v 0.138101 0.642056 -0.924467
v 0.130081 0.508921 -0.948307
v 0.225135 0.500468 -0.909052
v 0.131076 0.384188 -0.913479
v 0.150299 0.315548 -0.774160
v -0.628883 0.379569 -0.669798
v -0.625833 0.325715 -0.657037
v -0.617589 0.194448 -0.309808
v -0.611746 0.173821 -0.372180
v -0.479799 0.399391 0.260745
v -0.334961 0.463117 0.390484
v 0.225981 0.479518 0.619951
v 0.227332 0.421379 0.573683
v 0.223031 0.244860 0.474314
v 0.254177 0.261635 0.469153
v 0.492890 0.277723 -0.115359
v 0.571531 0.126662 0.005987
v -0.436322 0.017417 -0.014914
v -0.416361 0.058647 0.093810
v 0.573272 -0.009025 0.005932
v 0.491322 -0.087789 -0.017595
v 0.566191 -0.092536 0.059466
v 0.279797 0.086232 0.451089
v 0.273764 0.045015 0.410763
v 0.354010 0.035831 0.324280
v 0.344162 1.088353 -0.105346
v 0.344162 1.088353 -0.105346
v 0.344162 1.088353 -0.105346
v 0.105247 0.867000 -0.603290
v 0.105247 0.867000 -0.603290
v -0.286179 1.098982 -0.127097
v -0.286179 1.098982 -0.127097
v -0.423595 1.084004 -0.073956
v -0.423595 1.084004 -0.073956
v -0.438353 1.054094 -0.019404
v -0.438353 1.054094 -0.019404
v -0.092224 0.793887 0.484750
v -0.092224 0.793887 0.484750
v -0.092224 0.793887 0.484750
v 0.308048 0.896622 0.245508
v 0.308048 0.896622 0.245508
v 0.565948 0.626158 -0.162387
v 0.565948 0.626158 -0.162387
v 0.523639 0.533075 -0.290252
v 0.523639 0.533075 -0.290252
v 0.138101 0.642056 -0.924467
v 0.138101 0.642056 -0.924467
v 0.138101 0.642056 -0.924467
v -0.352107 0.349644 -0.795340
v -0.352107 0.349644 -0.795340
v -0.321226 0.389868 -0.841740
v -0.321226 0.389868 -0.841740
v -0.583210 0.530031 0.056686
v -0.583210 0.530031 0.056686
v -0.334961 0.463117 0.390484
v -0.334961 0.463117 0.390484
v 0.383484 0.706832 0.347376
v 0.383484 0.706832 0.347376
v 0.563190 0.522712 0.016328
v 0.563190 0.522712 0.016328
v 0.225135 0.500468 -0.909052
v 0.225135 0.500468 -0.909052
v 0.225135 0.500468 -0.909052
v 0.130081 0.508921 -0.948307
v 0.130081 0.508921 -0.948307
v 0.131076 0.384188 -0.913479
v 0.131076 0.384188 -0.913479
v 0.131076 0.384188 -0.913479
v 0.150299 0.315548 -0.774160
v -0.628883 0.379569 -0.669798
v -0.628883 0.379569 -0.669798
v -0.625833 0.325715 -0.657037
v -0.625833 0.325715 -0.657037
v -0.617589 0.194448 -0.309808
v -0.611746 0.173821 -0.372180
v -0.611746 0.173821 -0.372180
v -0.479799 0.399391 0.260745
v -0.479799 0.399391 0.260745
v 0.225981 0.479518 0.619951
v 0.225981 0.479518 0.619951
v 0.225981 0.479518 0.619951
v 0.223031 0.244860 0.474314
v 0.223031 0.244860 0.474314
v 0.254177 0.261635 0.469153
v 0.254177 0.261635 0.469153
v 0.227332 0.421379 0.573683
v 0.227332 0.421379 0.573683
v 0.492890 0.277723 -0.115359
v 0.492890 0.277723 -0.115359
v 0.571531 0.126662 0.005987
v 0.571531 0.126662 0.005987
v 0.266009 0.079184 -0.255486
v 0.266009 0.079184 -0.255486
v 0.491322 -0.087789 -0.017595
v 0.491322 -0.087789 -0.017595
v -0.436322 0.017417 -0.014914
v -0.436322 0.017417 -0.014914
v -0.416361 0.058647 0.093810
v -0.416361 0.058647 0.093810
v 0.573272 -0.009025 0.005932
v 0.573272 -0.009025 0.005932
v 0.566191 -0.092536 0.059466
v 0.566191 -0.092536 0.059466
v 0.566191 -0.092536 0.059466
v 0.354010 0.035831 0.324280
v 0.354010 0.035831 0.324280
v 0.273764 0.045015 0.410763
v 0.273764 0.045015 0.410763
v 0.279797 0.086232 0.451089
v 0.279797 0.086232 0.451089
v 0.279797 0.086232 0.451089
vn 0.8457 -0.0349 0.5325
vn 0.5351 -0.6295 0.5633
vn -0.9806 0.1955 0.0110
vn -0.3551 -0.4738 0.8058
vn 0.8699 0.4133 0.2692
vn 0.7679 -0.4987 -0.4020
vn 0.7467 0.4819 -0.4584
vn 0.9459 -0.1219 -0.3008
vn 0.3215 0.5967 0.7352
vn 0.0223 0.8912 0.4531
vn 0.3885 0.1397 -0.9108
vn 0.3506 -0.2492 -0.9027
vn -0.1161 -0.9557 0.2703
vn 0.0297 0.9080 -0.4179
vn -0.7134 0.3158 0.6256
vn -0.3952 0.6717 -0.6265
vn -0.4147 -0.3933 -0.8206
vn -0.8944 -0.3217 0.3105
vn -0.0619 -0.9035 -0.4241
vn 0.3809 -0.4606 0.8017
vn 0.6011 -0.2260 -0.7665
vn -0.2109 -0.1653 -0.9634
vn 0.9885 0.0126 0.1504
vn 0.2003 -0.0714 0.9771
vn -0.3789 0.0144 0.9253
s 1
f 117//1 105//1 74//1 73//1 94//1 101//1 100//1 125//1 120//1
f 121//2 126//2 123//2
f 50//3 49//3 86//3 87//3 90//3 89//3 68//3
f 98//4 102//4 95//4 71//4 92//4 113//4 122//4 124//4
f 43//5 55//5 72//5 75//5 57//5
f 84//6 82//6 77//6 60//6 103//6 107//6
f 41//7 58//7 59//7 78//7 61//7 44//7
f 106//8 115//8 104//8 2//8 3//8 15//8
f 53//9 96//9 14//9 56//9
f 51//10 52//10 10//10 42//10 47//10 48//10
f 76//11 79//11 63//11
f 18//12 83//12 80//12
f 109//13 119//13 40//13 39//13 114//13 111//13
f 45//14 46//14 5//14
f 9//15 69//15 93//15 70//15 54//15
f 8//16 7//16 6//16 62//16 67//16 85//16
f 88//17 21//17 66//17 64//17
f 112//18 34//18 25//18 12//18 23//18 91//18
f 110//19 33//19 24//19 22//19 65//19 81//19 20//19 108//19
f 97//20 99//20 28//20
f 36//21 1//21 31//21 116//21 118//21
f 16//22 17//22 19//22 4//22 11//22
f 32//23 37//23 35//23
f 38//24 30//24 29//24
f 26//25 27//25 13//25
