# Blender v2.78 (sub 0) OBJ File: 'treegreen2.blend'
# www.blender.org
g TreeGreen2_collider
v 0.761863 0.012666 -0.627834
v -0.794427 0.012011 0.813602
v -0.497676 2.012011 0.509688
v -0.171153 4.447346 -0.374997
v -0.872831 4.191705 -0.379888
v -0.871008 4.191758 0.376207
v 0.055035 3.611757 0.424333
v -0.744376 3.445363 0.424333
v 1.975866 5.892524 0.654196
v 1.974760 5.891688 1.231777
v 2.315135 5.330942 0.621396
v 3.426277 9.054872 1.724225
v 3.671813 8.927039 1.735703
v -3.400937 5.260437 -0.467978
v -3.617925 4.665517 -1.144478
v -5.423116 7.550863 -0.787767
v -5.659515 7.356019 -0.616673
v -5.659516 7.356017 -0.956450
v 0.171470 5.586219 -2.573516
v 0.050939 5.077414 -2.820480
v 0.166037 8.451081 -4.513950
v 0.225274 8.299131 -4.729355
v 0.054342 5.685047 -3.196146
v 0.542829 5.775929 -3.153974
v 0.401991 6.219629 -2.918587
v -0.024152 6.081425 -2.982717
v 1.950522 5.866981 -2.447320
v 1.900718 6.019618 -2.684988
v 1.831230 6.238534 -2.568851
v 3.827388 8.167391 -2.028387
v -3.673622 5.580656 -0.485017
v -3.722768 4.760318 -0.470568
v -3.412922 5.279246 -1.099572
v -3.592115 6.512996 1.323824
v -3.613807 6.099247 1.316179
v -3.739382 6.255965 1.254306
v -4.060414 8.037334 2.963911
v 0.491909 4.893827 0.644288
v 0.756498 4.145338 0.685408
v -0.508259 4.627858 2.196568
v -0.615373 4.976860 2.027787
v -0.182261 4.903464 2.212543
v -0.305226 5.216851 2.060375
v -1.660800 7.467960 4.469507
v -1.584898 5.757216 -3.090624
v -1.447409 5.897507 -3.289726
v -1.437645 6.091038 -3.187375
v -3.263228 6.996179 -4.695240
v 0.702264 0.762121 -0.647163
v 0.688362 0.726852 0.704977
v -0.688362 0.726852 -0.704977
v 0.497888 2.010890 0.510012
v -0.497681 2.012189 -0.509449
v -0.178589 4.443146 0.379841
v -0.749530 3.447677 -0.428785
v 2.314959 5.330712 1.268094
v -0.688362 0.726852 -0.000000
v -2.639006 -0.161695 -0.206259
v -2.948943 -0.126649 -0.530214
v -2.734285 0.154300 -0.206259
v -3.933521 -1.036036 -0.377784
v 0.010176 0.022475 -0.852305
v 0.000000 0.012011 0.813602
v 0.058272 3.615241 -0.429763
v -0.517683 4.320563 0.379913
v 0.583319 5.175447 -2.778580
v 0.000000 0.726852 -0.704977
v -0.000000 0.726852 0.704977
v -0.794426 0.012014 -0.001746
v 1.275315 0.008882 -2.390959
v 1.186869 0.321876 -2.591031
v 0.902268 0.008882 -2.390959
v 2.650680 -0.113416 -3.876278
v 0.965178 -0.008602 3.120115
v 0.932734 0.330221 3.190285
v 0.588854 0.016213 3.097865
v 0.606654 0.351723 3.171006
v 0.640216 -0.677857 4.731419
vn -0.9892 0.1467 -0.0000
vn 0.0000 0.2047 -0.9788
vn -0.0172 0.0487 0.9987
vn 0.6052 -0.7961 -0.0001
vn 0.2707 0.2183 -0.9376
vn -0.9088 0.4172 -0.0011
vn -0.2929 0.5354 0.7922
vn -0.2933 0.5375 0.7906
vn -0.1651 0.4208 -0.8920
vn 0.7224 -0.5030 -0.4744
vn 0.7245 0.5988 -0.3413
vn -0.7856 -0.4712 0.4010
vn 0.9453 -0.0555 0.3215
vn 0.3704 -0.4841 0.7927
vn 0.9025 0.4132 0.1217
vn 0.6921 0.3099 -0.6519
vn -0.2956 -0.3596 0.8851
vn -0.4424 0.4242 0.7902
vn -0.5581 0.8298 -0.0009
vn 0.6056 -0.7957 -0.0010
vn 0.7483 0.6633 -0.0079
vn -0.6360 0.7717 -0.0000
vn -0.4038 -0.9125 0.0655
vn -0.1125 0.0953 -0.9891
vn -0.6829 0.7117 -0.1648
vn 0.5131 -0.6495 -0.5611
vn -0.3166 0.8615 0.3969
vn 0.0000 0.1501 0.9887
vn -0.0319 0.0589 0.9978
vn 0.0003 -1.0000 -0.0003
vn -0.0301 0.9732 -0.2279
vn 0.6421 0.5334 0.5506
vn -0.9979 0.0422 0.0493
vn -0.0376 -0.9201 -0.3898
vn 0.0000 -1.0000 -0.0000
vn -0.0173 0.0486 0.9987
vn 0.2759 0.0497 -0.9599
vn -0.5583 0.8296 0.0001
vn -0.9413 0.0756 -0.3289
vn -0.0355 0.0619 -0.9974
vn -0.9852 -0.1712 0.0025
vn 0.2200 0.2161 -0.9513
vn 0.9718 0.2248 -0.0709
vn -0.3044 -0.0845 0.9488
vn -0.1643 -0.0715 0.9838
vn 0.9356 -0.3530 0.0001
vn 0.0764 0.1584 0.9844
vn -0.2696 0.0773 0.9599
vn 0.3891 0.9212 0.0086
vn 0.1168 0.1935 -0.9741
vn -0.4039 -0.9148 -0.0000
vn 0.1819 -0.8386 -0.5135
vn -0.7998 -0.5990 -0.0402
vn 0.1673 -0.5069 -0.8456
vn 0.8528 0.3612 0.3771
vn 0.9659 0.2117 0.1489
vn -0.9719 -0.0680 -0.2252
vn -0.0777 -0.5983 -0.7975
vn -0.1717 0.4304 0.8861
vn 0.1649 -0.5171 -0.8399
vn -0.0146 0.4682 -0.8835
vn 0.4033 -0.5481 -0.7327
vn 0.0061 -0.4418 0.8971
vn 0.1984 0.5077 -0.8383
vn 0.9008 -0.3416 0.2681
vn -0.4031 0.1650 0.9001
vn -0.9770 0.1836 -0.1082
vn -0.5824 0.5058 -0.6364
vn 0.4083 -0.7134 0.5695
vn -0.7918 -0.4911 0.3631
vn 0.8517 0.3771 0.3638
vn 0.3403 0.1549 -0.9275
vn -0.5583 0.8296 0.0018
vn -0.9441 -0.2980 -0.1410
vn -0.4426 0.8014 -0.4023
vn 0.1254 0.4795 -0.8685
vn -0.3635 0.5698 -0.7370
vn -0.9431 -0.3246 -0.0726
vn -0.1638 0.5069 0.8463
vn 0.0368 0.1642 -0.9857
vn -0.0314 -0.8067 -0.5901
vn 0.0668 -0.9977 -0.0105
vn -0.3424 0.9396 0.0007
vn -0.0000 0.1502 0.9887
vn 0.9894 0.1434 -0.0223
vn 0.9928 0.0812 0.0877
vn -0.9892 0.1468 -0.0000
vn 0.7612 0.6485 0.0049
vn -0.7966 -0.6045 0.0000
vn 0.6056 -0.7958 -0.0009
vn 0.9637 0.2669 0.0047
vn -0.1049 -0.0006 0.9945
vn -0.1094 -0.0330 0.9935
vn -0.3073 0.9323 -0.1905
vn 0.0181 0.9884 0.1509
vn -0.0001 0.1502 0.9887
vn -0.0073 -0.9998 -0.0192
vn -0.3400 0.9404 0.0019
vn -0.0041 0.0561 0.9984
vn -0.0090 -1.0000 0.0014
vn 0.9548 0.1816 0.2353
vn -0.8275 0.1959 -0.5262
vn -0.9690 0.0247 0.2458
vn -0.6406 0.0954 -0.7619
vn 0.0000 -0.9966 0.0821
vn -0.0213 -0.9998 -0.0000
vn 0.9825 0.1770 -0.0587
vn 0.0225 0.8347 0.5503
vn 0.9750 0.0485 0.2168
s off
f 57//1 53//1 51//1
f 62//2 51//2 67//2
f 52//3 7//3 65//3
f 64//4 11//4 56//4
f 9//5 11//5 64//5
f 10//6 12//6 9//6
f 25//7 21//7 26//7
f 19//8 25//8 26//8
f 29//9 30//9 28//9
f 28//10 30//10 27//10
f 31//11 34//11 14//11
f 32//12 35//12 36//12
f 34//13 37//13 35//13
f 42//14 44//14 40//14
f 43//15 44//15 42//15
f 46//16 48//16 47//16
f 19//17 45//17 20//17
f 47//18 48//18 45//18
f 54//19 9//19 4//19
f 7//20 64//20 39//20
f 33//21 16//21 31//21
f 17//22 16//22 18//22
f 55//23 32//23 15//23
f 62//24 59//24 51//24
f 59//25 61//25 60//25
f 58//26 61//26 59//26
f 4//27 19//27 5//27
f 52//28 68//28 50//28
f 65//29 6//29 8//29
f 1//30 63//30 69//30
f 49//31 71//31 67//31
f 70//32 73//32 71//32
f 76//33 78//33 77//33
f 74//34 78//34 76//34
f 69//35 63//35 2//35
f 7//36 54//36 65//36
f 15//37 33//37 5//37 55//37
f 38//38 10//38 9//38
f 20//39 55//39 5//39 19//39
f 64//40 49//40 53//40 55//40
f 8//41 55//41 53//41 3//41
f 13//42 11//42 9//42 12//42
f 52//43 49//43 64//43
f 56//44 10//44 38//44 39//44
f 13//45 12//45 10//45 56//45
f 56//46 11//46 13//46
f 17//47 32//47 31//47 16//47
f 32//48 8//48 6//48 14//48
f 14//49 6//49 5//49 33//49
f 18//50 16//50 33//50 15//50
f 55//51 8//51 32//51
f 20//52 66//52 64//52 55//52
f 15//53 32//53 17//53
f 24//54 23//54 22//54
f 66//55 19//55 4//55 64//55
f 22//56 21//56 25//56 24//56
f 22//57 23//57 26//57 21//57
f 45//58 46//58 23//58 20//58
f 29//59 25//59 19//59 27//59
f 23//60 24//60 66//60 20//60
f 24//61 23//61 26//61 25//61
f 27//62 66//62 24//62 28//62
f 19//63 66//63 27//63
f 29//64 28//64 24//64 25//64
f 35//65 32//65 14//65 34//65
f 29//66 27//66 30//66
f 36//67 34//67 31//67 32//67
f 34//68 36//68 37//68
f 40//69 7//69 39//69 42//69
f 36//70 35//70 37//70
f 42//71 39//71 38//71 43//71
f 4//72 9//72 64//72
f 54//73 38//73 9//73
f 40//74 41//74 54//74 7//74
f 41//75 43//75 38//75 54//75
f 46//76 47//76 26//76 23//76
f 43//77 41//77 44//77
f 41//78 40//78 44//78
f 45//79 19//79 26//79 47//79
f 53//80 49//80 67//80 51//80
f 46//81 45//81 48//81
f 59//82 62//82 69//82 58//82
f 6//83 65//83 4//83 5//83
f 63//84 68//84 2//84
f 1//85 52//85 50//85
f 49//86 52//86 1//86
f 2//87 57//87 69//87
f 14//88 33//88 31//88
f 15//89 17//89 18//89
f 39//90 64//90 56//90
f 52//91 64//91 7//91
f 57//87 2//87 3//87 53//87
f 60//92 58//92 69//92 57//92
f 58//93 60//93 61//93
f 60//94 57//94 51//94 59//94
f 77//95 75//95 50//95 68//95
f 3//96 2//96 68//96 52//96
f 1//97 69//97 62//97
f 4//98 65//98 54//98
f 65//99 8//99 3//99 52//99
f 72//100 70//100 1//100 62//100
f 71//101 49//101 1//101 70//101
f 71//102 72//102 62//102 67//102
f 77//103 68//103 63//103 76//103
f 72//104 71//104 73//104
f 70//105 72//105 73//105
f 76//106 63//106 1//106 74//106
f 75//107 74//107 1//107 50//107
f 75//108 77//108 78//108
f 74//109 75//109 78//109
