# Blender v2.78 (sub 0) OBJ File: 'treegreen3.blend'
# www.blender.org
g TreeGreen3_collider
v 0.691502 -0.002844 -0.716598
v 0.691502 -0.002844 0.716598
v -0.691502 -0.002844 0.716597
v -0.691501 -0.002844 -0.716598
v 1.094138 3.133117 -0.481940
v 1.094137 3.133117 0.481941
v 0.164013 3.133117 0.481940
v 0.164013 3.133117 -0.481940
v -0.064268 9.029680 -0.292021
v -0.064268 9.029680 0.292021
v -0.627857 9.029680 -0.292021
v -0.627857 9.029680 0.292021
v 0.229926 13.180861 -0.238270
v 0.229925 13.180861 0.238270
v -0.229926 13.180861 -0.238270
v -0.229926 13.180861 0.238270
v -0.511895 8.166182 0.319833
v -0.511895 8.166182 -0.319833
v 0.105370 8.166182 -0.319833
v 0.105370 8.166182 0.319833
v 2.573763 9.370712 -1.671032
v 2.573763 9.370712 -1.317815
v 2.676357 8.848486 -1.300995
v 2.676357 8.848486 -1.687852
v 4.302540 11.401964 -1.646364
v 4.302540 11.401964 -1.342479
v 4.609884 11.062567 -1.328008
v 4.609884 11.062567 -1.660835
v 7.223186 12.315387 -1.593549
v 7.223186 12.315387 -1.395294
v 7.255759 12.018449 -1.385853
v 7.255759 12.018449 -1.602990
v -0.395130 7.296710 -0.347837
v 0.276182 7.296710 -0.347837
v -0.395130 7.296710 0.347837
v 0.276181 7.296710 0.347838
v -2.769578 8.540660 1.009196
v -2.677104 8.899041 0.997381
v -2.677104 8.899041 0.727508
v -2.769578 8.540660 0.715693
v -4.475169 10.513751 0.960504
v -4.301152 10.689492 0.952609
v -4.301152 10.689492 0.772277
v -4.475169 10.513751 0.764382
v -0.253278 7.611119 2.842888
v -0.307246 8.012980 2.829944
v 0.056996 7.611119 2.842888
v -0.021951 8.012980 2.829945
v -0.216862 9.222684 5.399968
v -0.254708 9.461465 5.250024
v 0.000722 9.222684 5.399968
v -0.054641 9.461465 5.250024
v -0.177076 10.917480 6.060278
v -0.197308 10.990543 5.928432
v -0.060753 10.917480 6.060278
v -0.090351 10.990543 5.928432
v -0.178071 10.326101 -3.297354
v -0.436810 10.326101 -3.297354
v -0.383573 9.944685 -3.406156
v -0.100192 9.944685 -3.406156
v -0.209718 10.403902 -6.741326
v -0.383685 10.403902 -6.741326
v -0.347890 10.138786 -6.712484
v -0.157354 10.138786 -6.712484
v -0.105330 9.962132 -3.703354
v -0.180916 10.333095 -3.606925
v -0.432035 10.333095 -3.606925
v -0.380365 9.962132 -3.703354
v -0.232279 11.944551 -3.325927
v -0.382196 11.944551 -3.325927
v -0.233928 11.948603 -3.505296
v -0.379429 11.948603 -3.505296
v -0.264225 13.130197 -4.278540
v -0.349882 13.130197 -4.278540
v -0.265166 13.049422 -4.341660
v -0.348302 13.049422 -4.341660
vn 0.0000 -1.0000 0.0000
vn -0.9911 -0.1331 -0.0000
vn 0.9919 -0.1273 0.0000
vn -0.0000 0.0746 0.9972
vn -0.9647 0.2632 -0.0000
vn 0.0000 0.0746 -0.9972
vn -0.0000 0.0129 0.9999
vn -0.9861 -0.1216 -0.1131
vn -0.0000 0.0322 0.9995
vn -0.1282 0.9917 -0.0000
vn 0.0000 1.0000 -0.0000
vn 0.9975 -0.0707 0.0000
vn -0.9954 0.0954 -0.0000
vn 0.0000 0.0129 -0.9999
vn 0.9812 0.1928 0.0000
vn -0.0000 0.9981 0.0609
vn 0.0000 0.0322 -0.9995
vn -0.4641 -0.8858 0.0000
vn -0.0180 0.0277 -0.9995
vn 0.2565 -0.9665 0.0000
vn 0.5047 0.1267 0.8539
vn -0.4562 -0.0610 -0.8878
vn -0.2985 0.9544 0.0000
vn -0.7615 0.6481 -0.0000
vn 0.7532 -0.6578 0.0000
vn -0.0180 0.0277 0.9995
vn 0.9940 0.1090 0.0000
vn 0.3398 -0.9405 0.0000
vn 0.0062 0.0408 0.9991
vn 0.0062 0.0408 -0.9991
vn -0.7565 -0.6540 0.0000
vn -0.4139 0.0213 -0.9101
vn 0.2974 0.0368 0.9540
vn 0.3206 0.9472 0.0000
vn -0.7106 0.7036 0.0000
vn 0.7407 0.6718 0.0000
vn 0.0087 0.0325 -0.9994
vn 0.0087 0.0325 0.9994
vn 0.0000 0.8580 -0.5136
vn -0.0000 -0.9922 0.1250
vn 0.9790 0.1943 0.0615
vn -0.9888 -0.1304 0.0727
vn 0.0000 -0.3630 0.9318
vn -0.9888 -0.1187 0.0906
vn 0.0000 -0.8460 0.5332
vn 0.9789 0.1813 -0.0940
vn 0.0000 0.8747 0.4847
vn 0.9782 0.1041 -0.1797
vn 0.0000 0.4055 -0.9141
vn -0.9861 -0.0375 0.1618
vn 0.9802 0.1977 -0.0049
vn 0.0000 -0.8664 -0.4993
vn 0.9808 0.1901 0.0445
vn 0.0000 0.9182 0.3961
vn 0.0000 -0.1082 -0.9941
vn 0.0000 0.9997 0.0226
vn 0.0000 -0.9983 -0.0586
vn -0.9908 -0.1343 -0.0184
vn -0.9909 -0.1331 -0.0184
vn 0.9994 0.0333 -0.0084
vn 0.9796 0.2011 -0.0048
vn 0.0000 0.6263 0.7796
vn 0.0000 0.0177 0.9998
vn 0.0000 0.0628 -0.9980
vn -0.9993 0.0335 -0.0147
vn 0.0000 0.6157 -0.7880
vn 0.0000 -0.6050 -0.7963
vn 0.9998 0.0154 -0.0156
vn -0.9997 0.0110 -0.0214
s off
f 1//1 2//1 3//1 4//1
f 18//2 17//2 12//2 11//2
f 1//3 5//3 6//3 2//3
f 2//4 6//4 7//4 3//4
f 3//5 7//5 8//5 4//5
f 5//6 1//6 4//6 8//6
f 12//7 10//7 14//7 16//7
f 18//8 11//8 58//8 59//8
f 17//9 20//9 10//9 12//9
f 9//10 10//10 22//10 21//10
f 13//11 15//11 16//11 14//11
f 10//12 9//12 13//12 14//12
f 11//13 12//13 16//13 15//13
f 9//14 11//14 15//14 13//14
f 36//15 34//15 19//15 20//15
f 20//16 17//16 46//16 48//16
f 34//17 33//17 18//17 19//17
f 33//18 35//18 37//18 40//18
f 24//19 21//19 25//19 28//19
f 20//20 19//20 24//20 23//20
f 10//21 20//21 23//21 22//21
f 19//22 9//22 21//22 24//22
f 25//23 26//23 30//23 29//23
f 21//24 22//24 26//24 25//24
f 23//25 24//25 28//25 27//25
f 22//26 23//26 27//26 26//26
f 31//27 32//27 29//27 30//27
f 27//28 28//28 32//28 31//28
f 26//29 27//29 31//29 30//29
f 28//30 25//30 29//30 32//30
f 8//2 7//2 35//2 33//2
f 5//17 8//17 33//17 34//17
f 7//9 6//9 36//9 35//9
f 6//15 5//15 34//15 36//15
f 40//31 37//31 41//31 44//31
f 18//32 33//32 40//32 39//32
f 35//33 17//33 38//33 37//33
f 17//34 18//34 39//34 38//34
f 44//35 41//35 42//35 43//35
f 38//36 39//36 43//36 42//36
f 39//37 40//37 44//37 43//37
f 37//38 38//38 42//38 41//38
f 48//39 46//39 50//39 52//39
f 35//40 36//40 47//40 45//40
f 36//41 20//41 48//41 47//41
f 17//42 35//42 45//42 46//42
f 49//43 51//43 55//43 53//43
f 46//44 45//44 49//44 50//44
f 45//45 47//45 51//45 49//45
f 47//46 48//46 52//46 51//46
f 53//47 55//47 56//47 54//47
f 51//48 52//48 56//48 55//48
f 52//49 50//49 54//49 56//49
f 50//50 49//50 53//50 54//50
f 66//51 65//51 64//51 61//51
f 19//52 18//52 59//52 60//52
f 9//53 19//53 60//53 57//53
f 11//54 9//54 57//54 58//54
f 64//55 63//55 62//55 61//55
f 67//56 66//56 61//56 62//56
f 65//57 68//57 63//57 64//57
f 68//58 67//58 62//58 63//58
f 59//59 58//59 67//59 68//59
f 60//57 59//57 68//57 65//57
f 57//60 66//60 71//60 69//60
f 57//61 60//61 65//61 66//61
f 70//62 69//62 73//62 74//62
f 58//63 57//63 69//63 70//63
f 66//64 67//64 72//64 71//64
f 67//65 58//65 70//65 72//65
f 74//66 73//66 75//66 76//66
f 71//67 72//67 76//67 75//67
f 69//68 71//68 75//68 73//68
f 72//69 70//69 74//69 76//69
